<?xml version="1.0" encoding="UTF-8" standalone="no"?>
<!-- Created with Inkscape (http://www.inkscape.org/) -->

<svg
   version="1.1"
   id="svg11363"
   viewBox="0 0 600 600"
   xmlns="http://www.w3.org/2000/svg"
   xmlns:svg="http://www.w3.org/2000/svg">
    <path
       fill="#ffffff"
       d="M 148.41719,416.37321 C 87.962736,354.97848 38.11432,303.94962 37.642934,302.97574 c -0.476089,-0.98359 -0.476089,-2.42415 0,-3.24075 C 39.809483,296.01886 259.96681,75.861456 260.92451,76.453343 261.68455,76.923074 262,123.83524 262,236.39405 262,431.00505 261.16945,528 259.50302,528 258.86027,528 208.87165,477.76795 148.41719,416.37321 Z M 351.66192,527.25 c -0.25087,-0.4125 -0.61319,-101.64174 -0.80516,-224.95387 -0.25266,-162.303 -0.045,-224.507909 0.75223,-225.305117 C 353.13337,75.46663 575,298.3985 575,301.45458 c 0,1.44439 -24.68406,27.20454 -78.64666,82.07525 C 383.16752,498.6204 354.01706,528 353.00995,528 c -0.49055,0 -1.09717,-0.3375 -1.34803,-0.75 z"
       id="path11490" />
</svg>
