<?xml version="1.0" encoding="UTF-8" standalone="no"?>
<!-- Created with Inkscape (http://www.inkscape.org/) -->

<svg
   version="1.1"
   id="svg12239"
   viewBox="0 0 600 600"
   xmlns="http://www.w3.org/2000/svg"
   fill="#ffffff"
   xmlns:svg="http://www.w3.org/2000/svg">
    <path
       d="M 159.2952,440.54565 C 58.631269,339.87584 20.937773,301.57653 21.174467,300.20502 21.875638,296.14214 292.60874,24.744511 299.07821,21.619146 300.60434,20.881882 315.29546,35.024935 389.20079,108.37963 490.67883,209.10161 578.37482,298.06568 578.77448,300.69455 579.22211,303.6389 302.60327,579 299.19784,579 298.39683,579 235.44065,516.69554 159.2952,440.54565 Z M 438.33526,353.33464 C 438.70087,306.21869 439,243.89369 439,214.83464 V 162 l -120,-0.2375 c -66,-0.13063 -128.4375,-0.24313 -138.75,-0.25 L 161.5,161.5 l -0.31979,27 c -0.17588,14.85 -0.008,77.06068 0.37218,138.24596 l 0.69197,111.24597 119.62782,0.25812 c 65.7953,0.14197 127.76619,0.36878 137.71308,0.50404 L 437.67053,439 Z M 204,406.02146 c -1.31401,-0.83037 -1.53698,-13.52465 -1.79826,-102.37817 l -0.29825,-101.43026 96.29825,0.47052 c 52.96404,0.25879 96.86076,0.64674 97.54826,0.8621 1.78794,0.5601 1.83736,200.46699 0.05,202.25435 -1.51217,1.51217 -189.41423,1.72913 -191.8,0.22146 z M 350,305 V 250 H 299.5 249 v 54.33333 c 0,29.88334 0.3,54.63334 0.66667,55 C 250.03333,359.7 272.75833,360 300.16667,360 H 350 Z"
       id="path13628" />
</svg>
