<?xml version="1.0" encoding="UTF-8" standalone="no"?>
<!-- Created with Inkscape (http://www.inkscape.org/) -->

<svg
   version="1.1"
   id="svg12239"
   viewBox="0 0 128 128"
   xmlns="http://www.w3.org/2000/svg"
   fill="#ffffff"
   xmlns:svg="http://www.w3.org/2000/svg">
    <path
       d="m 31.200086,115.47494 -2.198445,-4.52507 2.249179,-0.88935 c 1.237049,-0.48915 6.502638,-2.89416 11.701309,-5.34448 l 9.452129,-4.45512 -9.442635,-4.380462 C 3.0077969,77.345797 2.2948576,76.926765 4.5719456,73.316831 7.2307486,69.101753 7.8917666,69.291953 35.933192,82.340695 50.895688,89.303313 63.5651,95 64.087443,95 c 0.522342,0 13.082975,-5.657984 27.912516,-12.573297 18.689801,-8.715429 27.581461,-12.376942 28.979101,-11.93335 2.57866,0.818436 3.76002,5.198959 1.90059,7.047451 -0.75881,0.754343 -11.41897,6.068079 -23.689255,11.808303 -12.270283,5.740224 -22.492693,10.619857 -22.716466,10.843633 -0.223773,0.22377 4.41555,2.57666 10.309606,5.22865 5.894056,2.65198 11.031985,5.10509 11.417621,5.45135 0.385636,0.34627 -0.169487,2.57422 -1.233608,4.95101 -2.335724,5.217 -1.475817,5.37493 -19.696588,-3.61732 l -13.229041,-6.52875 -14.490678,7.16116 C 41.581368,116.77748 34.686606,120 34.229547,120 c -0.457059,0 -1.820316,-2.03628 -3.029461,-4.52506 z M 47.923077,84.076923 C 46.315385,82.469231 45,80.084231 45,78.776923 45,75.792015 43.257761,74 40.355764,74 39.121434,74 36.88204,72.94244 35.379333,71.649866 l -2.732194,-2.350135 -3.463116,2.350135 c -4.016139,2.725425 -6.189002,2.91604 -10.112502,0.887119 C 15.687476,70.787027 15,69.248787 15,63.426878 15,53.765735 19.116784,19.672675 20.650865,16.629364 22.896829,12.173817 26.868412,8.1576418 31.5,5.6584172 35.330893,3.5912508 36.704887,3.5 64,3.5 91.510893,3.5 92.643769,3.57689 96.642554,5.7155088 102.81071,9.014343 107.72421,15.2855 108.91602,21.380274 c 1.30172,6.656836 4.08984,35.595325 4.08654,42.415181 -0.002,4.286965 -0.47001,5.762908 -2.45711,7.75 -3.15858,3.158582 -7.21258,3.151234 -11.512122,-0.02087 l -3.355232,-2.475411 -2.475412,2.475411 C 91.841208,72.886065 89.859053,74 88.797895,74 85.437004,74 83,75.938587 83,78.612107 c 0,1.475957 -1.225681,3.76742 -2.923077,5.464816 L 77.153846,87 H 64 50.846154 Z M 63.8,72.8 c 0.933333,-0.933333 1.2,-0.933333 1.2,0 0,1.7385 4.679863,1.476647 5.361626,-0.3 C 71.520021,69.481271 66.996944,62 64.013465,62 61.727026,62 58,67.806122 58,71.368034 58,73.447767 58.482581,74 60.3,74 c 1.265,0 2.84,-0.54 3.5,-1.2 z M 54.035173,54.481811 c 3.61172,-1.867693 4.819524,-5.868367 2.837655,-9.399315 -3.088068,-5.501777 -10.440798,-4.953935 -12.890622,0.960463 -1.332288,3.216428 -0.282688,5.93274 3.248037,8.405756 2.737409,1.917356 3.157225,1.919398 6.80493,0.0331 z m 28.143841,-1.506979 c 2.424955,-2.424955 2.897249,-3.565793 2.380436,-5.75 C 83.747316,43.792509 80.510301,41 77.343761,41 74.652458,41 70,45.059308 70,47.407492 c 0,4.121551 3.856876,8.322334 7.826923,8.524828 0.729808,0.03722 2.688249,-1.293646 4.352091,-2.957488 z M 43.418213,35.393011 C 44.485774,34.983349 45,33.520438 45,30.893011 45,27.137404 45.119211,27 48.377555,27 52.153287,27 54.354452,25.087263 53.410264,22.626748 52.983904,21.515671 51.570183,21 48.950509,21 45.153042,21 45.111945,20.957842 44.807498,16.75 44.533668,12.965333 44.226275,12.5 42,12.5 c -2.226275,0 -2.533668,0.465333 -2.807498,4.25 C 38.887347,20.967628 38.855424,21 35.001519,21 30.702555,21 29.555016,22.022618 30.50284,25.008949 30.9927,26.552362 32.018925,27 35.067388,27 38.974823,27 39,27.025075 39,30.916667 c 0,2.19766 0.548619,4.138039 1.25,4.421052 0.6875,0.277413 1.325696,0.539913 1.418213,0.583334 0.09252,0.04342 0.880016,-0.194198 1.75,-0.528042 z m 44.476595,-0.766263 c 2.337141,-2.816083 -1.705473,-6.858697 -4.521556,-4.521556 -1.444973,1.19922 -1.836742,4.097985 -0.706585,5.228141 1.130156,1.130157 4.028921,0.738388 5.228141,-0.706585 z m -9.466237,-8.198177 c 1.973172,-1.973171 1.973543,-2.883599 0.002,-4.85516 C 76.458127,19.600984 73,21.136976 73,23.985494 c 0,1.477147 2.060254,3.708516 3.678571,3.984097 0.09821,0.01672 0.885715,-0.676734 1.75,-1.54102 z m 18.586996,-0.947329 c 1.878563,-2.26353 -1.477001,-5.839841 -4.141434,-4.41388 -1.839983,0.984729 -2.520566,3.952872 -1.207466,5.265971 1.173147,1.173148 4.048211,0.715144 5.3489,-0.852091 z m -9.586996,-8.052671 c 1.973172,-1.973171 1.973543,-2.883599 0.002,-4.85516 -1.184682,-1.184682 -2.042738,-1.316147 -3.5,-0.536245 C 81.753831,13.202113 81.399239,15.999239 83.2,17.8 c 1.581457,1.581457 2.342538,1.514605 4.228571,-0.371429 z"
       id="path14141" />
</svg>
