<?xml version="1.0" encoding="UTF-8" standalone="no"?>
<!-- Created with Inkscape (http://www.inkscape.org/) -->

<svg
   version="1.1"
   id="svg6781"
   viewBox="0 0 1024 1024"
   fill="#ffffff"
   xmlns="http://www.w3.org/2000/svg"
   xmlns:svg="http://www.w3.org/2000/svg">
    <path
       style="fill:#ffffff;fill-opacity:1"
       d="M 619,984.40833 C 564.05408,981.3871 523.13243,975.62991 484,965.41545 413.7656,947.08266 365.08125,919.27378 342.45686,884.56489 334.87385,872.93152 331.38368,864.64961 327.46909,849 325.61181,841.575 299.91317,743.475 270.36102,631 L 216.62983,426.5 216.56491,416 c -0.059,-9.54313 0.18983,-11.01873 2.73037,-16.19221 6.01392,-12.24651 16.79026,-20.48411 29.97526,-22.91354 16.4441,-3.02995 34.51987,5.88234 42.03425,20.72506 1.49386,2.95073 20.16818,72.4989 47.22557,175.88069 24.61505,94.05 44.87757,171.14955 45.02781,171.33234 0.15025,0.18279 4.6285,-2.2309 9.95167,-5.36375 45.11203,-26.54985 110.84524,-44.49812 190.99016,-52.14934 23.50654,-2.2441 104.76211,-2.60031 125.90783,-0.55195 7.09931,0.6877 13.07765,1.08055 13.2852,0.873 C 723.90058,687.43275 642.49206,618.39066 542.7852,534.21343 443.07834,450.0362 360.50955,379.66454 359.29899,377.83196 353.82393,369.54362 352.5,365.00031 352.5,354.5 c 0,-9.17151 0.26455,-10.55846 3.19313,-16.74075 9.76659,-20.61741 33.66976,-29.15522 53.90629,-19.25441 3.02274,1.47889 20.06121,15.09709 41.0348,32.79754 19.72618,16.64772 132.52101,111.83841 250.65519,211.53487 118.13418,99.69646 218.48418,184.02122 223,187.38836 18.43369,13.74471 34.5254,32.26532 41.607,47.88719 6.34042,13.98684 7.60564,20.06013 7.58038,36.3872 -0.0279,18.04872 -1.23088,23.27378 -8.97881,39 -13.82198,28.0549 -41.41607,51.37082 -82.24369,69.49265 -46.98126,20.8532 -103.17499,33.85243 -171.08266,39.57635 -16.61761,1.40069 -77.90603,2.62374 -92.17163,1.83933 z m 54.40817,-80.40839 c 96.96639,-3.76572 177.9421,-25.50671 211.8191,-56.87084 11.8972,-11.01471 11.61025,-13.77474 -2.71024,-26.06802 -16.12425,-13.8417 -31.94183,-22.16192 -59.7515,-31.42994 C 735.4658,760.5371 604.76065,757.01375 507.5,781.1327 c -47.12993,11.6874 -87.09468,31.20888 -98.17786,47.95669 -3.50712,5.29963 -2.52577,8.79721 4.54966,16.21506 29.44119,30.866 116.1887,55.07446 210.1282,58.64006 10.725,0.40709 20.625,0.80374 22,0.88145 1.375,0.0777 13.70868,-0.294 27.40817,-0.82602 z M 186,365.67942 c -27.82921,-6.25713 -40.87675,-37.45448 -25.55257,-61.09752 4.9212,-7.59271 8.30779,-10.28473 21.36572,-16.98374 l 11.88673,-6.09816 -23.32866,-51 c -12.83076,-28.05 -24.04998,-53.37908 -24.93161,-56.28685 -1.94547,-6.41655 -1.27002,-11.77748 2.32682,-18.46748 1.40588,-2.61488 4.00135,-5.85665 5.76773,-7.20392 1.76637,-1.34728 20.70629,-10.44839 42.08871,-20.22468 37.74893,-17.25925 39.06576,-17.77461 45.37713,-17.75909 7.70262,0.019 12.88717,2.34882 18.06821,8.1196 2.42073,2.69627 10.33024,18.99521 26.84675,55.32242 12.87823,28.325 23.50388,51.62565 23.61255,51.77922 0.10867,0.15357 5.32194,-2.21822 11.58504,-5.27064 13.27812,-6.4713 20.20087,-7.97614 29.70685,-6.45756 29.5387,4.71884 43.54972,37.84154 26.52548,62.70752 -1.98011,2.8922 -5.68026,6.77496 -8.22254,8.62836 -4.71271,3.43569 -152.51982,75.34006 -161.62234,78.62513 -6.93673,2.50343 -15.00029,3.12878 -21.5,1.66739 z"
       id="path6908" />
</svg>
