<?xml version="1.0" encoding="UTF-8" standalone="no"?>
<!-- Created with Inkscape (http://www.inkscape.org/) -->

<svg
   version="1.1"
   id="svg12239"
   viewBox="0 0 512 512"
   xmlns="http://www.w3.org/2000/svg"
   fill="#ffffff"
   xmlns:svg="http://www.w3.org/2000/svg">
    <path
       d="M 350.91931,505.63275 C 341.79576,502.31382 338.56423,500.02223 322,485.12501 314.025,477.9526 304.4189,469.47781 300.6531,466.29214 296.88731,463.10646 291.83855,458.7 289.43363,456.5 c -2.40491,-2.2 -7.80626,-6.925 -12.003,-10.5 -4.19674,-3.575 -12.57609,-11 -18.62077,-16.5 -6.04469,-5.5 -12.23648,-10.9 -13.75954,-12 -8.80177,-6.3569 -6.95136,-6.23144 -16.87466,-1.14408 -18.25651,9.35953 -25.92051,11.00282 -51.17566,10.97288 -10.175,-0.0121 -21.45435,-0.51354 -25.06522,-1.11441 -11.03856,-1.83685 -25.76917,-8.15164 -34.42105,-14.75577 C 115.02166,409.55638 112.63702,408 112.21453,408 c -1.29709,0 -13.871299,-13.20228 -17.619902,-18.5 -1.945868,-2.75 -5.61922,-9.02707 -8.163003,-13.94904 l -4.625062,-8.94905 0.23549,-107.55095 C 82.353426,116.84357 82.776198,108.29155 90.720472,83.5 96.845161,64.386798 104.3227,51.682235 117.41709,38.141675 136.11424,18.807444 153.05032,11.818267 191,7.7755013 c 14.83984,-1.5808824 62.10179,-1.6031281 72,-0.03389 13.52177,2.1437098 22.63482,4.0164607 24.58391,5.0520447 1.05385,0.559927 4.2733,1.501271 7.15433,2.091873 6.00032,1.230047 27.65671,11.151701 34.08232,15.614471 2.37572,1.65 7.91796,5.7 12.3161,9 4.39814,3.3 9.70225,7.224001 11.7869,8.720003 2.08465,1.496001 5.31716,4.54433 7.18336,6.774065 1.86619,2.229734 5.21884,6.180733 7.45032,8.779997 5.16998,6.022072 11.94661,15.418718 16.50643,22.888229 C 387.88599,92.923678 396,110.11806 396,111.95653 c 0,0.61261 0.60991,2.1105 1.35535,3.32865 0.74544,1.21815 1.90989,4.91482 2.58768,8.21482 0.67779,3.3 1.92002,8.025 2.76052,10.5 1.00316,2.954 1.80285,11.02758 2.32769,23.5 0.43973,10.45 1.0356,20.35 1.32416,22 0.28856,1.65 1.03799,10.2 1.66541,19 0.62742,8.8 1.5906,17.35 2.1404,19 1.01009,3.03139 2.43268,15.16002 5.62998,48 0.96387,9.9 2.037,18.45 2.38474,19 0.34773,0.55 1.16487,9.775 1.81586,20.5 0.65099,10.725 1.45925,20.175 1.79612,21 0.33688,0.825 1.1567,8.025 1.82183,16 1.24623,14.9424 3.55564,33.34627 5.39586,43 3.82233,20.05185 5.38256,68.31309 2.55527,79.0399 -4.48578,17.01913 -16.61236,31.78959 -32.1689,39.18248 L 390.5,507.44809 374,507.73737 c -15.30871,0.26839 -16.97512,0.11643 -23.08069,-2.10462 z M 189.36875,379.04516 c 10.55554,-3.63164 17.42874,-8.05075 24.93964,-16.03489 8.16729,-8.68187 12.3286,-16.43889 15.1711,-28.28011 l 1.86515,-7.76984 -2.73534,-9.13778 c -3.68477,-12.30943 -6.78224,-18.09485 -13.47549,-25.16938 -7.41519,-7.83759 -15.68277,-13.10776 -25.35702,-16.16386 -9.08427,-2.86972 -14.96234,-3.11292 -23.22449,-0.96091 -13.35119,3.47755 -26.13543,12.58776 -33.47712,23.85622 -9.23136,14.16883 -11.70799,28.46687 -7.23012,41.74071 6.0641,17.97594 18.48343,30.50666 36.65494,36.9837 9.80784,3.4959 18.54397,3.80028 26.86875,0.93614 z m 52.40977,-139.95462 c 7.25595,-3.68977 11.39972,-8.02924 14.82529,-15.52543 2.50933,-5.49118 2.62119,-6.2762 1.49624,-10.5 -2.61993,-9.83687 -8.02104,-16.37313 -17.07004,-20.65763 -6.3714,-3.01671 -10.37302,-2.87212 -17.62131,0.63672 -8.59123,4.15894 -14.82872,12.44527 -16.04439,21.31449 -0.49419,3.60552 -0.0431,5.52837 2.59219,11.05017 3.34386,7.00642 7.54971,10.98161 15.5435,14.69105 5.6109,2.60369 9.66813,2.35211 16.27852,-1.00937 z M 178,175.92944 c 9.63186,-4.5477 12.66734,-8.06653 16.61814,-19.26429 1.24643,-3.53275 1.23035,-4.60523 -0.13046,-8.70224 -3.17019,-9.54454 -6.56646,-13.40955 -15.80668,-17.98826 -7.93078,-3.92986 -8.70454,-4.12199 -12.09461,-3.00316 -12.02141,3.96742 -18.72778,10.45653 -22.20414,21.48482 l -1.67636,5.31803 3.20997,6.86283 c 1.76549,3.77456 4.19416,7.93393 5.39706,9.24306 2.54505,2.76981 15.19062,9.12014 18.15887,9.11898 1.11551,-4.3e-4 4.95321,-1.38183 8.52821,-3.06977 z m 126,0.007 c 3.575,-1.68391 8.1904,-4.70271 10.25643,-6.70844 3.89649,-3.78276 7.74417,-12.23857 7.74278,-17.01584 -0.001,-4.32741 -5.3299,-14.39063 -9.71222,-18.34169 -3.5977,-3.24365 -13.38731,-7.88671 -16.5745,-7.86103 -1.95077,0.0157 -11.91774,4.9094 -15.38455,7.55367 C 276.81958,136.2394 270,148.85082 270,152.66287 c 0,3.68204 5.37668,13.40402 9.75217,17.63366 3.38117,3.26845 13.68627,8.60869 16.74783,8.67895 0.55,0.0126 3.925,-1.3548 7.5,-3.03871 z m -63,-62.50538 c 7.09478,-3.28819 12.44208,-8.49099 16.08764,-15.652873 3.65851,-7.187337 3.6416,-9.229751 -0.14278,-17.2394 -3.68013,-7.789007 -9.90581,-13.632514 -17.58528,-16.50577 -6.83213,-2.556229 -7.74334,-2.535108 -13.85958,0.321253 -6.4238,2.999995 -10.66346,6.615826 -14.6049,12.455939 -5.07047,7.513016 -6.09071,11.383604 -4.32196,16.396769 3.43255,9.728892 10.39715,17.268432 19.67773,21.302192 4.75406,2.06633 8.56569,1.78771 14.74913,-1.07811 z"
       id="path14654" />
</svg>
