<?xml version="1.0" encoding="UTF-8" standalone="no"?>
<!-- Created with Inkscape (http://www.inkscape.org/) -->

<svg
   version="1.1"
   id="svg12239"
   viewBox="0 0 256 256"
   xmlns="http://www.w3.org/2000/svg"
   fill="#ffffff"
   xmlns:svg="http://www.w3.org/2000/svg">
    <path
       d="M 108.5,251.53864 C 68.118316,245.16094 31.149926,215.29297 16.929138,177.55553 10.978539,161.76454 9.0342864,151.15838 9.0156676,134.38649 c -0.023297,-20.9866 1.5911564,-27.19908 8.0828574,-31.10316 3.258273,-1.95951 9.144596,-1.04021 12.069826,1.88502 1.625721,1.62572 1.926871,2.81915 1.436882,5.69422 -4.347741,25.51087 -1.801319,47.78485 7.588508,66.37795 5.776471,11.43818 9.002219,15.9637 18.275195,25.63892 26.171375,27.30664 64.320414,37.2352 100.031064,26.0338 17.85486,-5.60056 29.40714,-12.86943 43,-27.05627 18.63797,-19.4524 26.71496,-39.7777 26.76673,-67.35697 0.027,-14.38489 -1.06426,-21.65874 -5.07589,-33.83361 -5.88626,-17.864153 -21.71733,-37.87088 -39.24256,-49.593316 -9.50533,-6.35801 -25.69676,-13.167248 -36.0731,-15.170389 -8.14577,-1.572534 -31.76244,-1.568574 -34.70422,0.0058 -2.16308,1.157646 -2.14953,1.205697 1.82489,6.469771 C 116.13088,46.530577 117,48.5579 117,51.718405 c 0,2.220178 -0.58272,4.520301 -1.29493,5.111386 -0.83131,0.68992 -10.88433,1.181303 -28.078366,1.372445 L 60.843277,58.5 57.438799,62.21659 c -2.189294,2.390001 -3.636765,5.16923 -4.055256,7.786326 -0.715081,4.471871 -1.569202,5.143962 -8.77154,6.90215 -6.03339,1.472832 -9.991435,0.690986 -11.996937,-2.369797 C 30.371934,71.111817 31.643278,68.005648 40.112503,56.2174 44.175626,50.56197 48.85,43.816879 50.5,41.228309 54.359581,35.17328 73.433476,8.1939706 75.936029,5.25 c 2.214643,-2.605278 6.597248,-2.9656337 9.693366,-0.7970282 1.140925,0.7991344 4.007671,4.4202574 6.370548,8.0469402 3.835179,5.886459 4.57532,6.533827 6.898098,6.033457 18.842599,-4.059048 32.470029,-4.484502 48.896929,-1.526581 20.53522,3.697686 33.03683,8.950249 49.97875,20.998612 21.56645,15.337135 39.75467,42.640928 45.96024,68.9946 2.45157,10.4113 2.48228,44.42792 0.0488,54.03786 -4.522,17.85748 -13.65448,35.72215 -25.28521,49.46214 -27.13869,32.06036 -68.6899,47.56257 -109.99753,41.03864 z M 59.534796,201.89641 56,198.79282 V 133.00216 67.211511 L 58.90121,64.105755 61.80242,61 h 65.67571 65.67572 l 2.92307,2.923077 L 199,66.846154 V 133 199.15385 l -2.92308,2.92307 L 193.15385,205 H 128.11172 63.069592 Z M 133.90437,115 c 0.6026,0 1.09563,-0.39744 1.09563,-0.88321 0,-0.48576 2.06793,-2.39826 4.59541,-4.25 2.52748,-1.85173 7.36498,-5.61679 10.75,-8.36679 3.38502,-2.75 8.74209,-6.927078 11.90459,-9.282395 3.1625,-2.355317 5.75,-4.492817 5.75,-4.75 C 168,87.210422 150,87 128,87 c -23.5174,0 -40,0.37697 -40,0.914831 0,0.503158 2.3625,2.621011 5.25,4.706342 2.8875,2.08533 7.5,5.636202 10.25,7.890827 2.75,2.25462 6.125,4.86466 7.5,5.80008 1.375,0.93543 5.61433,4.14882 9.42072,7.14088 l 6.92073,5.4401 2.73364,-1.94653 C 131.5786,115.87594 133.30177,115 133.90437,115 Z"
       id="path3050" />
</svg>
