<?xml version="1.0" encoding="UTF-8" standalone="no"?>
<!-- Created with Inkscape (http://www.inkscape.org/) -->

<svg
   version="1.1"
   id="svg12239"
   viewBox="0 0 256 256"
   xmlns="http://www.w3.org/2000/svg"
   fill="#ffffff"
   xmlns:svg="http://www.w3.org/2000/svg">
    <path
       d="m 108.4304,252.03757 c -5.53829,-0.96495 -13.188287,-2.83065 -17.000004,-4.14601 L 84.5,245.5 l 21.68203,-0.26931 c 11.92511,-0.14813 31.72511,-0.14813 44,0 L 172.5,245.5 l -7,2.30244 c -10.083,3.3165 -28.3191,6.21415 -38.34937,6.09357 -4.75785,-0.0572 -13.18195,-0.8935 -18.72023,-1.85844 z M 45.575101,239.82202 c -1.058694,-0.61444 -2.956974,-2.28825 -4.218399,-3.71959 L 39.063202,233.5 39.031601,149.35359 39,65.207184 42.534796,62.103592 46.069592,59 h 81.503928 81.50393 l 4.21127,3.927979 4.21128,3.927979 0.2579,81.322022 c 0.28791,90.78407 0.6644,85.66188 -6.65578,90.55209 L 207.70423,241 127.60212,240.9696 c -57.135791,-0.0217 -80.654014,-0.35071 -82.027019,-1.14757 z m 68.036779,-13.37871 c 3.79726,-2.83901 6.31219,-8.1045 7.49276,-15.68751 0.60913,-3.91256 0.88144,-29.42632 0.69737,-65.3375 L 121.5,86.5 118.83432,80.813342 C 114.78618,72.177482 111.80729,71 94.007719,71 c -15.695785,0 -19.007871,0.834603 -23.231437,5.854027 -4.299626,5.109815 -4.914673,11.060119 -4.58078,44.316973 0.295113,29.3942 0.376035,30.47424 2.62545,35.04129 3.681713,7.47508 7.151149,9.0368 21.588096,9.71757 L 102.5,166.5 102.74751,184 c 0.30763,21.75138 0.0856,22.37598 -8.106612,22.80242 C 86.220632,207.24074 86,206.88519 86,192.87756 V 181 h -9.580983 -9.580982 l 0.330982,17.75 c 0.312874,16.77885 0.467765,17.99077 2.830983,22.15055 4.19894,7.39105 6.87325,8.22901 25.180498,7.8899 14.000952,-0.25934 15.975142,-0.51074 18.431382,-2.34714 z M 88,144.27111 c -0.825,-0.31405 -1.830609,-1.06602 -2.234687,-1.67105 C 84.603206,140.86002 84.850695,97.147497 86.035184,94.934259 86.891594,93.334041 88.165678,93 93.412739,93 c 4.675198,0 6.703141,0.434067 7.714821,1.651307 1.87519,2.256206 2.61935,46.743793 0.8182,48.914043 -1.19693,1.44222 -10.742104,1.92528 -13.94576,0.70576 z m 93.10212,82.47744 c 1.90779,-1.2641 4.49422,-4.44348 5.89788,-7.25 L 189.5,214.5 v -64 c 0,-59.741236 -0.12239,-64.317225 -1.83928,-68.767205 -1.13626,-2.945052 -3.20728,-5.811751 -5.41831,-7.5 -3.48902,-2.664064 -3.96762,-2.740896 -19.0295,-3.054918 -10.40054,-0.216838 -16.39368,0.06857 -18.33629,0.873227 -4.02341,1.666554 -8.5918,7.177456 -9.86282,11.897631 -0.72236,2.682669 -0.97988,24.875945 -0.79208,68.263125 L 134.5,216.5 l 2.70665,4.6041 c 4.16491,7.08464 6.57362,7.84639 24.89547,7.87313 14.53069,0.0212 15.83545,-0.13184 19,-2.22868 z m -27.09214,-21.7299 c -0.71966,-1.3447 -0.97195,-19.35038 -0.78518,-56.03686 0.23805,-46.75768 0.47771,-54.183482 1.7752,-55.003342 2.15614,-1.362427 12.38016,-1.198286 13.8,0.221552 1.73142,1.731416 1.73142,109.86858 0,111.6 -0.67794,0.67794 -3.92551,1.2 -7.46482,1.2 -5.2217,0 -6.44137,-0.3299 -7.3252,-1.98135 z M 28.832053,200 C 21.718419,189.33196 16.622597,178.21167 13.25171,166 c -2.431041,-8.8069 -2.627082,-11.03212 -2.687037,-30.5 -0.07139,-23.18048 0.619233,-27.07064 5.411696,-30.48317 5.012736,-3.56939 13.494757,-1.97221 14.683711,2.76496 0.336669,1.34139 0.100306,6.10175 -0.525253,10.57856 -2.241014,16.03781 -0.969389,33.58951 3.382928,46.6931 1.203194,3.62248 1.468983,8.71206 1.254451,24.02144 L 34.5,208.5 Z M 221.02098,189.75 c 0.0188,-16.38395 0.27109,-19.10226 2.46699,-26.5851 5.36026,-18.2658 5.3674,-37.12891 0.0216,-56.98706 -2.15844,-8.017946 -2.51006,-11.445626 -2.51328,-24.500003 -0.003,-13.380938 -0.23899,-15.563685 -1.99086,-18.436977 -3.5767,-5.866263 -7.15246,-7.232899 -18.93568,-7.237122 L 189.63944,56 183.56972,52.04912 C 175.51534,46.806395 161.93283,40.531376 154.5,38.61913 c -13.03758,-3.354182 -39.13971,-4.313935 -43.53004,-1.600563 -0.85352,0.527503 0.0146,2.540982 2.97524,6.900729 2.89797,4.267459 4.08443,6.987984 3.86759,8.868303 L 117.5,55.5 80.35376,56 c -35.348497,0.475802 -37.255096,0.596793 -39.395509,2.5 l -2.249269,2 L 40.00884,58 C 40.723762,56.625 44.527801,51 48.462259,45.5 52.396717,40 58.714284,31 62.501296,25.5 75.938757,5.9843394 77.702041,4 81.606196,4 85.512507,4 87.68698,5.9018295 93.158132,14.103511 96.91032,19.728332 95.704838,19.540565 112,17.038333 c 3.575,-0.548966 10.775,-0.993273 16,-0.98735 19.28793,0.02186 34.86116,3.380073 50.74275,10.942167 34.13256,16.252374 57.86498,45.971039 65.88745,82.50685 0.84537,3.85 1.78309,12.625 2.08381,19.5 0.88529,20.23928 -2.22532,37.4822 -9.79796,54.31265 -4.02758,8.95142 -13.66348,24.62321 -15.16605,24.66599 -0.4125,0.0117 -0.74056,-8.19114 -0.72902,-18.22864 z M 32.606989,74.418213 c -0.989194,-2.577798 -0.701139,-4.911476 0.861208,-6.977083 1.351797,-1.787236 1.470718,-1.524907 1.5,3.30887 0.03086,5.094032 -1.125006,6.889704 -2.361208,3.668213 z"
       id="path15167" />
</svg>
