<?xml version="1.0" encoding="UTF-8" standalone="no"?>
<!-- Created with Inkscape (http://www.inkscape.org/) -->

<svg
   version="1.1"
   id="svg12239"
   viewBox="0 0 256 256"
   xmlns="http://www.w3.org/2000/svg"
   fill="#ffffff"
   xmlns:svg="http://www.w3.org/2000/svg">
    <path
       d="m 108.4304,252.03757 c -5.53829,-0.96495 -13.188287,-2.83065 -17.000004,-4.14601 L 84.5,245.5 l 21.68203,-0.26931 c 11.92511,-0.14813 31.72511,-0.14813 44,0 L 172.5,245.5 l -7,2.30244 c -10.083,3.3165 -28.3191,6.21415 -38.34937,6.09357 -4.75785,-0.0572 -13.18195,-0.8935 -18.72023,-1.85844 z M 45.575101,239.82202 c -1.058694,-0.61444 -2.956974,-2.28825 -4.218399,-3.71959 L 39.063202,233.5 39.031601,149.35359 39,65.207184 42.534796,62.103592 46.069592,59 h 81.503928 81.50393 l 4.21127,3.927979 4.21128,3.927979 0.2579,81.322022 c 0.28791,90.78407 0.6644,85.66188 -6.65578,90.55209 L 207.70423,241 127.60212,240.96959 C 70.466329,240.9479 46.948106,240.61888 45.575101,239.82202 Z M 180.96705,223.91365 c 7.81448,-1.67591 13.94425,-6.34696 17.51046,-13.34342 L 201.5,204.64046 v -53.57023 c 0,-49.19561 -0.14476,-53.87828 -1.77273,-57.342506 -2.72741,-5.803796 -8.22943,-11.267273 -13.72955,-13.633358 -4.92063,-2.116801 -5.68564,-2.141148 -58.74164,-1.869549 -50.850883,0.260311 -53.967036,0.379852 -57.659482,2.211919 -4.9772,2.469517 -9.690345,7.182662 -12.159862,12.159862 -1.830513,3.689315 -1.951856,6.799163 -2.21241,56.701202 -0.17625,33.75587 0.09348,54.16871 0.747874,56.59896 2.179733,8.09491 9.602362,15.49234 17.74128,17.68106 6.268469,1.68572 99.59666,1.97794 107.25357,0.33583 z M 121.5,181.12032 c -8.73743,-2.30733 -16.64613,-8.79926 -20.64646,-16.94785 -3.444982,-7.01736 -3.290038,-18.81128 0.33811,-25.73593 5.56015,-10.61203 15.66682,-16.83207 27.30835,-16.80661 11.86303,0.0259 21.20728,5.96746 26.59421,16.90987 2.66465,5.41268 3.17748,7.58743 3.14158,13.32247 -0.0751,11.99901 -6.97019,22.47862 -17.99997,27.35761 -4.98159,2.2036 -14.08942,3.12744 -18.73582,1.90044 z M 28.832053,200 C 21.718419,189.33196 16.622597,178.21167 13.25171,166 c -2.431041,-8.8069 -2.627082,-11.03212 -2.687037,-30.5 -0.07139,-23.18048 0.619233,-27.07064 5.411696,-30.48317 5.012736,-3.56939 13.494757,-1.97221 14.683711,2.76496 0.336669,1.34139 0.100306,6.10175 -0.525253,10.57856 -2.241014,16.03781 -0.969389,33.58951 3.382928,46.6931 1.203194,3.62248 1.468983,8.71206 1.254451,24.02144 L 34.5,208.5 Z M 221.02098,189.75 c 0.0188,-16.38395 0.27109,-19.10226 2.46699,-26.5851 5.36026,-18.2658 5.3674,-37.12891 0.0216,-56.98706 -2.15844,-8.017946 -2.51006,-11.445626 -2.51328,-24.500003 -0.003,-13.380938 -0.23899,-15.563685 -1.99086,-18.436977 -3.5767,-5.866263 -7.15246,-7.232899 -18.93568,-7.237122 L 189.63944,56 183.56972,52.04912 C 175.51534,46.806395 161.93283,40.531376 154.5,38.61913 c -13.03758,-3.354182 -39.13971,-4.313935 -43.53004,-1.600563 -0.85352,0.527503 0.0146,2.540982 2.97524,6.900729 2.89797,4.267459 4.08443,6.987984 3.86759,8.868303 L 117.5,55.5 80.35376,56 c -35.348497,0.475802 -37.255096,0.596793 -39.395509,2.5 l -2.249269,2 L 40.00884,58 C 40.723762,56.625 44.527801,51 48.462259,45.5 52.396717,40 58.714284,31 62.501296,25.5 75.938757,5.9843394 77.702041,4 81.606196,4 85.512507,4 87.68698,5.9018295 93.158132,14.103511 96.91032,19.728332 95.704838,19.540565 112,17.038333 c 3.575,-0.548966 10.775,-0.993273 16,-0.98735 19.28793,0.02186 34.86116,3.380073 50.74275,10.942167 34.13256,16.252374 57.86498,45.971039 65.88745,82.50685 0.84537,3.85 1.78309,12.625 2.08381,19.5 0.88529,20.23928 -2.22532,37.4822 -9.79796,54.31265 -4.02758,8.95142 -13.66348,24.62321 -15.16605,24.66599 -0.4125,0.0117 -0.74056,-8.19114 -0.72902,-18.22864 z M 32.606989,74.418213 c -0.989194,-2.577798 -0.701139,-4.911476 0.861208,-6.977083 1.351797,-1.787236 1.470718,-1.524907 1.5,3.30887 0.03086,5.094032 -1.125006,6.889704 -2.361208,3.668213 z"
       id="path2024" />
</svg>
