<?xml version="1.0" encoding="UTF-8" standalone="no"?>
<!-- Created with Inkscape (http://www.inkscape.org/) -->

<svg
   version="1.1"
   id="svg12239"
   viewBox="0 0 256 256"
   xmlns="http://www.w3.org/2000/svg"
   fill="#ffffff"
   xmlns:svg="http://www.w3.org/2000/svg">
    <path
       d="m 108.4304,252.03757 c -5.53829,-0.96495 -13.188287,-2.83065 -17.000004,-4.14601 L 84.5,245.5 l 21.68203,-0.26931 c 11.92511,-0.14813 31.72511,-0.14813 44,0 L 172.5,245.5 l -7,2.30244 c -10.083,3.3165 -28.3191,6.21415 -38.34937,6.09357 -4.75785,-0.0572 -13.18195,-0.8935 -18.72023,-1.85844 z M 45.575101,239.82202 c -1.058694,-0.61444 -2.956974,-2.28825 -4.218399,-3.71959 L 39.063202,233.5 39.031601,149.35359 39,65.207184 42.534796,62.103592 46.069592,59 h 81.503928 81.50393 l 4.21127,3.927979 4.21128,3.927979 0.2579,81.322022 c 0.28791,90.78407 0.6644,85.66188 -6.65578,90.55209 L 207.70423,241 127.60212,240.9696 c -57.135791,-0.0217 -80.654014,-0.35071 -82.027019,-1.14757 z m 51.049942,-11.40144 c 5.431227,-2.51868 14.260367,-6.79368 19.620317,-9.5 C 121.6053,216.21426 126.47011,214 127.05603,214 c 0.58593,0 9.77413,4.275 20.41823,9.5 10.6441,5.225 19.83532,9.5 20.42493,9.5 0.58961,0 2.44572,-2.72128 4.12468,-6.04729 l 3.05267,-6.04729 -12.28827,-5.76702 c -6.75855,-3.17185 -13.75077,-6.35517 -15.53827,-7.07402 -1.7875,-0.71886 -3.23888,-1.58993 -3.22528,-1.9357 0.0136,-0.34577 13.58856,-6.92289 30.1666,-14.61581 16.57803,-7.69291 31.19191,-14.81308 32.47528,-15.82258 C 210.84297,172.40516 208.52048,165 203.31378,165 c -1.41505,0 -18.9861,7.65 -39.04678,17 -20.06068,9.35 -36.79385,17 -37.18481,17 -0.39097,0 -16.2069,-7.25246 -35.146522,-16.11657 C 52.35383,164.35835 50.94864,163.83152 48.069564,166.43705 c -2.872319,2.59941 -3.467272,5.30703 -1.744028,7.93703 0.995559,1.51941 11.828181,7.05956 32.582928,16.66393 C 96.008809,198.95129 110,205.69379 110,206.02133 c 0,0.32755 -6.75,3.69295 -15,7.47867 -8.459837,3.88201 -15,7.46811 -15,8.22481 C 80,223.66682 84.877083,233 85.891889,233 c 0.472009,0 5.301928,-2.06074 10.733154,-4.57942 z M 148.54549,184.75 c 2.44288,-2.25799 3.88826,-4.76857 4.73531,-8.22514 1.17411,-4.79114 1.37416,-5.00149 5.40915,-5.6876 2.30448,-0.39186 5.30321,-1.4419 6.66385,-2.33342 2.93072,-1.92028 5.6462,-7.21861 5.6462,-11.0166 0,-1.49077 1.538,-6.82277 3.41778,-11.84887 8.67184,-23.18658 5.84115,-42.45625 -8.20489,-55.853894 C 155.60797,79.669088 142.78733,74.76929 127.15522,74.857388 96.075638,75.032542 75,94.234325 75,122.37543 c 0,8.54495 2.502196,19.74908 5.913015,26.47683 1.017127,2.00626 2.183933,6.11138 2.592902,9.12249 0.920684,6.77871 5.069629,11.49442 11.065214,12.57677 4.959544,0.89532 6.428869,2.06564 6.428869,5.12058 0,3.69387 2.73448,8.19524 6.29855,10.36838 2.84812,1.73661 5.10688,1.95246 20.46614,1.95578 l 17.26468,0.004 3.51612,-3.25 z M 120.75,169.89029 c -2.01321,-1.13852 -2.33547,-5.88501 -0.62504,-9.20603 C 121.92099,157.19705 125.20929,154 127,154 c 3.58854,0 9.73629,10.10481 8.50602,13.98102 -0.84293,2.65586 -3.43422,3.29604 -6.14692,1.51861 -2.08058,-1.36324 -2.62474,-1.37301 -4.6091,-0.0827 -1.59829,1.03927 -2.75688,1.17638 -4,0.47337 z M 98.365039,151.14033 c -4.358965,-2.74057 -6.994062,-9.70434 -5.446505,-14.39349 4.808142,-14.56881 25.064286,-11.32346 25.077726,4.01785 0.003,3.4366 -0.63936,4.96643 -3.30829,7.87873 -2.76446,3.01655 -4.1284,3.68462 -8.25,4.04098 -3.72438,0.32201 -5.70844,-0.0575 -8.072931,-1.54407 z m 43.933511,-0.0999 c -9.0434,-5.51408 -7.89739,-19.13612 1.9244,-22.87432 10.66014,-4.05728 20.66817,5.95075 16.61089,16.61089 -2.78848,7.32646 -11.79847,10.37112 -18.53529,6.26343 z M 28.832053,200 C 21.718419,189.33196 16.622597,178.21167 13.25171,166 c -2.431041,-8.8069 -2.627082,-11.03212 -2.687037,-30.5 -0.07139,-23.18048 0.619233,-27.07064 5.411696,-30.48317 5.012736,-3.56939 13.494757,-1.97221 14.683711,2.76496 0.336669,1.34139 0.100306,6.10175 -0.525253,10.57856 -2.241014,16.03781 -0.969389,33.58951 3.382928,46.6931 1.203194,3.62248 1.468983,8.71206 1.254451,24.02144 L 34.5,208.5 Z M 221.02098,189.75 c 0.0188,-16.38395 0.27109,-19.10226 2.46699,-26.5851 5.36026,-18.2658 5.3674,-37.12891 0.0216,-56.98706 -2.15844,-8.017946 -2.51006,-11.445626 -2.51328,-24.500003 -0.003,-13.380938 -0.23899,-15.563685 -1.99086,-18.436977 -3.5767,-5.866263 -7.15246,-7.232899 -18.93568,-7.237122 L 189.63944,56 183.56972,52.04912 C 175.51534,46.806395 161.93283,40.531376 154.5,38.61913 c -13.03758,-3.354182 -39.13971,-4.313935 -43.53004,-1.600563 -0.85352,0.527503 0.0146,2.540982 2.97524,6.900729 2.89797,4.267459 4.08443,6.987984 3.86759,8.868303 L 117.5,55.5 80.35376,56 c -35.348497,0.475802 -37.255096,0.596793 -39.395509,2.5 l -2.249269,2 L 40.00884,58 C 40.723762,56.625 44.527801,51 48.462259,45.5 52.396717,40 58.714284,31 62.501296,25.5 75.938757,5.9843394 77.702041,4 81.606196,4 85.512507,4 87.68698,5.9018295 93.158132,14.103511 96.91032,19.728332 95.704838,19.540565 112,17.038333 c 3.575,-0.548966 10.775,-0.993273 16,-0.98735 19.28793,0.02186 34.86116,3.380073 50.74275,10.942167 34.13256,16.252374 57.86498,45.971039 65.88745,82.50685 0.84537,3.85 1.78309,12.625 2.08381,19.5 0.88529,20.23928 -2.22532,37.4822 -9.79796,54.31265 -4.02758,8.95142 -13.66348,24.62321 -15.16605,24.66599 -0.4125,0.0117 -0.74056,-8.19114 -0.72902,-18.22864 z M 32.606989,74.418213 c -0.989194,-2.577798 -0.701139,-4.911476 0.861208,-6.977083 1.351797,-1.787236 1.470718,-1.524907 1.5,3.30887 0.03086,5.094032 -1.125006,6.889704 -2.361208,3.668213 z"
       id="path997" />
</svg>
