<?xml version="1.0" encoding="UTF-8" standalone="no"?>
<!-- Created with Inkscape (http://www.inkscape.org/) -->

<svg
   version="1.1"
   id="svg12239"
   viewBox="0 0 256 256"
   xmlns="http://www.w3.org/2000/svg"
   fill="#ffffff"
   xmlns:svg="http://www.w3.org/2000/svg">
    <path
       d="m 108.4304,252.03757 c -5.53829,-0.96495 -13.188287,-2.83065 -17.000004,-4.14601 L 84.5,245.5 l 21.68203,-0.26931 c 11.92511,-0.14813 31.72511,-0.14813 44,0 L 172.5,245.5 l -7,2.30244 c -10.083,3.3165 -28.3191,6.21415 -38.34937,6.09357 -4.75785,-0.0572 -13.18195,-0.8935 -18.72023,-1.85844 z M 45.575101,239.82202 c -1.058694,-0.61444 -2.956974,-2.28825 -4.218399,-3.71959 L 39.063202,233.5 39.031601,149.35359 39,65.207184 42.534796,62.103592 46.069592,59 h 81.503928 81.50393 l 4.21127,3.927979 4.21128,3.927979 0.2579,81.322022 c 0.28791,90.78407 0.6644,85.66188 -6.65578,90.55209 L 207.70423,241 127.60212,240.96959 C 70.466329,240.9479 46.948106,240.61888 45.575101,239.82202 Z M 206.73331,219.03383 c 2.90385,-2.70534 3.66056,-5.66872 2.29153,-8.97386 -1.41993,-3.42802 -2.03675,-3.75031 -19.98879,-10.44412 -12.85249,-4.79234 -15.49853,-6.19898 -23.75,-12.62553 L 156,179.75801 v -13.9903 -13.99029 l 3.25,0.58804 c 1.7875,0.32343 11.71281,1.7258 22.05625,3.11637 19.63625,2.63991 21.3909,2.53963 24.41195,-1.39517 2.07219,-2.69896 1.51843,-7.51573 -1.15252,-10.02496 -2.16561,-2.03448 -5.61088,-2.72101 -31.2118,-6.21944 -15.82761,-2.16289 -28.98686,-4.14191 -29.24278,-4.39782 -0.25591,-0.25592 0.71077,-1.69811 2.14818,-3.20487 9.79131,-10.2637 3.24777,-26.24625 -10.74141,-26.23583 -9.35126,0.007 -15.50724,6.19553 -15.51413,15.59622 -0.003,4.08559 0.5942,5.9254 3.00253,9.25 l 3.00627,4.15004 -2.75627,0.003 c -3.02797,0.003 -38.470145,-3.84113 -41.887643,-4.54345 -1.26419,-0.2598 -2.316012,-1.40389 -2.58518,-2.81195 -0.586127,-3.06613 -26.441942,-52.119196 -28.272945,-53.638794 -2.359597,-1.958291 -6.867044,-0.813934 -7.847596,1.992359 -0.743101,2.126719 1.18392,6.392546 12.874427,28.500005 C 63.098916,116.80048 69.8587,129.175 70.559074,130 c 0.709173,0.83536 1.038887,2.71031 0.744122,4.23152 -0.77137,3.98086 0.402147,7.53355 2.958611,8.95686 C 75.492813,143.87374 86.4,145.57423 98.5,146.96725 l 22,2.53275 v 12 12 l -13.83756,0.50113 c -13.652169,0.49442 -13.86987,0.5387 -16.249995,3.30576 -4.450223,5.1737 -3.55297,7.82489 8.082934,23.88339 5.772461,7.96646 11.605351,14.99021 12.961971,15.60834 1.7759,0.80915 3.32322,0.82523 5.52573,0.0574 6.24996,-2.17874 6.56113,-7.3718 1.04407,-17.42417 -3.30376,-6.01962 -3.71103,-7.33921 -2.41821,-7.83531 C 116.46399,191.26846 122.53866,191 129.1082,191 h 11.94462 l 13.58785,9.09415 c 11.71057,7.83771 15.74807,9.90471 29.22359,14.96107 8.59966,3.2268 16.78839,5.88443 18.19718,5.90585 1.40879,0.0214 3.51113,-0.84585 4.67187,-1.92724 z M 28.832053,200 C 21.718419,189.33196 16.622597,178.21167 13.25171,166 c -2.431041,-8.8069 -2.627082,-11.03212 -2.687037,-30.5 -0.07139,-23.18048 0.619233,-27.07064 5.411696,-30.48317 5.012736,-3.56939 13.494757,-1.97221 14.683711,2.76496 0.336669,1.34139 0.100306,6.10175 -0.525253,10.57856 -2.241014,16.03781 -0.969389,33.58951 3.382928,46.6931 1.203194,3.62248 1.468983,8.71206 1.254451,24.02144 L 34.5,208.5 Z M 221.02098,189.75 c 0.0188,-16.38395 0.27109,-19.10226 2.46699,-26.5851 5.36026,-18.2658 5.3674,-37.12891 0.0216,-56.98706 -2.15844,-8.017946 -2.51006,-11.445626 -2.51328,-24.500003 -0.003,-13.380938 -0.23899,-15.563685 -1.99086,-18.436977 -3.5767,-5.866263 -7.15246,-7.232899 -18.93568,-7.237122 L 189.63944,56 183.56972,52.04912 C 175.51534,46.806395 161.93283,40.531376 154.5,38.61913 c -13.03758,-3.354182 -39.13971,-4.313935 -43.53004,-1.600563 -0.85352,0.527503 0.0146,2.540982 2.97524,6.900729 2.89797,4.267459 4.08443,6.987984 3.86759,8.868303 L 117.5,55.5 80.35376,56 c -35.348497,0.475802 -37.255096,0.596793 -39.395509,2.5 l -2.249269,2 L 40.00884,58 C 40.723762,56.625 44.527801,51 48.462259,45.5 52.396717,40 58.714284,31 62.501296,25.5 75.938757,5.9843394 77.702041,4 81.606196,4 85.512507,4 87.68698,5.9018295 93.158132,14.103511 96.91032,19.728332 95.704838,19.540565 112,17.038333 c 3.575,-0.548966 10.775,-0.993273 16,-0.98735 19.28793,0.02186 34.86116,3.380073 50.74275,10.942167 34.13256,16.252374 57.86498,45.971039 65.88745,82.50685 0.84537,3.85 1.78309,12.625 2.08381,19.5 0.88529,20.23928 -2.22532,37.4822 -9.79796,54.31265 -4.02758,8.95142 -13.66348,24.62321 -15.16605,24.66599 -0.4125,0.0117 -0.74056,-8.19114 -0.72902,-18.22864 z M 32.606989,74.418213 c -0.989194,-2.577798 -0.701139,-4.911476 0.861208,-6.977083 1.351797,-1.787236 1.470718,-1.524907 1.5,3.30887 0.03086,5.094032 -1.125006,6.889704 -2.361208,3.668213 z"
       id="path2537" />
</svg>
