<?xml version="1.0" encoding="UTF-8" standalone="no"?>
<!-- Created with Inkscape (http://www.inkscape.org/) -->

<svg
   version="1.1"
   id="svg12239"
   viewBox="0 0 256 256"
   xmlns="http://www.w3.org/2000/svg"
   fill="#ffffff"
   xmlns:svg="http://www.w3.org/2000/svg">
    <path
       d="m 108.4304,252.03757 c -5.53829,-0.96495 -13.188287,-2.83065 -17.000004,-4.14601 L 84.5,245.5 l 21.68203,-0.26931 c 11.92511,-0.14813 31.72511,-0.14813 44,0 L 172.5,245.5 l -7,2.30244 c -10.083,3.3165 -28.3191,6.21415 -38.34937,6.09357 -4.75785,-0.0572 -13.18195,-0.8935 -18.72023,-1.85844 z M 45.575101,239.82202 c -1.058694,-0.61444 -2.956974,-2.28825 -4.218399,-3.71959 L 39.063202,233.5 39.031601,149.35359 39,65.207184 42.534796,62.103592 46.069592,59 h 81.503928 81.50393 l 4.21127,3.927979 4.21128,3.927979 0.2579,81.322022 c 0.28791,90.78407 0.6644,85.66188 -6.65578,90.55209 L 207.70423,241 127.60212,240.96959 C 70.466329,240.9479 46.948106,240.61888 45.575101,239.82202 Z M 182,229.05766 c 12.70788,-2.65653 21.88462,-7.29826 24.33236,-12.30766 1.77647,-3.63564 1.77647,-3.85551 0,-7.20966 -1.203,-2.27137 -21.34356,-19.96171 -58.63866,-51.50492 C 85.869435,105.74609 90.320768,108.8508 82.690263,112.69691 78.553946,114.7818 72,120.99002 72,122.82326 c 0,2.71825 24.997097,90.48052 26.797575,94.08357 3.156065,6.31579 16.733985,11.73162 35.202425,14.04121 11.47198,1.43463 36.88131,0.43394 48,-1.89038 z m -45.5,-4.0852 c -16.2755,-1.8369 -29.22175,-5.99891 -31.90832,-10.258 -5.335479,-8.4585 30.67136,-16.63551 60.78549,-13.80415 14.81042,1.39249 24.72338,3.7865 31.06315,7.50184 5.3097,3.1117 5.84118,5.56514 1.80968,8.35407 -9.69136,6.70434 -39.71034,10.6937 -61.75,8.20624 z m -73.407552,-113.93757 1.642864,-4.44742 1.658024,3.20627 C 67.30525,111.55718 68.739495,113 69.58055,113 c 1.732033,0 12.287761,-6.93147 14.362188,-9.431 1.180593,-1.42253 0.990925,-2.0288 -1.422903,-4.548297 l -2.785069,-2.906985 5.373251,-0.306859 C 89.43395,95.559811 90.551,95.133529 90.839027,93.619827 91.315523,91.115642 89.372326,90.033855 84.364293,90.015313 80.39647,90.000622 80.010576,89.705695 74.858056,82.75 69.80667,75.930831 69.234982,75.481709 65.237717,75.192207 57.594078,74.638615 48.648944,83.157466 50.553879,89.176281 c 0.404497,1.278046 2.557084,4.908592 4.783526,8.06788 l 4.048077,5.744159 -1.660433,5.19231 c -1.245568,3.89499 -1.379165,5.53121 -0.534702,6.54872 1.938772,2.33608 4.196483,0.92285 5.902101,-3.69446 z m 7.213687,-7.6795 C 69.709004,101.79929 72.226136,99 74.222514,99 c 1.835701,0 1.942724,3.16092 0.152911,4.51624 -2.460352,1.86309 -3.305452,1.82968 -4.06929,-0.16085 z M 59.439619,92.347804 55.600923,86.774189 59.050462,83.913995 c 1.897246,-1.573106 4.193923,-2.872299 5.103727,-2.887094 0.909804,-0.0148 3.265333,2.110599 5.234509,4.723099 l 3.58032,4.75 -3.234509,2.819689 c -5.920406,5.161125 -6.081392,5.145927 -10.29489,-0.971885 z M 28.832053,200 C 21.718419,189.33196 16.622597,178.21167 13.25171,166 c -2.431041,-8.8069 -2.627082,-11.03212 -2.687037,-30.5 -0.07139,-23.18048 0.619233,-27.07064 5.411696,-30.48317 5.012736,-3.56939 13.494757,-1.97221 14.683711,2.76496 0.336669,1.34139 0.100306,6.10175 -0.525253,10.57856 -2.241014,16.03781 -0.969389,33.58951 3.382928,46.6931 1.203194,3.62248 1.468983,8.71206 1.254451,24.02144 L 34.5,208.5 Z M 221.02098,189.75 c 0.0188,-16.38395 0.27109,-19.10226 2.46699,-26.5851 5.36026,-18.2658 5.3674,-37.12891 0.0216,-56.98706 -2.15844,-8.017946 -2.51006,-11.445626 -2.51328,-24.500003 -0.003,-13.380938 -0.23899,-15.563685 -1.99086,-18.436977 -3.5767,-5.866263 -7.15246,-7.232899 -18.93568,-7.237122 L 189.63944,56 183.56972,52.04912 C 175.51534,46.806395 161.93283,40.531376 154.5,38.61913 c -13.03758,-3.354182 -39.13971,-4.313935 -43.53004,-1.600563 -0.85352,0.527503 0.0146,2.540982 2.97524,6.900729 2.89797,4.267459 4.08443,6.987984 3.86759,8.868303 L 117.5,55.5 80.35376,56 c -35.348497,0.475802 -37.255096,0.596793 -39.395509,2.5 l -2.249269,2 L 40.00884,58 C 40.723762,56.625 44.527801,51 48.462259,45.5 52.396717,40 58.714284,31 62.501296,25.5 75.938757,5.9843394 77.702041,4 81.606196,4 85.512507,4 87.68698,5.9018295 93.158132,14.103511 96.91032,19.728332 95.704838,19.540565 112,17.038333 c 3.575,-0.548966 10.775,-0.993273 16,-0.98735 19.28793,0.02186 34.86116,3.380073 50.74275,10.942167 34.13256,16.252374 57.86498,45.971039 65.88745,82.50685 0.84537,3.85 1.78309,12.625 2.08381,19.5 0.88529,20.23928 -2.22532,37.4822 -9.79796,54.31265 -4.02758,8.95142 -13.66348,24.62321 -15.16605,24.66599 -0.4125,0.0117 -0.74056,-8.19114 -0.72902,-18.22864 z M 32.606989,74.418213 c -0.989194,-2.577798 -0.701139,-4.911476 0.861208,-6.977083 1.351797,-1.787236 1.470718,-1.524907 1.5,3.30887 0.03086,5.094032 -1.125006,6.889704 -2.361208,3.668213 z"
       id="path1510" />
</svg>
