<?xml version="1.0" encoding="UTF-8" standalone="no"?>
<!-- Created with Inkscape (http://www.inkscape.org/) -->

<svg
   version="1.1"
   id="svg12239"
   viewBox="0 0 256 256"
   xmlns="http://www.w3.org/2000/svg"
   fill="#ffffff"
   xmlns:svg="http://www.w3.org/2000/svg">
    <path
       d="m 108.4304,252.03757 c -5.53829,-0.96495 -13.188287,-2.83065 -17.000004,-4.14601 L 84.5,245.5 l 21.68203,-0.26931 c 11.92511,-0.14813 31.72511,-0.14813 44,0 L 172.5,245.5 l -7,2.30244 c -10.083,3.3165 -28.3191,6.21415 -38.34937,6.09357 -4.75785,-0.0572 -13.18195,-0.8935 -18.72023,-1.85844 z M 45.575101,239.82202 C 40.70852,236.99759 39.063403,233.76081 39.058211,227 c -0.0049,-6.41577 0.01614,-6.46595 1.625502,-3.8728 3.131626,5.04595 6.779449,6.31078 19.342778,6.70686 13.507967,0.42587 18.604651,-0.67669 22.755968,-4.92276 C 87.86223,219.71559 88.5,215.37518 88.5,186 v -26.5 l -2.722799,-4.82728 -2.722798,-4.82729 1.986939,-2.68748 C 87.943167,143.23302 88.988639,134.71146 88.986654,115 88.984062,89.25742 87.318845,81.559721 80.680696,76.60453 78.215053,74.763998 76.208383,74.458056 64.683984,74.165629 49.58642,73.782535 45.26877,74.70344 41.573696,79.094787 L 39,82.153451 v -8.473134 c 0,-8.44746 0.01071,-8.482536 3.534796,-11.576725 L 46.069592,59 h 81.503928 81.50393 l 4.18708,3.905667 c 4.10228,3.826571 4.19484,4.059463 4.57057,11.5 C 218.04603,78.58255 217.89668,82 217.50322,82 c -0.39346,0 -1.60738,-1.133991 -2.6976,-2.51998 C 211.01966,74.666941 208.26816,74 192.19754,74 c -13.78373,0 -15.15671,0.168921 -18.29966,2.251445 -1.90779,1.264108 -4.49422,4.443488 -5.89788,7.25 L 165.5,88.5 v 63.52669 63.5267 l 2.52704,4.9733 c 4.00547,7.88293 8.13135,9.47881 24.43485,9.45135 14.14408,-0.0238 20.20076,-1.61067 22.49261,-5.89303 1.71708,-3.20838 3.04566,-2.48167 3.04395,1.66499 -0.002,5.02972 -2.7569,10.21475 -6.89633,12.98007 L 207.70423,241 127.60212,240.9696 c -57.135791,-0.0217 -80.654014,-0.35071 -82.027019,-1.14757 z m 96.592629,-10.85189 c 4.5419,-1.26151 9.32604,-6.55127 11.04019,-12.207 C 154.13632,213.69994 154.5,204.33742 154.5,183.5 v -29 l -3,-5.93787 C 147.26519,140.18022 144.64432,139 130.2656,139 H 119 v -19.91821 c 0,-10.95502 0.27314,-20.630019 0.60699,-21.500003 0.88049,-2.294522 13.90553,-2.294522 14.78602,0 C 134.72686,98.451771 135,104.31866 135,110.61931 v 11.45574 l 9.25,-0.28752 9.25,-0.28753 -0.0375,-16.52914 c -0.0352,-15.512033 -0.18899,-16.834927 -2.5,-21.498554 -1.38981,-2.804645 -3.94272,-5.950187 -5.86042,-7.220861 C 141.96429,74.172316 140.57883,74 127,74 c -13.57883,0 -14.96429,0.172316 -18.10212,2.251445 -1.90779,1.264108 -4.49422,4.443488 -5.89788,7.25 L 100.5,88.5 v 63.52701 63.52701 l 2.52704,4.97299 c 3.93092,7.73571 8.23486,9.47445 23.43485,9.46741 6.62096,-0.003 13.68859,-0.46399 15.70584,-1.02429 z m -22.06475,-22.34604 c -0.79938,-0.9632 -1.06108,-8.08731 -0.87244,-23.75 L 119.5,160.5 l 6.63549,-0.29308 C 136.25363,159.76002 136,159.14826 136,184 c 0,17.62771 -0.24331,21.10046 -1.57143,22.42857 -2.04187,2.04187 -12.67283,2.18696 -14.32559,0.19552 z M 28.832053,200 C 21.718419,189.33196 16.622597,178.21167 13.25171,166 c -2.431041,-8.8069 -2.627082,-11.03212 -2.687037,-30.5 -0.07139,-23.18048 0.619233,-27.07064 5.411696,-30.48317 5.012736,-3.56939 13.494757,-1.97221 14.683711,2.76496 0.336669,1.34139 0.100306,6.10175 -0.525253,10.57856 -2.241014,16.03781 -0.969389,33.58951 3.382928,46.6931 1.203194,3.62248 1.468983,8.71206 1.254451,24.02144 L 34.5,208.5 Z m 28.183009,7.03047 c -1.138724,-0.72 -1.605026,-3.92225 -2,-13.73469 L 54.5,180.5 46.75,180.20794 39,179.91587 V 151.45794 123 h 8 8 v -10.9349 c 0,-6.0142 0.438862,-12.089196 0.975249,-13.5 C 56.858649,96.241582 57.467508,96 62.440065,96 c 4.403919,0 5.694291,0.38253 6.524751,1.934259 C 69.569213,99.063584 70,107.41386 70,118 c 0,10.58614 -0.430787,18.93642 -1.035184,20.06574 -0.881528,1.64715 -2.143211,1.93426 -8.5,1.93426 H 53 v 10.5 10.5 h 7.464816 c 6.356789,0 7.618472,0.28711 8.5,1.93426 C 69.579385,164.08259 70,172.99259 70,184.86283 c 0,22.7198 -0.135647,23.14819 -7.321429,23.12186 -2.298214,-0.008 -4.846793,-0.43782 -5.663509,-0.95422 z M 186,207.02156 c -1.2968,-0.81941 -1.53734,-8.13484 -1.77563,-54.00253 -0.187,-35.99562 0.0655,-53.692069 0.78518,-55.036882 C 185.89388,96.329766 187.11263,96 192.33518,96 c 3.53931,0 6.78688,0.522061 7.46482,1.2 0.90327,0.903274 1.2,14.3619 1.2,54.42857 0,47.05628 -0.18222,53.41079 -1.57143,54.8 -1.76571,1.76571 -10.93204,2.17049 -13.42857,0.59299 z M 221.02098,189.75 c 0.0188,-16.38395 0.27109,-19.10226 2.46699,-26.5851 5.36026,-18.2658 5.3674,-37.12891 0.0216,-56.98706 -2.15844,-8.017946 -2.51006,-11.445626 -2.51328,-24.500003 -0.003,-13.380938 -0.23899,-15.563685 -1.99086,-18.436977 -3.5767,-5.866263 -7.15246,-7.232899 -18.93568,-7.237122 L 189.63944,56 183.56972,52.04912 C 175.51534,46.806395 161.93283,40.531376 154.5,38.61913 c -13.03758,-3.354182 -39.13971,-4.313935 -43.53004,-1.600563 -0.85352,0.527503 0.0146,2.540982 2.97524,6.900729 2.89797,4.267459 4.08443,6.987984 3.86759,8.868303 L 117.5,55.5 80.35376,56 c -35.348497,0.475802 -37.255096,0.596793 -39.395509,2.5 l -2.249269,2 L 40.00884,58 C 40.723762,56.625 44.527801,51 48.462259,45.5 52.396717,40 58.714284,31 62.501296,25.5 75.938757,5.9843394 77.702041,4 81.606196,4 85.512507,4 87.68698,5.9018295 93.158132,14.103511 96.91032,19.728332 95.704838,19.540565 112,17.038333 c 3.575,-0.548966 10.775,-0.993273 16,-0.98735 19.28793,0.02186 34.86116,3.380073 50.74275,10.942167 34.13256,16.252374 57.86498,45.971039 65.88745,82.50685 0.84537,3.85 1.78309,12.625 2.08381,19.5 0.88529,20.23928 -2.22532,37.4822 -9.79796,54.31265 -4.02758,8.95142 -13.66348,24.62321 -15.16605,24.66599 -0.4125,0.0117 -0.74056,-8.19114 -0.72902,-18.22864 z M 32.606989,74.418213 c -0.989194,-2.577798 -0.701139,-4.911476 0.861208,-6.977083 1.351797,-1.787236 1.470718,-1.524907 1.5,3.30887 0.03086,5.094032 -1.125006,6.889704 -2.361208,3.668213 z"
       id="path293" />
</svg>
