<?xml version="1.0" encoding="UTF-8" standalone="no"?>
<!-- Created with Inkscape (http://www.inkscape.org/) -->

<svg
   version="1.1"
   id="svg12239"
   viewBox="0 0 200 200"
   xmlns="http://www.w3.org/2000/svg"
   fill="#ffffff"
   xmlns:svg="http://www.w3.org/2000/svg">
    <path
       d="M 19.666667,149.33333 C 19.3,148.96667 19,126.69167 19,99.833333 V 51 H 31.5 44 v 15 c 0,8.25 0.243222,15 0.540493,15 0.29727,0 1.913314,-1.0125 3.591207,-2.25 2.589936,-1.910161 4.288031,-2.245268 11.242707,-2.21867 9.07915,0.03472 13.211309,1.683007 17.021063,6.78956 1.989587,2.666821 2.120811,4.209611 2.40262,28.24753 0.328456,28.01684 -0.0671,30.35075 -5.84058,34.46184 -6.51975,4.64247 -20.634647,4.79518 -25.999103,0.28129 L 44,143.82221 v 2.48191 c 0,1.36505 -0.711804,2.75505 -1.581787,3.08889 -2.151343,0.82555 -21.91817,0.7737 -22.751546,-0.0597 z M 53.517197,128.75 c 0.305415,-1.2375 0.426489,-9.225 0.269052,-17.75 L 53.5,95.5 49.601786,95.180799 c -2.442601,-0.20001 -4.210558,0.173395 -4.734687,1 C 43.501086,98.335137 43.79878,128.39878 45.2,129.8 c 0.66,0.66 2.676427,1.2 4.480948,1.2 2.571264,0 3.401062,-0.48669 3.836249,-2.25 z m 49.291693,20.28689 C 92.68495,147.19333 88,141.52318 88,131.11385 V 125 h 12 12 l 0.0153,2.75 c 0.0233,4.18287 1.28198,5.43775 5.08955,5.07418 3.33999,-0.31891 3.40003,-0.40894 3.69629,-5.54229 0.35284,-6.11368 0.63452,-5.9695 -12.80115,-6.55247 -15.409548,-0.6686 -20.058064,-5.00478 -20.814455,-19.4159 -1.085924,-20.689552 5.810166,-26.055652 32.271275,-25.111462 9.94685,0.354925 12.7898,0.81693 16.33241,2.654171 6.25145,3.242075 8.31137,7.151154 7.98014,15.143771 l -0.26937,6.5 h -11.5 -11.5 l -0.31724,-3.302077 c -0.22461,-2.337909 -1.01893,-3.621787 -2.72039,-4.397022 -3.85893,-1.758248 -5.61801,0.452797 -5.25904,6.610276 L 112.5,104.5 l 10.28,0.68198 c 11.77853,0.78138 16.55755,2.61179 19.89115,7.61848 4.01654,6.03238 4.31137,22.04063 0.52795,28.66559 -0.99015,1.73381 -3.80676,4.06567 -6.57271,5.44154 -4.17277,2.07565 -6.51426,2.44729 -16.98323,2.69557 -6.67874,0.15839 -14.25416,-0.0964 -16.83427,-0.56627 z m 56.40677,0.13471 c -0.95111,-0.61619 -1.21057,-3.79498 -1,-12.25184 L 158.5,125.5 h 12.5 12.5 v 12 12 l -11.5,0.25184 c -6.325,0.13852 -12.07795,-0.12259 -12.78434,-0.58024 z m 1.7744,-35.4216 C 160.9846,113.0625 160.08907,101.025 159,87 157.91093,72.975 157.0154,60.0375 157.00994,58.25 L 157,55 h 14.63809 14.6381 l -0.60232,6.25 c -0.33127,3.4375 -1.37036,16.9375 -2.30909,30 L 181.658,115 h -10.329 c -7.59123,0 -10.33163,-0.33132 -10.33894,-1.25 z"
       id="path3563" />
</svg>
