<?xml version="1.0" encoding="UTF-8" standalone="no"?>
<!-- Created with Inkscape (http://www.inkscape.org/) -->

<svg
   version="1.1"
   id="svg12239"
   viewBox="0 0 512 512"
   xmlns="http://www.w3.org/2000/svg"
   fill="#ffffff"
   xmlns:svg="http://www.w3.org/2000/svg">
    <path
       d="M 33.775951,432.57231 C 26.805498,430.57762 20.889367,426.75353 15.281863,420.61803 9.3239283,414.09909 6.4688148,408.35942 4.4792579,398.9014 2.2564339,388.33446 2.7987428,376.01617 6.9182868,343.5 7.4757324,339.1 8.8521247,324.475 9.9769363,311 12.03722,286.31824 18.141391,228.48525 20.056794,215.5 21.501206,205.70778 22.711871,194.5808 23.919354,180 26.241988,151.95335 37.038641,128.96887 57.503755,108.50376 76.594706,89.412805 99.029473,78.229887 124.5,75.108555 136.54074,73.633001 375.9733,73.563893 388.02623,75.032492 413.44332,78.129456 436.3318,89.394022 455.01294,108 477.00629,129.90487 489,156.94928 489,184.63684 c 0,5.34664 0.42072,11.10311 0.93494,12.79216 0.51422,1.68905 1.44284,8.471 2.06359,15.071 0.62075,6.6 2.66018,25.95 4.53205,43 1.87188,17.05 4.11869,39.1 4.99292,49 0.87423,9.9 2.43546,24.525 3.4694,32.5 3.67254,28.32701 4.23354,35.67663 3.85469,50.5 -0.36838,14.41373 -0.50858,15.26584 -3.58709,21.80161 -4.08546,8.67357 -12.97343,17.75855 -20.96499,21.4297 -4.94912,2.27352 -7.49497,2.72402 -17.43226,3.08473 -9.97964,0.36224 -12.55877,0.11557 -18.11135,-1.73221 -3.65959,-1.21783 -8.38268,-3.76404 -10.86325,-5.85635 C 433.99567,422.94383 408.1015,400.18957 384.14414,379 c -4.6638,-4.125 -9.86666,-8.71921 -11.56189,-10.20936 -1.69524,-1.49015 -3.64421,-2.72765 -4.33105,-2.75 -0.68683,-0.0224 -4.28683,1.49766 -8,3.37781 -12.019,6.08579 -16.89828,7.07998 -34.7512,7.08081 -18.33098,8.5e-4 -25.39726,-1.40344 -37,-7.35306 -9.69347,-4.97058 -22.69073,-18.02385 -27.89595,-28.01616 l -3.83918,-7.36996 -4.52801,7.86996 c -5.72309,9.94706 -18.26967,22.57416 -27.0352,27.2087 -10.62444,5.61738 -18.00039,7.31505 -34.26475,7.88648 -12.64822,0.44438 -15.66841,0.23215 -22.96926,-1.61408 -4.62339,-1.16916 -11.83716,-3.87925 -16.0306,-6.02243 l -7.62443,-3.89668 -5.90631,5.25886 c -72.112885,64.20791 -70.279241,62.90242 -88.852623,63.26029 -6.92209,0.13338 -12.819421,-0.29231 -15.777736,-1.13887 z M 202.48562,338.00686 c 15.25722,-7.2816 24.61488,-23.29075 22.38231,-38.29182 C 223.84117,292.81606 218.85674,282.85674 214,278 c -4.42023,-4.42023 -13.25555,-9.05664 -21.29709,-11.17582 -12.40328,-3.26864 -31.55622,7.91272 -38.64803,22.56246 -3.90279,8.06207 -4.65873,14.47919 -2.60111,22.08063 2.04547,7.55658 7.94238,17.10072 12.80333,20.72217 14.30398,10.65661 24.7562,12.24717 38.22852,5.81742 z m 136.06405,0.52735 c 7.17555,-3.49292 17.21843,-13.23919 20.12871,-19.53421 1.14423,-2.475 2.63904,-7.01038 3.3218,-10.07863 1.06929,-4.80528 1.00396,-6.39531 -0.47126,-11.4699 -2.32873,-8.01055 -4.92766,-12.84386 -9.67651,-17.99576 -8.176,-8.86991 -20.96897,-14.41511 -30.09792,-13.04614 -6.63821,0.99546 -18.10175,6.88506 -23.06859,11.8519 -7.9264,7.92639 -12.53452,21.12207 -10.7088,30.66537 2.20919,11.54774 7.72327,19.98725 16.89037,25.85138 12.45949,7.97024 22.68286,9.11027 33.6822,3.75599 z m 32.74999,-98.15118 C 377.62803,237.18561 383,230.0565 383,224.85556 c 0,-6.49014 -7.4583,-15.36658 -15.00401,-17.85688 -3.5951,-1.18649 -4.31502,-1.07729 -9.44519,1.43266 -4.14517,2.02804 -6.19992,3.82015 -8.10269,7.06699 -3.7359,6.37484 -4.06666,10.20756 -1.37504,15.93373 4.16516,8.86099 14.3148,12.9484 22.22659,8.95097 z m -217.07099,-5.16449 c 2.16969,-2.16705 2.2937,-3.1512 2.77133,-21.99355 l 0.5,-19.72499 19.73004,-0.5 19.73004,-0.5 2.76996,-2.77273 C 202.3196,187.13513 202.5,186.40391 202.5,178.5 c 0,-7.90421 -0.18033,-8.63503 -2.77027,-11.22727 L 196.95946,164.5 178.25481,164.18577 c -11.20998,-0.18832 -19.21556,-0.73824 -19.97974,-1.37244 C 157.32888,162.02806 157,157.15607 157,143.92461 c 0,-11.12208 -0.42504,-18.76336 -1.12972,-20.30997 -1.66975,-3.6647 -5.7002,-4.87955 -14.81537,-4.4656 -6.70719,0.30459 -8.3822,0.73343 -10.28358,2.63284 -2.18229,2.18003 -2.28346,3.03227 -2.58072,21.7394 -0.3035,19.10028 -0.35103,19.47977 -2.5,19.96199 -1.20483,0.27036 -10.1632,0.60972 -19.90747,0.75415 C 83.638554,164.56562 84.5,164.00329 84.5,178.13051 c 0,9.97091 0.0262,10.07997 2.989853,12.4431 2.874989,2.29243 3.700975,2.39444 21.499997,2.65521 L 127.5,193.5 128,212.64799 c 0.45271,17.33714 0.68914,19.35793 2.5,21.36803 3.03246,3.36609 5.30003,3.97959 13.72867,3.71432 6.5084,-0.20483 8.08728,-0.60141 10,-2.5118 z M 327.4613,194.6416 c 4.43565,-2.39805 7.98938,-7.07608 9.69169,-12.7579 1.02786,-3.43068 0.85777,-4.35889 -1.7575,-9.59099 -2.52812,-5.05774 -3.63046,-6.16008 -8.6882,-8.6882 -5.2321,-2.61527 -6.16031,-2.78536 -9.59099,-1.7575 -6.39731,1.91668 -10.43258,5.28493 -13.36165,11.15299 -2.35097,4.70992 -2.60357,6.00278 -1.75843,9 1.87634,6.65429 4.72249,9.9519 11.25648,13.04199 6.6368,3.13871 7.71874,3.10822 14.2086,-0.40039 z m 90.42637,-0.0835 c 3.9766,-2.05638 7.83456,-6.89894 9.24398,-11.60316 2.23019,-7.44371 -2.49303,-16.3972 -10.59028,-20.07527 -5.38971,-2.4482 -7.20695,-2.34894 -13.38816,0.73128 -4.09118,2.03872 -5.88545,3.73723 -8.18696,7.75 -3.45753,6.02834 -3.64438,8.40038 -1.05783,13.4289 2.51643,4.8922 6.5864,8.64316 12.00525,11.06423 4.58228,2.04731 5.75404,1.92048 11.974,-1.29598 z M 370,150.91909 c 5.51527,-2.49657 9.57152,-6.23 12.09158,-11.12925 2.47411,-4.80992 2.41625,-5.84022 -0.69755,-12.42226 -2.91687,-6.16577 -8.51341,-10.92415 -14.07565,-11.96763 -9.01722,-1.69164 -22.73408,11.87794 -20.81931,20.5958 1.24165,5.65319 6.03237,11.59186 11.58214,14.35743 6.32693,3.15284 6.21557,3.14755 11.91879,0.56591 z"
       id="path4076" />
</svg>
