<?xml version="1.0" encoding="UTF-8" standalone="no"?>
<!-- Created with Inkscape (http://www.inkscape.org/) -->

<svg
   version="1.1"
   id="svg12239"
   viewBox="0 0 600 600"
   xmlns="http://www.w3.org/2000/svg"
   fill="#ffffff"
   xmlns:svg="http://www.w3.org/2000/svg">
    <path
       d="M 201,468.91867 C 68.379939,338.26663 79.183656,349.15387 81,347.99098 c 0.947138,-0.60639 84.33719,-0.966 226.25,-0.97567 189.48502,-0.0129 224.75,0.19935 224.75,1.35275 0,0.75243 -50.12233,51.15243 -111.38295,112 -86.44944,85.86655 -111.91282,110.61882 -113.75,110.57333 C 305.10526,570.89777 278.03476,544.81027 201,468.91867 Z M 81.572734,256.67684 c -1.643277,-1.20159 8.496,-11.46851 110.360656,-111.75 C 278.6145,59.592921 304.72434,34.432461 306.83542,34.202779 c 2.42425,-0.263755 15.27605,12.182153 114.14,110.535181 72.86168,72.48514 111.14838,111.25272 110.65735,112.04722 -1.15564,1.86986 -447.501621,1.76242 -450.060036,-0.10834 z"
       id="path4589" />
</svg>
