<svg version="1.1" xmlns="http://www.w3.org/2000/svg" width="300" height="300" viewBox='0 0 300 300'>
<path d="M0 0 C4.02 0.42 6.88 1.92 10.31 3.91 C11.64 4.65 12.98 5.39 14.31 6.13 C14.98 6.51 15.65 6.88 16.34 7.27 C19.29 8.88 22.3 10.36 25.31 11.85 C30.78 14.56 36.17 17.39 41.54 20.29 C46.96 23.19 52.43 25.94 57.95 28.65 C61.5 30.4 64.94 32.25 68.31 34.35 C68.79 34.08 69.26 33.81 69.75 33.54 C74.81 30.71 79.89 27.95 85 25.22 C85.63 24.89 86.26 24.55 86.91 24.2 C88.13 23.55 89.35 22.91 90.58 22.27 C92.22 21.4 93.84 20.47 95.46 19.54 C98.85 18.12 99.88 18.15 103.31 19.35 C106.13 20.51 108.88 21.78 111.62 23.1 C112.38 23.46 113.14 23.82 113.92 24.19 C118.96 26.61 123.64 29.29 128.31 32.35 C129.96 33.07 131.61 33.76 133.31 34.35 C133.97 33.77 134.63 33.19 135.3 32.59 C138.84 29.96 142.43 28.26 146.44 26.47 C152.24 23.81 157.88 21.02 163.46 17.9 C167.62 15.64 171.86 13.56 176.11 11.47 C179.6 9.74 183.05 7.96 186.46 6.06 C187.13 5.69 187.8 5.32 188.49 4.94 C189.75 4.23 191.01 3.51 192.26 2.79 C196.1 0.65 198.93 -0.21 203.31 0.35 C205.81 2.85 205.57 3.63 205.59 7.09 C205.6 8.09 205.61 9.09 205.62 10.12 C205.62 11.22 205.62 12.32 205.62 13.45 C205.63 14.61 205.64 15.76 205.64 16.95 C205.67 20.79 205.68 24.63 205.68 28.47 C205.69 30.46 205.7 32.44 205.7 34.43 C205.73 40.68 205.73 46.93 205.74 53.18 C205.74 59.63 205.77 66.08 205.81 72.53 C205.85 78.06 205.86 83.6 205.86 89.13 C205.87 92.44 205.88 95.75 205.9 99.05 C205.93 102.74 205.92 106.43 205.91 110.11 C205.93 111.76 205.93 111.76 205.96 113.44 C205.93 116.17 205.88 118.68 205.31 121.35 C202.94 123.46 202.94 123.46 200.31 124.35 C199.45 124.83 198.59 125.31 197.7 125.81 C192.29 128.77 186.85 131.63 181.31 134.35 C182.53 137.04 182.53 137.04 184.31 139.35 C184.46 141.03 184.54 142.71 184.58 144.4 C184.63 146.02 184.63 146.02 184.68 147.67 C184.79 152.62 184.88 157.58 184.94 162.54 C184.98 165.15 185.04 167.76 185.12 170.38 C185.24 174.14 185.29 177.9 185.32 181.67 C185.37 182.83 185.42 184 185.47 185.19 C185.45 193.15 185.45 193.15 182.16 196.61 C179.61 198.42 177.09 199.93 174.31 201.35 C173.58 201.75 172.84 202.16 172.08 202.58 C170.27 203.56 168.44 204.43 166.56 205.29 C165.94 205.59 165.32 205.89 164.68 206.2 C160.77 208.02 157.63 208.89 153.31 208.35 C151.56 206.04 151.56 206.04 150.31 203.35 C149.65 202.36 148.99 201.37 148.31 200.35 C147.75 196.62 147.88 194.96 150.06 191.85 C154.68 188.3 160.11 185.95 165.31 183.35 C165.31 170.15 165.31 156.95 165.31 143.35 C163.42 145.24 164.16 148.6 164.14 151.12 C164.11 152.52 164.09 153.91 164.06 155.31 C164.03 157.52 164 159.72 163.99 161.93 C163.97 164.06 163.93 166.18 163.89 168.31 C163.87 169.59 163.86 170.86 163.84 172.18 C163.31 175.35 163.31 175.35 161.46 177.26 C158.59 178.71 156.38 178.71 153.19 178.66 C152.13 178.66 151.08 178.65 149.99 178.65 C147.31 178.35 147.31 178.35 145.31 176.35 C145.05 174.5 145.05 174.5 145.02 172.24 C145.01 171.39 145 170.54 144.98 169.67 C144.98 168.75 144.98 167.83 144.98 166.89 C144.97 165.47 144.97 165.47 144.96 164.03 C144.95 162.04 144.94 160.04 144.94 158.04 C144.94 154.99 144.9 151.94 144.86 148.89 C144.86 146.95 144.85 145.01 144.85 143.07 C144.84 142.16 144.82 141.25 144.81 140.31 C144.85 133.99 144.85 133.99 147.1 130.86 C149.12 129.48 151 128.33 153.25 127.35 C154.34 126.85 154.34 126.85 155.46 126.35 C156.22 126.02 156.97 125.69 157.75 125.35 C159.25 124.69 160.75 124.02 162.25 123.35 C162.91 123.06 163.57 122.77 164.25 122.47 C166.94 121.08 166.94 121.08 171.31 117.35 C176.26 115.04 181.21 112.73 186.31 110.35 C186.64 82.96 186.97 55.57 187.31 27.35 C181.7 30.32 176.09 33.29 170.31 36.35 C166.99 38.03 163.66 39.7 160.31 41.35 C157.5 42.74 154.69 44.14 151.88 45.54 C151.18 45.88 150.48 46.23 149.76 46.58 C146.82 48.04 144.05 49.52 141.31 51.35 C140.9 54.06 140.9 54.06 141.02 57.23 C141.03 58.98 141.03 58.98 141.05 60.77 C141.07 61.99 141.1 63.21 141.12 64.47 C141.14 65.7 141.15 66.93 141.17 68.2 C141.2 71.25 141.25 74.3 141.31 77.35 C141.8 77.09 142.3 76.83 142.8 76.56 C147.77 73.93 152.74 71.31 157.72 68.71 C160.13 67.44 162.53 66.16 164.93 64.87 C166.33 64.13 167.72 63.39 169.12 62.66 C169.76 62.31 170.4 61.96 171.06 61.6 C175.2 59.46 177.83 58.96 182.31 60.35 C185.32 63.36 184.72 66.79 184.79 70.83 C184.81 71.67 184.82 72.52 184.84 73.39 C184.87 75.19 184.89 76.98 184.9 78.78 C184.94 81.51 185.02 84.24 185.11 86.97 C185.34 99.59 185.34 99.59 182.75 104.01 C180.7 105.88 178.8 107.11 176.31 108.35 C175.67 108.73 175.04 109.11 174.38 109.5 C172.56 110.55 170.72 111.43 168.81 112.29 C168.2 112.59 167.59 112.89 166.96 113.2 C162.13 115.43 158.51 115.83 153.31 115.35 C150.18 112.74 148.74 111.2 147.84 107.27 C147.69 105.16 147.69 105.16 148.31 101.35 C150.5 99.81 150.5 99.81 153.31 98.35 C154.24 97.82 155.18 97.29 156.14 96.74 C157.08 96.22 158.03 95.7 159 95.16 C159.95 94.63 160.91 94.1 161.89 93.55 C164.31 92.35 164.31 92.35 166.31 92.35 C165.98 90.37 165.65 88.39 165.31 86.35 C164.59 86.75 163.86 87.14 163.12 87.55 C150.39 94.53 150.39 94.53 144.69 96.78 C142.31 98.16 141.47 98.82 140.68 101.5 C140.45 104.31 140.45 107.06 140.52 109.88 C140.51 111.42 140.51 111.42 140.5 112.99 C140.49 116.28 140.52 119.56 140.56 122.85 C140.58 126.13 140.59 129.42 140.58 132.7 C140.58 134.74 140.59 136.79 140.63 138.83 C140.63 139.76 140.63 140.69 140.63 141.64 C140.64 142.46 140.65 143.27 140.66 144.11 C140.22 146.91 139.22 148.28 137.31 150.35 C135.23 150.91 135.23 150.91 132.94 150.91 C132.19 150.93 131.44 150.95 130.66 150.98 C127.99 150.26 126.3 149.21 124.38 147.21 C121.93 142.94 122.65 137.57 122.72 132.79 C122.72 131.56 122.72 130.34 122.72 129.08 C122.72 126.49 122.74 123.9 122.77 121.32 C122.81 117.36 122.81 113.41 122.8 109.45 C122.82 106.94 122.83 104.42 122.84 101.91 C122.84 100.13 122.84 100.13 122.84 98.32 C122.86 97.22 122.88 96.11 122.89 94.98 C122.9 94.01 122.91 93.04 122.92 92.04 C123.38 88.89 124.52 86.95 126.31 84.35 C125.82 83.82 125.33 83.3 124.83 82.76 C122.84 79.59 123 77.51 123.08 73.79 C123.08 71.88 123.08 71.88 123.08 69.93 C123.1 67.92 123.13 65.91 123.18 63.9 C123.68 56.12 123.68 56.12 120.62 49.39 C118.55 48.08 116.61 47.19 114.31 46.35 C112.99 45.69 111.67 45.03 110.31 44.35 C110.31 104.08 110.31 163.81 110.31 225.35 C114.27 223.37 118.23 221.39 122.31 219.35 C122.32 217.95 122.32 216.55 122.32 215.11 C122.35 209.92 122.4 204.73 122.47 199.54 C122.49 197.3 122.5 195.05 122.51 192.81 C122.52 189.58 122.56 186.35 122.61 183.12 C122.6 182.11 122.6 181.11 122.59 180.08 C122.69 175.34 122.76 173.07 125.71 169.21 C128.45 167.25 129.63 166.71 132.94 166.85 C133.69 166.86 134.45 166.87 135.23 166.88 C137.89 167.48 138.66 168.18 140.31 170.35 C140.71 172.96 140.71 172.96 140.73 176.13 C140.75 177.32 140.76 178.51 140.78 179.73 C140.78 181.02 140.78 182.3 140.78 183.62 C140.79 184.94 140.8 186.26 140.8 187.62 C140.82 190.41 140.82 193.2 140.81 195.99 C140.81 199.56 140.84 203.13 140.88 206.71 C140.91 210.12 140.91 213.53 140.91 216.94 C140.92 218.22 140.94 219.5 140.96 220.82 C140.95 222.01 140.94 223.21 140.93 224.43 C140.93 225.48 140.93 226.53 140.93 227.61 C140.09 231.32 138.44 232.31 135.31 234.35 C133.33 235.38 131.33 236.38 129.31 237.35 C127.62 238.31 125.93 239.28 124.25 240.25 C121.05 242.07 117.81 243.8 114.56 245.54 C113.57 246.07 113.57 246.07 112.57 246.61 C106.59 249.81 102.05 251.16 95.31 250.35 C92.34 249.3 89.71 247.82 87 246.22 C85.52 245.39 84.04 244.56 82.55 243.73 C81.84 243.32 81.12 242.91 80.38 242.49 C76.65 240.43 72.78 238.64 68.93 236.83 C67.63 236.1 67.63 236.1 66.31 235.35 C65.28 234.77 64.25 234.19 63.19 233.6 C60.91 231.65 60.36 230.57 59.77 227.6 C59.57 224 59.56 220.44 59.62 216.84 C59.62 215.52 59.62 214.2 59.63 212.85 C59.63 210.06 59.65 207.28 59.7 204.5 C59.75 200.93 59.76 197.37 59.76 193.8 C59.76 190.4 59.78 186.99 59.81 183.59 C59.81 182.31 59.82 181.03 59.82 179.71 C59.85 177.93 59.85 177.93 59.88 176.12 C59.89 175.07 59.9 174.03 59.91 172.95 C60.31 170.35 60.31 170.35 61.71 168.51 C63.81 166.98 65.16 166.95 67.75 166.97 C68.51 166.96 69.27 166.96 70.06 166.95 C72.92 167.46 74.2 168.36 76.31 170.35 C76.79 172.57 76.79 172.57 76.77 175.19 C76.77 176.17 76.77 177.15 76.77 178.16 C76.75 179.21 76.72 180.27 76.7 181.36 C76.7 182.44 76.69 183.53 76.69 184.64 C76.66 188.11 76.61 191.57 76.56 195.04 C76.54 197.38 76.52 199.73 76.51 202.08 C76.46 207.83 76.4 213.59 76.31 219.35 C77.27 219.72 77.27 219.72 78.25 220.1 C82.31 221.75 86.31 223.57 90.31 225.35 C90.31 165.62 90.31 105.89 90.31 44.35 C77.7 49.39 77.7 49.39 75.79 54.94 C75.84 56.18 75.88 57.43 75.93 58.71 C75.93 59.38 75.94 60.05 75.94 60.74 C75.96 62.87 76.07 64.98 76.19 67.1 C76.25 69.23 76.3 71.36 76.33 73.5 C76.37 75.42 76.45 77.35 76.54 79.27 C76.31 82.35 76.31 82.35 74.81 84.27 C74.32 84.63 73.82 84.98 73.31 85.35 C73.8 85.73 74.29 86.11 74.79 86.5 C76.88 89.04 76.7 90.68 76.72 93.95 C76.73 95.1 76.74 96.25 76.75 97.43 C76.75 98.67 76.75 99.91 76.75 101.19 C76.75 102.46 76.76 103.73 76.76 105.05 C76.77 107.74 76.77 110.44 76.76 113.13 C76.75 116.59 76.77 120.04 76.8 123.49 C76.82 126.78 76.81 130.08 76.81 133.38 C76.82 134.61 76.83 135.85 76.84 137.13 C76.83 138.86 76.83 138.86 76.81 140.62 C76.81 141.63 76.81 142.64 76.81 143.68 C76.18 147.06 74.97 148.24 72.31 150.35 C70.06 150.88 70.06 150.88 67.75 150.85 C66.99 150.86 66.22 150.87 65.43 150.88 C62.5 150.14 61.88 148.89 60.31 146.35 C59.91 144.08 59.91 144.08 59.88 141.58 C59.86 140.64 59.84 139.7 59.82 138.73 C59.81 137.72 59.81 136.71 59.8 135.68 C59.78 134.64 59.76 133.6 59.75 132.53 C59.69 129.22 59.66 125.91 59.62 122.6 C59.59 120.35 59.56 118.11 59.52 115.86 C59.44 110.36 59.37 104.85 59.31 99.35 C58.17 98.74 57.02 98.14 55.84 97.52 C54.31 96.71 52.78 95.91 51.25 95.1 C50.5 94.7 49.75 94.31 48.97 93.9 C44.37 91.47 39.82 88.96 35.31 86.35 C34.98 88.33 34.65 90.31 34.31 92.35 C35.08 92.55 35.84 92.76 36.62 92.97 C41.74 94.88 48.39 97.43 52.31 101.35 C53.05 106.37 51.5 109.52 49.19 113.81 C46.72 115.84 44.63 115.86 41.5 115.71 C37.68 115.08 34.55 113.38 31.19 111.54 C30.51 111.18 29.83 110.82 29.14 110.46 C27.81 109.76 26.49 109.05 25.17 108.34 C23.43 107.41 21.66 106.53 19.88 105.65 C17.31 104.35 17.31 104.35 16.31 103.35 C16.2 100.27 16.15 97.21 16.14 94.13 C16.14 93.21 16.14 92.28 16.13 91.33 C16.13 89.36 16.13 87.4 16.13 85.44 C16.13 82.43 16.11 79.42 16.09 76.4 C16.08 74.5 16.08 72.6 16.08 70.7 C16.07 69.79 16.07 68.88 16.06 67.95 C16.06 67.11 16.07 66.28 16.07 65.41 C16.07 64.68 16.07 63.94 16.07 63.18 C16.31 61.35 16.31 61.35 18.31 59.35 C26.23 59.22 31.55 62.32 38.28 66.2 C42.34 68.49 46.49 70.62 50.62 72.79 C53.49 74.29 56.36 75.8 59.31 77.35 C58.98 68.44 58.65 59.53 58.31 50.35 C55.78 49.17 53.24 48 50.62 46.79 C45.25 44.27 39.96 41.69 34.75 38.85 C27.37 34.83 19.83 31.11 12.31 27.35 C12.31 54.41 12.31 81.47 12.31 109.35 C20.73 113.31 20.73 113.31 29.31 117.35 C31.62 119 33.93 120.65 36.31 122.35 C38.44 123.59 38.44 123.59 40.39 124.48 C41.08 124.81 41.76 125.14 42.47 125.48 C43.16 125.81 43.85 126.14 44.56 126.47 C45.97 127.14 47.37 127.81 48.77 128.48 C49.38 128.77 49.99 129.06 50.61 129.35 C52.58 130.51 53.85 131.59 55.31 133.35 C55.69 135.33 55.69 135.33 55.68 137.6 C55.69 138.89 55.69 138.89 55.7 140.19 C55.69 141.11 55.69 142.03 55.68 142.98 C55.68 144.39 55.68 144.39 55.68 145.84 C55.67 147.84 55.67 149.84 55.65 151.84 C55.63 154.9 55.63 157.97 55.63 161.03 C55.63 162.97 55.62 164.91 55.61 166.85 C55.61 168.23 55.61 168.23 55.62 169.64 C55.61 170.49 55.6 171.34 55.59 172.22 C55.58 172.97 55.58 173.72 55.57 174.49 C55.31 176.35 55.31 176.35 53.31 178.35 C50.63 178.65 50.63 178.65 47.44 178.66 C46.39 178.68 45.34 178.69 44.26 178.71 C40.84 178.29 39.69 177.81 37.31 175.35 C36.78 172.18 36.78 172.18 36.74 168.31 C36.72 167.29 36.72 167.29 36.7 166.24 C36.65 164.07 36.64 161.9 36.62 159.72 C36.6 157.54 36.56 155.36 36.52 153.18 C36.49 151.21 36.47 149.23 36.45 147.26 C36.64 144.46 36.64 144.46 35.31 143.35 C35.06 148.93 34.88 154.52 34.76 160.11 C34.71 162.01 34.64 163.91 34.56 165.81 C33.58 176.49 33.58 176.49 37.44 185.87 C40.04 187.43 42.44 188.41 45.31 189.35 C48.01 190.83 49.96 192.3 52.31 194.35 C53.21 197.73 52.79 199.44 51.17 202.51 C49.95 204.51 48.67 206.44 47.31 208.35 C37.99 208.35 31.16 203.91 23.31 199.35 C22.38 198.81 21.45 198.27 20.48 197.71 C18.31 196.35 18.31 196.35 16.31 194.35 C16.05 192.04 16.05 192.04 16.04 189.12 C16.03 188.03 16.02 186.94 16.01 185.81 C16.01 184.63 16.01 183.45 16.01 182.23 C16.01 181.02 16 179.8 16 178.56 C15.99 175.99 15.99 173.43 16 170.86 C16 166.93 15.98 163 15.95 159.06 C15.95 156.58 15.95 154.09 15.95 151.6 C15.94 150.42 15.93 149.24 15.92 148.02 C15.93 146.93 15.93 145.83 15.94 144.71 C15.94 143.74 15.94 142.78 15.94 141.78 C16.38 138.92 17.19 138.2 19.31 136.35 C19.31 135.69 19.31 135.03 19.31 134.35 C18.17 133.83 17.02 133.31 15.84 132.77 C14.31 132.07 12.78 131.36 11.25 130.66 C10.12 130.15 10.12 130.15 8.97 129.63 C8.23 129.29 7.48 128.94 6.71 128.59 C6.04 128.28 5.36 127.97 4.67 127.65 C3.5 127.01 3.5 127.01 2.31 126.35 C1.74 126.08 1.17 125.81 0.58 125.53 C-1.57 124.32 -3.07 123.22 -4.69 121.35 C-5.73 117.54 -5.59 113.82 -5.51 109.89 C-5.52 108.73 -5.52 107.57 -5.53 106.38 C-5.53 102.55 -5.49 98.73 -5.44 94.9 C-5.43 92.24 -5.43 89.59 -5.43 86.93 C-5.42 81.37 -5.38 75.8 -5.33 70.24 C-5.26 63.09 -5.23 55.95 -5.21 48.8 C-5.2 42 -5.16 35.2 -5.13 28.4 C-5.12 27.09 -5.12 25.79 -5.11 24.44 C-5.09 20.77 -5.06 17.09 -5.03 13.42 C-5.02 12.32 -5.02 11.22 -5.01 10.09 C-5 9.1 -4.99 8.1 -4.98 7.07 C-4.97 6.2 -4.96 5.33 -4.95 4.44 C-4.52 1.06 -3.27 0.42 0 0 Z " transform="translate(50.6875,25.65234375)"/>
</svg>
