<svg xmlns="http://www.w3.org/2000/svg" viewBox="0 0 333333 333333" shape-rendering="geometricPrecision" text-rendering="geometricPrecision" image-rendering="optimizeQuality" fill-rule="evenodd" clip-rule="evenodd"><path d="M225 162617l73189 29853c9154-5256 19765-8262 31078-8262 1987 0 3951 94 5890 275l52891-75293v-53c0-23479 9518-44736 24906-60124s36645-24906 60124-24906 44736 9518 60124 24906 24906 36646 24906 60124c0 23479-9518 44736-24906 60124s-36645 24906-60124 24906c-299 0-597-3-895-6l-80753 59150c-1534 14627-8112 27754-17964 37606-11312 11312-26939 18309-44200 18309s-32887-6997-44200-18309c-8257-8257-14215-18813-16831-30626L-1 242906l225-80289zm95341 38889l19367 7899c40021 16324 22200 80460-26977 68683l-24105-9642c2148 4009 4870 7663 8059 10852 8337 8337 19857 13494 32581 13494s24244-5157 32581-13494 13494-19857 13494-32581-5157-24244-13494-32581-19856-13494-32581-13494c-3054 0-6038 298-8925 865zM247997 66956c23541 0 42624 19084 42624 42624 0 23541-19084 42624-42624 42624-23541 0-42624-19083-42624-42624s19083-42624 42624-42624zm39709 2778c-10083-10083-24015-16320-39404-16320s-29320 6237-39404 16320c-10083 10083-16320 24015-16320 39404s6237 29320 16320 39404c10083 10083 24015 16320 39404 16320s29321-6237 39404-16320 16320-24015 16320-39404-6237-29321-16320-39404z"/></svg>