<?xml version="1.0" encoding="UTF-8" standalone="no"?>
<!-- Created with Inkscape (http://www.inkscape.org/) -->

<svg
   version="1.1"
   id="svg2"
   fill="#ffffff"
   viewBox="0 0 89 89"
   xmlns="http://www.w3.org/2000/svg"
   xmlns:svg="http://www.w3.org/2000/svg">
  <defs
     id="defs6" />
  <g
     id="g8">
    <path
       d="M 10,68 V 54 H 7.5 C 5.3888889,54 5,53.533333 5,51 v -3 h 6.5 6.5 v 17 17 h -4 -4 z m 17,0 V 54 H 24.5 C 22.388889,54 22,53.533333 22,51 v -3 h 7 7 V 65 82 H 31.5 27 Z M 44.5,80.860965 C 41.613554,79.143474 41.032495,77.957745 41.015313,73.75 41.000205,70.050129 41.052541,70 44.930449,70 c 3.314673,0 3.980513,0.352503 4.25,2.25 0.228799,1.611005 1.100545,2.339863 3.069551,2.566422 2.641123,0.303895 2.75,0.13744 2.75,-4.20431 V 66.09138 L 48.25,65.79569 41.5,65.5 41.211067,56.75 40.922134,48 H 51.461067 62 v 3 3 h -6 c -5.638927,0 -6,0.142065 -6,2.360709 0,2.102244 0.574803,2.428762 5.25,2.982274 C 61.9969,60.141772 63,61.58585 63,70.5 63,80.223145 62.042888,81.338669 53.359018,81.736653 49.277097,81.923729 45.690235,81.569178 44.5,80.860965 Z M 28.77822,26.25 C 28.507056,12.848698 28.44294,12.491896 26.25,12.180449 24.50123,11.932084 24,11.208085 24,8.930449 V 6 H 30.5 37 V 23 40 H 33.02822 29.056439 Z M 46,26 V 12 H 43.5 C 41.380555,12 41,11.536379 41,8.9543101 V 5.9086202 L 47.75,6.2043101 54.5,6.5 54.774179,23.25 55.048358,40 H 50.524179 46 Z M 62.222506,38.443296 C 60.485259,37.226481 60,35.903269 60,32.382931 v -4.503662 l 3.710507,0.310366 c 3.014756,0.252169 3.82012,0.779135 4.295085,2.810365 0.427679,1.829006 1.243471,2.5 3.039493,2.5 C 73.287947,33.5 73.5,33.111295 73.5,29 V 24.5 L 66.711746,24.203438 59.923492,23.906876 60.211746,15.203438 60.5,6.5 70.75,6.2150169 81,5.9300338 V 8.9650169 12 h -6 -6 v 3 c 0,2.920538 0.128332,3 4.845012,3 C 80.67939,18 82,19.753595 82,28.828741 82,38.512944 80.56536,40 71.222506,40 c -4.515694,0 -7.519193,-0.519507 -9,-1.556704 z"
       id="path293" />
  </g>
</svg>
