<?xml version="1.0" encoding="UTF-8" standalone="no"?>
<svg
   xml:space="preserve"
   version="1.1"
   x="0px"
   y="0px"
   viewBox="0 0 100 100"
   id="svg8"
   width="100"
   height="100"
   xmlns="http://www.w3.org/2000/svg"
   xmlns:svg="http://www.w3.org/2000/svg"><defs
     id="defs12" /><path
     id="rect9557"
     style="fill:#ffffff;fill-opacity:1;stroke:none;stroke-width:4.21771;stroke-linecap:round;stroke-linejoin:round"
     d="m 92.79384,87.360629 c 4.16821,-1.089321 6.64688,-5.321932 5.55756,-9.490143 L 90.21007,46.718385 c -1.08933,-4.168209 -5.32194,-6.646884 -9.490145,-5.557561 l -33.552738,8.768715 c -4.168208,1.089324 -6.64688,5.321932 -5.557558,9.490145 l 8.14133,31.152103 c 1.089325,4.168208 5.321935,6.646883 9.490141,5.557558 z M 73.838403,85.028856 54.626671,90.04967 53.854556,89.563572 c -1.317792,-0.827999 -2.466975,-4.129757 -2.060385,-5.917973 0.07448,-0.327578 3.610802,-3.562865 8.506835,-7.78337 6.306195,-5.436112 8.622772,-7.287057 9.362393,-7.48035 0.740437,-0.19351 3.64889,0.286209 11.794715,1.946843 12.170416,2.481092 11.731496,2.297009 12.474296,5.22437 0.46895,1.847828 0.30267,3.357363 -0.44684,4.051437 -0.28769,0.266413 -6.97517,2.112613 -19.647169,5.424328 z" /><path
     style="fill:none;fill-opacity:1;stroke:#ffffff;stroke-width:14;stroke-linecap:round;stroke-linejoin:round;stroke-dasharray:none;stroke-dashoffset:278.599;stroke-opacity:1"
     d="m 58.410426,34.556426 c 0,0 -6.282009,-9.611235 -19.391505,-17.100581 -16.792404,-9.593361 -26.3443,-9.1107288 -26.3443,-9.1107288"
     id="path15085" /></svg>
