<?xml version="1.0" encoding="UTF-8" standalone="no"?>
<svg
   version="1.1"
   x="0px"
   y="0px"
   viewBox="0 0 44 44"
   xml:space="preserve"
   id="svg12"
   width="44"
   height="44"
   xmlns="http://www.w3.org/2000/svg"
   xmlns:svg="http://www.w3.org/2000/svg"
   xmlns:rdf="http://www.w3.org/1999/02/22-rdf-syntax-ns#"
   xmlns:cc="http://creativecommons.org/ns#"
   xmlns:dc="http://purl.org/dc/elements/1.1/"><defs
     id="defs16" /><title
     id="title2">154 -Audio to Audio- (Solid)</title><desc
     id="desc4">Created with Sketch.</desc><path
     d="m 32.707437,28.229152 1.007993,-1.479373 c 0.201598,-0.295875 0.138748,-0.627524 -0.157127,-0.829123 l 4.367968,-6.410616 c 0,0 0,0 0,0 0.0336,-0.04931 0.0672,-0.09862 0.05149,-0.181536 0,0 0.0336,-0.04931 0.0336,-0.04931 0,0 0.0336,-0.04931 -0.01571,-0.08291 0.01087,-1.075684 0.31327,-1.519496 1.31039,-1.923185 0,0 0,0 0,0 0,0 0,0 0,0 0,0 0.0336,-0.04931 0.08291,-0.01571 0,0 0.0336,-0.04931 0.0336,-0.04931 0.0336,-0.04931 0.0336,-0.04931 0.0672,-0.09863 0,0 0,0 0.0336,-0.04931 0.0336,-0.04931 0.0672,-0.09863 0.1008,-0.147937 0,0 0,0 0.0336,-0.04931 0.0336,-0.04931 0.0336,-0.04931 0.01789,-0.132224 l 0.35774,-2.644495 c 0.05149,-0.181537 -0.02925,-0.380961 -0.2265,-0.51536 l -0.986256,-0.672004 c -0.197249,-0.134399 -0.412386,-0.136573 -0.64541,-0.0065 l -2.330239,1.300502 c -0.0336,0.04931 -0.0336,0.04931 -0.116511,0.06503 0,0 0,0 -0.0336,0.04931 0,0 -0.0336,0.04931 -0.0336,0.04931 0,0 0,0 -0.0336,0.04931 -0.0336,0.04931 -0.0336,0.04931 -0.0672,0.09863 0,0 -0.0336,0.04931 -0.0336,0.04931 0,0 -0.0336,0.04931 0.01571,0.08291 0,0 0,0 0,0 0,0 0,0 0,0 -0.01087,1.075684 -0.31327,1.519496 -1.310391,1.923185 0,0 -0.0336,0.04931 -0.08291,0.01571 0,0 -0.0336,0.04931 -0.0336,0.04931 -0.0672,0.09862 -0.1008,0.147937 -0.134399,0.19725 0,0 0,0 0,0 l -4.36797,6.410617 c -0.295874,-0.201598 -0.627523,-0.138747 -0.829121,0.157128 l -1.007993,1.479373 c -0.295875,-0.201599 -0.627524,-0.138748 -0.829122,0.157126 l -4.703966,6.90374 c -0.201599,0.295875 -0.138748,0.627524 0.157127,0.829123 l 0.493124,0.335997 -1.679988,2.465621 c -0.167999,0.246562 -0.105148,0.578211 0.107814,0.795523 -1.187355,1.212749 -3.110048,1.491229 -4.589421,0.483236 L 9.8280188,32.135594 c -1.479373,-1.007993 -1.923676,-2.899261 -1.229446,-4.448008 0.246563,0.167999 0.611812,0.05584 0.77981,-0.190726 l 1.6799882,-2.465622 0.493124,0.335998 c 0.295874,0.201598 0.627522,0.138748 0.829121,-0.157127 l 4.703966,-6.903741 c 0.201598,-0.295874 0.138748,-0.627523 -0.157127,-0.829121 l 1.007993,-1.479374 c 0.201598,-0.295874 0.138748,-0.627523 -0.157126,-0.829121 L 22.14629,8.7581353 c 0,0 0,0 0,0 0.0336,-0.049312 0.0672,-0.098625 0.05149,-0.1815363 0,0 0.0336,-0.049312 0.0336,-0.049312 0,0 0.0336,-0.049312 -0.01571,-0.082911 0.01087,-1.0756842 0.313269,-1.5194961 1.31039,-1.9231848 0,0 0,0 0,0 0,0 0,0 0,0 0,0 0.0336,-0.049312 0.08291,-0.015713 0,0 0.0336,-0.049312 0.0336,-0.049312 0.0336,-0.049312 0.0336,-0.049312 0.0672,-0.098625 0,0 0,0 0.0336,-0.049312 0.0336,-0.049312 0.0672,-0.098625 0.100799,-0.1479373 0,0 0,0 0.0336,-0.049312 0.0336,-0.049312 0.0336,-0.049312 0.01789,-0.1322239 l 0.35774,-2.6444952 c 0.05149,-0.1815369 -0.02925,-0.3809612 -0.2265,-0.5153602 L 23.04065,2.1469056 C 22.8434,2.0125066 22.628263,2.0103321 22.395239,2.1403816 L 20.065,3.4408839 c -0.0336,0.049312 -0.0336,0.049312 -0.11651,0.065026 0,0 0,0 -0.0336,0.049312 0,0 -0.0336,0.049312 -0.0336,0.049312 0,0 0,0 -0.0336,0.049312 -0.0336,0.049312 -0.0336,0.049312 -0.0672,0.098625 0,0 -0.0336,0.049312 -0.0336,0.049312 0,0 -0.0336,0.049312 0.01571,0.082911 0,0 0,0 0,0 0,0 0,0 0,0 -0.01087,1.0756843 -0.313269,1.5194962 -1.31039,1.9231849 0,0 -0.0336,0.049312 -0.08291,0.015713 0,0 -0.0336,0.049312 -0.0336,0.049312 -0.0672,0.098625 -0.100799,0.1479373 -0.134399,0.1972497 0,0 0,0 0,0 l -4.367969,6.4106005 c -0.295874,-0.201598 -0.627523,-0.138747 -0.829122,0.157128 l -1.007993,1.479373 c -0.295873,-0.201599 -0.627522,-0.138748 -0.82912,0.157126 l -4.7039666,6.903741 c -0.2015988,0.295875 -0.1387481,0.627523 0.157126,0.829122 l 0.4931246,0.335997 -1.6799878,2.465622 c -0.2015982,0.295874 -0.1387481,0.627523 0.1571261,0.829122 v 0 c -1.8366221,3.225369 -0.8851642,7.339553 2.2215195,9.456338 l 6.9037392,4.703965 c 3.106683,2.116785 7.268005,1.414064 9.564152,-1.425996 l 0.04931,0.0336 c 0.295874,0.201599 0.627523,0.138747 0.829122,-0.157127 l 1.679987,-2.465622 0.493125,0.335998 c 0.295874,0.201598 0.627523,0.138748 0.829122,-0.157127 l 4.703966,-6.903741 C 33.03256,28.811711 33.003309,28.43075 32.707435,28.229152 Z M 20.827413,4.9712343 22.158848,5.8784271 C 21.674914,6.2707527 21.338916,6.763877 21.200168,7.3914003 L 19.81942,6.4506073 c 0.533248,-0.3587253 0.869245,-0.8518496 1.007993,-1.479373 z m -3.319853,4.2365201 1.972497,1.3439896 -2.687981,3.944995 -1.972497,-1.34399 z m -8.7794242,17.1239686 -1.9724972,-1.34399 1.3439902,-1.972497 1.9724972,1.34399 z m 7.2130742,-9.526488 -2.958746,-2.015986 0.671995,-0.986248 2.958746,2.015985 z m 20.66618,-1.082079 1.331436,0.907193 c -0.533247,0.358726 -0.869245,0.85185 -1.007993,1.479373 l -1.331435,-0.907193 c 0.533247,-0.358725 0.869244,-0.85185 1.007992,-1.479373 z m -3.319853,4.23652 1.972498,1.343991 -2.687981,3.944994 -1.972497,-1.34399 z m -8.779424,17.123969 -1.972498,-1.343991 1.34399,-1.972497 1.972498,1.343991 z m 7.213075,-9.526488 -2.958746,-2.015986 0.671995,-0.986248 2.958746,2.015985 z"
     id="path6"
     style="fill:#ffffff;fill-opacity:1;stroke-width:0.596713" /><metadata
     id="metadata299"><rdf:RDF><cc:Work
         rdf:about=""><dc:title>154 -Audio to Audio- (Solid)</dc:title></cc:Work></rdf:RDF></metadata></svg>
