<?xml version="1.0" encoding="UTF-8" standalone="no" ?>
<!DOCTYPE svg PUBLIC "-//W3C//DTD SVG 1.1//EN" "http://www.w3.org/Graphics/SVG/1.1/DTD/svg11.dtd">
<svg xmlns="http://www.w3.org/2000/svg" xmlns:xlink="http://www.w3.org/1999/xlink" version="1.1" width="100" height="100" viewBox="0 0 400 400" xml:space="preserve">
<desc>Created with Fabric.js 4.6.0</desc>
<defs>
</defs>
<g transform="matrix(0.07 0 0 0.07 200 200)" id="wo306pOHfGX_9-r6br7J9"  >
<g style="" vector-effect="non-scaling-stroke"   >
		<g transform="matrix(0.13 0 0 -0.13 -1.7 0)" id="PlgWhO7iHrjPnAcedaZV3"  >
<path style="stroke: none; stroke-width: 1; stroke-dasharray: none; stroke-linecap: butt; stroke-dashoffset: 0; stroke-linejoin: miter; stroke-miterlimit: 4; fill: rgb(242,171,79); fill-rule: nonzero; opacity: 1;" vector-effect="non-scaling-stroke"  transform=" translate(-62134.36, -25122.99)" d="M 64589.7 10772.7 C 64473 9573.6 64328 8339.1 63900.1 7332.5 C 63791.7 7077.3 63660.2 6840.2 63512.2 6633.3 C 63305.899999999994 6344.7 63067.299999999996 6114.7 62814.399999999994 5975.7 C 62533.59999999999 5821.099999999999 62234.899999999994 5779 61942.7 5893.599999999999 C 61850.2 5929.9 61761.899999999994 5979.799999999999 61677.5 6041.299999999999 C 61150 6425.499999999999 60774 7264.999999999999 60491.9 8094.599999999999 C 58942.1 12650.3 58959.200000000004 18085.6 59014.4 23259.3 C 59045.700000000004 26190.5 59077 29121.699999999997 59108.200000000004 32052.9 C 59139.4 34974.8 59173.8 37933.700000000004 59665.600000000006 40750.4 C 59833.90000000001 41714.4 60067.90000000001 42687.8 60515.200000000004 43393.9 C 60962.600000000006 44099.9 61816.100000000006 44517.700000000004 62784.100000000006 44396.9 C 62921.90000000001 44383 63055.90000000001 44344.1 63185.40000000001 44283.200000000004 C 63508.00000000001 44131.8 63802.30000000001 43844.700000000004 64054.90000000001 43473.100000000006 C 64357.600000000006 43027.600000000006 64600.40000000001 42460.3 64759.600000000006 41858.700000000004 C 65104.700000000004 40553.9 65133.40000000001 39101.9 65157.00000000001 37687.600000000006 C 65307.100000000006 28701.400000000005 65454.90000000001 19657.200000000004 64589.700000000004 10772.700000000004" stroke-linecap="round" />
</g>
		<g transform="matrix(0.13 0 0 -0.13 272.5 9.31)" id="dNIRCeR8FcSkboXHwi1gs"  >
<path style="stroke: none; stroke-width: 1; stroke-dasharray: none; stroke-linecap: butt; stroke-dashoffset: 0; stroke-linejoin: miter; stroke-miterlimit: 4; fill: rgb(235,164,77); fill-rule: nonzero; opacity: 1;" vector-effect="non-scaling-stroke"  transform=" translate(-64190.8, -25053.2)" d="M 63512.2 6633.3 C 63502.899999999994 6724.6 63503.799999999996 6818.2 63505.2 6909.6 C 63522 8007.900000000001 63538.899999999994 9106.2 63555.799999999996 10204.5 C 63583.2 10193.1 63610.7 10181.9 63638.2 10170.8 C 63666.899999999994 10159.199999999999 63695.5 10147.699999999999 63724.299999999996 10136.4 L 63724.299999999996 10136.4 C 63733.299999999996 10132.8 63742.299999999996 10129.199999999999 63751.299999999996 10125.699999999999 L 63751.299999999996 10125.699999999999 L 63751.299999999996 10125.699999999999 C 63747.399999999994 10140.199999999999 63743.49999999999 10154.699999999999 63739.399999999994 10169.199999999999 C 63686.09999999999 10363.3 63627.7 10556.099999999999 63564.09999999999 10747.099999999999 C 63566.99999999999 10938.199999999999 63569.99999999999 11129.399999999998 63572.899999999994 11320.599999999999 C 63589.899999999994 12430.599999999999 63606.799999999996 13543.699999999999 63495.299999999996 14648.3 C 63430.99999999999 15283.4 63324.49999999999 15914 63237.7 16546.5 C 63490.2 16421.5 63747.6 16305.9 64007.799999999996 16198.3 L 64007.799999999996 16198.3 C 64092.49999999999 16163.199999999999 64177.399999999994 16129 64262.7 16095.5 L 64262.7 16095.5 L 64262.7 16095.5 L 64262.7 16095.5 L 64262.7 16095.5 L 64262.7 16095.5 L 64262.7 16095.5 C 64022 16986.5 63696.299999999996 17854.5 63291.7 18684 C 63233.5 18803.4 63173.1 18922.7 63109.899999999994 19040.6 C 63173.2 20401.8 63413.799999999996 21758.899999999998 63528.49999999999 23121.5 C 63770.299999999996 23003.2 64016.399999999994 22892.8 64265.19999999999 22789.2 L 64265.19999999999 22789.2 C 64412.99999999999 22727.600000000002 64561.59999999999 22668.5 64710.89999999999 22611.4 L 64710.89999999999 22611.4 L 64710.89999999999 22611.4 L 64710.89999999999 22611.4 L 64710.89999999999 22611.4 L 64710.89999999999 22611.4 L 64710.89999999999 22611.4 C 64448.69999999999 23571.5 64093.29999999999 24506.5 63650.69999999999 25399.7 C 63635.29999999999 25430.8 63619.79999999999 25462 63604.09999999999 25493 C 63589.79999999999 27195.6 63477.69999999999 28901.8 63586.899999999994 30596.9 C 63890.2 30443.4 64200.899999999994 30303.7 64515.299999999996 30174.9 L 64515.299999999996 30174.9 C 64586.7 30145.600000000002 64658.299999999996 30117 64729.99999999999 30088.800000000003 L 64729.99999999999 30088.800000000003 L 64729.99999999999 30088.800000000003 L 64729.99999999999 30088.800000000003 L 64729.99999999999 30088.800000000003 L 64729.99999999999 30088.800000000003 L 64729.99999999999 30088.800000000003 C 64499.399999999994 30942.4 64193.299999999996 31775.500000000004 63816.69999999999 32575.500000000004 C 63953.79999999999 33488.4 64095.79999999999 34400.4 64069.49999999999 35321 C 64048.69999999999 36048.6 63923.399999999994 36764.8 63779.59999999999 37479.4 C 63825.69999999999 37457.3 63872.09999999999 37435.6 63918.59999999999 37414.200000000004 L 63918.59999999999 37414.200000000004 C 64112.69999999999 37324.9 64309.69999999999 37241.9 64507.99999999999 37164.100000000006 L 64507.99999999999 37164.100000000006 L 64507.99999999999 37164.100000000006 L 64507.99999999999 37164.100000000006 L 64507.99999999999 37164.100000000006 L 64507.99999999999 37164.100000000006 L 64507.99999999999 37164.100000000006 C 64310.69999999999 37894.50000000001 64043.69999999999 38606.100000000006 63711.99999999999 39286.100000000006 C 63599.899999999994 39515.90000000001 63478.299999999996 39744.50000000001 63340.399999999994 39961.00000000001 C 63222.99999999999 41176.200000000004 63380.59999999999 42499.40000000001 64054.899999999994 43473.100000000006 C 64357.59999999999 43027.600000000006 64600.399999999994 42460.3 64759.59999999999 41858.700000000004 C 65104.69999999999 40553.9 65133.399999999994 39101.9 65156.99999999999 37687.600000000006 C 65214.399999999994 34247.50000000001 65271.59999999999 30799.000000000007 65271.69999999999 27354.200000000004 C 65271.79999999999 21800.300000000003 65123.69999999999 16256.100000000004 64589.69999999999 10772.700000000004 C 64472.99999999999 9573.600000000004 64327.99999999999 8339.100000000004 63900.09999999999 7332.500000000005 C 63791.69999999999 7077.300000000005 63660.19999999999 6840.200000000004 63512.19999999999 6633.300000000005 L 63512.19999999999 6633.300000000005" stroke-linecap="round" />
</g>
		<g transform="matrix(0.13 0 0 -0.13 -23.78 1741.47)" id="oek9scZQna58aDil5T1Fo"  >
<path style="stroke: none; stroke-width: 1; stroke-dasharray: none; stroke-linecap: butt; stroke-dashoffset: 0; stroke-linejoin: miter; stroke-miterlimit: 4; fill: rgb(230,152,64); fill-rule: nonzero; opacity: 1;" vector-effect="non-scaling-stroke"  transform=" translate(-61968.75, -12061.94)" d="M 63751.3 10125.7 C 63742.3 10129.2 63733.3 10132.800000000001 63724.3 10136.400000000001 C 63695.5 10147.7 63666.9 10159.2 63638.200000000004 10170.800000000001 C 63567.3 10199.400000000001 63496.600000000006 10228.900000000001 63426.200000000004 10259.1 C 62708.700000000004 10566.7 62022.8 10955.7 61449.200000000004 11482.800000000001 C 60815.8 12065.1 60355.700000000004 12913.2 60203.600000000006 13764.5 C 60198.8 13791.2 60194.3 13817.9 60190.100000000006 13844.6 C 60188.8 13853 60187.50000000001 13861.5 60186.200000000004 13869.9 C 60740.100000000006 14131.5 61424.4 13968.9 61913.4 13600 C 62402.4 13230.9 62728.3 12687.7 62996.9 12137.1 C 63304.700000000004 11506 63553.6 10846.300000000001 63739.4 10169.2 C 63743.5 10154.7 63747.4 10140.2 63751.3 10125.7" stroke-linecap="round" />
</g>
		<g transform="matrix(0.13 0 0 -0.13 -24.57 1740.76)" id="zj8GyjEm8QbS_HFUwhRYZ"  >
<path style="stroke: none; stroke-width: 1; stroke-dasharray: none; stroke-linecap: butt; stroke-dashoffset: 0; stroke-linejoin: miter; stroke-miterlimit: 4; fill: rgb(207,135,58); fill-rule: nonzero; opacity: 1;" vector-effect="non-scaling-stroke"  transform=" translate(-61962.8, -12067.3)" d="M 63724.3 10136.4 L 63724.3 10136.4 C 63695.5 10147.699999999999 63666.9 10159.199999999999 63638.200000000004 10170.8 C 63567.3 10199.4 63496.600000000006 10228.9 63426.200000000004 10259.099999999999 L 63426.200000000004 10259.099999999999 C 63243.3 10808.099999999999 63098.9 11371.199999999999 62868.200000000004 11901.8 C 62631.4 12446.699999999999 62291.700000000004 12965.8 61798.3 13296.8 C 61324.700000000004 13614.599999999999 60750.4 13734.599999999999 60190.100000000006 13844.599999999999 L 60190.100000000006 13844.599999999999 C 60188.8 13852.999999999998 60187.50000000001 13861.499999999998 60186.200000000004 13869.899999999998 C 60373.200000000004 13958.199999999997 60575.100000000006 13998.199999999997 60779.3 13998.199999999997 C 61179.9 13998.199999999997 61589.5 13844.299999999997 61913.4 13599.999999999996 C 62402.4 13230.899999999996 62728.3 12687.699999999997 62996.9 12137.099999999997 C 63304.700000000004 11505.999999999996 63553.6 10846.299999999997 63739.4 10169.199999999997 C 63734.6 10158.199999999997 63729.5 10147.199999999997 63724.3 10136.399999999998" stroke-linecap="round" />
</g>
		<g transform="matrix(0.13 0 0 -0.13 -23.77 871.44)" id="fO_ECBhfM_wgHq3OlD3Dg"  >
<path style="stroke: none; stroke-width: 1; stroke-dasharray: none; stroke-linecap: butt; stroke-dashoffset: 0; stroke-linejoin: miter; stroke-miterlimit: 4; fill: rgb(230,152,64); fill-rule: nonzero; opacity: 1;" vector-effect="non-scaling-stroke"  transform=" translate(-61968.8, -18587.22)" d="M 64262.7 16095.5 C 64177.399999999994 16129 64092.5 16163.2 64007.799999999996 16198.3 C 63025.49999999999 16604.7 62081.7 17123.7 61300.2 17842 C 60500.7 18576.9 59915.799999999996 19640.8 59708.899999999994 20714.9 C 59696.09999999999 20781.2 59684.7 20847.5 59674.899999999994 20913.800000000003 C 60387.7 21250.500000000004 61268.09999999999 21041.300000000003 61897.399999999994 20566.4 C 62526.7 20091.600000000002 62946.2 19392.5 63291.7 18684 C 63696.299999999996 17854.5 64022 16986.5 64262.7 16095.5" stroke-linecap="round" />
</g>
		<g transform="matrix(0.13 0 0 -0.13 -23.77 871.44)" id="gn_lyzAIfbv5apVTo19UC"  >
<path style="stroke: none; stroke-width: 1; stroke-dasharray: none; stroke-linecap: butt; stroke-dashoffset: 0; stroke-linejoin: miter; stroke-miterlimit: 4; fill: rgb(207,135,58); fill-rule: nonzero; opacity: 1;" vector-effect="non-scaling-stroke"  transform=" translate(-61968.8, -18587.2)" d="M 64262.7 16095.5 C 64177.399999999994 16129 64092.5 16163.2 64007.799999999996 16198.3 L 64007.799999999996 16198.3 C 63732.6 16967.1 63406.99999999999 17717.7 63033.49999999999 18443.8 C 62942.99999999999 18619.8 62849.299999999996 18794.8 62738.09999999999 18958.7 C 62587.49999999999 19180.9 62406.09999999999 19380.2 62225.399999999994 19578.8 C 62074.09999999999 19745.1 61922.09999999999 19912 61747.299999999996 20053.5 C 61585.99999999999 20184.4 61406.7 20292.1 61219.49999999999 20382.1 C 60764.399999999994 20601.1 60259.399999999994 20715.3 59754.49999999999 20715.3 C 59739.299999999996 20715.3 59724.19999999999 20715.2 59708.899999999994 20714.899999999998 L 59708.899999999994 20714.899999999998 C 59696.09999999999 20781.199999999997 59684.7 20847.499999999996 59674.899999999994 20913.8 C 59915.59999999999 21027.5 60175.399999999994 21078.899999999998 60438.2 21078.899999999998 C 60953.7 21078.899999999998 61480.6 20880.999999999996 61897.399999999994 20566.399999999998 C 62526.7 20091.6 62946.2 19392.499999999996 63291.7 18683.999999999996 C 63696.299999999996 17854.499999999996 64022 16986.499999999996 64262.7 16095.499999999996" stroke-linecap="round" />
</g>
		<g transform="matrix(0.13 0 0 -0.13 6.3 -22.57)" id="wgD78WBcj3Yq4mPjaActG"  >
<path style="stroke: none; stroke-width: 1; stroke-dasharray: none; stroke-linecap: butt; stroke-dashoffset: 0; stroke-linejoin: miter; stroke-miterlimit: 4; fill: rgb(230,152,64); fill-rule: nonzero; opacity: 1;" vector-effect="non-scaling-stroke"  transform=" translate(-62194.3, -25292.3)" d="M 64710.9 22611.4 C 64561.6 22668.5 64413 22727.600000000002 64265.200000000004 22789.2 C 63245.100000000006 23214.100000000002 62270.00000000001 23752.7 61456.3 24485.2 C 60584.3 25270.2 59946.4 26406.5 59718.700000000004 27556.9 C 59703.00000000001 27635.4 59689.4 27714 59677.700000000004 27792.7 C 60463.3 28158 61431.50000000001 27935.3 62122.4 27425.2 C 62813.5 26915.3 63272.700000000004 26162.7 63650.700000000004 25399.7 C 64093.3 24506.5 64448.700000000004 23571.5 64710.9 22611.4" stroke-linecap="round" />
</g>
		<g transform="matrix(0.13 0 0 -0.13 6.3 -22.57)" id="pg8qTprUyMDCpAtSrY4T3"  >
<path style="stroke: none; stroke-width: 1; stroke-dasharray: none; stroke-linecap: butt; stroke-dashoffset: 0; stroke-linejoin: miter; stroke-miterlimit: 4; fill: rgb(207,135,58); fill-rule: nonzero; opacity: 1;" vector-effect="non-scaling-stroke"  transform=" translate(-62194.3, -25292.3)" d="M 64710.9 22611.4 C 64561.6 22668.5 64413 22727.600000000002 64265.200000000004 22789.2 L 64265.200000000004 22789.2 C 64187.3 23034.9 64149.50000000001 23296.100000000002 64076.700000000004 23544.8 C 63978.3 23880.5 63815.8 24193.399999999998 63654.3 24503.8 C 63516.9 24767.7 63379.600000000006 25031.7 63242.200000000004 25295.5 C 63122.8 25525 63003.100000000006 25754.9 62862.9 25972.3 C 62426.8 26647.7 61790.1 27191.899999999998 61055.1 27517.6 C 60940 27568.6 60821.6 27614.699999999997 60697.4 27635 C 60639.700000000004 27644.5 60581.5 27648.3 60523.200000000004 27648.3 C 60404.600000000006 27648.3 60285.200000000004 27632.6 60167.200000000004 27616.8 C 60017.700000000004 27596.8 59868.100000000006 27576.899999999998 59718.700000000004 27556.899999999998 L 59718.700000000004 27556.899999999998 C 59703.00000000001 27635.399999999998 59689.4 27713.999999999996 59677.700000000004 27792.699999999997 C 59944.9 27916.899999999998 60233.4 27973.199999999997 60524.8 27973.199999999997 C 61090 27973.199999999997 61666.5 27761.699999999997 62122.4 27425.199999999997 C 62813.5 26915.299999999996 63272.700000000004 26162.699999999997 63650.700000000004 25399.699999999997 C 64093.3 24506.499999999996 64448.700000000004 23571.499999999996 64710.9 22611.399999999998" stroke-linecap="round" />
</g>
		<g transform="matrix(0.13 0 0 -0.13 28.61 -1005.12)" id="Txuqi7syO1qaTTv918x05"  >
<path style="stroke: none; stroke-width: 1; stroke-dasharray: none; stroke-linecap: butt; stroke-dashoffset: 0; stroke-linejoin: miter; stroke-miterlimit: 4; fill: rgb(230,152,64); fill-rule: nonzero; opacity: 1;" vector-effect="non-scaling-stroke"  transform=" translate(-62361.65, -32661.4)" d="M 64730 30088.8 C 64658.3 30117 64586.7 30145.6 64515.3 30174.899999999998 C 63483.700000000004 30597.499999999996 62491.100000000006 31138.499999999996 61671.4 31891.999999999996 C 60871.4 32627.299999999996 60279.700000000004 33681.5 60049.4 34755.1 C 60047.9 34761.5 60046.6 34767.9 60045.3 34774.299999999996 C 60042 34789.799999999996 60038.8 34805.299999999996 60035.700000000004 34820.799999999996 C 60019.4 34901.7 60005.3 34982.6 59993.3 35063.6 C 60729.200000000004 35411.1 61638.200000000004 35195.1 62288 34704.9 C 62937.7 34214.700000000004 63370.8 33492.8 63727.6 32761.300000000003 C 64145.299999999996 31904.9 64481.4 31008.700000000004 64730 30088.800000000003" stroke-linecap="round" />
</g>
		<g transform="matrix(0.13 0 0 -0.13 28.61 -1005.12)" id="-WaOgwregURDQX-BHaZ0O"  >
<path style="stroke: none; stroke-width: 1; stroke-dasharray: none; stroke-linecap: butt; stroke-dashoffset: 0; stroke-linejoin: miter; stroke-miterlimit: 4; fill: rgb(207,135,58); fill-rule: nonzero; opacity: 1;" vector-effect="non-scaling-stroke"  transform=" translate(-62361.65, -32661.4)" d="M 64730 30088.8 C 64658.3 30117 64586.7 30145.6 64515.3 30174.899999999998 L 64515.3 30174.899999999998 C 64161.3 30787.399999999998 63911.8 31460.3 63623.9 32109.399999999998 C 63271.6 32903.5 62836 33695.399999999994 62142.700000000004 34219 C 61616.200000000004 34616.6 60956.700000000004 34832.3 60297.600000000006 34832.3 C 60210.200000000004 34832.3 60122.8 34828.5 60035.700000000004 34820.8 L 60035.700000000004 34820.8 C 60019.4 34901.700000000004 60005.3 34982.600000000006 59993.3 35063.600000000006 C 60241.700000000004 35180.90000000001 60509.9 35234.00000000001 60781.200000000004 35234.00000000001 C 61313.4 35234.00000000001 61857.600000000006 35029.600000000006 62288.00000000001 34704.90000000001 C 62937.700000000004 34214.70000000001 63370.80000000001 33492.80000000001 63727.600000000006 32761.30000000001 C 64145.3 31904.90000000001 64481.40000000001 31008.70000000001 64730.00000000001 30088.80000000001" stroke-linecap="round" />
</g>
		<g transform="matrix(0.13 0 0 -0.13 64.04 -1877.84)" id="I5gIm4wh7PkfFDNHARX-v"  >
<path style="stroke: none; stroke-width: 1; stroke-dasharray: none; stroke-linecap: butt; stroke-dashoffset: 0; stroke-linejoin: miter; stroke-miterlimit: 4; fill: rgb(230,152,64); fill-rule: nonzero; opacity: 1;" vector-effect="non-scaling-stroke"  transform=" translate(-62627.4, -39206.82)" d="M 64508 37164.1 C 64309.7 37241.9 64112.7 37324.9 63918.6 37414.2 C 63251.6 37720.6 62618.4 38100.399999999994 62079.299999999996 38595.799999999996 C 61439.399999999994 39183.99999999999 60967.1 40029.6 60787.2 40888.899999999994 C 60771.5 40963.899999999994 60758 41039.09999999999 60746.799999999996 41114.2 C 61331.299999999996 41390.2 62053.1 41218.6 62568.99999999999 40829.399999999994 C 63084.899999999994 40440.09999999999 63428.69999999999 39866.99999999999 63711.99999999999 39286.09999999999 C 64043.69999999999 38606.09999999999 64310.69999999999 37894.49999999999 64507.99999999999 37164.09999999999" stroke-linecap="round" />
</g>
		<g transform="matrix(0.13 0 0 -0.13 64.04 -1877.85)" id="mJxEhZVA_-RkPVREBHrNZ"  >
<path style="stroke: none; stroke-width: 1; stroke-dasharray: none; stroke-linecap: butt; stroke-dashoffset: 0; stroke-linejoin: miter; stroke-miterlimit: 4; fill: rgb(207,135,58); fill-rule: nonzero; opacity: 1;" vector-effect="non-scaling-stroke"  transform=" translate(-62627.4, -39206.85)" d="M 64508 37164.1 C 64309.7 37241.9 64112.7 37324.9 63918.6 37414.2 L 63918.6 37414.2 C 63731.6 37933 63615.7 38480.299999999996 63434 39002.799999999996 C 63191.7 39699.2 62785.2 40396.799999999996 62112.8 40699.299999999996 C 61762.8 40856.899999999994 61376.5 40891.49999999999 60989 40891.49999999999 C 60921.7 40891.49999999999 60854.4 40890.49999999999 60787.2 40888.899999999994 L 60787.2 40888.899999999994 C 60771.5 40963.899999999994 60758 41039.09999999999 60746.799999999996 41114.2 C 60944.1 41207.399999999994 61157.1 41249.6 61372.49999999999 41249.6 C 61795.19999999999 41249.6 62227.299999999996 41087.2 62568.99999999999 40829.4 C 63084.899999999994 40440.1 63428.69999999999 39867 63711.99999999999 39286.1 C 64043.69999999999 38606.1 64310.69999999999 37894.5 64507.99999999999 37164.1" stroke-linecap="round" />
</g>
		<g transform="matrix(0.13 0 0 -0.13 28.61 -538.12)" id="JjL9tInzxJCR_N7xQOqnC"  >
<path style="stroke: none; stroke-width: 1; stroke-dasharray: none; stroke-linecap: butt; stroke-dashoffset: 0; stroke-linejoin: miter; stroke-miterlimit: 4; fill: rgb(223,143,59); fill-rule: nonzero; opacity: 1;" vector-effect="non-scaling-stroke"  transform=" translate(-62361.65, -29158.9)" d="M 62718.3 29158.9 C 62718.3 28891.7 62558.600000000006 28675.100000000002 62361.600000000006 28675.100000000002 C 62164.600000000006 28675.100000000002 62005.00000000001 28891.7 62005.00000000001 29158.9 C 62005.00000000001 29426.100000000002 62164.600000000006 29642.7 62361.600000000006 29642.7 C 62558.600000000006 29642.7 62718.3 29426.100000000002 62718.3 29158.9" stroke-linecap="round" />
</g>
		<g transform="matrix(0.13 0 0 -0.13 -210.7 1203.66)" id="9e1kqDOLYEcQCEzNn4tBK"  >
<path style="stroke: none; stroke-width: 1; stroke-dasharray: none; stroke-linecap: butt; stroke-dashoffset: 0; stroke-linejoin: miter; stroke-miterlimit: 4; fill: rgb(223,143,59); fill-rule: nonzero; opacity: 1;" vector-effect="non-scaling-stroke"  transform=" translate(-60566.85, -16095.55)" d="M 60923.5 16095.5 C 60923.5 15828.3 60763.9 15611.7 60566.9 15611.7 C 60369.9 15611.7 60210.200000000004 15828.300000000001 60210.200000000004 16095.5 C 60210.200000000004 16362.8 60369.9 16579.4 60566.9 16579.4 C 60763.9 16579.4 60923.5 16362.800000000001 60923.5 16095.500000000002" stroke-linecap="round" />
</g>
		<g transform="matrix(0.13 0 0 -0.13 -140.77 0)" id="9JiggzL1HFkbo3-V-GuEd"  >
<path style="stroke: none; stroke-width: 1; stroke-dasharray: none; stroke-linecap: butt; stroke-dashoffset: 0; stroke-linejoin: miter; stroke-miterlimit: 4; fill: rgb(245,185,97); fill-rule: nonzero; opacity: 1;" vector-effect="non-scaling-stroke"  transform=" translate(-61091.28, -25122.99)" d="M 63062.2 29144.1 C 63132 28965 63174 28750.3 63068.399999999994 28589.699999999997 C 62890.299999999996 28318.699999999997 62479.799999999996 28411.699999999997 62171.2 28511.499999999996 C 61657.1 28677.499999999996 61101.799999999996 28773.299999999996 60576.7 28645.899999999998 C 60051.6 28518.399999999998 59565.5 28128.699999999997 59447.1 27601.499999999996 C 59360.799999999996 27217.599999999995 59472.9 26818.499999999996 59607.4 26448.599999999995 C 60061.3 25199.399999999994 60783.6 24048.499999999996 61711.3 23096.399999999994 C 62041.9 22756.999999999993 62412.8 22217.599999999995 62084.3 21876.099999999995 C 61937.9 21724.099999999995 61707.9 21696.999999999996 61497.3 21683.099999999995 C 60878.8 21642.399999999994 60258 21638.199999999993 59639.100000000006 21670.699999999993 C 59140.90000000001 19635.499999999993 60061.00000000001 17332.399999999994 61824.200000000004 16200.699999999993 C 62207.00000000001 15954.999999999993 62678.8 15672.099999999993 62678.8 15217.099999999993 C 62678.700000000004 14605.799999999994 61868.600000000006 14389.499999999993 61257.5 14407.199999999993 C 60646.4 14424.899999999994 59855.8 14372.699999999993 59676.6 13788.199999999993 C 59616 13590.499999999993 59650.2 13376.699999999993 59701.6 13176.499999999993 C 59978 12100.499999999993 60712.2 11212.999999999993 61281 10258.899999999992 C 61928.6 9172.499999999993 62548.9 7389.999999999993 62814.4 5975.6999999999925 C 62533.6 5821.099999999992 62234.9 5778.999999999993 61942.700000000004 5893.599999999992 C 61850.200000000004 5929.899999999992 61761.9 5979.799999999992 61677.50000000001 6041.299999999992 C 61150.00000000001 6425.399999999992 60774.00000000001 7264.999999999992 60491.90000000001 8094.599999999992 C 58942.100000000006 12650.299999999992 58959.20000000001 18085.59999999999 59014.40000000001 23259.299999999992 C 59045.70000000001 26190.499999999993 59077.00000000001 29121.69999999999 59108.20000000001 32052.899999999994 C 59139.40000000001 34974.799999999996 59173.80000000001 37933.7 59665.60000000001 40750.399999999994 C 59833.900000000016 41714.399999999994 60067.900000000016 42687.799999999996 60515.20000000001 43393.899999999994 C 60962.60000000001 44099.899999999994 61816.10000000001 44517.7 62784.10000000001 44396.899999999994 C 62921.900000000016 44382.99999999999 63056.000000000015 44344.09999999999 63185.500000000015 44283.2 C 63184.60000000001 43703 62972.20000000001 43120.799999999996 62570.500000000015 42700.5 C 61932.70000000001 42033.1 60901.500000000015 41763.6 60445.80000000002 40960.8 C 60115.80000000002 40379.700000000004 60198.20000000002 39592.700000000004 60641.30000000002 39092.700000000004 C 60970.400000000016 38721.100000000006 61453.20000000002 38518.4 61801.500000000015 38165.100000000006 C 62149.900000000016 37811.700000000004 62308.10000000001 37160.00000000001 61917.70000000001 36853.700000000004 C 61650.80000000001 36644.4 61270.10000000001 36703.700000000004 60937.10000000001 36639.00000000001 C 60372.30000000001 36529.200000000004 59936.60000000001 36033.80000000001 59772.000000000015 35482.600000000006 C 59607.20000000001 34931.3 59675.60000000001 34335.3 59826.000000000015 33780.00000000001 C 60090.30000000002 32803.50000000001 60606.400000000016 31896.300000000007 61310.900000000016 31170.200000000008 C 61937.900000000016 30523.90000000001 62735.500000000015 29983.10000000001 63062.20000000002 29144.10000000001" stroke-linecap="round" />
</g>
		<g transform="matrix(0.13 0 0 -0.13 -163.14 -1692.36)" id="44Qbk5s_9ZWut-TiFUjH3"  >
<path style="stroke: none; stroke-width: 1; stroke-dasharray: none; stroke-linecap: butt; stroke-dashoffset: 0; stroke-linejoin: miter; stroke-miterlimit: 4; fill: rgb(223,143,59); fill-rule: nonzero; opacity: 1;" vector-effect="non-scaling-stroke"  transform=" translate(-60923.55, -37815.7)" d="M 61073.7 37815.7 C 61073.7 37703.2 61006.5 37612 60923.5 37612 C 60840.6 37612 60773.4 37703.2 60773.4 37815.7 C 60773.4 37928.2 60840.6 38019.399999999994 60923.5 38019.399999999994 C 61006.5 38019.399999999994 61073.7 37928.2 61073.7 37815.7" stroke-linecap="round" />
</g>
		<g transform="matrix(0.13 0 0 -0.13 -210.69 1250.47)" id="as4ec_jd0MvZoihS3yv_E"  >
<path style="stroke: none; stroke-width: 1; stroke-dasharray: none; stroke-linecap: butt; stroke-dashoffset: 0; stroke-linejoin: miter; stroke-miterlimit: 4; fill: rgb(223,143,59); fill-rule: nonzero; opacity: 1;" vector-effect="non-scaling-stroke"  transform=" translate(-60566.9, -15744.5)" d="M 60717.1 15744.5 C 60717.1 15632 60649.799999999996 15540.8 60566.9 15540.8 C 60483.9 15540.8 60416.700000000004 15632 60416.700000000004 15744.5 C 60416.700000000004 15857 60483.9 15948.2 60566.9 15948.2 C 60649.8 15948.2 60717.1 15857 60717.1 15744.5" stroke-linecap="round" />
</g>
		<g transform="matrix(0.13 0 0 -0.13 -258.25 312.61)" id="YM1Ckn3YPgMQ0yMfQCAwF"  >
<path style="stroke: none; stroke-width: 1; stroke-dasharray: none; stroke-linecap: butt; stroke-dashoffset: 0; stroke-linejoin: miter; stroke-miterlimit: 4; fill: rgb(223,143,59); fill-rule: nonzero; opacity: 1;" vector-effect="non-scaling-stroke"  transform=" translate(-60210.2, -22778.45)" d="M 60360.4 22778.4 C 60360.4 22665.9 60293.1 22574.7 60210.200000000004 22574.7 C 60127.3 22574.7 60060.00000000001 22665.9 60060.00000000001 22778.4 C 60060.00000000001 22890.9 60127.30000000001 22982.2 60210.200000000004 22982.2 C 60293.100000000006 22982.2 60360.4 22890.9 60360.4 22778.4" stroke-linecap="round" />
</g>
		<g transform="matrix(0.13 0 0 -0.13 271.46 -2150.24)" id="ugtZOrOeAiO-2cwHBQwhv"  >
<path style="stroke: none; stroke-width: 1; stroke-dasharray: none; stroke-linecap: butt; stroke-dashoffset: 0; stroke-linejoin: miter; stroke-miterlimit: 4; fill: rgb(223,143,59); fill-rule: nonzero; opacity: 1;" vector-effect="non-scaling-stroke"  transform=" translate(-64183.05, -41249.8)" d="M 64333.2 41249.8 C 64333.2 41137.3 64266 41046.100000000006 64183.1 41046.100000000006 C 64100.1 41046.100000000006 64032.9 41137.3 64032.9 41249.8 C 64032.9 41362.3 64100.1 41453.5 64183.1 41453.5 C 64266 41453.5 64333.2 41362.3 64333.2 41249.8" stroke-linecap="round" />
</g>
		<g transform="matrix(0.13 0 0 -0.13 90.9 339.77)" id="C_Ov8CJHhp2EyLYhQnA92"  >
<path style="stroke: none; stroke-width: 1; stroke-dasharray: none; stroke-linecap: butt; stroke-dashoffset: 0; stroke-linejoin: miter; stroke-miterlimit: 4; fill: rgb(223,143,59); fill-rule: nonzero; opacity: 1;" vector-effect="non-scaling-stroke"  transform=" translate(-62828.8, -22574.7)" d="M 62979 22574.7 C 62979 22462.2 62911.7 22371 62828.8 22371 C 62745.9 22371 62678.600000000006 22462.2 62678.600000000006 22574.7 C 62678.600000000006 22687.2 62745.90000000001 22778.4 62828.8 22778.4 C 62911.700000000004 22778.4 62979 22687.2 62979 22574.7" stroke-linecap="round" />
</g>
		<g transform="matrix(0.13 0 0 -0.13 -44.59 -597.59)" id="ZQ8Ph9uj83lF1xwlJhKYA"  >
<path style="stroke: none; stroke-width: 1; stroke-dasharray: none; stroke-linecap: butt; stroke-dashoffset: 0; stroke-linejoin: miter; stroke-miterlimit: 4; fill: rgb(223,143,59); fill-rule: nonzero; opacity: 1;" vector-effect="non-scaling-stroke"  transform=" translate(-61812.65, -29604.95)" d="M 61962.8 29605 C 61962.8 29492.5 61895.600000000006 29401.2 61812.700000000004 29401.2 C 61729.700000000004 29401.2 61662.50000000001 29492.5 61662.50000000001 29605 C 61662.50000000001 29717.5 61729.700000000004 29808.7 61812.700000000004 29808.7 C 61895.600000000006 29808.7 61962.8 29717.5 61962.8 29605" stroke-linecap="round" />
</g>
		<g transform="matrix(0.13 0 0 -0.13 221.42 -436.26)" id="ciwTGcuhFFj2Sxuwcaohd"  >
<path style="stroke: none; stroke-width: 1; stroke-dasharray: none; stroke-linecap: butt; stroke-dashoffset: 0; stroke-linejoin: miter; stroke-miterlimit: 4; fill: rgb(223,143,59); fill-rule: nonzero; opacity: 1;" vector-effect="non-scaling-stroke"  transform=" translate(-63807.75, -28394.95)" d="M 63957.9 28394.9 C 63957.9 28282.4 63890.700000000004 28191.2 63807.8 28191.2 C 63724.8 28191.2 63657.600000000006 28282.4 63657.600000000006 28394.9 C 63657.600000000006 28507.4 63724.8 28598.7 63807.8 28598.7 C 63890.700000000004 28598.7 63957.9 28507.4 63957.9 28394.9" stroke-linecap="round" />
</g>
		<g transform="matrix(0.13 0 0 -0.13 271.46 -1108.4)" id="UCTQol-_JuJqsqBOQenVM"  >
<path style="stroke: none; stroke-width: 1; stroke-dasharray: none; stroke-linecap: butt; stroke-dashoffset: 0; stroke-linejoin: miter; stroke-miterlimit: 4; fill: rgb(223,143,59); fill-rule: nonzero; opacity: 1;" vector-effect="non-scaling-stroke"  transform=" translate(-64183.05, -33436)" d="M 64333.2 33436 C 64333.2 33323.5 64266 33232.3 64183.1 33232.3 C 64100.1 33232.3 64032.9 33323.5 64032.9 33436 C 64032.9 33548.5 64100.1 33639.7 64183.1 33639.7 C 64266 33639.7 64333.2 33548.5 64333.2 33436" stroke-linecap="round" />
</g>
		<g transform="matrix(0.13 0 0 -0.13 56.46 -2343.67)" id="U5VtfVRjzVhjh3qBI6tK4"  >
<path style="stroke: none; stroke-width: 1; stroke-dasharray: none; stroke-linecap: butt; stroke-dashoffset: 0; stroke-linejoin: miter; stroke-miterlimit: 4; fill: rgb(223,143,59); fill-rule: nonzero; opacity: 1;" vector-effect="non-scaling-stroke"  transform=" translate(-62570.5, -42700.5)" d="M 62720.7 42700.5 C 62720.7 42588 62653.399999999994 42496.8 62570.5 42496.8 C 62487.6 42496.8 62420.3 42588 62420.3 42700.5 C 62420.3 42813 62487.600000000006 42904.2 62570.5 42904.2 C 62653.4 42904.2 62720.7 42813 62720.7 42700.5" stroke-linecap="round" />
</g>
		<g transform="matrix(0.13 0 0 -0.13 -84.64 2153.58)" id="BUW9rIJSOgSAacgYFLCm9"  >
<path style="stroke: none; stroke-width: 1; stroke-dasharray: none; stroke-linecap: butt; stroke-dashoffset: 0; stroke-linejoin: miter; stroke-miterlimit: 4; fill: rgb(223,143,59); fill-rule: nonzero; opacity: 1;" vector-effect="non-scaling-stroke"  transform=" translate(-61512.3, -8971.15)" d="M 61662.5 8971.2 C 61662.5 8858.6 61595.2 8767.400000000001 61512.3 8767.400000000001 C 61429.4 8767.400000000001 61362.100000000006 8858.600000000002 61362.100000000006 8971.2 C 61362.100000000006 9083.7 61429.40000000001 9174.900000000001 61512.3 9174.900000000001 C 61595.200000000004 9174.900000000001 61662.5 9083.7 61662.5 8971.2" stroke-linecap="round" />
</g>
		<g transform="matrix(0.13 0 0 -0.13 -24.56 -2370.83)" id="cPuPx0djDbWIfAorG-9RD"  >
<path style="stroke: none; stroke-width: 1; stroke-dasharray: none; stroke-linecap: butt; stroke-dashoffset: 0; stroke-linejoin: miter; stroke-miterlimit: 4; fill: rgb(223,143,59); fill-rule: nonzero; opacity: 1;" vector-effect="non-scaling-stroke"  transform=" translate(-61962.85, -42904.2)" d="M 62113 42904.2 C 62113 42791.7 62045.8 42700.5 61962.8 42700.5 C 61879.9 42700.5 61812.700000000004 42791.7 61812.700000000004 42904.2 C 61812.700000000004 43016.7 61879.9 43107.899999999994 61962.8 43107.899999999994 C 62045.8 43107.899999999994 62113 43016.7 62113 42904.2" stroke-linecap="round" />
</g>
		<g transform="matrix(0.13 0 0 -0.13 126.32 -1437.1)" id="clwRA1g61SMlwgn6gvWoR"  >
<path style="stroke: none; stroke-width: 1; stroke-dasharray: none; stroke-linecap: butt; stroke-dashoffset: 0; stroke-linejoin: miter; stroke-miterlimit: 4; fill: rgb(223,143,59); fill-rule: nonzero; opacity: 1;" vector-effect="non-scaling-stroke"  transform=" translate(-63094.45, -35901.25)" d="M 63451.1 35901.3 C 63451.1 35634 63291.4 35417.4 63094.4 35417.4 C 62897.5 35417.4 62737.8 35634 62737.8 35901.3 C 62737.8 36168.5 62897.5 36385.100000000006 63094.4 36385.100000000006 C 63291.4 36385.100000000006 63451.1 36168.50000000001 63451.1 35901.3" stroke-linecap="round" />
</g>
		<g transform="matrix(0.13 0 0 -0.13 138.45 2282.61)" id="4KaBa3ErPcm6C5xul14Hc"  >
<path style="stroke: none; stroke-width: 1; stroke-dasharray: none; stroke-linecap: butt; stroke-dashoffset: 0; stroke-linejoin: miter; stroke-miterlimit: 4; fill: rgb(223,143,59); fill-rule: nonzero; opacity: 1;" vector-effect="non-scaling-stroke"  transform=" translate(-63185.45, -8003.45)" d="M 63542.1 8003.5 C 63542.1 7736.2 63382.4 7519.6 63185.5 7519.6 C 62988.5 7519.6 62828.8 7736.200000000001 62828.8 8003.5 C 62828.8 8270.7 62988.5 8487.3 63185.5 8487.3 C 63382.4 8487.3 63542.1 8270.699999999999 63542.1 8003.499999999999" stroke-linecap="round" />
</g>
		<g transform="matrix(0.13 0 0 -0.13 173.87 668.54)" id="WItiKPeuesVRLuBlDlqcX"  >
<path style="stroke: none; stroke-width: 1; stroke-dasharray: none; stroke-linecap: butt; stroke-dashoffset: 0; stroke-linejoin: miter; stroke-miterlimit: 4; fill: rgb(223,143,59); fill-rule: nonzero; opacity: 1;" vector-effect="non-scaling-stroke"  transform=" translate(-63451.1, -20108.95)" d="M 63807.8 20109 C 63807.8 19841.7 63648.100000000006 19625.1 63451.100000000006 19625.1 C 63254.100000000006 19625.1 63094.40000000001 19841.699999999997 63094.40000000001 20109 C 63094.40000000001 20376.2 63254.100000000006 20592.8 63451.100000000006 20592.8 C 63648.100000000006 20592.8 63807.8 20376.2 63807.8 20109" stroke-linecap="round" />
</g>
		<g transform="matrix(0.13 0 0 -0.13 64.05 -2248.26)" id="d6ptx0Joeq5ewMKCviZQ3"  >
<path style="stroke: none; stroke-width: 1; stroke-dasharray: none; stroke-linecap: butt; stroke-dashoffset: 0; stroke-linejoin: miter; stroke-miterlimit: 4; fill: rgb(223,143,59); fill-rule: nonzero; opacity: 1;" vector-effect="non-scaling-stroke"  transform=" translate(-62627.45, -41984.95)" d="M 62689.7 41984.9 C 62689.7 41938.3 62661.799999999996 41900.5 62627.399999999994 41900.5 C 62592.99999999999 41900.5 62565.2 41938.3 62565.2 41984.9 C 62565.2 42031.5 62593 42069.4 62627.399999999994 42069.4 C 62661.799999999996 42069.4 62689.7 42031.5 62689.7 41984.9" stroke-linecap="round" />
</g>
		<g transform="matrix(0.13 0 0 -0.13 -190.67 -662.11)" id="OSBIz3UVgAy8Wz7uvLMP-"  >
<path style="stroke: none; stroke-width: 1; stroke-dasharray: none; stroke-linecap: butt; stroke-dashoffset: 0; stroke-linejoin: miter; stroke-miterlimit: 4; fill: rgb(223,143,59); fill-rule: nonzero; opacity: 1;" vector-effect="non-scaling-stroke"  transform=" translate(-60717.05, -30088.85)" d="M 60779.3 30088.8 C 60779.3 30042.2 60751.4 30004.399999999998 60717.100000000006 30004.399999999998 C 60682.700000000004 30004.399999999998 60654.8 30042.199999999997 60654.8 30088.8 C 60654.8 30135.399999999998 60682.700000000004 30173.3 60717.100000000006 30173.3 C 60751.40000000001 30173.3 60779.3 30135.399999999998 60779.3 30088.8" stroke-linecap="round" />
</g>
		<g transform="matrix(0.13 0 0 -0.13 -329.62 -484.87)" id="k0lh2ZH5ySZzp8soYJNdv"  >
<path style="stroke: none; stroke-width: 1; stroke-dasharray: none; stroke-linecap: butt; stroke-dashoffset: 0; stroke-linejoin: miter; stroke-miterlimit: 4; fill: rgb(223,143,59); fill-rule: nonzero; opacity: 1;" vector-effect="non-scaling-stroke"  transform=" translate(-59674.9, -28759.5)" d="M 59737.1 28759.5 C 59737.1 28712.9 59709.299999999996 28675.1 59674.9 28675.1 C 59640.5 28675.1 59612.700000000004 28712.899999999998 59612.700000000004 28759.5 C 59612.700000000004 28806.1 59640.50000000001 28843.9 59674.9 28843.9 C 59709.3 28843.9 59737.1 28806.100000000002 59737.1 28759.5" stroke-linecap="round" />
</g>
		<g transform="matrix(0.13 0 0 -0.13 201.4 -602.63)" id="aWMbqPrzOmvrqx09yE3Qq"  >
<path style="stroke: none; stroke-width: 1; stroke-dasharray: none; stroke-linecap: butt; stroke-dashoffset: 0; stroke-linejoin: miter; stroke-miterlimit: 4; fill: rgb(223,143,59); fill-rule: nonzero; opacity: 1;" vector-effect="non-scaling-stroke"  transform=" translate(-63657.55, -29642.75)" d="M 63719.8 29642.7 C 63719.8 29596.100000000002 63692 29558.3 63657.600000000006 29558.3 C 63623.200000000004 29558.3 63595.3 29596.1 63595.3 29642.7 C 63595.3 29689.4 63623.200000000004 29727.2 63657.600000000006 29727.2 C 63692.00000000001 29727.2 63719.8 29689.4 63719.8 29642.7" stroke-linecap="round" />
</g>
		<g transform="matrix(0.13 0 0 -0.13 325.24 809.02)" id="NUAw4PEdSvFdxM59UkhTm"  >
<path style="stroke: none; stroke-width: 1; stroke-dasharray: none; stroke-linecap: butt; stroke-dashoffset: 0; stroke-linejoin: miter; stroke-miterlimit: 4; fill: rgb(223,143,59); fill-rule: nonzero; opacity: 1;" vector-effect="non-scaling-stroke"  transform=" translate(-64586.35, -19055.35)" d="M 64648.6 19055.3 C 64648.6 19008.7 64620.799999999996 18970.899999999998 64586.4 18970.899999999998 C 64552 18970.899999999998 64524.1 19008.699999999997 64524.1 19055.3 C 64524.1 19101.899999999998 64552 19139.8 64586.4 19139.8 C 64620.8 19139.8 64648.6 19101.899999999998 64648.6 19055.3" stroke-linecap="round" />
</g>
		<g transform="matrix(0.13 0 0 -0.13 99.2 1277.63)" id="gImzAVF1qcYRHx6bx95XI"  >
<path style="stroke: none; stroke-width: 1; stroke-dasharray: none; stroke-linecap: butt; stroke-dashoffset: 0; stroke-linejoin: miter; stroke-miterlimit: 4; fill: rgb(223,143,59); fill-rule: nonzero; opacity: 1;" vector-effect="non-scaling-stroke"  transform=" translate(-62891.05, -15540.75)" d="M 62953.3 15540.8 C 62953.3 15494.099999999999 62925.4 15456.3 62891 15456.3 C 62856.7 15456.3 62828.8 15494.099999999999 62828.8 15540.8 C 62828.8 15587.4 62856.700000000004 15625.199999999999 62891 15625.199999999999 C 62925.4 15625.199999999999 62953.3 15587.4 62953.3 15540.8" stroke-linecap="round" />
</g>
		<g transform="matrix(0.13 0 0 -0.13 14.6 2465.29)" id="8O3MPj5N1ylOhA5vp0FlG"  >
<path style="stroke: none; stroke-width: 1; stroke-dasharray: none; stroke-linecap: butt; stroke-dashoffset: 0; stroke-linejoin: miter; stroke-miterlimit: 4; fill: rgb(223,143,59); fill-rule: nonzero; opacity: 1;" vector-effect="non-scaling-stroke"  transform=" translate(-62256.55, -6633.35)" d="M 62318.8 6633.3 C 62318.8 6586.7 62290.9 6548.900000000001 62256.5 6548.900000000001 C 62222.1 6548.900000000001 62194.3 6586.700000000001 62194.3 6633.3 C 62194.3 6679.900000000001 62222.100000000006 6717.8 62256.5 6717.8 C 62290.9 6717.8 62318.8 6679.900000000001 62318.8 6633.3" stroke-linecap="round" />
</g>
		<g transform="matrix(0.13 0 0 -0.13 229.73 1344.23)" id="ieeVMmTC9BrTQeOAauysi"  >
<path style="stroke: none; stroke-width: 1; stroke-dasharray: none; stroke-linecap: butt; stroke-dashoffset: 0; stroke-linejoin: miter; stroke-miterlimit: 4; fill: rgb(223,143,59); fill-rule: nonzero; opacity: 1;" vector-effect="non-scaling-stroke"  transform=" translate(-63870.05, -15041.25)" d="M 63932.3 15041.2 C 63932.3 14994.6 63904.4 14956.800000000001 63870 14956.800000000001 C 63835.6 14956.800000000001 63807.8 14994.6 63807.8 15041.2 C 63807.8 15087.900000000001 63835.600000000006 15125.7 63870 15125.7 C 63904.4 15125.7 63932.3 15087.900000000001 63932.3 15041.2" stroke-linecap="round" />
</g>
		<g transform="matrix(0.13 0 0 -0.13 -346.22 165.35)" id="4sJDWTD8IxIGofwLGZEXo"  >
<path style="stroke: none; stroke-width: 1; stroke-dasharray: none; stroke-linecap: butt; stroke-dashoffset: 0; stroke-linejoin: miter; stroke-miterlimit: 4; fill: rgb(223,143,59); fill-rule: nonzero; opacity: 1;" vector-effect="non-scaling-stroke"  transform=" translate(-59550.45, -23882.85)" d="M 59612.7 23882.9 C 59612.7 23836.2 59584.799999999996 23798.4 59550.399999999994 23798.4 C 59515.99999999999 23798.4 59488.2 23836.2 59488.2 23882.9 C 59488.2 23929.5 59516 23967.300000000003 59550.399999999994 23967.300000000003 C 59584.799999999996 23967.300000000003 59612.7 23929.500000000004 59612.7 23882.9" stroke-linecap="round" />
</g>
		<g transform="matrix(0.13 0 0 -0.13 126.32 480.11)" id="oTM3JUwnABOMbpFEAdXNp"  >
<path style="stroke: none; stroke-width: 1; stroke-dasharray: none; stroke-linecap: butt; stroke-dashoffset: 0; stroke-linejoin: miter; stroke-miterlimit: 4; fill: rgb(223,143,59); fill-rule: nonzero; opacity: 1;" vector-effect="non-scaling-stroke"  transform=" translate(-63094.45, -21522.15)" d="M 63156.7 21522.1 C 63156.7 21475.5 63128.799999999996 21437.699999999997 63094.399999999994 21437.699999999997 C 63060.09999999999 21437.699999999997 63032.2 21475.499999999996 63032.2 21522.1 C 63032.2 21568.8 63060.1 21606.6 63094.399999999994 21606.6 C 63128.799999999996 21606.6 63156.7 21568.8 63156.7 21522.1" stroke-linecap="round" />
</g>
		<g transform="matrix(0.13 0 0 -0.13 6.29 222.86)" id="qn2mrK9efrjYuEMlPLcDj"  >
<path style="stroke: none; stroke-width: 1; stroke-dasharray: none; stroke-linecap: butt; stroke-dashoffset: 0; stroke-linejoin: miter; stroke-miterlimit: 4; fill: rgb(223,143,59); fill-rule: nonzero; opacity: 1;" vector-effect="non-scaling-stroke"  transform=" translate(-62194.25, -23451.55)" d="M 62256.5 23451.6 C 62256.5 23405 62228.6 23367.1 62194.3 23367.1 C 62159.9 23367.1 62132 23405 62132 23451.6 C 62132 23498.199999999997 62159.9 23536 62194.3 23536 C 62228.600000000006 23536 62256.5 23498.2 62256.5 23451.6" stroke-linecap="round" />
</g>
		<g transform="matrix(0.13 0 0 -0.13 138.45 1555.09)" id="hjJpBparUHBcYcWX8oc8Y"  >
<path style="stroke: none; stroke-width: 1; stroke-dasharray: none; stroke-linecap: butt; stroke-dashoffset: 0; stroke-linejoin: miter; stroke-miterlimit: 4; fill: rgb(223,143,59); fill-rule: nonzero; opacity: 1;" vector-effect="non-scaling-stroke"  transform=" translate(-63185.45, -13459.85)" d="M 63247.7 13459.8 C 63247.7 13413.199999999999 63219.799999999996 13375.4 63185.5 13375.4 C 63151.1 13375.4 63123.2 13413.199999999999 63123.2 13459.8 C 63123.2 13506.5 63151.1 13544.3 63185.5 13544.3 C 63219.8 13544.3 63247.7 13506.5 63247.7 13459.8" stroke-linecap="round" />
</g>
		<g transform="matrix(0.13 0 0 -0.13 -84.63 1071)" id="ltkAb27-Ud5oKIHluTR1f"  >
<path style="stroke: none; stroke-width: 1; stroke-dasharray: none; stroke-linecap: butt; stroke-dashoffset: 0; stroke-linejoin: miter; stroke-miterlimit: 4; fill: rgb(223,143,59); fill-rule: nonzero; opacity: 1;" vector-effect="non-scaling-stroke"  transform=" translate(-61512.35, -17090.5)" d="M 61574.6 17090.5 C 61574.6 17043.9 61546.7 17006.1 61512.299999999996 17006.1 C 61477.899999999994 17006.1 61450.1 17043.899999999998 61450.1 17090.5 C 61450.1 17137.1 61477.9 17174.9 61512.299999999996 17174.9 C 61546.7 17174.9 61574.6 17137.100000000002 61574.6 17090.5" stroke-linecap="round" />
</g>
		<g transform="matrix(0.13 0 0 -0.13 -329.62 1332.98)" id="dowBzaiexQS7jWpht_G1R"  >
<path style="stroke: none; stroke-width: 1; stroke-dasharray: none; stroke-linecap: butt; stroke-dashoffset: 0; stroke-linejoin: miter; stroke-miterlimit: 4; fill: rgb(223,143,59); fill-rule: nonzero; opacity: 1;" vector-effect="non-scaling-stroke"  transform=" translate(-59674.9, -15125.65)" d="M 59737.1 15125.7 C 59737.1 15079.1 59709.299999999996 15041.2 59674.9 15041.2 C 59640.5 15041.2 59612.700000000004 15079.1 59612.700000000004 15125.7 C 59612.700000000004 15172.300000000001 59640.50000000001 15210.1 59674.9 15210.1 C 59709.3 15210.1 59737.1 15172.300000000001 59737.1 15125.7" stroke-linecap="round" />
</g>
		<g transform="matrix(0.13 0 0 -0.13 -103.3 312.61)" id="t5dba9kWckD_oRvChkYTT"  >
<path style="stroke: none; stroke-width: 1; stroke-dasharray: none; stroke-linecap: butt; stroke-dashoffset: 0; stroke-linejoin: miter; stroke-miterlimit: 4; fill: rgb(223,143,59); fill-rule: nonzero; opacity: 1;" vector-effect="non-scaling-stroke"  transform=" translate(-61372.35, -22778.45)" d="M 61434.6 22778.4 C 61434.6 22731.800000000003 61406.7 22694 61372.299999999996 22694 C 61337.899999999994 22694 61310.1 22731.8 61310.1 22778.4 C 61310.1 22825.100000000002 61337.9 22862.9 61372.299999999996 22862.9 C 61406.7 22862.9 61434.6 22825.100000000002 61434.6 22778.4" stroke-linecap="round" />
</g>
		<g transform="matrix(0.13 0 0 -0.13 62.57 2126.42)" id="_LO1_ZYh1Ce5mINLbFgV5"  >
<path style="stroke: none; stroke-width: 1; stroke-dasharray: none; stroke-linecap: butt; stroke-dashoffset: 0; stroke-linejoin: miter; stroke-miterlimit: 4; fill: rgb(223,143,59); fill-rule: nonzero; opacity: 1;" vector-effect="non-scaling-stroke"  transform=" translate(-62616.35, -9174.85)" d="M 62678.6 9174.9 C 62678.6 9128.199999999999 62650.7 9090.4 62616.4 9090.4 C 62582 9090.4 62554.1 9128.199999999999 62554.1 9174.9 C 62554.1 9221.5 62582 9259.3 62616.4 9259.3 C 62650.700000000004 9259.3 62678.6 9221.5 62678.6 9174.9" stroke-linecap="round" />
</g>
		<g transform="matrix(0.13 0 0 -0.13 -320.95 1082.26)" id="32IikhExCMObPaDMyhgGV"  >
<path style="stroke: none; stroke-width: 1; stroke-dasharray: none; stroke-linecap: butt; stroke-dashoffset: 0; stroke-linejoin: miter; stroke-miterlimit: 4; fill: rgb(223,143,59); fill-rule: nonzero; opacity: 1;" vector-effect="non-scaling-stroke"  transform=" translate(-59739.95, -17006.05)" d="M 59802.2 17006.1 C 59802.2 16959.399999999998 59774.299999999996 16921.6 59739.899999999994 16921.6 C 59705.49999999999 16921.6 59677.7 16959.399999999998 59677.7 17006.1 C 59677.7 17052.699999999997 59705.5 17090.5 59739.899999999994 17090.5 C 59774.299999999996 17090.5 59802.2 17052.7 59802.2 17006.1" stroke-linecap="round" />
</g>
		<g transform="matrix(0.13 0 0 -0.13 229.73 2088.43)" id="X9z17QfyjZ7CZ1-0CT7ek"  >
<path style="stroke: none; stroke-width: 1; stroke-dasharray: none; stroke-linecap: butt; stroke-dashoffset: 0; stroke-linejoin: miter; stroke-miterlimit: 4; fill: rgb(223,143,59); fill-rule: nonzero; opacity: 1;" vector-effect="non-scaling-stroke"  transform=" translate(-63870.05, -9459.75)" d="M 63932.3 9459.7 C 63932.3 9413.1 63904.4 9375.300000000001 63870 9375.300000000001 C 63835.6 9375.300000000001 63807.8 9413.1 63807.8 9459.7 C 63807.8 9506.400000000001 63835.600000000006 9544.2 63870 9544.2 C 63904.4 9544.2 63932.3 9506.400000000001 63932.3 9459.7" stroke-linecap="round" />
</g>
		<g transform="matrix(0.13 0 0 -0.13 325.24 539.21)" id="Q0fuMmFJtM-4qn1_khYoz"  >
<path style="stroke: none; stroke-width: 1; stroke-dasharray: none; stroke-linecap: butt; stroke-dashoffset: 0; stroke-linejoin: miter; stroke-miterlimit: 4; fill: rgb(223,143,59); fill-rule: nonzero; opacity: 1;" vector-effect="non-scaling-stroke"  transform=" translate(-64586.35, -21078.95)" d="M 64648.6 21078.9 C 64648.6 21032.300000000003 64620.799999999996 20994.5 64586.4 20994.5 C 64552 20994.5 64524.1 21032.3 64524.1 21078.9 C 64524.1 21125.600000000002 64552 21163.4 64586.4 21163.4 C 64620.8 21163.4 64648.6 21125.600000000002 64648.6 21078.9" stroke-linecap="round" />
</g>
		<g transform="matrix(0.13 0 0 -0.13 90.89 604.03)" id="jr0URElHSQBL3uArCRr_R"  >
<path style="stroke: none; stroke-width: 1; stroke-dasharray: none; stroke-linecap: butt; stroke-dashoffset: 0; stroke-linejoin: miter; stroke-miterlimit: 4; fill: rgb(223,143,59); fill-rule: nonzero; opacity: 1;" vector-effect="non-scaling-stroke"  transform=" translate(-62828.75, -20592.8)" d="M 62891 20592.8 C 62891 20546.2 62863.2 20508.399999999998 62828.8 20508.399999999998 C 62794.4 20508.399999999998 62766.5 20546.199999999997 62766.5 20592.8 C 62766.5 20639.399999999998 62794.4 20677.2 62828.8 20677.2 C 62863.200000000004 20677.2 62891 20639.4 62891 20592.8" stroke-linecap="round" />
</g>
		<g transform="matrix(0.13 0 0 -0.13 -64.62 1268.18)" id="EtM5e_gLmk2KyqGle8K_f"  >
<path style="stroke: none; stroke-width: 1; stroke-dasharray: none; stroke-linecap: butt; stroke-dashoffset: 0; stroke-linejoin: miter; stroke-miterlimit: 4; fill: rgb(223,143,59); fill-rule: nonzero; opacity: 1;" vector-effect="non-scaling-stroke"  transform=" translate(-61662.45, -15611.65)" d="M 61724.7 15611.7 C 61724.7 15565.1 61696.899999999994 15527.2 61662.5 15527.2 C 61628.1 15527.2 61600.2 15565.1 61600.2 15611.7 C 61600.2 15658.300000000001 61628.1 15696.1 61662.5 15696.1 C 61696.9 15696.1 61724.7 15658.300000000001 61724.7 15611.7" stroke-linecap="round" />
</g>
		<g transform="matrix(0.13 0 0 -0.13 82.6 1380.47)" id="vxYUKDawBJWN9ywtcJkx7"  >
<path style="stroke: none; stroke-width: 1; stroke-dasharray: none; stroke-linecap: butt; stroke-dashoffset: 0; stroke-linejoin: miter; stroke-miterlimit: 4; fill: rgb(223,143,59); fill-rule: nonzero; opacity: 1;" vector-effect="non-scaling-stroke"  transform=" translate(-62766.55, -14769.45)" d="M 62828.8 14769.5 C 62828.8 14722.9 62800.9 14685 62766.5 14685 C 62732.2 14685 62704.3 14722.9 62704.3 14769.5 C 62704.3 14816.1 62732.200000000004 14853.9 62766.5 14853.9 C 62800.9 14853.9 62828.8 14816.1 62828.8 14769.5" stroke-linecap="round" />
</g>
		<g transform="matrix(0.13 0 0 -0.13 -210.7 2043.9)" id="l96J899MuS8Gw61SmNlNL"  >
<path style="stroke: none; stroke-width: 1; stroke-dasharray: none; stroke-linecap: butt; stroke-dashoffset: 0; stroke-linejoin: miter; stroke-miterlimit: 4; fill: rgb(223,143,59); fill-rule: nonzero; opacity: 1;" vector-effect="non-scaling-stroke"  transform=" translate(-60566.85, -9793.75)" d="M 60629.1 9793.8 C 60629.1 9747.099999999999 60601.299999999996 9709.3 60566.9 9709.3 C 60532.5 9709.3 60504.6 9747.099999999999 60504.6 9793.8 C 60504.6 9840.4 60532.5 9878.199999999999 60566.9 9878.199999999999 C 60601.3 9878.199999999999 60629.1 9840.4 60629.1 9793.8" stroke-linecap="round" />
</g>
		<g transform="matrix(0.13 0 0 -0.13 201.4 -2270.77)" id="gO8N1NqSstwSuPO3TOen6"  >
<path style="stroke: none; stroke-width: 1; stroke-dasharray: none; stroke-linecap: butt; stroke-dashoffset: 0; stroke-linejoin: miter; stroke-miterlimit: 4; fill: rgb(223,143,59); fill-rule: nonzero; opacity: 1;" vector-effect="non-scaling-stroke"  transform=" translate(-63657.55, -42153.8)" d="M 63719.8 42153.8 C 63719.8 42107.100000000006 63692 42069.4 63657.600000000006 42069.4 C 63623.200000000004 42069.4 63595.3 42107.1 63595.3 42153.8 C 63595.3 42200.4 63623.200000000004 42238.200000000004 63657.600000000006 42238.200000000004 C 63692.00000000001 42238.200000000004 63719.8 42200.4 63719.8 42153.8" stroke-linecap="round" />
</g>
		<g transform="matrix(0.13 0 0 -0.13 314.8 -1372.59)" id="QZ5J3rdXFLSo8URYJx_PF"  >
<path style="stroke: none; stroke-width: 1; stroke-dasharray: none; stroke-linecap: butt; stroke-dashoffset: 0; stroke-linejoin: miter; stroke-miterlimit: 4; fill: rgb(223,143,59); fill-rule: nonzero; opacity: 1;" vector-effect="non-scaling-stroke"  transform=" translate(-64508.05, -35417.45)" d="M 64570.3 35417.4 C 64570.3 35370.8 64542.4 35333 64508 35333 C 64473.6 35333 64445.8 35370.8 64445.8 35417.4 C 64445.8 35464.1 64473.600000000006 35501.9 64508 35501.9 C 64542.4 35501.9 64570.3 35464.1 64570.3 35417.4" stroke-linecap="round" />
</g>
		<g transform="matrix(0.13 0 0 -0.13 -24.56 -1501.62)" id="KRV_haYAvYnno7VJ2napv"  >
<path style="stroke: none; stroke-width: 1; stroke-dasharray: none; stroke-linecap: butt; stroke-dashoffset: 0; stroke-linejoin: miter; stroke-miterlimit: 4; fill: rgb(223,143,59); fill-rule: nonzero; opacity: 1;" vector-effect="non-scaling-stroke"  transform=" translate(-61962.85, -36385.15)" d="M 62025.1 36385.1 C 62025.1 36338.5 61997.2 36300.7 61962.799999999996 36300.7 C 61928.49999999999 36300.7 61900.6 36338.5 61900.6 36385.1 C 61900.6 36431.7 61928.5 36469.6 61962.799999999996 36469.6 C 61997.2 36469.6 62025.1 36431.7 62025.1 36385.1" stroke-linecap="round" />
</g>
		<g transform="matrix(0.13 0 0 -0.13 -104.66 -2259.51)" id="tN7R0uRlg8Qv-Taf66zwY"  >
<path style="stroke: none; stroke-width: 1; stroke-dasharray: none; stroke-linecap: butt; stroke-dashoffset: 0; stroke-linejoin: miter; stroke-miterlimit: 4; fill: rgb(223,143,59); fill-rule: nonzero; opacity: 1;" vector-effect="non-scaling-stroke"  transform=" translate(-61362.15, -42069.35)" d="M 61424.4 42069.4 C 61424.4 42022.700000000004 61396.5 41984.9 61362.1 41984.9 C 61327.7 41984.9 61299.9 42022.700000000004 61299.9 42069.4 C 61299.9 42116 61327.700000000004 42153.8 61362.1 42153.8 C 61396.5 42153.8 61424.4 42116 61424.4 42069.4" stroke-linecap="round" />
</g>
		<g transform="matrix(0.13 0 0 -0.13 -329.26 -1605.48)" id="MXi2qmV0GRU2fQXN_PT5Z"  >
<path style="stroke: none; stroke-width: 1; stroke-dasharray: none; stroke-linecap: butt; stroke-dashoffset: 0; stroke-linejoin: miter; stroke-miterlimit: 4; fill: rgb(223,143,59); fill-rule: nonzero; opacity: 1;" vector-effect="non-scaling-stroke"  transform=" translate(-59677.65, -37164.1)" d="M 59739.9 37164.1 C 59739.9 37117.5 59712.1 37079.7 59677.700000000004 37079.7 C 59643.3 37079.7 59615.4 37117.5 59615.4 37164.1 C 59615.4 37210.7 59643.3 37248.5 59677.700000000004 37248.5 C 59712.100000000006 37248.5 59739.9 37210.7 59739.9 37164.1" stroke-linecap="round" />
</g>
		<g transform="matrix(0.13 0 0 -0.13 -278.27 -662.11)" id="1_wlQihCbKReffUAXQ8vP"  >
<path style="stroke: none; stroke-width: 1; stroke-dasharray: none; stroke-linecap: butt; stroke-dashoffset: 0; stroke-linejoin: miter; stroke-miterlimit: 4; fill: rgb(223,143,59); fill-rule: nonzero; opacity: 1;" vector-effect="non-scaling-stroke"  transform=" translate(-60060.05, -30088.85)" d="M 60122.3 30088.8 C 60122.3 30042.2 60094.4 30004.399999999998 60060 30004.399999999998 C 60025.7 30004.399999999998 59997.8 30042.199999999997 59997.8 30088.8 C 59997.8 30135.399999999998 60025.700000000004 30173.3 60060 30173.3 C 60094.4 30173.3 60122.3 30135.399999999998 60122.3 30088.8" stroke-linecap="round" />
</g>
		<g transform="matrix(0.13 0 0 -0.13 138.45 -297.9)" id="5By0YiNYfYudh7SPujHwB"  >
<path style="stroke: none; stroke-width: 1; stroke-dasharray: none; stroke-linecap: butt; stroke-dashoffset: 0; stroke-linejoin: miter; stroke-miterlimit: 4; fill: rgb(223,143,59); fill-rule: nonzero; opacity: 1;" vector-effect="non-scaling-stroke"  transform=" translate(-63185.45, -27357.25)" d="M 63247.7 27357.2 C 63247.7 27310.600000000002 63219.799999999996 27272.8 63185.5 27272.8 C 63151.1 27272.8 63123.2 27310.6 63123.2 27357.2 C 63123.2 27403.9 63151.1 27441.7 63185.5 27441.7 C 63219.8 27441.7 63247.7 27403.9 63247.7 27357.2" stroke-linecap="round" />
</g>
		<g transform="matrix(0.13 0 0 -0.13 341.84 -162.11)" id="sTIcn5Edt3q9U3qiNmjiv"  >
<path style="stroke: none; stroke-width: 1; stroke-dasharray: none; stroke-linecap: butt; stroke-dashoffset: 0; stroke-linejoin: miter; stroke-miterlimit: 4; fill: rgb(223,143,59); fill-rule: nonzero; opacity: 1;" vector-effect="non-scaling-stroke"  transform=" translate(-64710.85, -26338.85)" d="M 64773.1 26338.8 C 64773.1 26292.2 64745.2 26254.399999999998 64710.9 26254.399999999998 C 64676.5 26254.399999999998 64648.6 26292.199999999997 64648.6 26338.8 C 64648.6 26385.5 64676.5 26423.3 64710.9 26423.3 C 64745.200000000004 26423.3 64773.1 26385.5 64773.1 26338.8" stroke-linecap="round" />
</g>
</g>
</g>
</svg>