<?xml version="1.0" encoding="UTF-8" standalone="no"?>
<svg
   version="1.1"
   viewBox="-5 -10 110 110"
   id="svg1632"
   width="110"
   height="110"
   xmlns="http://www.w3.org/2000/svg"
   xmlns:svg="http://www.w3.org/2000/svg">
  <defs
     id="defs1636" />
  <path
     d="m 52.822803,19.171024 9.8633,5.6953 0.0039,-0.0078 9.8672,5.6953 3.957,-2.2852 3.9297,-15.156 c -4.6797,-4.2694997 -10.273,-7.5507997 -16.457,-9.5155997 l -11.168,10.9839997 v 4.5859 z m 31.355,-2.2109 -2.9102,11.215 11.18,3.0938 c -1.8555,-5.3008 -4.6836,-10.141 -8.2695,-14.309 z m 9.7305,19.461 -15.102,-4.1797 -3.9492,2.2812 v 22.805 l 3.9453,2.2773 15.109,-4.1797 c 0.66406,-3.0586 1.0195,-6.2422 1.0195,-9.5039 0,-3.2617 -0.35156,-6.4414 -1.0195,-9.5039 z m -1.457,24.164 -11.18,3.0938 2.9062,11.215 c 3.5898,-4.168 6.4219,-9.0078 8.2695,-14.309 z m -12.008,18.148 -3.9336,-15.164 -3.9492,-2.2812 -9.875,5.6992 -0.12891,0.07031 -9.7383,5.6211 v 4.5859 l 11.168,10.984 c 6.1836,-1.9648 11.777,-5.2461 16.457,-9.5156 z m -21.656,10.828 -8.2617,-8.1289 -8.2617,8.1289 c 2.6797,0.50391 5.4375,0.76953 8.2617,0.76953 2.8242,0 5.5859,-0.26562 8.2617,-0.76953 z m -21.727,-1.3125 11.168,-10.984 v -4.5859 l -9.8633,-5.6953 -0.0039,0.0078 -9.8672,-5.6953 -3.957,2.2852 -3.9297,15.156 c 4.6797,4.2695 10.273,7.5508 16.457,9.5156 z m -20.191,-13.359 2.9102,-11.215 -11.1799997,-3.0938 c 1.8554997,5.3008 4.6835997,10.141 8.2694997,14.309 z m -9.7304997,-19.461 15.1019997,4.1797 3.9492,-2.2812 v -22.805 l -3.9453,-2.2773 -15.1089997,4.1797 c -0.66406,3.0625 -1.0195,6.2422 -1.0195,9.5039 0,3.2617 0.35156,6.4453 1.0195,9.5039 z m 1.457,-24.164 11.1799997,-3.0938 -2.9062,-11.215 c -3.5898,4.168 -6.4219,9.0078 -8.2694997,14.309 z m 12.0079997,-18.148 3.9336,15.164 3.9492,2.2812 9.875,-5.6992 0.12891,-0.07031 9.7383,-5.6211 v -4.5859 l -11.168,-10.9839997 c -6.1836,1.9648 -11.777,5.2461 -16.457,9.5155997 z m 21.656,-10.8279997 8.2617,8.1288997 8.2617,-8.1288997 c -2.6797,-0.50391 -5.4375,-0.76953 -8.2617,-0.76953 -2.8242,0 -5.5859,0.26562 -8.2617,0.76953 z m 42.91,78.2809997 c -8.8672,8.8672 -21.117,14.348 -34.645,14.348 -13.531,0 -25.777,-5.4844 -34.645,-14.348 -8.8671997,-8.8672 -14.3479997,-21.117 -14.3479997,-34.645 0,-13.531 5.4844,-25.777 14.3479997,-34.645 8.8672,-8.8671997 21.117,-14.3479997 34.645,-14.3479997 13.531,0 25.777,5.4844 34.645,14.3479997 8.8672,8.8672 14.348,21.117 14.348,34.645 0,13.531 -5.4844,25.777 -14.348,34.645 z m -33.473,-49.699 5.6406,3.2578 0.0039,-0.0039 5.668,3.2734 c 0.73047,0.42578 1.1445,1.1953 1.1445,1.9844 h 0.0078 v 13.09 c 0,0.91016 -0.52734,1.6953 -1.293,2.0664 l -5.5234,3.1875 -0.12891,0.07031 -5.5508,3.2031 c -0.74219,0.42578 -1.625,0.39062 -2.3125,-0.01953 l -5.6406,-3.2578 -0.0039,0.0039 -5.668,-3.2734 c -0.73047,-0.42578 -1.1445,-1.1953 -1.1445,-1.9844 h -0.0078 v -13.09 c 0,-0.91016 0.52734,-1.6953 1.293,-2.0664 l 5.5234,-3.1875 0.12891,-0.07031 5.5508,-3.2031 c 0.74219,-0.42578 1.625,-0.39062 2.3125,0.01953 z m 3.3477,7.2148 -4.5195,-2.6094 -4.4023,2.543 -0.11719,0.07031 -4.5195,2.6094 v 10.449 l 4.5195,2.6094 -0.0039,0.0039 4.5195,2.6094 4.4023,-2.543 0.11719,-0.07031 4.5195,-2.6094 v -10.449 l -4.5195,-2.6094 z m 5.3477,-9.2656 -9.8711,-5.6953 -9.75,5.6289 -0.12109,0.07422 -9.8672,5.6953 v 22.805 l 9.8672,5.6953 -0.0039,0.0078 9.8711,5.6953 9.75,-5.6289 0.12109,-0.07422 9.8672,-5.6953 v -22.805 l -9.8672,-5.6953 z"
     id="path1626" />
</svg>
