<?xml version="1.0" encoding="UTF-8" standalone="no"?>
<svg
   version="1.1"
   x="0px"
   y="0px"
   viewBox="0 0 100 100"
   enable-background="new 0 0 100 100"
   xml:space="preserve"
   id="svg3700"
   width="100"
   height="100"
   xmlns="http://www.w3.org/2000/svg"
   xmlns:svg="http://www.w3.org/2000/svg"><defs
     id="defs3704" /><g
     id="g3694"
     style="fill:#ffffff;fill-opacity:1"><path
       d="m 70.625,33.239 -9.813,-3.915 c 2.047,-2.584 5.151,-5.26 9.713,-6.541 1.071,-0.301 1.696,-1.414 1.396,-2.485 -0.3,-1.071 -1.418,-1.697 -2.485,-1.396 -6.144,1.726 -10.085,5.469 -12.517,8.868 l -9.008,-3.594 -3.802,9.53 C 33.987,34.521 24.698,40.913 20.68,50.984 15.034,65.136 21.93,81.185 36.081,86.831 50.232,92.477 66.278,85.582 71.924,71.43 75.942,61.359 73.603,50.329 66.822,42.77 Z m -27.029,9.27 c -6.66,0.972 -12.345,5.455 -14.837,11.7 -0.315,0.789 -1.072,1.269 -1.873,1.269 -0.249,0 -0.501,-0.046 -0.747,-0.144 -1.034,-0.413 -1.538,-1.585 -1.125,-2.619 3.023,-7.576 9.92,-13.015 17.999,-14.194 1.099,-0.168 2.125,0.602 2.285,1.703 0.162,1.102 -0.6,2.125 -1.702,2.285 z"
       id="path3682"
       style="fill:#ffffff;fill-opacity:1" /><path
       d="m 69.229,13.563 c 0.184,0.482 0.643,0.778 1.13,0.778 0.144,0 0.289,-0.025 0.431,-0.08 0.624,-0.238 0.938,-0.937 0.699,-1.561 L 70.285,9.543 C 70.048,8.919 69.347,8.607 68.724,8.844 68.1,9.082 67.786,9.781 68.025,10.405 Z"
       id="path3684"
       style="fill:#ffffff;fill-opacity:1" /><path
       d="m 77.889,9.106 c -0.608,-0.272 -1.325,0 -1.598,0.609 l -1.382,3.083 c -0.273,0.609 -0.001,1.325 0.609,1.598 0.16,0.072 0.328,0.106 0.493,0.106 0.462,0 0.903,-0.266 1.104,-0.715 l 1.382,-3.083 c 0.274,-0.609 0.002,-1.325 -0.608,-1.598 z"
       id="path3686"
       style="fill:#ffffff;fill-opacity:1" /><path
       d="m 79.897,18.615 c 0.144,0 0.289,-0.025 0.431,-0.08 l 3.157,-1.204 c 0.624,-0.238 0.938,-0.937 0.699,-1.561 -0.237,-0.624 -0.937,-0.937 -1.561,-0.699 l -3.157,1.204 c -0.624,0.238 -0.938,0.937 -0.699,1.561 0.184,0.483 0.643,0.779 1.13,0.779 z"
       id="path3688"
       style="fill:#ffffff;fill-opacity:1" /><path
       d="m 83.313,23.338 -3.082,-1.383 c -0.611,-0.272 -1.325,-10e-4 -1.599,0.608 -0.274,0.609 -0.001,1.325 0.608,1.599 l 3.082,1.383 c 0.161,0.072 0.329,0.106 0.494,0.106 0.462,0 0.903,-0.266 1.104,-0.714 0.274,-0.609 0.002,-1.325 -0.607,-1.599 z"
       id="path3690"
       style="fill:#ffffff;fill-opacity:1" /><path
       d="m 76.752,26.512 c -0.237,-0.624 -0.938,-0.937 -1.561,-0.699 -0.624,0.238 -0.938,0.937 -0.699,1.561 l 1.203,3.157 c 0.184,0.482 0.643,0.779 1.13,0.779 0.144,0 0.289,-0.025 0.431,-0.08 0.624,-0.238 0.938,-0.937 0.699,-1.561 z"
       id="path3692"
       style="fill:#ffffff;fill-opacity:1" /></g></svg>
