<?xml version="1.0" encoding="UTF-8"?>
<svg id="Layer_2" data-name="Layer 2" xmlns="http://www.w3.org/2000/svg" xmlns:xlink="http://www.w3.org/1999/xlink" viewBox="0 0 772.73 869.92">
  <defs>
    <style>
      .cls-1 {
        fill: #fff;
      }

      .cls-2 {
        fill: url(#linear-gradient);
      }
    </style>
    <linearGradient id="linear-gradient" x1="11314.29" y1="4419.19" x2="10974.54" y2="3799.54" gradientTransform="translate(2394.37 -11268.98) rotate(120) scale(1 -1)" gradientUnits="userSpaceOnUse">
      <stop offset="0" stop-color="#f205e2"/>
      <stop offset=".5" stop-color="#a515d1"/>
      <stop offset="1" stop-color="#5726bf"/>
    </linearGradient>
  </defs>
  <g id="Layer_1-2" data-name="Layer 1">
    <g>
      <path class="cls-2" d="m37.69,656.95l320.77,185.2c13.14,7.59,29.34,7.59,42.48,0l320.77-185.2c13.14-7.59,21.24-21.61,21.24-36.79V249.76c0-15.18-8.1-29.2-21.24-36.79L400.95,27.77c-13.14-7.59-29.34-7.59-42.48,0L37.69,212.97c-13.14,7.59-21.24,21.61-21.24,36.79v370.4c0,15.18,8.1,29.2,21.24,36.79h0Z"/>
      <g>
        <g>
          <path class="cls-1" d="m352.05,12.56L37.7,194.05c-21.23,12.26-34.31,34.91-34.31,59.42v362.97c0,24.51,13.08,47.17,34.31,59.42l314.35,181.49c21.23,12.26,47.39,12.26,68.62,0l314.35-181.49c21.23-12.26,34.31-34.91,34.31-59.42V253.49c0-24.51-13.08-47.16-34.31-59.42L420.67,12.56c-21.23-12.26-47.39-12.26-68.62,0Zm149.01,671.83l197.57-114.07c6.79-3.92,15.28.98,15.28,8.82v35.13c0,6.07-3.24,11.67-8.49,14.71l-313.86,181.19c-3.22,1.86-7.19,1.86-10.41,0l-156.53-90.37c0-9.71,0-7.94,0-17.65l204.9-118.3c11.32-6.54,11.32-22.88,0-29.41l-24.84-14.34c-3.15-1.82-7.04-1.82-10.19,0l-235.35,135.89c-3.22,1.86-7.19,1.86-10.42,0l-46.57-26.89c-6.94-4.01-6.94-14.03,0-18.04l591.39-341.42c11.21-6.47,20.38-1.18,20.38,11.77v151.02c0,27.91-14.89,53.69-39.06,67.65l-208.83,120.57c-11.32,6.54-11.32,22.88,0,29.41l24.84,14.34c3.15,1.82,7.04,1.82,10.19,0Zm-229.4-498.86l-197.57,114.07c-6.79,3.92-15.28-.98-15.28-8.82v-35.13c0-5.39,3.82-12.01,8.49-14.71L379.57,60.67c3.74-2.16,9.85-2.16,13.58,0l154.94,89.45c0,9.71,0,7.94,0,17.65l-214.75,123.99c-6.94,4.01-6.94,14.03,0,18.04l34.58,19.96c3.22,1.86,7.19,1.86,10.42,0l235.24-135.82c3.22-1.86,7.19-1.86,10.42,0l46.57,26.89c6.94,4.01,6.94,14.03,0,18.04L79.19,580.29c-11.21,6.47-20.38,1.18-20.38-11.77v-151.02c0-27.91,14.89-53.69,39.06-67.65l208.83-120.57c11.32-6.54,11.32-22.88,0-29.41l-24.84-14.34c-3.15-1.82-7.04-1.82-10.19,0Z"/>
          <path class="cls-1" d="m386.36,869.92c-12.45,0-24.9-3.21-36.01-9.62L36.01,678.81c-22.21-12.82-36.01-36.72-36.01-62.37V253.47c0-25.65,13.8-49.54,36.01-62.36L350.35,9.62c22.21-12.82,49.8-12.82,72.02,0l314.35,181.51c22.21,12.82,36.01,36.72,36.01,62.36v362.95c0,25.64-13.8,49.54-36.01,62.37l-314.35,181.49c-11.1,6.41-23.55,9.62-36.01,9.62ZM353.75,15.5L39.4,196.99c-20.12,11.61-32.61,33.25-32.61,56.48v362.97c0,23.23,12.49,44.87,32.61,56.48l314.35,181.49c20.12,11.61,45.11,11.61,65.22,0l314.35-181.49c20.12-11.61,32.61-33.26,32.61-56.48V253.49c0-23.23-12.49-44.87-32.61-56.48L418.98,15.5c-20.12-11.61-45.11-11.61-65.23,0h0Zm32.61,799.45c-2.39,0-4.78-.62-6.91-1.85l-158.23-91.35v-21.57l206.6-119.28c4.25-2.46,6.79-6.85,6.79-11.77,0-4.91-2.54-9.31-6.8-11.76l-24.84-14.34c-2.1-1.21-4.7-1.21-6.79,0l-235.35,135.89c-4.26,2.46-9.56,2.46-13.81,0l-46.57-26.89c-4.32-2.5-6.91-6.97-6.91-11.96s2.58-9.46,6.91-11.96l591.39-341.42c6.51-3.76,12.84-4.26,17.79-1.4,4.96,2.86,7.68,8.58,7.68,16.1v151.02c0,29.03-15.61,56.08-40.75,70.59l-208.84,120.57c-4.25,2.46-6.79,6.85-6.79,11.76s2.54,9.31,6.79,11.77l24.84,14.34c2.1,1.21,4.7,1.21,6.79,0h0s197.58-114.08,197.58-114.08c4.25-2.45,9.33-2.45,13.58,0,4.26,2.46,6.79,6.85,6.79,11.76v35.13c0,7.26-3.9,14.02-10.19,17.65l-313.86,181.19c-2.13,1.23-4.52,1.84-6.91,1.84Zm-158.34-97.11l154.83,89.39c2.16,1.25,4.86,1.25,7.02,0l313.86-181.19c4.19-2.42,6.79-6.93,6.79-11.76v-35.13c0-2.45-1.27-4.65-3.4-5.88-2.13-1.23-4.67-1.23-6.79,0l-197.58,114.07c-4.18,2.41-9.39,2.42-13.58,0l-24.84-14.34c-6.38-3.68-10.19-10.28-10.19-17.65s3.81-13.96,10.19-17.65l208.84-120.57c23.04-13.3,37.36-38.1,37.36-64.71v-151.02c0-4.99-1.52-8.62-4.29-10.22-2.77-1.6-6.68-1.1-10.99,1.4L103.85,633.99c-2.2,1.27-3.51,3.54-3.51,6.08s1.31,4.81,3.51,6.08l46.57,26.89c2.16,1.25,4.86,1.25,7.02,0l235.35-135.89c4.19-2.42,9.4-2.42,13.58,0l24.84,14.34c6.38,3.68,10.19,10.28,10.19,17.65,0,7.37-3.81,13.96-10.19,17.65l-203.2,117.32v13.73Zm-157.9-131.37c-2.53,0-4.91-.61-7.03-1.84-4.96-2.86-7.68-8.58-7.68-16.1v-151.02c0-29.03,15.61-56.08,40.75-70.59l208.84-120.57c4.25-2.45,6.79-6.85,6.79-11.76s-2.54-9.31-6.8-11.76l-24.84-14.34c-2.1-1.21-4.7-1.21-6.79,0h0s-197.58,114.07-197.58,114.07c-4.25,2.45-9.33,2.45-13.58,0-4.25-2.46-6.79-6.85-6.79-11.77v-35.12c0-6.6,4.47-14.35,10.19-17.65L377.87,57.73c4.76-2.75,12.22-2.75,16.98,0l156.64,90.43v21.57l-216.45,124.97c-2.2,1.27-3.51,3.54-3.51,6.08s1.31,4.81,3.51,6.08l34.58,19.96c2.17,1.25,4.86,1.25,7.02,0l235.24-135.82c4.26-2.46,9.55-2.46,13.81,0l46.57,26.89c4.32,2.5,6.91,6.97,6.91,11.96,0,4.99-2.58,9.47-6.91,11.96L80.88,583.24c-3.72,2.15-7.38,3.23-10.76,3.23Zm206.63-405.7c2.35,0,4.7.6,6.79,1.81l24.84,14.34c6.38,3.68,10.19,10.28,10.19,17.65,0,7.37-3.81,13.96-10.19,17.65l-208.84,120.57c-23.04,13.3-37.36,38.1-37.36,64.71v151.02c0,4.99,1.52,8.62,4.29,10.22,2.77,1.6,6.67,1.1,10.99-1.4L668.87,235.93c2.2-1.27,3.51-3.54,3.51-6.08s-1.31-4.81-3.51-6.08l-46.57-26.89c-2.16-1.25-4.86-1.25-7.02,0l-235.24,135.82c-4.25,2.46-9.55,2.46-13.81,0l-34.58-19.96c-4.32-2.5-6.91-6.97-6.91-11.96s2.58-9.47,6.91-11.96l213.05-123.01v-13.73l-153.25-88.47c-2.67-1.54-7.52-1.54-10.19,0L69,243.89c-3.62,2.09-6.79,7.59-6.79,11.76v35.12c0,2.46,1.27,4.65,3.4,5.88,2.13,1.23,4.66,1.23,6.79,0l197.58-114.07c2.09-1.21,4.44-1.81,6.79-1.81Z"/>
        </g>
        <path class="cls-1" d="m375.75,692.75l-6.43,3.71c-4.32,2.49-7.47,6.6-8.76,11.41l-1.91,7.13c-1.29,4.81-.61,9.94,1.88,14.26l3.69,6.39c2.49,4.32,6.6,7.47,11.41,8.76l7.13,1.91c4.81,1.29,9.94.61,14.26-1.88l6.39-3.69c4.32-2.49,7.47-6.6,8.76-11.41l1.91-7.13c1.29-4.81.61-9.94-1.88-14.26l-3.69-6.39c-2.49-4.32-6.6-7.47-11.41-8.76l-7.18-1.92c-4.79-1.28-9.88-.61-14.17,1.87Z"/>
        <path class="cls-1" d="m140.7,408.85v28.69c0,13.07,14.15,21.24,25.47,14.71l129.76-74.92c6.94-4.01,6.94-14.03,0-18.04l-34.58-19.96c-3.22-1.86-7.19-1.86-10.42,0l-105.14,60.7c-3.15,1.82-5.09,5.18-5.09,8.82Z"/>
        <path class="cls-1" d="m632.03,457.14v-36.53c0-7.84-8.49-12.75-15.28-8.82l-139.94,80.8c-6.94,4.01-6.94,14.03,0,18.04l34.58,19.96c3.22,1.86,7.19,1.86,10.42,0l101.74-58.74c5.25-3.03,8.49-8.64,8.49-14.71Z"/>
        <path class="cls-1" d="m394.01,178.87l12.4-7.16c2.39-1.38,4.14-3.66,4.85-6.32l3.71-13.83c.71-2.67.34-5.51-1.04-7.9l-7.16-12.4c-1.38-2.39-3.66-4.14-6.32-4.85l-10.53-2.82c-4.79-1.28-9.88-.61-14.17,1.87l-9.44,5.45c-2.39,1.38-4.14,3.66-4.85,6.32l-3.71,13.83c-.71,2.67-.34,5.51,1.04,7.9l7.16,12.4c1.38,2.39,3.66,4.14,6.32,4.85l13.83,3.71c2.67.71,5.51.34,7.9-1.04Z"/>
      </g>
    </g>
  </g>
</svg>