<?xml version="1.0" encoding="UTF-8"?>
<svg id="Layer_2" data-name="Layer 2" xmlns="http://www.w3.org/2000/svg" viewBox="0 0 585.88 154.1">
  <defs>
    <style>
      .cls-1 {
        fill: #fff;
      }
    </style>
  </defs>
  <g id="Layer_1-2" data-name="Layer 1">
    <g>
      <g>
        <path class="cls-1" d="m0,138.64V14.14L69.8,0v41.79l-21.91,32.97,21.91,32.97v46.37L0,138.64Zm19.22-24.46l24.38,3.04v-17.88l-6.89-11.07-17.49-.82v26.72Zm0-79.06v26.72l17.49-.7,6.9-11.03v-17.87l-24.38,2.88Z"/>
        <path class="cls-1" d="m83.73,104.27l-19.91-29.52,19.91-29.4V0l69.72,14.13v36.16l-15.95,24.34,15.95,24.22v39.79l-69.72,15.46v-49.83Zm26.16,12.95l24.36-3.04v-14.16l-8.62-12.29-25.3,1.15,9.55,13.65v14.69Zm-9.11-56.72l25.24,1.01,8.22-12.26v-14.13l-24.36-2.88v14.67l-9.11,13.58Z"/>
      </g>
      <g>
        <path class="cls-1" d="m182.62,7.32h52.65v15.04l-7.52,7.52v7.52l7.52,7.52v22.56h-52.65V7.32Zm22.56,7.52v15.04h7.52v-15.04h-7.52Zm0,22.56v22.56h7.52v-22.56h-7.52Z"/>
        <path class="cls-1" d="m242.78,29.89h22.56v22.56h7.52v-22.56h22.56v37.6h-37.6l-7.52-7.52-7.52-7.52v-22.56Z"/>
        <path class="cls-1" d="m302.95,7.32h22.56v15.04h-22.56V7.32Zm0,22.56h22.56v37.6h-22.56V29.89Z"/>
        <path class="cls-1" d="m333.04,7.32h22.56v45.13l7.52,7.52v7.52h-30.08V7.32Z"/>
        <path class="cls-1" d="m397.86,7.32h22.56v60.17h-45.13l-7.52-7.52v-22.56l7.52-7.52h22.56V7.32Zm-7.52,30.08v22.56h7.52v-22.56h-7.52Z"/>
        <path class="cls-1" d="m427.94,7.32h22.56v15.04h-22.56V7.32Zm0,22.56h22.56v37.6h-22.56V29.89Z"/>
        <path class="cls-1" d="m458.02,29.89h52.65l7.52,7.52v30.08h-22.56v-22.56h-7.52v22.56h-22.56v-22.56h-7.52v-15.04Z"/>
        <path class="cls-1" d="m533.23,29.89h52.65v15.04h-7.52v45.13h-45.13l-7.52-7.52v-7.52h30.08v-7.52h-30.08v-30.08l7.52-7.52Zm15.04,7.52v22.56h7.52v-22.56h-7.52Z"/>
        <g>
          <path class="cls-1" d="m182.62,86.61h52.65v15.04l-7.52,7.52v7.52l7.52,7.52v22.56h-52.65v-60.17Zm22.56,7.52v15.04h7.52v-15.04h-7.52Zm0,22.56v22.56h7.52v-22.56h-7.52Z"/>
          <path class="cls-1" d="m242.78,86.61h22.56v45.13l7.52,7.52v7.52h-30.08v-60.17Z"/>
          <path class="cls-1" d="m287.91,109.17h37.6l7.52,7.52v22.56l-7.52,7.52h-37.6l-7.52-7.52v-22.56l7.52-7.52Zm15.04,7.52v22.56h7.52v-22.56h-7.52Z"/>
          <path class="cls-1" d="m348.08,109.17h30.08v15.04h-15.04v7.52h15.04v15.04h-30.08l-7.52-7.52v-22.56l7.52-7.52Z"/>
          <path class="cls-1" d="m385.68,86.61h22.56v37.6h7.52v-15.04h22.56v15.04l-7.52,7.52v7.52l7.52,7.52h-22.56v-7.52h-7.52v7.52h-22.56v-60.17Z"/>
          <path class="cls-1" d="m453.37,109.17h22.56l7.52,7.52v7.52h-7.52l7.52,7.52v7.52l-7.52,7.52h-22.56l-7.52-7.52v-7.52h7.52l-7.52-7.52v-7.52l7.52-7.52Z"/>
        </g>
      </g>
    </g>
  </g>
</svg>