<?xml version="1.0" encoding="UTF-8" standalone="no"?>
<svg
   xml:space="preserve"
   version="1.1"
   x="0px"
   y="0px"
   viewBox="0 0 100 100"
   id="svg8"
   width="100"
   height="100"
   xmlns="http://www.w3.org/2000/svg"
   xmlns:svg="http://www.w3.org/2000/svg"><defs
     id="defs12" /><g
     id="g3690"
     transform="matrix(0.99998802,0.00489458,0.00489458,-0.99998802,9.7146746,62.761908)"
     style="fill:#ffffff;fill-opacity:1"><path
       id="rect3323"
       style="fill:#ffffff;fill-opacity:1;stroke:none;stroke-width:18.678;stroke-linecap:round;stroke-linejoin:round"
       d="m 47.600434,-9.1217696 c 0,3.3239967 -2.677185,6.0008713 -6.001181,6.0008713 l -27.427961,-9.654e-4 c -3.323996,0 -5.9989257,-2.6752234 -5.9989257,-5.9992201 l -2.04e-4,-14.2618392 c 0.2783605,0.041 0.5587652,0.07982 0.841358,0.108914 10.4270467,1.073392 19.7036447,-6.460427 20.7233637,-16.827406 1.01972,-10.366979 -6.605476,-19.641047 -17.032522,-20.714438 -1.544737,-0.15902 -3.0623785,-0.124778 -4.5335492,0.07519 l 2.718e-4,-9.607502 c 0,-3.323996 2.6771844,-6.000871 6.0011814,-6.000871 l 27.42796,9.65e-4 c 3.323997,0 5.998926,2.675224 5.998926,5.99922 z"
       transform="rotate(90.045863)" /><rect
       style="fill:#ffffff;fill-opacity:1;stroke:none;stroke-width:22.1874;stroke-linecap:round;stroke-linejoin:round"
       id="rect4985"
       width="11.990005"
       height="47.567841"
       x="11.110805"
       y="-80.682152"
       rx="5.8410282"
       ry="7.1198764"
       transform="matrix(-0.80598552,0.59193525,-0.5856339,-0.81057568,0,0)" /><rect
       style="fill:#ffffff;fill-opacity:1;stroke:none;stroke-width:22.1874;stroke-linecap:round;stroke-linejoin:round"
       id="rect4985-6"
       width="11.990005"
       height="47.567841"
       x="-36.682343"
       y="-113.41386"
       rx="5.8410282"
       ry="7.1198764"
       transform="matrix(-0.80598552,0.59193525,-0.5856339,-0.81057568,0,0)" /><rect
       style="fill:#ffffff;fill-opacity:1;stroke:none;stroke-width:22.1874;stroke-linecap:round;stroke-linejoin:round"
       id="rect4985-6-1"
       width="11.990005"
       height="47.567841"
       x="-54.763287"
       y="-94.948349"
       rx="5.8410282"
       ry="7.1198764"
       transform="matrix(-0.80598552,0.59193525,-0.5856339,-0.81057568,0,0)" /></g><g
     id="g3594"
     style="fill:#ffffff;fill-opacity:1"><path
       d="M 66.600588,50.848848 C 67.417965,59.121278 61.41415,66.454196 53.18982,67.229176 44.96549,68.004155 37.636689,61.927276 36.819341,53.655138 36.001994,45.383 42.00578,38.04979 50.23011,37.27481 c 8.22433,-0.774979 15.553131,5.301901 16.370478,13.574038"
       id="path3088"
       style="fill:#ffffff;fill-opacity:1;stroke-width:0.730758" /><path
       d="m 73.989759,77.651959 -1.766802,-8.511497 c -0.505649,-2.435944 -1.096516,-4.383437 -2.552663,-6.155922 -0.183431,-0.235813 -0.405435,-0.398964 -0.645598,-0.514387 -0.764588,1.29148 -1.696724,2.506785 -2.755814,3.595927 -3.358609,3.514749 -7.929019,5.878162 -13.119088,6.367223 -5.190069,0.489061 -10.139257,-0.97732 -14.123697,-3.800133 -1.252803,-0.871365 -2.405681,-1.890126 -3.409023,-3.015013 -0.213134,0.158136 -0.399098,0.35973 -0.532975,0.625443 -1.082272,2.011754 -1.880733,3.599636 -1.300289,6.518986 0,0 -3.75668,5.426321 -1.95206,13.121847 0.548401,2.338571 3.561407,5.350527 5.941084,6.818768 2.274526,1.403364 3.165744,1.857587 7.931789,2.451014 l 11.064757,1.377688 c 12.275621,2.42072 29.400413,-11.131167 17.220379,-18.879944 z"
       id="path3090"
       style="fill:#ffffff;fill-opacity:1;stroke-width:0.730758" /></g></svg>
