<?xml version="1.0" encoding="UTF-8" standalone="no"?>
<svg
   xml:space="preserve"
   version="1.1"
   x="0px"
   y="0px"
   viewBox="0 0 100 100"
   id="svg8"
   width="100"
   height="100"
   xmlns="http://www.w3.org/2000/svg"
   xmlns:svg="http://www.w3.org/2000/svg"><defs
     id="defs12" /><path
     id="rect3323"
     style="fill:#ffffff;fill-opacity:1;stroke:none;stroke-width:18.678;stroke-linecap:round;stroke-linejoin:round"
     d="m 16.019531,24.914062 c -3.323996,0 -6,2.676004 -6,6 v 61.226563 c 0,3.323997 2.676004,6 6,6 H 41.724609 C 34.576108,95.053182 30.811643,86.919464 33.263672,79.322266 l 7.357422,-22.796875 c 0.931479,-2.886031 2.673261,-5.410124 5.074218,-7.298829 1.836807,-1.473358 2.945255,-1.792734 3.716822,-2.255495 0.0623,0.103057 -0.02846,-0.114038 0.03513,-0.01177 V 30.914062 c 0,-3.323996 -2.676004,-6 -6,-6 z" /><rect
     style="fill:#ffffff;fill-opacity:1;stroke:none;stroke-width:22.1874;stroke-linecap:round;stroke-linejoin:round"
     id="rect4985-6"
     width="11.990005"
     height="47.567841"
     x="47.990982"
     y="-59.619808"
     rx="5.8410282"
     ry="7.1198764"
     transform="matrix(0.59258022,0.80551144,-0.81010664,0.58628255,0,0)" /><rect
     style="fill:#ffffff;fill-opacity:1;stroke:none;stroke-width:22.1874;stroke-linecap:round;stroke-linejoin:round"
     id="rect4985-6-1"
     width="11.990005"
     height="47.567841"
     x="28.355593"
     y="-36.428486"
     rx="5.8410282"
     ry="7.1198764"
     transform="matrix(0.59258022,0.80551144,-0.81010664,0.58628255,0,0)" /><path
     d="M 83.910142,54.768035 C 81.356871,62.678913 72.924702,67.005116 65.07485,64.432177 57.224998,61.859238 52.931741,53.361725 55.484922,45.451125 c 2.55318,-7.9106 10.985439,-12.237081 18.835291,-9.664142 7.849852,2.572939 12.143109,11.070452 9.589929,18.981052"
     id="path3088"
     style="fill:#ffffff;fill-opacity:1;stroke-width:0.730758" /><path
     d="m 76.481771,91.940395 5.502367,-17.048153 c 0.696588,-2.15826 0.744703,-4.456712 0.117286,-6.66316 -0.07403,-0.289437 -0.212439,-0.527654 -0.386551,-0.729362 -1.216619,0.878835 -2.556443,1.620939 -3.962295,2.196684 -4.482555,1.881597 -9.616489,2.223797 -14.570239,0.600111 -4.95375,-1.623686 -8.90596,-4.944043 -11.432102,-9.122875 -0.800745,-1.299077 -1.451028,-2.693399 -1.92184,-4.125322 -0.258545,0.0599 -0.50953,0.170482 -0.738357,0.360651 -1.79545,1.412384 -3.098237,3.299594 -3.794802,5.457785 l -5.502367,17.048153 c -1.941971,6.016872 1.327695,12.488419 7.298361,14.445419 l 15.056465,4.935044 c 5.970666,1.957 12.392518,-1.337967 14.33449,-7.354839 z"
     id="path3090"
     style="font-variation-settings:normal;opacity:1;vector-effect:none;fill:#ffffff;fill-opacity:1;stroke-width:0.730758;stroke-linecap:butt;stroke-linejoin:miter;stroke-miterlimit:4;stroke-dasharray:none;stroke-dashoffset:0;stroke-opacity:1;-inkscape-stroke:none;stop-color:#000000;stop-opacity:1" /></svg>
