<?xml version="1.0" standalone="no"?>
<!DOCTYPE svg PUBLIC "-//W3C//DTD SVG 20010904//EN"
 "http://www.w3.org/TR/2001/REC-SVG-20010904/DTD/svg10.dtd">
<svg version="1.0" xmlns="http://www.w3.org/2000/svg"
 width="699.000000pt" height="144.000000pt" viewBox="0 0 699.000000 144.000000"
 preserveAspectRatio="xMidYMid meet">

<g transform="translate(0.000000,144.000000) scale(0.100000,-0.100000)"
fill="#000000" stroke="none">
<path d="M0 720 l0 -721 103 3 102 3 3 613 2 612 258 0 c287 0 342 -8 446 -62
118 -62 226 -201 255 -328 15 -63 13 -186 -3 -246 -33 -125 -128 -250 -237
-312 -80 -45 -157 -63 -303 -71 -147 -8 -195 -25 -240 -84 -25 -33 -56 -97
-56 -117 0 -17 362 -13 464 5 157 27 281 93 393 207 137 140 203 302 203 499
0 321 -197 586 -515 690 -67 22 -85 23 -472 27 l-403 3 0 -721z"/>
<path d="M1850 720 l0 -721 103 3 102 3 3 718 2 717 -105 0 -105 0 0 -720z"/>
<path d="M2190 1335 l0 -105 328 0 c197 0 342 -4 365 -11 21 -5 54 -24 74 -42
103 -91 96 -253 -16 -332 l-43 -30 -266 -5 c-289 -6 -304 -9 -371 -66 -32 -26
-81 -113 -81 -142 0 -11 66 -13 358 -10 400 5 412 6 519 78 209 139 245 441
76 630 -23 25 -65 59 -94 77 -98 58 -136 63 -511 63 l-338 0 0 -105z"/>
<path d="M3550 1433 c0 -10 651 -1406 663 -1421 7 -9 43 -12 135 -10 l126 3
333 715 c183 393 333 716 333 718 0 1 -52 1 -116 0 l-116 -3 -281 -603 c-154
-331 -284 -599 -288 -595 -3 5 -132 277 -285 606 l-278 597 -113 0 c-62 0
-113 -3 -113 -7z"/>
<path d="M5595 1428 c-3 -7 -4 -330 -3 -718 l3 -705 105 0 105 0 0 715 0 715
-103 3 c-76 2 -104 -1 -107 -10z"/>
<path d="M5930 1336 l0 -106 331 0 c375 0 392 -2 456 -66 68 -68 81 -154 37
-243 -17 -34 -41 -62 -67 -79 l-40 -27 -266 -6 c-225 -4 -273 -8 -309 -23 -73
-31 -150 -138 -140 -195 2 -10 156 -147 343 -304 l340 -286 158 -1 c86 0 157
3 156 8 0 4 -154 135 -341 292 l-341 285 199 6 c211 7 257 15 337 62 63 37
134 118 170 195 29 61 32 76 32 162 0 115 -19 175 -79 258 -44 60 -116 114
-196 148 -41 17 -77 19 -412 22 l-368 3 0 -105z"/>
</g>
</svg>
