<?xml version="1.0" encoding="UTF-8" standalone="no" ?>
<!DOCTYPE svg PUBLIC "-//W3C//DTD SVG 1.1//EN" "http://www.w3.org/Graphics/SVG/1.1/DTD/svg11.dtd">
<svg xmlns="http://www.w3.org/2000/svg" xmlns:xlink="http://www.w3.org/1999/xlink" version="1.1" width="500" height="500" viewBox="0 0 500 500" xml:space="preserve">
<desc>Created with Fabric.js 5.3.0</desc>
<defs>
</defs>
<g transform="matrix(1.9064352285 0 0 1.9064352285 250 250)" id="TfaCBBsBBcsvKtzX9U__n"  >
<path style="stroke:white;stroke-width: 1; stroke-dasharray: none; stroke-linecap: butt; stroke-dashoffset: 0; stroke-linejoin: miter; stroke-miterlimit: 4; stroke: white;fill-rule: nonzero; opacity: 1;filter: url(#SVGID_60);"  transform=" translate(-134.34, -126.93)" d="M 201.52 53.79 C 204.83370849898478 53.79 207.52 56.47629150101524 207.52 59.79 L 207.52 194.11 C 207.52 197.42370849898478 204.83370849898478 200.11 201.52 200.11 L 67.16 200.11 C 63.84629150101524 200.11 61.16 197.42370849898478 61.16 194.11 L 61.16 59.75 C 61.16 56.43629150101524 63.84629150101524 53.75 67.16 53.75 L 201.52 53.75 M 201.52 40.75 L 67.16 40.75 C 56.66658975321492 40.75 48.16 49.256589753214925 48.16 59.75 L 48.16 194.11 C 48.16 204.60341024678507 56.66658975321492 213.11 67.16 213.11 L 201.52 213.11 C 212.0134102467851 213.11 220.52 204.60341024678507 220.52 194.11 L 220.52 59.75 C 220.52 49.256589753214925 212.0134102467851 40.75 201.52 40.75 Z" stroke-linecap="round" />
<filter id="SVGID_60" y="-30.4432583%" height="160.8865166%" x="-30.4432583%" width="160.8865166%" >
	<feGaussianBlur in="SourceAlpha" stdDeviation="9"></feGaussianBlur>
	<feOffset dx="0" dy="0" result="oBlur" ></feOffset>
	<feFlood flood-color="rgb(255,0,0)" flood-opacity="1"/>
	<feComposite in2="oBlur" operator="in" />
	<feMerge>
		<feMergeNode></feMergeNode>
		<feMergeNode in="SourceGraphic"></feMergeNode>
	</feMerge>
</filter>
<path style="stroke: none; stroke-width: 1; stroke-dasharray: none; stroke-linecap: butt; stroke-dashoffset: 0; stroke-linejoin: miter; stroke-miterlimit: 4; fill: rgb(255,0,0); fill-rule: nonzero; opacity: 1;"  transform=" translate(-134.34, -126.93)" d="M 201.52 53.79 C 204.83370849898478 53.79 207.52 56.47629150101524 207.52 59.79 L 207.52 194.11 C 207.52 197.42370849898478 204.83370849898478 200.11 201.52 200.11 L 67.16 200.11 C 63.84629150101524 200.11 61.16 197.42370849898478 61.16 194.11 L 61.16 59.75 C 61.16 56.43629150101524 63.84629150101524 53.75 67.16 53.75 L 201.52 53.75 M 201.52 40.75 L 67.16 40.75 C 56.66658975321492 40.75 48.16 49.256589753214925 48.16 59.75 L 48.16 194.11 C 48.16 204.60341024678507 56.66658975321492 213.11 67.16 213.11 L 201.52 213.11 C 212.0134102467851 213.11 220.52 204.60341024678507 220.52 194.11 L 220.52 59.75 C 220.52 49.256589753214925 212.0134102467851 40.75 201.52 40.75 Z" stroke-linecap="round" />
</g>
<g transform="matrix(0.3544198813 0 0 0.3544198813 250.4051265221 250)" id="LoNw8M-RzFpYYUoYA1rVI"  >
<path style="stroke:white;stroke-width: 1; stroke-dasharray: none; stroke-linecap: butt; stroke-dashoffset: 0; stroke-linejoin: miter; stroke-miterlimit: 4; stroke: white;fill-rule: nonzero; opacity: 1;filter: url(#SVGID_108);"  transform=" translate(0, 0)" d="M 1.31888 -234.559 C 178.58888000000002 -95.58500000000001 182.15288 6.890999999999991 128.48288 59.87100000000001 L 184.13288 115.519 C 265.97888 14.937000000000012 258.87088 -160.414 1.3188800000000072 -234.56099999999998 z M -86.55612 58.69 L -127.30612 95.814 L -76.49212 146.16 C -16.746119999999998 195.965 49.752880000000005 199.397 105.54087999999999 175.51999999999998 L 30.26787999999999 100.24599999999998 C -13.472120000000011 102.96199999999997 -58.379120000000015 89.78299999999999 -86.55512 58.68899999999998 z M -145.49212 104.563 C -151.01712 105.628 -154.46912 107.52 -156.80712 109.813 C -158.76412 111.735 -160.05712 114.369 -161.05712 117.37700000000001 L -105.86712 170.221 C -100.40012 169.214 -96.60512 167.42600000000002 -94.58912 165.534 C -92.59212 163.66199999999998 -91.49311999999999 161.671 -91.49311999999999 158.004 L -145.49311999999998 104.564 z M -170.21212 134.877 L -225.83712 185.56300000000002 C -242.57412 212.56300000000002 -211.14312 246.76300000000003 -174.74312 230.223 L -123.21312 179.943 L -170.21312 134.88 L -170.21312 134.877 z" stroke-linecap="round" />
<filter id="SVGID_108" y="-25.75543247%" height="151.51086494%" x="-25.85792787%" width="151.71585574%" >
	<feGaussianBlur in="SourceAlpha" stdDeviation="13.5"></feGaussianBlur>
	<feOffset dx="0" dy="0" result="oBlur" ></feOffset>
	<feFlood flood-color="rgb(255,243,18)" flood-opacity="1"/>
	<feComposite in2="oBlur" operator="in" />
	<feMerge>
		<feMergeNode></feMergeNode>
		<feMergeNode in="SourceGraphic"></feMergeNode>
	</feMerge>
</filter>
<path style="stroke: none; stroke-width: 1; stroke-dasharray: none; stroke-linecap: butt; stroke-dashoffset: 0; stroke-linejoin: miter; stroke-miterlimit: 4; fill: rgb(255,243,18); fill-rule: nonzero; opacity: 1;"  transform=" translate(0, 0)" d="M 1.31888 -234.559 C 178.58888000000002 -95.58500000000001 182.15288 6.890999999999991 128.48288 59.87100000000001 L 184.13288 115.519 C 265.97888 14.937000000000012 258.87088 -160.414 1.3188800000000072 -234.56099999999998 z M -86.55612 58.69 L -127.30612 95.814 L -76.49212 146.16 C -16.746119999999998 195.965 49.752880000000005 199.397 105.54087999999999 175.51999999999998 L 30.26787999999999 100.24599999999998 C -13.472120000000011 102.96199999999997 -58.379120000000015 89.78299999999999 -86.55512 58.68899999999998 z M -145.49212 104.563 C -151.01712 105.628 -154.46912 107.52 -156.80712 109.813 C -158.76412 111.735 -160.05712 114.369 -161.05712 117.37700000000001 L -105.86712 170.221 C -100.40012 169.214 -96.60512 167.42600000000002 -94.58912 165.534 C -92.59212 163.66199999999998 -91.49311999999999 161.671 -91.49311999999999 158.004 L -145.49311999999998 104.564 z M -170.21212 134.877 L -225.83712 185.56300000000002 C -242.57412 212.56300000000002 -211.14312 246.76300000000003 -174.74312 230.223 L -123.21312 179.943 L -170.21312 134.88 L -170.21312 134.877 z" stroke-linecap="round" />
</g>
<g transform="matrix(-0.3543230874 -0.0061847325 0.0061847325 -0.3543230874 238.6665413894 236.1670204)" id="NaSp_X8Imn0eRX-0J_DSX"  >
<path style="stroke:white;stroke-width: 1; stroke-dasharray: none; stroke-linecap: butt; stroke-dashoffset: 0; stroke-linejoin: miter; stroke-miterlimit: 4; stroke: white;fill-rule: nonzero; opacity: 1;filter: url(#SVGID_108);"  transform=" translate(0, 0)" d="M -133.31605 -177.15465 L -177.15605 -133.31465 L 130.57795 174.41434999999998 C 133.58294999999998 177.42135 137.01395 177.93034999999998 143.15994999999998 176.06034999999997 C 149.30594999999997 174.19034999999997 156.87994999999998 169.32534999999996 163.10295 163.10334999999998 C 169.32595 156.88034999999996 174.18994999999998 149.30334999999997 176.05995 143.15834999999998 C 177.92995 137.01235 177.42295 133.58135 174.41795 130.57635 L -133.31705000000002 -177.15565000000004 z" stroke-linecap="round" />
<filter id="SVGID_108" y="-27.62041725%" height="155.2408345%" x="-27.62040022%" width="155.24080044%" >
	<feGaussianBlur in="SourceAlpha" stdDeviation="13.5"></feGaussianBlur>
	<feOffset dx="0" dy="0" result="oBlur" ></feOffset>
	<feFlood flood-color="rgb(255,243,18)" flood-opacity="1"/>
	<feComposite in2="oBlur" operator="in" />
	<feMerge>
		<feMergeNode></feMergeNode>
		<feMergeNode in="SourceGraphic"></feMergeNode>
	</feMerge>
</filter>
<path style="stroke: none; stroke-width: 1; stroke-dasharray: none; stroke-linecap: butt; stroke-dashoffset: 0; stroke-linejoin: miter; stroke-miterlimit: 4; fill: rgb(255,243,18); fill-rule: nonzero; opacity: 1;"  transform=" translate(0, 0)" d="M -133.31605 -177.15465 L -177.15605 -133.31465 L 130.57795 174.41434999999998 C 133.58294999999998 177.42135 137.01395 177.93034999999998 143.15994999999998 176.06034999999997 C 149.30594999999997 174.19034999999997 156.87994999999998 169.32534999999996 163.10295 163.10334999999998 C 169.32595 156.88034999999996 174.18994999999998 149.30334999999997 176.05995 143.15834999999998 C 177.92995 137.01235 177.42295 133.58135 174.41795 130.57635 L -133.31705000000002 -177.15565000000004 z" stroke-linecap="round" />
</g>
<g transform="matrix(-0.0062073548 -0.3556191174 0.3556191174 -0.0062073548 311.4769180704 312.5514704339)" id="IkrwGoQpcRGwMoTZQjpFF"  >
<path style="stroke:white;stroke-width: 1; stroke-dasharray: none; stroke-linecap: butt; stroke-dashoffset: 0; stroke-linejoin: miter; stroke-miterlimit: 4; stroke: white;fill-rule: nonzero; opacity: 1;filter: url(#SVGID_108);"  transform=" translate(0, 0)" d="M 15.4829 -64.999 C 9.9579 -63.934 6.5059000000000005 -62.041999999999994 4.167900000000001 -59.748999999999995 C 2.2109000000000014 -57.827 0.9179000000000013 -55.193 -0.08209999999999873 -52.184999999999995 L 55.1079 0.659000000000006 C 60.5749 -0.34799999999999387 64.3699 -2.135999999999994 66.3859 -4.027999999999994 C 68.3829 -5.899999999999994 69.48190000000001 -7.890999999999995 69.48190000000001 -11.557999999999995 L 15.48190000000001 -64.99799999999999 z M -9.2371 -34.685 L -64.8621 16.000999999999998 C -81.59909999999999 43.001 -50.168099999999995 77.201 -13.768099999999997 60.660999999999994 L 37.761900000000004 10.380999999999993 L -9.238099999999996 -34.68200000000001 L -9.238099999999996 -34.68500000000001 z" stroke-linecap="round" />
<filter id="SVGID_108" y="-40.769549999999995%" height="181.5391%" x="-39.4295207%" width="178.8590414%" >
	<feGaussianBlur in="SourceAlpha" stdDeviation="13.5"></feGaussianBlur>
	<feOffset dx="0" dy="0" result="oBlur" ></feOffset>
	<feFlood flood-color="rgb(255,243,18)" flood-opacity="1"/>
	<feComposite in2="oBlur" operator="in" />
	<feMerge>
		<feMergeNode></feMergeNode>
		<feMergeNode in="SourceGraphic"></feMergeNode>
	</feMerge>
</filter>
<path style="stroke: none; stroke-width: 1; stroke-dasharray: none; stroke-linecap: butt; stroke-dashoffset: 0; stroke-linejoin: miter; stroke-miterlimit: 4; fill: rgb(255,243,18); fill-rule: nonzero; opacity: 1;"  transform=" translate(0, 0)" d="M 15.4829 -64.999 C 9.9579 -63.934 6.5059000000000005 -62.041999999999994 4.167900000000001 -59.748999999999995 C 2.2109000000000014 -57.827 0.9179000000000013 -55.193 -0.08209999999999873 -52.184999999999995 L 55.1079 0.659000000000006 C 60.5749 -0.34799999999999387 64.3699 -2.135999999999994 66.3859 -4.027999999999994 C 68.3829 -5.899999999999994 69.48190000000001 -7.890999999999995 69.48190000000001 -11.557999999999995 L 15.48190000000001 -64.99799999999999 z M -9.2371 -34.685 L -64.8621 16.000999999999998 C -81.59909999999999 43.001 -50.168099999999995 77.201 -13.768099999999997 60.660999999999994 L 37.761900000000004 10.380999999999993 L -9.238099999999996 -34.68200000000001 L -9.238099999999996 -34.68500000000001 z" stroke-linecap="round" />
</g>
</svg>