<?xml version="1.0" encoding="UTF-8" standalone="no" ?>
<!DOCTYPE svg PUBLIC "-//W3C//DTD SVG 1.1//EN" "http://www.w3.org/Graphics/SVG/1.1/DTD/svg11.dtd">
<svg xmlns="http://www.w3.org/2000/svg" xmlns:xlink="http://www.w3.org/1999/xlink" version="1.1" width="220" height="220" viewBox="0 0 220 220" xml:space="preserve">
<desc>Created with Fabric.js 4.6.0</desc>
<defs>
</defs>
<g transform="matrix(1 0 0 1 110.43 110.17)" id="Rw97qDcIQpo3-QofEcLxx"  >
<filter id="SVGID_563" y="-26%" height="152%" x="-26%" width="152%" >
	<feGaussianBlur in="SourceAlpha" stdDeviation="5"></feGaussianBlur>
	<feOffset dx="0" dy="0" result="oBlur" ></feOffset>
	<feFlood flood-color="rgb(0,0,0)" flood-opacity="1"/>
	<feComposite in2="oBlur" operator="in" />
	<feMerge>
		<feMergeNode></feMergeNode>
		<feMergeNode in="SourceGraphic"></feMergeNode>
	</feMerge>
</filter>
<path style="stroke: none; stroke-width: 1; stroke-dasharray: none; stroke-linecap: butt; stroke-dashoffset: 0; stroke-linejoin: miter; stroke-miterlimit: 4; fill: rgb(255,243,18); fill-rule: nonzero; opacity: 1;filter: url(#SVGID_563);" vector-effect="non-scaling-stroke"  transform=" translate(-134.34, -126.93)" d="M 201.52 53.79 C 204.83370849898478 53.79 207.52 56.47629150101524 207.52 59.79 L 207.52 194.11 C 207.52 197.42370849898478 204.83370849898478 200.11 201.52 200.11 L 67.16 200.11 C 63.84629150101524 200.11 61.16 197.42370849898478 61.16 194.11 L 61.16 59.75 C 61.16 56.43629150101524 63.84629150101524 53.75 67.16 53.75 L 201.52 53.75 M 201.52 40.75 L 67.16 40.75 C 56.66658975321492 40.75 48.16 49.256589753214925 48.16 59.75 L 48.16 194.11 C 48.16 204.60341024678507 56.66658975321492 213.11 67.16 213.11 L 201.52 213.11 C 212.0134102467851 213.11 220.52 204.60341024678507 220.52 194.11 L 220.52 59.75 C 220.52 49.256589753214925 212.0134102467851 40.75 201.52 40.75 Z" stroke-linecap="round" />
</g>
<g transform="matrix(1 0 0 -0.53 111.43 88.64)" id="jK-O_RUAnIaJR1nEtbGqZ"  >
<filter id="SVGID_431" y="-39%" height="178%" x="-39%" width="178%" >
	<feGaussianBlur in="SourceAlpha" stdDeviation="7.5"></feGaussianBlur>
	<feOffset dx="0" dy="0" result="oBlur" ></feOffset>
	<feFlood flood-color="rgb(247,47,58)" flood-opacity="1"/>
	<feComposite in2="oBlur" operator="in" />
	<feMerge>
		<feMergeNode></feMergeNode>
		<feMergeNode in="SourceGraphic"></feMergeNode>
	</feMerge>
</filter>
<path style="stroke: rgb(255,0,44); stroke-width: 0; stroke-dasharray: none; stroke-linecap: butt; stroke-dashoffset: 0; stroke-linejoin: miter; stroke-miterlimit: 4; fill: rgb(255,0,0); fill-rule: nonzero; opacity: 1;filter: url(#SVGID_431);" vector-effect="non-scaling-stroke"  transform=" translate(-40, -40)" d="M 60 40 L 80 80 L 40 80 L 0 80 L 20 40 L 40 0 L 60 40 z" stroke-linecap="round" />
</g>
<g transform="matrix(1 0 0 1 111.51 109.25)" id="rd9Gu9rNAfo-54Ib-NIpw"  >
<filter id="SVGID_565" y="-26%" height="152%" x="-26%" width="152%" >
	<feGaussianBlur in="SourceAlpha" stdDeviation="5"></feGaussianBlur>
	<feOffset dx="0" dy="0" result="oBlur" ></feOffset>
	<feFlood flood-color="rgb(0,0,0)" flood-opacity="1"/>
	<feComposite in2="oBlur" operator="in" />
	<feMerge>
		<feMergeNode></feMergeNode>
		<feMergeNode in="SourceGraphic"></feMergeNode>
	</feMerge>
</filter>
<path style="stroke: none; stroke-width: 1; stroke-dasharray: none; stroke-linecap: butt; stroke-dashoffset: 0; stroke-linejoin: miter; stroke-miterlimit: 4; fill: rgb(255,243,18); fill-rule: nonzero; opacity: 1;filter: url(#SVGID_565);" vector-effect="non-scaling-stroke"  transform=" translate(-134.34, -126.93)" d="M 201.52 53.79 C 204.83370849898478 53.79 207.52 56.47629150101524 207.52 59.79 L 207.52 194.11 C 207.52 197.42370849898478 204.83370849898478 200.11 201.52 200.11 L 67.16 200.11 C 63.84629150101524 200.11 61.16 197.42370849898478 61.16 194.11 L 61.16 59.75 C 61.16 56.43629150101524 63.84629150101524 53.75 67.16 53.75 L 201.52 53.75 M 201.52 40.75 L 67.16 40.75 C 56.66658975321492 40.75 48.16 49.256589753214925 48.16 59.75 L 48.16 194.11 C 48.16 204.60341024678507 56.66658975321492 213.11 67.16 213.11 L 201.52 213.11 C 212.0134102467851 213.11 220.52 204.60341024678507 220.52 194.11 L 220.52 59.75 C 220.52 49.256589753214925 212.0134102467851 40.75 201.52 40.75 Z" stroke-linecap="round" />
</g>
</svg>