<?xml version="1.0" encoding="UTF-8" standalone="no" ?>
<!DOCTYPE svg PUBLIC "-//W3C//DTD SVG 1.1//EN" "http://www.w3.org/Graphics/SVG/1.1/DTD/svg11.dtd">
<svg xmlns="http://www.w3.org/2000/svg" xmlns:xlink="http://www.w3.org/1999/xlink" version="1.1" width="640" height="640" viewBox="0 0 640 640" xml:space="preserve">
<desc>Created with Fabric.js 4.6.0</desc>
<defs>
</defs>
<g transform="matrix(0.99 0 0 -0.62 306.11 319.32)" id="Cp9tKLdxMCUIcN8CDBYjl"  >
<path style="stroke: none; stroke-width: 1; stroke-dasharray: none; stroke-linecap: butt; stroke-dashoffset: 0; stroke-linejoin: miter; stroke-miterlimit: 4; fill: rgb(255,255,255); fill-opacity: 0.77; fill-rule: nonzero; opacity: 1;" vector-effect="non-scaling-stroke"  transform=" translate(0, 0)" d="M -217.27887 -302.32166 C -201.01887000000002 -302.31166 -183.11887000000002 -298.93166 -162.18887 -292.40166 L -162.18887 -292.40166 C -152.72887 -289.45166 -143.87887 -288.21166 -135.32887 -288.20166 C -111.00887 -288.15166 -88.42886999999999 -298.52166 -64.59886999999999 -310.48166000000003 L -64.59886999999999 -310.48166000000003 C -46.09886999999999 -319.70166000000006 -23.73886999999999 -323.85166000000004 -2.0688699999999898 -323.87166 C 17.87113000000001 -323.84166000000005 37.19113000000001 -320.36166000000003 52.58113000000001 -313.04166000000004 L 52.59113000000001 -313.04166000000004 C 67.48113000000001 -305.88166 86.68113000000001 -301.91166000000004 103.99113 -301.94166 C 116.83113 -301.91166000000004 128.62113 -304.14166 136.66113 -308.07166 L 136.67113 -308.07166 C 152.21113 -315.58166 167.72113000000002 -320.58166 184.72113000000002 -320.57166 C 196.76113 -320.58166 209.36113 -318.06166 222.90113000000002 -312.66166 C 236.46113000000003 -307.26166 251.03113000000002 -299.02166 267.46113 -287.45166 C 270.97113 -284.97166 272.24113 -280.39166 270.51113000000004 -276.46166 C 264.51113000000004 -262.83166 254.95113000000003 -242.06166 246.84113000000002 -215.47165999999999 C 238.74113000000003 -188.89166 210.13852000000003 -156.62166 210.13852000000003 -120.35165999999998 C 210.13852000000003 -109.69165999999998 212.86113000000003 -94.10678999999999 214.13113000000004 -82.78678999999998 C 219.11113000000003 -38.456789999999984 229.63113000000004 -2.6516599999999784 229.63113000000004 35.528340000000014 C 229.65113000000005 102.59834000000001 227.36781000000005 235.33205 214.13113000000004 270.28799000000004 C 200.89445000000003 305.24392000000006 201.51902000000004 301.26942 184.72113000000004 316.95383000000004 C 167.92324000000005 332.63825 55.85113000000004 316.71383000000003 9.35113000000004 316.95383000000004 L 9.35113000000004 316.95383000000004 L 9.35113000000004 316.95383000000004 C -49.48886999999996 316.99383000000006 -123.89930999999996 331.86213000000004 -149.16997999999995 306.02450000000005 C -174.44065999999995 280.18688000000003 -166.88886999999994 178.97555000000006 -167.55886999999996 115.90555000000003 C -167.61886999999996 110.65555000000003 -167.55886999999996 101.71834000000004 -167.55886999999996 96.16834000000003 C -167.55886999999996 78.11834000000003 -167.55886999999996 55.66834000000003 -167.55886999999996 35.52834000000003 C -167.51886999999996 -25.111659999999972 -186.98886999999996 -88.79165999999996 -202.03886999999995 -137.10165999999998 C -214.14886999999993 -176.19165999999998 -227.75886999999994 -227.30165999999997 -270.83886999999993 -273.98166 C -272.6688699999999 -275.97166 -268.21897999999993 -278.63165999999995 -267.8589799999999 -281.31165999999996 C -267.4889799999999 -283.98166 -265.6163199999999 -279.89165999999994 -263.3163199999999 -281.31165999999996" stroke-linecap="round" />
</g>
<g transform="matrix(0.99 0 0 -0.62 304.5 319.76)" id="rRKxe_6zcZ87ThjOLtUHq"  >
<filter id="SVGID_0" y="-21%" height="142%" x="-21%" width="142%" >
	<feGaussianBlur in="SourceAlpha" stdDeviation="0"></feGaussianBlur>
	<feOffset dx="4" dy="4" result="oBlur" ></feOffset>
	<feFlood flood-color="rgb(0,0,0)" flood-opacity="1"/>
	<feComposite in2="oBlur" operator="in" />
	<feMerge>
		<feMergeNode></feMergeNode>
		<feMergeNode in="SourceGraphic"></feMergeNode>
	</feMerge>
</filter>
<path style="stroke: none; stroke-width: 1; stroke-dasharray: none; stroke-linecap: butt; stroke-dashoffset: 0; stroke-linejoin: miter; stroke-miterlimit: 4; fill: rgb(0,0,0); fill-rule: nonzero; opacity: 1;filter: url(#SVGID_0);" vector-effect="non-scaling-stroke"  transform=" translate(0, 0)" d="M -263.2529 -280.09166 L -267.98290000000003 -287.74165999999997 C -252.59290000000004 -297.33165999999994 -235.64290000000003 -302.37165999999996 -216.30290000000002 -302.32165999999995 C -200.04290000000003 -302.31165999999996 -182.14290000000003 -298.93165999999997 -161.21290000000002 -292.40165999999994 L -161.21290000000002 -292.40165999999994 C -151.7529 -289.45165999999995 -142.90290000000002 -288.21165999999994 -134.35290000000003 -288.20165999999995 C -110.03290000000004 -288.15165999999994 -87.45290000000003 -298.52165999999994 -63.62290000000003 -310.4816599999999 L -63.62290000000003 -310.4816599999999 C -45.12290000000003 -319.70165999999995 -22.76290000000003 -323.8516599999999 -1.0929000000000286 -323.8716599999999 C 18.847099999999973 -323.84165999999993 38.16709999999997 -320.3616599999999 53.55709999999997 -313.0416599999999 L 53.56709999999997 -313.0416599999999 C 68.45709999999997 -305.8816599999999 87.65709999999997 -301.9116599999999 104.96709999999996 -301.9416599999999 C 117.80709999999996 -301.9116599999999 129.59709999999995 -304.1416599999999 137.63709999999998 -308.0716599999999 L 137.64709999999997 -308.0716599999999 C 153.18709999999996 -315.5816599999999 168.69709999999998 -320.5816599999999 185.69709999999998 -320.5716599999999 C 197.73709999999997 -320.5816599999999 210.33709999999996 -318.0616599999999 223.87709999999998 -312.66165999999987 C 237.4371 -307.2616599999999 252.00709999999998 -299.0216599999999 268.4371 -287.4516599999999 C 271.9471 -284.9716599999999 273.21709999999996 -280.3916599999999 271.4871 -276.4616599999999 C 265.4871 -262.8316599999999 255.9271 -242.06165999999988 247.81709999999998 -215.47165999999987 C 239.7171 -188.8916599999999 211.11449 -156.62165999999988 211.11449 -120.35165999999987 C 211.11449 -109.69165999999987 213.8371 -94.10678999999988 215.1071 -82.78678999999987 C 220.0871 -38.45678999999987 230.6071 -2.6516599999998647 230.6071 35.52834000000013 C 230.6271 102.59834000000012 228.34378 235.33205000000012 215.1071 270.28799000000015 C 201.87042 305.2439200000002 202.49499 301.26942000000014 185.6971 316.95383000000015 C 168.89921 332.63825000000014 56.8271 316.71383000000014 10.327100000000002 316.95383000000015 L 10.327100000000002 316.95383000000015 L 10.327100000000002 316.95383000000015 C -48.5129 316.9938300000002 -122.92334 331.86213000000015 -148.19401 306.02450000000016 C -173.46469 280.18688000000014 -165.91289999999998 178.97555000000017 -166.5829 115.90555000000015 C -166.6429 110.65555000000015 -166.5829 101.71834000000015 -166.5829 96.16834000000014 C -166.5829 78.11834000000015 -166.5829 55.66834000000014 -166.5829 35.52834000000014 C -166.5429 -25.11165999999986 -186.0129 -88.79165999999985 -201.06289999999998 -137.10165999999987 C -213.17289999999997 -176.19165999999987 -226.78289999999998 -227.30165999999986 -269.86289999999997 -273.98165999999986 C -271.69289999999995 -275.9716599999999 -272.5329 -278.63165999999984 -272.17289999999997 -281.31165999999985 C -271.80289999999997 -283.98165999999986 -270.2829 -286.32165999999984 -267.9829 -287.74165999999985 L -263.25289999999995 -280.0916599999999 L -256.64289999999994 -286.1916599999999 C -210.30289999999994 -236.02165999999988 -195.83289999999994 -180.90165999999988 -183.87289999999996 -142.4316599999999 C -167.76289999999995 -90.30165999999991 -156.75978999999995 -25.591659999999905 -156.70978999999997 35.5283400000001 C -156.70978999999997 55.798340000000096 -156.70978999999997 78.26834000000011 -156.70978999999997 96.1683400000001 C -156.70978999999997 101.6783400000001 -156.76978999999997 107.2183400000001 -156.70978999999997 112.3883400000001 C -156.13978999999998 171.9483400000001 -170.02477999999996 261.4650700000001 -141.75953999999996 290.1708100000001 C -113.49429999999995 318.87655000000007 -37.13562999999996 305.9845000000001 14.984370000000041 306.0245000000001 L 14.984370000000041 306.0245000000001 C 58.184370000000044 305.7745000000001 155.66823000000005 321.2197700000001 176.09382000000005 306.0245000000001 C 196.51941000000005 290.8292300000001 199.48087000000004 281.9163500000001 205.05538000000004 260.5347000000001 C 210.62988000000004 239.1530600000001 217.20710000000005 100.9683300000001 217.22710000000004 35.528330000000096 C 217.22710000000004 -1.7016699999999005 207.59494000000004 -30.481349999999907 202.66494000000003 -74.4113499999999 C 201.31494000000004 -86.4113499999999 199.31952000000004 -109.0516699999999 199.31952000000004 -120.3516699999999 C 199.31952000000004 -158.8116699999999 222.11710000000005 -192.87166999999988 230.60710000000003 -220.7216699999999 C 239.08710000000002 -248.5416699999999 249.09710000000004 -270.2816699999999 255.01710000000003 -283.7216699999999 L 263.25710000000004 -280.0916699999999 L 258.06710000000004 -272.7316699999999 C 242.45710000000003 -283.7416699999999 229.03710000000004 -291.2416699999999 217.22710000000004 -295.9416699999999 C 205.39710000000002 -300.6316699999999 195.23710000000003 -302.57166999999987 185.69710000000003 -302.57166999999987 C 172.28710000000004 -302.57166999999987 159.70710000000003 -298.72166999999985 145.46710000000004 -291.8616699999999 L 145.46710000000004 -291.8616699999999 C 133.87710000000004 -286.2916699999999 119.78710000000004 -283.9616699999999 104.96710000000004 -283.9416699999999 C 84.99710000000005 -283.96166999999986 63.677100000000046 -288.28166999999985 45.79710000000004 -296.8016699999999 L 45.79710000000004 -296.8016699999999 C 33.827100000000044 -302.57166999999987 16.667100000000044 -305.9016699999999 -1.0928999999999576 -305.8716699999999 C -20.402899999999956 -305.90166999999985 -40.44289999999996 -301.9916699999999 -55.572899999999954 -294.3816699999999 L -55.572899999999954 -294.3816699999999 C -79.56289999999996 -282.4316699999999 -104.80289999999995 -270.2516699999999 -134.35289999999995 -270.20166999999987 C -144.66289999999995 -270.20166999999987 -155.42289999999994 -271.73166999999984 -166.58289999999994 -275.22166999999985 L -166.58289999999994 -275.22166999999985 C -186.41289999999992 -281.42166999999984 -202.59289999999993 -284.33166999999986 -216.30289999999994 -284.32166999999987 C -232.65289999999993 -284.27166999999986 -245.55289999999994 -280.40166999999985 -258.51289999999995 -272.4416699999999 L -263.25289999999995 -280.09166999999985 L -256.64289999999994 -286.1916699999999 L -263.25289999999995 -280.09166999999985" stroke-linecap="round" />
</g>
<g transform="matrix(0.78 0 0 -0.78 388.29 200.23)" id="QuBBgIp-QLM0lTCnRuEFO"  >
<path style="stroke: none; stroke-width: 1; stroke-dasharray: none; stroke-linecap: butt; stroke-dashoffset: 0; stroke-linejoin: miter; stroke-miterlimit: 4; fill: rgb(195,37,181); fill-rule: nonzero; opacity: 1;" vector-effect="non-scaling-stroke"  transform=" translate(-2587.56, -3198.12)" d="M 2624.05 3207.1 C 2630.4 3181.3199999999997 2619.21 3156.39 2599.0600000000004 3151.43 C 2578.9100000000003 3146.47 2557.4300000000003 3163.35 2551.0800000000004 3189.14 C 2544.7300000000005 3214.93 2555.9100000000003 3239.85 2576.0800000000004 3244.81 C 2596.2200000000003 3249.77 2617.7000000000003 3232.89 2624.05 3207.1" stroke-linecap="round" />
</g>
<g transform="matrix(0.78 0 0 -0.78 274.56 199.69)" id="6-thJ8w3Hva8UFgR_F3bg"  >
<path style="stroke: none; stroke-width: 1; stroke-dasharray: none; stroke-linecap: butt; stroke-dashoffset: 0; stroke-linejoin: miter; stroke-miterlimit: 4; fill: rgb(195,37,181); fill-rule: nonzero; opacity: 1;" vector-effect="non-scaling-stroke"  transform=" translate(-2445.09, -3198.81)" d="M 2481.74 3190.53 C 2475.89 3164.6200000000003 2454.7299999999996 3147.3300000000004 2434.5 3151.9 C 2414.24 3156.4700000000003 2402.6 3181.19 2408.44 3207.09 C 2414.3 3233 2435.44 3250.29 2455.69 3245.71 C 2475.92 3241.14 2487.6 3216.43 2481.7400000000002 3190.53" stroke-linecap="round" />
</g>
<g transform="matrix(2.13 0 0 2.13 329.35 303.64)" id="oM0WMpFyyadSwcjdrsFta"  >
<radialGradient id="SVGID_4" gradientUnits="userSpaceOnUse" gradientTransform="matrix(1 0 0 1 0 0)"  cx="184.24" cy="71.69" r="205.3" fx="156.96860543347918" fy="71.69">
<stop offset="20%" style="stop-color:rgb(217,15,65);stop-opacity: 1"/>
<stop offset="23%" style="stop-color:rgb(222,11,84);stop-opacity: 1"/>
<stop offset="30%" style="stop-color:rgb(228,6,109);stop-opacity: 1"/>
<stop offset="36%" style="stop-color:rgb(233,3,126);stop-opacity: 1"/>
<stop offset="43%" style="stop-color:rgb(235,1,137);stop-opacity: 1"/>
<stop offset="51%" style="stop-color:rgb(236,0,140);stop-opacity: 1"/>
<stop offset="56.99999999999999%" style="stop-color:rgb(233,2,141);stop-opacity: 1"/>
<stop offset="61%" style="stop-color:rgb(225,8,146);stop-opacity: 1"/>
<stop offset="64%" style="stop-color:rgb(211,19,153);stop-opacity: 1"/>
<stop offset="67%" style="stop-color:rgb(191,35,164);stop-opacity: 1"/>
<stop offset="69%" style="stop-color:rgb(165,55,177);stop-opacity: 1"/>
<stop offset="71%" style="stop-color:rgb(132,80,194);stop-opacity: 1"/>
<stop offset="74%" style="stop-color:rgb(95,109,213);stop-opacity: 1"/>
<stop offset="75%" style="stop-color:rgb(65,132,229);stop-opacity: 1"/>
</radialGradient>
<path style="stroke: none; stroke-width: 1; stroke-dasharray: none; stroke-linecap: butt; stroke-dashoffset: 0; stroke-linejoin: miter; stroke-miterlimit: 4; fill: url(#SVGID_4); fill-rule: nonzero; opacity: 0.17;" vector-effect="non-scaling-stroke"  transform=" translate(-134.34, -126.93)" d="M 201.52 53.79 C 204.83370849898478 53.79 207.52 56.47629150101524 207.52 59.79 L 207.52 194.11 C 207.52 197.42370849898478 204.83370849898478 200.11 201.52 200.11 L 67.16 200.11 C 63.84629150101524 200.11 61.16 197.42370849898478 61.16 194.11 L 61.16 59.75 C 61.16 56.43629150101524 63.84629150101524 53.75 67.16 53.75 L 201.52 53.75 M 201.52 40.75 L 67.16 40.75 C 56.66658975321492 40.75 48.16 49.256589753214925 48.16 59.75 L 48.16 194.11 C 48.16 204.60341024678507 56.66658975321492 213.11 67.16 213.11 L 201.52 213.11 C 212.0134102467851 213.11 220.52 204.60341024678507 220.52 194.11 L 220.52 59.75 C 220.52 49.256589753214925 212.0134102467851 40.75 201.52 40.75 Z" stroke-linecap="round" />
</g>
<g transform="matrix(0.78 0 0 -0.78 244.63 161.92)" id="hkigiqFF-ZnjReoxauk06"  >
<path style="stroke: none; stroke-width: 1; stroke-dasharray: none; stroke-linecap: butt; stroke-dashoffset: 0; stroke-linejoin: miter; stroke-miterlimit: 4; fill: rgb(35,24,21); fill-rule: nonzero; opacity: 1;" vector-effect="non-scaling-stroke"  transform=" translate(-2409.72, -3308.78)" d="M 2391.46 3285.24 C 2393.8 3285.24 2396.11 3286.3399999999997 2397.57 3288.39 C 2402.96 3295.94 2419.61 3313.21 2430.86 3317.89 C 2434.67 3319.49 2436.48 3323.8799999999997 2434.8900000000003 3327.7 C 2433.3 3331.54 2428.8700000000003 3333.31 2425.0800000000004 3331.74 C 2410.1800000000003 3325.5299999999997 2391.5800000000004 3305.7999999999997 2385.3700000000003 3297.1 C 2382.9600000000005 3293.73 2383.7500000000005 3289.0499999999997 2387.1200000000003 3286.64 C 2388.4300000000003 3285.7 2389.9600000000005 3285.24 2391.4600000000005 3285.24" stroke-linecap="round" />
</g>
<g transform="matrix(0.78 0 0 -0.78 209.07 208.91)" id="NbuazhUzOH8Tsfcx8TTb6"  >
<path style="stroke: none; stroke-width: 1; stroke-dasharray: none; stroke-linecap: butt; stroke-dashoffset: 0; stroke-linejoin: miter; stroke-miterlimit: 4; fill: rgb(35,24,21); fill-rule: nonzero; opacity: 1;" vector-effect="non-scaling-stroke"  transform=" translate(0, 0)" d="M -5.81017 -19.38232 C -2.73017 -19.38232 0.15982999999999947 -17.48232 1.2498299999999993 -14.412320000000001 C 4.439829999999999 -5.53232 8.14983 2.0976800000000004 11.96983 7.61768 C 14.33983 11.02768 13.48983 15.69768 10.07983 18.057679999999998 C 6.669829999999999 20.397679999999998 1.9998299999999993 19.557679999999998 -0.3501700000000003 16.167679999999997 C -4.99017 9.477679999999996 -9.20017 0.8876799999999978 -12.87017 -9.352320000000002 C -14.27017 -13.252320000000003 -12.240169999999999 -17.55232 -8.34017 -18.942320000000002 L -5.810170000000001 -19.382320000000004" stroke-linecap="round" />
</g>
<g transform="matrix(2.13 0 0 2.13 329.35 303.64)" id="E7-58dhEDwnV3RUSwh4Gm"  >
<path style="stroke: none; stroke-width: 1; stroke-dasharray: none; stroke-linecap: butt; stroke-dashoffset: 0; stroke-linejoin: miter; stroke-miterlimit: 4; fill: rgb(0,0,0); fill-rule: nonzero; opacity: 1;" vector-effect="non-scaling-stroke"  transform=" translate(-27.15, -27.15)" d="M 0 27.15 C 0 12.15547 12.15547 0 27.15 0 C 42.144529999999996 0 54.3 12.15547 54.3 27.15 C 54.3 42.144529999999996 42.144529999999996 54.3 27.15 54.3 C 12.15547 54.3 0 42.144529999999996 0 27.15 z" stroke-linecap="round" />
</g>
</svg>