<?xml version="1.0" encoding="UTF-8" standalone="no"?>
<svg
   width="1200pt"
   height="1200pt"
   version="1.1"
   viewBox="0 0 1200 1200"
   id="svg881"
   xmlns="http://www.w3.org/2000/svg"
   xmlns:svg="http://www.w3.org/2000/svg">
  <defs
     id="defs885" />
  <path
     d="m 400,270 v 85 c 0,80 30,155 85,210 l 35,35 h 160 l 35,-35 c 55,-55 85,-130 85,-210 v -85"
     fill="none"
     stroke="#000"
     stroke-linecap="round"
     stroke-miterlimit="10"
     stroke-width="100"
     id="path867"
     style="stroke:#ffffff;stroke-opacity:1" />
  <path
     d="m 700,400 c 0,55.227 -44.773,100 -100,100 -55.227,0 -100,-44.773 -100,-100 0,-55.227 44.773,-100 100,-100 55.227,0 100,44.773 100,100 z"
     id="path869"
     style="fill:#ffffff;fill-opacity:1" />
  <path
     d="m 640,560 h -80 l -115,25 55,185 -110,200 c 0,0 145,-75 175,-90 30,-15 240,-70 240,-70 l -85,-30 45,-205 z"
     id="path871"
     style="fill:#ffffff;fill-opacity:1" />
  <path
     d="m 175,305 c 0,0 155,-80 425,-80 270,0 425,80 425,80"
     fill="none"
     stroke="#000"
     stroke-miterlimit="10"
     id="path873"
     style="stroke:#ffffff;stroke-width:50;stroke-opacity:1" />
  <path
     d="m 950.43,99.57 147.86,25.23 -58.871,345 -147.86,-25.23 z"
     id="path875"
     style="fill:#ffffff;fill-opacity:1" />
  <path
     d="m 305.19,444.38 -147.86,25.23 -58.871,-345 147.86,-25.23 z"
     id="path877"
     style="fill:#ffffff;fill-opacity:1" />
  <path
     d="m 345,1100 100,-65 c 10,-5 20,-15 30,-25 l 105,-120 25,-10 c 55,-20 110,-20 165,0 20,5 35,25 35,45 v 175 H 905 V 930 C 905,865 865,810 805,790 L 690,750 530,810 425,930 c -10,10 -20,20 -30,25 l -235,145 z"
     id="path879"
     style="fill:#ffffff;fill-opacity:1" />
</svg>
