<?xml version="1.0" encoding="iso-8859-1"?>
<!-- Uploaded to: SVG Repo, www.svgrepo.com, Generator: SVG Repo Mixer Tools -->
<!DOCTYPE svg PUBLIC "-//W3C//DTD SVG 1.1//EN" "http://www.w3.org/Graphics/SVG/1.1/DTD/svg11.dtd">
<svg fill="#ffffff" height="800px" width="800px" version="1.1" id="Capa_1" xmlns="http://www.w3.org/2000/svg" xmlns:xlink="http://www.w3.org/1999/xlink" 
	 viewBox="0 0 297 297" xml:space="preserve">
<g>
	<path d="M252.476,54.418c2.532,0,5.064-0.967,6.996-2.897l11.543-11.543c3.864-3.864,3.864-10.129,0-13.992
		c-3.864-3.863-10.127-3.863-13.992,0L245.48,37.529c-3.863,3.863-3.863,10.128,0,13.992
		C247.412,53.452,249.943,54.418,252.476,54.418z"/>
	<path d="M208.668,23.037c0.292,5.269,4.656,9.345,9.869,9.345c0.185,0,0.371-0.005,0.558-0.016
		c5.456-0.302,9.633-4.971,9.329-10.427l-0.699-12.593c-0.304-5.455-4.975-9.648-10.427-9.329c-5.456,0.302-9.633,4.971-9.33,10.427
		L208.668,23.037z"/>
	<path d="M287.654,69.276l-12.593-0.699c-5.453-0.305-10.125,3.874-10.427,9.329c-0.304,5.456,3.873,10.125,9.329,10.427l12.593,0.7
		c0.186,0.01,0.373,0.015,0.558,0.015c5.213,0,9.577-4.076,9.869-9.345C297.287,74.247,293.11,69.579,287.654,69.276z"/>
	<path d="M51.521,294.102l121.364-121.366c3.5-3.5,3.501-9.228,0-12.728l-35.893-35.894c-3.501-3.501-9.228-3.5-12.729,0
		l-10.481,10.482l-4.547-4.547c-1.854-1.856-4.372-2.898-6.996-2.898c-2.624,0-5.141,1.042-6.996,2.897l-23.202,23.204
		c-3.864,3.863-3.864,10.128,0,13.992l4.547,4.547L2.899,245.48c-3.864,3.864-3.864,10.129,0,13.992l34.63,34.63
		c1.932,1.932,4.464,2.898,6.996,2.898S49.588,296.034,51.521,294.102z"/>
	<path d="M141.439,98.38c-0.972,4.854,1.099,11.689,4.599,15.189l37.393,37.394c3.501,3.501,10.336,5.57,15.189,4.6l34.043-6.81
		c4.854-0.971,5.962-4.629,2.461-8.129l-78.747-78.747c-3.5-3.501-7.158-2.393-8.13,2.461L141.439,98.38z"/>
	<path d="M270.84,120.955c1.855-1.856,2.897-4.372,2.897-6.996s-1.042-5.14-2.897-6.996l-80.802-80.802
		c-3.865-3.863-10.128-3.863-13.992,0l-11.533,11.533c-3.501,3.501-3.501,9.228,0,12.729l82.065,82.065c3.5,3.5,9.228,3.5,12.728,0
		L270.84,120.955z"/>
</g>
</svg>