<?xml version="1.0" encoding="UTF-8" standalone="no"?>
<!-- Created with Inkscape (http://www.inkscape.org/) -->

<svg
   version="1.1"
   id="svg2"
   width="500"
   height="500"
   viewBox="0 0 500 500"
   sodipodi:docname="lightshow.svg"
   xml:space="preserve"
   inkscape:export-filename="77aabceb-8a31-46d9-bc61-efbc06cd1af5.svg"
   inkscape:export-xdpi="96"
   inkscape:export-ydpi="96"
   xmlns:inkscape="http://www.inkscape.org/namespaces/inkscape"
   xmlns:sodipodi="http://sodipodi.sourceforge.net/DTD/sodipodi-0.dtd"
   xmlns="http://www.w3.org/2000/svg"
   xmlns:svg="http://www.w3.org/2000/svg"><defs
     id="defs6" /><sodipodi:namedview
     id="namedview4"
     pagecolor="#ffffff"
     bordercolor="#000000"
     borderopacity="0.25"
     inkscape:showpageshadow="2"
     inkscape:pageopacity="0.0"
     inkscape:pagecheckerboard="0"
     inkscape:deskcolor="#d1d1d1"
     showgrid="false" /><g
     inkscape:groupmode="layer"
     inkscape:label="Image"
     id="g8"><g
       id="path985"
       style="fill:#ffffff;fill-opacity:1"
       transform="matrix(0.45411735,0,0,0.45411735,-2.0178699,-7.1673744)"><path
         id="path9927"
         style="color:#000000;fill:#ffffff;fill-opacity:1;stroke-width:80.478;stroke-linecap:round;stroke-linejoin:round;-inkscape-stroke:none"
         d="m 388.60938,314.34766 a 40.238998,40.238998 0 0 0 -27.35743,14.14453 40.238998,40.238998 0 0 0 4.79883,56.70312 l 188.0918,158.73828 c 3e-5,-22.81561 -10e-4,-45.63165 0,-68.44726 0.0133,-12.29043 -0.0151,-24.58123 -0.0156,-36.8711 L 417.95508,323.69336 a 40.238998,40.238998 0 0 0 -29.3457,-9.3457 z m -127.27344,62.13281 a 40.238998,40.238998 0 0 0 -15.67188,0.93945 40.238998,40.238998 0 0 0 -28.73047,49.1211 L 328.375,852.03516 c 4.68349,21.85464 17.63782,40.80486 33.36133,55.21289 19.74342,18.09161 44.56872,31.61452 73.46094,42.8125 57.78439,22.39592 132.62565,34.93359 215.20312,34.93359 82.57747,0 157.41872,-12.53767 215.20313,-34.93359 28.89219,-11.19798 53.71751,-24.72089 73.46093,-42.8125 19.74342,-18.09164 35.35352,-43.26529 35.35352,-72.47852 0,-22.53184 -9.32819,-42.61902 -22.63477,-58.94922 a 40.238998,40.238998 0 0 0 -4.09765,-4.75586 c -0.53913,-0.59682 -1.13354,-1.12062 -1.67969,-1.70898 -7.69374,14.42084 -17.00615,27.96546 -27.96875,40.10937 -18.67137,20.62446 -41.56901,37.19061 -66.34766,49.7168 -32.05828,16.20663 -67.2505,25.53434 -102.78906,30.0293 -21.90607,2.69199 -43.97813,3.99114 -66.04687,4.09765 -36.21974,0.14253 -72.4841,-3.04477 -108.03125,-10.05273 -39.65134,-7.79965 -78.02189,-21.49506 -114.24024,-39.33008 -0.006,-44.41248 -0.004,-88.82581 0.0117,-133.23828 -8.75811,2.74795 -17.28483,5.64517 -25.39648,8.78906 -19.07339,7.39242 -36.32985,15.83407 -51.56641,25.89844 l -88.8457,-339.22461 a 40.238998,40.238998 0 0 0 -33.44922,-29.66992 z m 386.21094,246.2832 77.625,65.51172 c -24.01923,-2.36895 -48.95516,-3.73242 -74.77149,-3.73242 -21.9713,0 -43.34063,0.94915 -64.04101,2.67383 0.89747,0.25294 1.77622,0.56897 2.67578,0.81445 4.43043,1.22083 8.74241,2.31498 13.1875,3.35352 5.94725,1.3875 11.88273,2.60205 17.86328,3.65234 7.97815,1.39562 15.95578,2.489 23.98047,3.23828 6.05942,0.58012 12.38251,0.96284 18.45117,1.13672 12.37942,0.32513 24.79434,-0.11837 37.08984,-1.63086 1.44658,-0.17591 3.06746,-0.41181 4.39258,-0.61133 0.81983,-0.1325 1.82932,-0.30232 2.53125,-0.41211 4.97752,-0.86683 9.91587,-1.97658 14.75195,-3.44531 6.36243,-1.77062 12.4918,-5.05125 16.73438,-10.21094 4.31957,-5.33149 6.23685,-12.16128 7.12304,-18.85742 0.67469,-5.86982 1.17949,-11.89976 -0.11914,-17.72266 -0.78145,-3.10094 -1.83443,-6.41617 -4.38281,-8.5332 -4.15321,-3.09353 -9.02933,-5.02672 -13.89258,-6.69922 -4.2287,-1.41427 -8.8151,-2.59827 -13.2832,-3.51953 -0.91469,-0.18093 -2.007,-0.39982 -2.81055,-0.55664 -9.16918,-1.71068 -18.4548,-2.73389 -27.7539,-3.40625 -3.7334,-0.26464 -7.51567,-0.46179 -11.3086,-0.62109 -8.01346,-0.21255 -16.02829,-0.32343 -24.04296,-0.42188 z" /></g><path
       style="color:#000000;fill:#ffffff;fill-opacity:1;stroke-width:0.454117;stroke-linecap:round;stroke-linejoin:round;-inkscape-stroke:none"
       d="m 153.49781,89.744988 a 18.273227,18.273227 0 0 0 -6.90134,1.78809 L 78.109007,124.60471 a 18.273227,18.273227 0 0 0 -8.50938,24.40083 18.273227,18.273227 0 0 0 24.400826,8.50938 l 68.487457,-33.07164 a 18.273227,18.273227 0 0 0 8.50938,-24.40082 18.273227,18.273227 0 0 0 -17.49948,-10.297472 z"
       id="path1047" /><rect
       style="fill:#ffffff;fill-opacity:1;stroke:none;stroke-width:54.7111;stroke-linecap:round;stroke-linejoin:round;stroke-dasharray:none;stroke-opacity:1"
       id="rect2090"
       width="58.410015"
       height="78.332809"
       x="28.112982"
       y="82.513733"
       rx="11.352933"
       ry="11.352933"
       transform="rotate(-24.511475)" /><path
       class="cls-1"
       d="m 410.49755,160.31136 q 0,28.52465 -17.15971,45.50431 a 89.071955,89.071955 0 0 1 -42.23154,23.13499 v 1.15599 q 33.14861,3.76826 50.3385,19.98227 17.1899,16.21403 17.15981,43.53762 a 80.319391,80.319391 0 0 1 -11.83026,43.02716 q -11.75515,19.09651 -36.24127,30.02595 -24.48618,10.92945 -63.05452,10.9895 -44.73856,0 -79.44867,-15.01298 v -49.33262 a 171.14786,171.14786 0 0 0 37.21722,13.51168 156.23998,156.23998 0 0 0 36.03114,4.62399 q 31.24195,0 43.76277,-10.79431 12.52082,-10.79434 12.53582,-30.46133 a 32.052692,32.052692 0 0 0 -5.77997,-19.51685 q -5.78006,-7.91183 -20.25245,-12.01039 -14.47249,-4.09855 -40.2948,-4.0385 H 270.51665 V 209.8992 h 21.21332 q 25.522,0 38.74846,-4.81917 13.22656,-4.81916 18.12068,-13.10632 a 37.292217,37.292217 0 0 0 4.83419,-19.09648 q 0,-14.65267 -9.00783,-22.93982 -9.00774,-8.28716 -30.28117,-8.30217 -19.65182,0 -34.12447,6.75584 a 199.38727,199.38727 0 0 0 -24.54612,13.42158 l -27.0233,-40.09964 a 152.45672,152.45672 0 0 1 37.9827,-19.29168 q 21.78387,-7.701643 51.86992,-7.701643 42.42657,0 67.28808,17.159833 24.86144,17.15982 24.90644,48.43183 z"
       id="path3206-8"
       style="fill:#ffffff;fill-opacity:1;stroke-width:1.5013" /></g></svg>
