<?xml version="1.0" encoding="UTF-8" standalone="no" ?>
<!DOCTYPE svg PUBLIC "-//W3C//DTD SVG 1.1//EN" "http://www.w3.org/Graphics/SVG/1.1/DTD/svg11.dtd">
<svg xmlns="http://www.w3.org/2000/svg" xmlns:xlink="http://www.w3.org/1999/xlink" version="1.1" width="512" height="512" viewBox="0 0 512 512" xml:space="preserve">
<desc>Created with Fabric.js 5.3.0</desc>
<defs>
</defs>
<g transform="matrix(1 0 0 1 402.1633858824 155.1105697659)" id="5eZ6nbe28EIk1-_bf8JL2"  >
<path style="stroke: none; stroke-width: 1; stroke-dasharray: none; stroke-linecap: butt; stroke-dashoffset: 0; stroke-linejoin: miter; stroke-miterlimit: 4; fill: rgb(255,255,255); fill-rule: nonzero; opacity: 1;"  transform=" translate(-256, -261.4608326565)" d="M 225.8 468.2 L 223.3 465.9 L 48.1 303.2 C 17.4 274.7 0 234.7 0 192.8 L 0 189.5 C 0 119.1 50 58.69999999999999 119.2 45.5 C 158.6 37.9 198.9 47 231 69.6 C 240 76 248.4 83.39999999999999 256 91.89999999999999 C 260.2 87.1 264.7 82.69999999999999 269.5 78.6 C 273.2 75.39999999999999 277 72.39999999999999 281 69.6 C 281 69.6 281 69.6 281 69.6 C 313.1 47 353.4 37.9 392.8 45.4 C 462 58.6 512 119.1 512 189.5 L 512 192.8 C 512 234.70000000000002 494.6 274.70000000000005 463.9 303.20000000000005 L 288.7 465.9 L 286.2 468.2 C 278 475.8 267.2 480.09999999999997 256 480.09999999999997 C 244.8 480.09999999999997 234 475.9 225.8 468.2 z M 239.1 145 C 238.7 144.7 238.4 144.3 238.1 143.9 L 220.29999999999998 123.9 C 220.29999999999998 123.9 220.2 123.80000000000001 220.2 123.80000000000001 C 220.2 123.80000000000001 220.2 123.80000000000001 220.2 123.80000000000001 C 197.1 97.9 162.2 86.10000000000001 128.2 92.60000000000001 C 81.6 101.5 48 142.1 48 189.5 L 48 192.8 C 48 221.3 59.9 248.60000000000002 80.8 268 L 256 430.7 L 431.2 268 C 452.09999999999997 248.6 464 221.3 464 192.8 L 464 189.5 C 464 142.2 430.4 101.5 383.9 92.6 C 349.9 86.1 314.9 98 291.9 123.8 C 291.9 123.8 291.9 123.8 291.79999999999995 123.89999999999999 C 291.69999999999993 123.99999999999999 291.79999999999995 123.89999999999999 291.69999999999993 123.99999999999999 L 273.8999999999999 144 C 273.5999999999999 144.4 273.19999999999993 144.7 272.8999999999999 145.1 C 268.3999999999999 149.6 262.2999999999999 152.1 255.99999999999991 152.1 C 249.69999999999993 152.1 243.5999999999999 149.6 239.0999999999999 145.1 z" stroke-linecap="round" />
</g>
</svg>