<?xml version="1.0" encoding="UTF-8" standalone="no"?>
<!-- Created with Inkscape (http://www.inkscape.org/) -->

<svg xmlns="http://www.w3.org/2000/svg" xmlns:xlink="http://www.w3.org/1999/xlink" version="1.1" style="width: 1.4em; height: 1.4em" fill="currentColor" viewBox="0 -0.000021333333336315263 256 242.00004266666667" xml:space="preserve" class="svelte-gkbnly"><desc class="svelte-gkbnly">Created with Fabric.js 5.3.0</desc><defs class="svelte-gkbnly"></defs><g transform="matrix(1.1048905253 0 0 1.1048905253 129.000001 121)" id="Hv0Mln4rOQt0RfN4JTAED" class="svelte-gkbnly"><path style="stroke: none; stroke-width: 0; stroke-dasharray: none; stroke-linecap: butt; stroke-dashoffset: 0; stroke-linejoin: miter; stroke-miterlimit: 4; fill-rule: nonzero;" transform=" translate(-129.4592048269, -121.9449386269)" d="M 45.000389 178.985321 C 45.00045 137.992767 45.189491 97.496063 44.861656 57.003548 C 44.784096 47.424049 54.241299 37.780491 64.001831 37.855831 C 107.327415 38.19025 150.658096 38.15852 193.98439 37.873428 C 203.12883 37.813251 212.811661 45.977306 212.993591 55.486298 C 213.339569 73.568573 213.811829 91.650421 213.935333 109.734474 C 214.098083 133.563858 214.114029 157.39653 213.883713 181.224792 C 213.821442 187.665894 213.30394 194.314758 208.5121 199.491562 C 205.003296 203.282211 201.02977 206.04187 195.477585 206.03447 C 151.149612 205.975357 106.821526 206.00708 62.493473 205.996414 C 53.822044 205.994339 45.304428 197.709274 45.017761 188.980713 C 44.913883 185.817917 45.000626 182.64888 45.000389 178.985321 M 61.998081 74.501007 C 61.998142 110.818878 62.069172 147.13707 61.905449 183.454208 C 61.885727 187.828964 63.081978 189.114273 67.51033 189.096863 C 108.492271 188.935852 149.475342 188.938278 190.457321 189.094498 C 194.831314 189.11116 196.114288 187.925613 196.096756 183.494614 C 195.934601 142.51268 195.937805 101.52961 196.09346 60.547623 C 196.110046 56.177303 194.930069 54.872513 190.494385 54.900955 C 161.174728 55.088959 131.853287 54.998047 102.532417 54.998112 C 90.537514 54.998138 78.541191 55.101215 66.548607 54.934402 C 63.07354 54.886063 61.755344 55.97451 61.939281 59.510906 C 62.181255 64.162987 61.998314 68.837181 61.998081 74.501007 z" stroke-linecap="round" class="svelte-gkbnly"></path></g><g transform="matrix(1.1048905253 0 0 1.1048905253 127.9964442239 91.1615548049)" id="BtC5zti8rEr_z2OL_M3iq" class="svelte-gkbnly"><path style="stroke: none; stroke-width: 1; stroke-dasharray: none; stroke-linecap: butt; stroke-dashoffset: 0; stroke-linejoin: miter; stroke-miterlimit: 4; fill-rule: nonzero;" transform=" translate(-128.5509186636, -94.9391452814)" d="M 90.715462 98.248207 C 88.056625 96.918488 85.791435 95.59008 83.360916 94.727562 C 76.309387 92.225159 74.808846 84.376251 79.059593 77.598518 C 80.176155 75.818184 83.098114 74.17614 85.203873 74.160065 C 114.335274 73.937668 143.469437 73.941101 172.600922 74.158386 C 174.653503 74.173698 177.382858 75.808907 178.605759 77.535141 C 182.406235 82.899879 179.884796 91.398643 173.976761 94.333504 C 160.161194 101.196495 146.240448 107.852715 132.522049 114.903503 C 127.989937 117.232849 124.640701 114.898148 121.093513 113.207054 C 111.019943 108.404556 101.046471 103.392128 90.715462 98.248207 z" stroke-linecap="round" class="svelte-gkbnly"></path></g></svg>
