<?xml version="1.0" standalone="no"?>
<!DOCTYPE svg PUBLIC "-//W3C//DTD SVG 20010904//EN"
 "http://www.w3.org/TR/2001/REC-SVG-20010904/DTD/svg10.dtd">
<svg version="1.0" xmlns="http://www.w3.org/2000/svg"
 width="1506.000000pt" height="300.000000pt" viewBox="0 0 1506.000000 300.000000"
 preserveAspectRatio="xMidYMid meet">

<g transform="translate(0.000000,300.000000) scale(0.100000,-0.100000)"
fill="#000000" stroke="none">
<path d="M8310 2630 c0 -203 -3 -370 -7 -370 -3 0 -27 13 -52 29 -88 57 -242
123 -359 153 -107 29 -131 31 -287 32 -235 1 -386 -33 -579 -132 -342 -175
-578 -497 -652 -888 -25 -133 -15 -384 20 -516 36 -136 92 -260 171 -379 335
-503 985 -688 1543 -438 37 17 110 59 162 94 279 185 455 445 532 783 22 96
22 109 25 1050 l4 952 -261 0 -260 0 0 -370z m-572 -686 c44 -9 117 -35 172
-61 81 -39 108 -59 185 -137 74 -74 99 -107 132 -176 61 -124 77 -194 76 -330
-1 -205 -63 -352 -212 -501 -141 -140 -305 -209 -495 -209 -125 0 -214 21
-326 76 -179 89 -320 264 -370 460 -40 154 -21 354 46 486 152 303 466 458
792 392z"/>
<path d="M9220 2740 l0 -260 260 0 260 0 0 260 0 260 -260 0 -260 0 0 -260z"/>
<path d="M718 2461 c-179 -39 -334 -127 -466 -265 -91 -95 -149 -187 -193
-307 -58 -157 -58 -164 -59 -991 l0 -758 260 0 260 0 0 705 c0 483 4 721 11
757 41 193 212 342 406 355 49 4 101 1 134 -7 121 -28 244 -121 301 -226 57
-106 58 -115 58 -881 l0 -703 260 0 260 0 0 719 c0 678 1 723 19 780 72 231
312 366 544 306 84 -22 134 -51 203 -117 72 -69 120 -163 135 -260 5 -35 9
-370 9 -746 l0 -682 258 2 257 3 3 710 c2 478 -1 743 -8 810 -18 158 -66 292
-151 416 -241 356 -705 494 -1103 329 -148 -62 -319 -199 -392 -313 -16 -26
-32 -47 -35 -47 -3 0 -26 29 -52 64 -116 158 -283 272 -483 331 -123 37 -310
43 -436 16z"/>
<path d="M4664 2464 c-279 -47 -547 -198 -730 -412 -362 -425 -398 -1028 -89
-1493 182 -273 453 -454 788 -526 114 -25 361 -24 477 0 380 81 692 319 861
657 32 63 89 209 89 227 0 2 -125 3 -278 3 l-278 0 -18 -33 c-69 -117 -184
-223 -311 -283 -202 -96 -439 -91 -640 14 -67 35 -245 193 -245 217 0 6 404
137 898 291 l897 281 -2 49 c-1 27 -14 89 -28 139 -131 449 -522 794 -985 870
-114 18 -295 18 -406 -1z m389 -530 c119 -31 277 -127 347 -212 27 -33 29 -38
13 -44 -63 -26 -1245 -390 -1249 -385 -11 10 17 140 43 207 73 185 231 342
412 411 131 50 297 59 434 23z"/>
<path d="M11225 2474 c-228 -34 -391 -96 -566 -216 -262 -178 -443 -456 -509
-777 -50 -248 -8 -568 105 -792 48 -93 151 -235 229 -314 528 -532 1412 -473
1861 123 167 222 248 466 248 747 0 164 -13 246 -63 397 -136 409 -486 718
-920 813 -72 16 -323 28 -385 19z m315 -541 c249 -63 447 -266 511 -523 28
-110 23 -280 -11 -380 -65 -192 -192 -339 -365 -421 -115 -55 -191 -73 -315
-73 -126 0 -202 18 -320 76 -68 33 -102 59 -176 132 -79 78 -98 104 -137 186
-102 213 -102 420 0 630 38 79 60 109 132 181 121 121 251 188 406 209 73 10
201 2 275 -17z"/>
<path d="M13769 2465 c-425 -81 -754 -376 -873 -786 -43 -149 -47 -239 -44
-909 l3 -625 257 -3 257 -2 3 692 3 693 23 65 c30 81 100 188 155 235 54 47
165 100 242 116 84 17 255 15 339 -5 197 -47 339 -189 391 -391 13 -50 15
-162 15 -732 l0 -673 260 0 261 0 -3 703 -4 702 -26 97 c-56 205 -151 372
-294 515 -141 141 -310 237 -513 290 -122 32 -336 40 -452 18z"/>
<path d="M9220 1180 l0 -1040 258 2 257 3 3 1038 2 1037 -260 0 -260 0 0
-1040z"/>
</g>
</svg>
