<?xml version="1.0" standalone="yes"?>
<svg xmlns="http://www.w3.org/2000/svg" width="1333" height="1333">
<path style="fill:#eb5505; stroke:none;" d="M666 523L665 523C652.213 505.627 631.104 491.214 615 476.834C581.531 446.948 548.657 416.387 515 386.714C501.194 374.542 487.816 361.879 474 349.714C468.706 345.054 462.714 337.076 456 334.603C448.022 331.665 435.469 334 427 334L361 334L137 334L170 365.286L224 414.17L414 585.964L480 645.715L497 661L502.944 668.086L496 676.169L473 697.039L378 783.169L124 1013.83L49 1081.83L9 1119L243 1119L305 1119C312.651 1119 324.305 1121.19 331 1116.97C342.665 1109.6 352.731 1097.68 362.83 1088.32C380.712 1071.77 398.928 1055.51 417 1039.17C469.018 992.123 521.558 945.583 573 897.911C594.446 878.037 616.818 859.114 638 838.961C644.185 833.077 650.663 827.548 657 821.83C659.181 819.863 661.884 816.045 665 815.631C669.758 814.999 676.815 823.985 680 826.914C693.183 839.037 706.688 850.85 720 862.831C753.266 892.771 787.307 921.94 820.17 952.325C833.284 964.451 846.677 976.269 860 988.166C865.982 993.507 871.981 1000.54 879 1004.49C885.661 1008.24 897.533 1006 905 1006L968 1006L1200 1006L1171 978.834L1120 932.911L924 756.166L863 701.285L826 667C841.303 659.863 855.452 641.518 868 630.17C897.052 603.894 925.95 577.444 955 551.17C1039.07 475.133 1122.88 398.811 1207 322.83C1235.04 297.506 1262.66 271.705 1291 246.714C1301.6 237.365 1311.45 226.133 1323 218C1312.26 213.493 1293.68 217 1282 217L1187 217L1059 217L1021 217C1015.56 217 1008.16 215.71 1003 217.603C993.18 221.208 983.737 233.925 976 240.834C953.846 260.616 932.329 281.129 910 300.715C855.277 348.718 802.014 398.544 748.17 447.536C730.219 463.87 712.261 480.185 694.286 496.486C685.001 504.905 673.432 512.903 666 523z"/>
</svg>
