<?xml version="1.0" encoding="UTF-8" standalone="no"?>
<svg
   version="1.1"
   x="0px"
   y="0px"
   viewBox="0 0 100 100"
   xml:space="preserve"
   id="svg4746"
   width="100"
   height="100"
   xmlns="http://www.w3.org/2000/svg"
   xmlns:svg="http://www.w3.org/2000/svg"><defs
     id="defs4750" /><g
     id="g4740"
     style="fill:#ffffff;fill-opacity:1"><path
       d="m 86.042,16.387 -4.159,-2.773 -4.426,6.639 c -2.961,-0.789 -6.229,0.3 -8.083,2.957 -1.917,2.749 -1.735,6.337 0.204,8.861 L 64.589,39.554 58.875,9.077 C 58.592,7.539 57.595,6.225 56.199,5.527 l -10.001,-5 c -1.462,-0.731 -3.125,-0.674 -4.472,0 l -10,5 C 30.33,6.225 29.333,7.539 29.05,9.077 l -15,80 C 13.412,92.493 16.186,95 18.962,95 h 5 c 0,2.764 2.237,5 5,5 2.763,0 5,-2.236 5,-5 h 20 c 0,2.764 2.236,5 4.999,5 2.764,0 5.001,-2.236 5.001,-5 h 5 c 2.074,0 5.656,-1.938 4.912,-5.923 L 65.907,46.588 73.771,34.792 c 2.913,0.699 6.088,-0.396 7.904,-3.001 1.881,-2.696 1.741,-6.198 -0.095,-8.713 z M 65.212,70 H 53.963 V 64.506 L 61.94,52.541 Z M 60.619,45.507 53.963,55.493 V 15 H 54.9 Z M 43.962,5 l 10,5 h -20 z m -5,55 v -5 h 10 v 5 z m 8.663,5 -3.333,5 H 38.963 V 65 Z M 38.962,50 v -5 h 10 v 5 z m 0,-10 v -5 h 10 v 5 z m 0,-10 v -5 h 10 v 5 z m 0,-10 v -5 h 10 v 5 z m -5.937,-5 h 0.938 v 55 h -11.25 z m 33.125,60 2.813,15 h -50 L 21.775,75 Z M 77.576,28.93 c -0.788,1.13 -2.352,1.408 -3.48,0.621 -1.129,-0.788 -1.408,-2.352 -0.621,-3.481 0.788,-1.129 2.352,-1.408 3.48,-0.62 1.13,0.787 1.408,2.351 0.621,3.48 z"
       id="path4738"
       style="fill:#ffffff;fill-opacity:1" /></g></svg>
