<?xml version="1.0" encoding="UTF-8" standalone="no"?>
<svg
   viewBox="0 0 24 24"
   fill="none"
   x="0px"
   y="0px"
   version="1.1"
   id="svg7786"
   sodipodi:docname="noun-metronome-5776636.svg"
   width="24"
   height="24"
   xmlns:inkscape="http://www.inkscape.org/namespaces/inkscape"
   xmlns:sodipodi="http://sodipodi.sourceforge.net/DTD/sodipodi-0.dtd"
   xmlns="http://www.w3.org/2000/svg"
   xmlns:svg="http://www.w3.org/2000/svg">
  <defs
     id="defs7790" />
  <sodipodi:namedview
     id="namedview7788"
     pagecolor="#ffffff"
     bordercolor="#000000"
     borderopacity="0.25"
     inkscape:showpageshadow="2"
     inkscape:pageopacity="0.0"
     inkscape:pagecheckerboard="0"
     inkscape:deskcolor="#d1d1d1"
     showgrid="false" />
  <g
     id="g7918"
     transform="matrix(-1.1082172,0,0,1.1082172,24.866304,-1.3875937)"
     style="fill:#ffffff;fill-opacity:1;stroke:none;stroke-opacity:1">
    <path
       fill-rule="evenodd"
       clip-rule="evenodd"
       d="M 8.21785,2.83692 C 8.3081,2.36573 8.72025,2.02502 9.2,2.02502 h 5.6 c 0.4798,0 0.8919,0.34071 0.9821,0.8119 l 2.6,13.57498 C 18.394,16.4739 18.4,16.5369 18.4,16.6 V 21 c 0,0.5523 -0.4477,1 -1,1 H 6.6 c -0.55228,0 -1,-0.4477 -1,-1 v -4.4 c 0,-0.0631 0.006,-0.1261 0.01785,-0.1881 l 0.42137,-2.2 c 0.10389,-0.5424 0.62783,-0.8979 1.17025,-0.794 0.54243,0.1039 0.89793,0.6278 0.79404,1.1702 L 7.80971,15.6 H 16.1903 L 13.9734,4.02502 H 10.0266 L 9.76557,5.38813 C 9.66168,5.93056 9.13774,6.28606 8.59532,6.18217 8.05289,6.07828 7.69739,5.55434 7.80128,5.01191 Z M 16.4,17.6 H 7.6 V 20 h 8.8 z"
       fill="#000000"
       id="path7772"
       style="fill:#ffffff;fill-opacity:1;stroke:none;stroke-opacity:1" />
    <path
       fill-rule="evenodd"
       clip-rule="evenodd"
       d="M 4.79223,4.41353 C 5.26802,4.1331 5.88106,4.29147 6.1615,4.76726 l 6.675,11.32504 c 0.2804,0.4757 0.1221,1.0888 -0.3537,1.3692 -0.4758,0.2805 -1.0889,0.1221 -1.3693,-0.3537 L 4.43851,5.78279 C 4.15807,5.307 4.31644,4.69396 4.79223,4.41353 Z"
       fill="#000000"
       id="path7774"
       style="fill:#ffffff;fill-opacity:1;stroke:none;stroke-opacity:1" />
    <path
       fill-rule="evenodd"
       clip-rule="evenodd"
       d="m 10.4,6.60002 c 0,-0.55228 0.4477,-1 1,-1 h 1.2 c 0.5523,0 1,0.44772 1,1 0,0.55229 -0.4477,1 -1,1 h -1.2 c -0.5523,0 -1,-0.44771 -1,-1 z"
       fill="#000000"
       id="path7776"
       style="fill:#ffffff;fill-opacity:1;stroke:none;stroke-opacity:1" />
    <path
       fill-rule="evenodd"
       clip-rule="evenodd"
       d="m 10.8,9.80002 c 0,-0.55228 0.4477,-1 1,-1 h 1.6 c 0.5523,0 1,0.44772 1,1 0,0.55228 -0.4477,0.99998 -1,0.99998 h -1.6 c -0.5523,0 -1,-0.4477 -1,-0.99998 z"
       fill="#000000"
       id="path7778"
       style="fill:#ffffff;fill-opacity:1;stroke:none;stroke-opacity:1" />
    <path
       fill-rule="evenodd"
       clip-rule="evenodd"
       d="m 12.4,13.4 c 0,-0.5523 0.4477,-1 1,-1 h 0.4 c 0.5523,0 1,0.4477 1,1 0,0.5523 -0.4477,1 -1,1 h -0.4 c -0.5523,0 -1,-0.4477 -1,-1 z"
       fill="#000000"
       id="path7780"
       style="fill:#ffffff;fill-opacity:1;stroke:none;stroke-opacity:1" />
  </g>
</svg>
