<?xml version="1.0" encoding="UTF-8" standalone="no"?>
<svg
   version="1.1"
   id="svg2"
   xml:space="preserve"
   width="2500"
   height="2500"
   viewBox="0 0 2500 2500"
   xmlns="http://www.w3.org/2000/svg"
   xmlns:svg="http://www.w3.org/2000/svg"><defs
     id="defs6" /><g
     id="g8"
     transform="matrix(1.3333333,0,0,-1.3333333,0,2666.6667)"><path
       d="m 1254.2745,1291.3307 c 0,0 -95.46,125.09 -85.58,213.97 9.87,88.88 16.45,204.1 79,181.05 62.55,-23.04 118.51,-121.79 121.8,-230.43 3.29,-108.63 36.21,-105.34 79.01,-141.55 42.79,-36.21 118.5099,-72.42 134.97,-151.43 0,0 58.3599,-10.32 44.8799,-54.14 0,0 0,-73.039 -38.2099,-94.388 -38.2,-21.34904 -49.43,-13.483 -115.73,-40.45104 -66.29,-26.967 -53.3401,-1.65 -130.15,-54.32 -76.81,-52.67101 -153.62,-122.898 -283.1,-118.509 l 61.36,34.183 c 0,0 -233.72005,-86.52 -339.34005,-178.658 0,0 -12.36,80.902 -3.37,115.735 8.99,34.832 5.62,7.865 5.62,7.865 0,0 117.98,93.262 157.31,111.23999 0,0 -69.67,-32.585 -98.88,-51.687 -29.22,-19.10199 23.6,93.261 60.68,108.992 0,0 -42.22,-26.189 -82.03,-96.632 -14.61,-25.84399 -40.45,-29.215 -40.45,-29.215 0,0 60.68,182.02905 -68.54,248.32505 0,0 70.79,-55.06 66.29,-125.84904 -4.49,-70.789 -11.24,-95.509 -23.59,-141.578 -12.36,-46.069 -22.48,-151.40901 43.54,-228.65901 66.01,-77.25 132.02,-74.44099 181.18,-78.65499 49.16005,-4.213 88.49005,-39.32701 84.27005,-71.63201 -4.21,-32.304 -28.09,-14.04499 -28.09,-14.04499 0,0 -15.45,-14.045 -56.18005,-9.832 -40.73,4.21399 -129.22,-4.21301 -175.57,14.046 -46.35,18.259 -167.137,91.29499 -174.16,140.454 -7.022,49.159 -88.486,175.56799 -153.095,226.13199 -64.609,50.563 -150.286,102.531 -164.332,195.231 -14.045,92.69705 -23.877,94.10705 -1.404,136.23705 0,0 -63.205,-53.37 -112.364,16.86 -49.159,70.23 81.464,217.7 172.759,99.72 0,0 183.995,195.23 384.846,158.72 200.85,-36.52 334.28005,-101.13 393.27005,-150.29 58.99,-49.16 73.04,-23.88 73.04,-23.88 0,0 21.36,47.39 30.34,77.07"
       style="fill:#ffffff;fill-opacity:1;fill-rule:evenodd;stroke:none;stroke-width:0.1"
       id="path14" /></g></svg>
