<?xml version="1.0" encoding="UTF-8" standalone="no"?>

<svg
   version="1.1"
   id="svg2"
   xml:space="preserve"
   width="3200"
   height="2666.6667"
   viewBox="0 0 3200 2666.6667"
   xmlns:inkscape="http://www.inkscape.org/namespaces/inkscape"
   xmlns:sodipodi="http://sodipodi.sourceforge.net/DTD/sodipodi-0.dtd"
   xmlns="http://www.w3.org/2000/svg"
   xmlns:svg="http://www.w3.org/2000/svg"><defs
     id="defs6" /><sodipodi:namedview
     id="namedview4"
     pagecolor="#ffffff"
     bordercolor="#666666"
     borderopacity="1.0"
     inkscape:pageshadow="2"
     inkscape:pageopacity="0.0"
     inkscape:pagecheckerboard="0" /><g
     id="g8"
     inkscape:groupmode="layer"
     inkscape:label="ink_ext_XXXXXX"
     transform="matrix(1.3333333,0,0,-1.3333333,0,2666.6667)"><g
       id="g10"
       transform="scale(0.1)"><path
         d="M 24000,20000 H 0 V 0 h 24000 v 20000"
         style="fill:transparent;fill-opacity:1;fill-rule:evenodd;stroke:none"
         id="path12" /><path
         d="m 15444.4,12465.4 c 0,0 -954.6,1250.9 -855.8,2139.7 98.7,888.8 164.5,2041 790,1810.5 625.5,-230.4 1185.1,-1217.9 1218,-2304.3 32.9,-1086.3 362.1,-1053.4 790.1,-1415.5 427.9,-362.1 1185.1,-724.2 1349.7,-1514.3 0,0 583.6,-103.2 448.8,-541.4 0,0 0,-730.39 -382.1,-943.88 -382,-213.49 -494.3,-134.83 -1157.3,-404.51 -662.9,-269.67 -533.4,-16.5 -1301.5,-543.2 -768.1,-526.71 -1536.2,-1228.98 -2831,-1185.09 l 613.6,341.83 c 0,0 -2337.2,-865.2 -3393.4,-1786.58 0,0 -123.6,809.02 -33.7,1157.35 89.9,348.32 56.2,78.65 56.2,78.65 0,0 1179.8,932.62 1573.1,1112.4 0,0 -696.7,-325.85 -988.8,-516.87 -292.2,-191.02 236,932.61 606.8,1089.92 0,0 -422.2,-261.89 -820.3,-966.32 -146.1,-258.44 -404.5,-292.15 -404.5,-292.15 0,0 606.8,1820.29 -685.4,2483.25 0,0 707.9,-550.6 662.9,-1258.49 -44.9,-707.89 -112.4,-955.09 -235.9,-1415.78 -123.6,-460.69 -224.8,-1514.09 435.4,-2286.59 660.1,-772.5 1320.2,-744.41 1811.8,-786.55 491.6,-42.13 884.9,-393.27 842.7,-716.32 -42.1,-323.04 -280.9,-140.45 -280.9,-140.45 0,0 -154.5,-140.45 -561.8,-98.32 -407.3,42.14 -1292.2,-42.13 -1755.7,140.46 -463.5,182.59 -1671.37,912.95 -1741.6,1404.54 -70.22,491.59 -884.86,1755.68 -1530.95,2261.32 -646.09,505.63 -1502.86,1025.31 -1643.32,1952.31 -140.45,926.97 -238.77,941.07 -14.04,1362.37 0,0 -632.05,-533.7 -1123.64,168.6 -491.59,702.3 814.64,2177 1727.59,997.2 0,0 1839.95,1952.3 3848.46,1587.2 2008.5,-365.2 3342.8,-1011.3 3932.7,-1502.9 589.9,-491.6 730.4,-238.8 730.4,-238.8 0,0 213.6,473.9 303.4,770.7"
         style="fill:white;fill-opacity:1;fill-rule:evenodd;stroke:none"
         id="path14" /></g></g></svg>
