<?xml version="1.0" encoding="UTF-8" standalone="no"?>
<!-- Created with Inkscape (http://www.inkscape.org/) -->

<svg
   version="1.1"
   id="svg2"
   fill="#ffffff"
   viewBox="0 0 89 89"
   sodipodi:docname="mistakes.png"
   xmlns:inkscape="http://www.inkscape.org/namespaces/inkscape"
   xmlns:sodipodi="http://sodipodi.sourceforge.net/DTD/sodipodi-0.dtd"
   xmlns="http://www.w3.org/2000/svg"
   xmlns:svg="http://www.w3.org/2000/svg">
  <defs
     id="defs6" />
  <sodipodi:namedview
     id="namedview4"
     pagecolor="#ffffff"
     bordercolor="#000000"
     borderopacity="0.25"
     inkscape:showpageshadow="2"
     inkscape:pageopacity="0.0"
     inkscape:pagecheckerboard="0"
     inkscape:deskcolor="#d1d1d1"
     showgrid="false" />
  <g
     inkscape:groupmode="layer"
     inkscape:label="Image"
     id="g8">
    <path
       d="M 11.483869,75.983699 5.530345,69.967398 19.015172,57.008141 32.5,44.048885 19,31.061775 5.5,18.074666 11.748051,11.799282 17.996102,5.5238977 31.257109,18.757608 44.518115,31.991319 57.756416,18.753018 70.994717,5.514717 77.247358,11.786327 83.5,18.057937 70,31.043154 56.5,44.02837 69.99583,57.008356 83.491659,69.988341 77.248046,76.231954 71.004433,82.475567 58.238312,69.737783 C 51.216946,62.732003 45.021696,57 44.47109,57 43.920484,57 37.858493,62.625 31,69.5 24.141507,76.375 18.284173,82 17.983702,82 c -0.30047,0 -3.225395,-2.707335 -6.499833,-6.016301 z"
       id="path232" />
  </g>
</svg>
