<?xml version="1.0" encoding="UTF-8" standalone="no"?>
<svg
   xml:space="preserve"
   version="1.1"
   x="0px"
   y="0px"
   viewBox="0 0 100 100"
   id="svg8"
   width="100"
   height="100"
   xmlns="http://www.w3.org/2000/svg"
   xmlns:svg="http://www.w3.org/2000/svg"><defs
     id="defs12" /><path
     id="rect9557"
     style="fill:#ffffff;fill-opacity:1;stroke:none;stroke-width:3.70081;stroke-linecap:round;stroke-linejoin:round"
     d="M 35.464518,46.70143 C 32.640383,44.188621 28.343846,44.439259 25.83104,47.263394 L 7.0509787,68.370243 c -2.5128067,2.824135 -2.2621696,7.12067 0.561965,9.633478 L 30.346321,98.231003 c 2.824135,2.512817 7.120672,2.262167 9.633479,-0.561965 L 58.75986,76.56219 c 2.512806,-2.824135 2.26217,-7.120671 -0.561965,-9.633476 z m 7.52418,14.973546 13.01675,11.581803 0.02093,0.800295 c 0.03694,1.365091 -1.814166,3.811183 -3.317575,4.384759 -0.275406,0.105067 -4.358645,-0.90188 -9.82299,-2.421941 -7.038195,-1.957873 -9.51708,-2.748167 -10.018203,-3.19405 -0.501677,-0.446371 -1.56714,-2.803212 -4.319742,-9.558439 -4.112577,-10.092769 -4.033324,-9.682733 -2.257741,-11.649908 1.1208,-1.241747 2.303748,-1.85515 3.175279,-1.645809 0.33453,0.08035 4.937479,4.06397 13.523285,11.70329 z" /><path
     id="rect9557-3"
     style="fill:#ffffff;fill-opacity:1;stroke:none;stroke-width:3.70081;stroke-linecap:round;stroke-linejoin:round"
     d="M 73.542545,5.7834117 C 70.71841,3.2706027 66.421873,3.5212407 63.909067,6.3453757 L 45.129005,27.452225 c -2.512806,2.824135 -2.262169,7.12067 0.561965,9.633476 l 22.733378,20.22728 c 2.824135,2.51282 7.120672,2.26217 9.633479,-0.56196 l 18.78006,-21.106849 c 2.512806,-2.824135 2.26217,-7.120671 -0.561965,-9.633476 z m 7.52418,14.9735463 13.01675,11.581803 0.02093,0.800295 c 0.03694,1.365091 -1.814166,3.811185 -3.317575,4.384755 -0.275406,0.10507 -4.358645,-0.901876 -9.82299,-2.421937 -7.038195,-1.957873 -9.51708,-2.748167 -10.018203,-3.19405 -0.501677,-0.446371 -1.56714,-2.803212 -4.319742,-9.558439 -4.112577,-10.092769 -4.033324,-9.682733 -2.257741,-11.649908 1.1208,-1.2417473 2.303748,-1.8551503 3.175279,-1.6458093 0.33453,0.08035 4.937479,4.0639703 13.523285,11.7032903 z" /></svg>
