<?xml version="1.0" encoding="UTF-8" standalone="no"?>
<svg
   xml:space="preserve"
   version="1.1"
   x="0px"
   y="0px"
   viewBox="0 0 100 100"
   id="svg8"
   width="100"
   height="100"
   xmlns="http://www.w3.org/2000/svg"
   xmlns:svg="http://www.w3.org/2000/svg"><defs
     id="defs12" /><path
     id="rect9557"
     style="fill:#ffffff;fill-opacity:1;stroke:none;stroke-width:4.81492;stroke-linecap:round;stroke-linejoin:round"
     d="m 53.145568,19.400229 c -4.918214,0 -9.92221,3.959436 -11.219712,8.87765 l -9.697188,36.757439 c -1.297501,4.918212 1.617374,8.877648 6.535587,8.877648 h 39.590029 c 4.918212,0 9.922208,-3.959436 11.219711,-8.877648 l 9.697187,-36.757439 c 1.297498,-4.918214 -1.61737,-8.87765 -6.53559,-8.87765 z m 18.140261,8.046946 h 22.668583 l 0.51205,0.75977 c 0.87487,1.294907 0.1415,5.273404 -1.31384,7.131122 -0.26661,0.340307 -5.779749,2.892916 -13.262609,6.141215 -9.638092,4.183884 -13.093952,5.559565 -13.966656,5.559565 -0.873666,0 -3.586317,-1.369373 -10.999827,-5.554836 -11.076289,-6.253362 -10.731705,-5.923352 -9.797596,-9.371026 0.589633,-2.176281 1.636145,-3.795564 2.809479,-4.345823 0.450374,-0.21121 8.398291,-0.319987 23.350416,-0.319987 z" /><rect
     style="fill:#ffffff;fill-opacity:1;stroke:none;stroke-width:5.966;stroke-linecap:round;stroke-linejoin:round;stroke-opacity:1"
     id="rect13412"
     width="27.400383"
     height="9.6343298"
     x="2.4748738"
     y="56.480156"
     rx="5.5199227"
     ry="4.2868357" /><rect
     style="fill:#ffffff;fill-opacity:1;stroke:none;stroke-width:5.966;stroke-linecap:round;stroke-linejoin:round;stroke-opacity:1"
     id="rect13412-6"
     width="26.78167"
     height="9.3691645"
     x="6.8059049"
     y="41.409935"
     rx="5.5199227"
     ry="4.6403913" /><rect
     style="fill:#ffffff;fill-opacity:1;stroke:none;stroke-width:5.966;stroke-linecap:round;stroke-linejoin:round;stroke-opacity:1"
     id="rect13412-5"
     width="23.776459"
     height="8.7504492"
     x="13.810031"
     y="26.450861"
     rx="5.5199227"
     ry="4.3310308" /></svg>
