<?xml version="1.0" encoding="UTF-8" standalone="no"?>
<svg
   xml:space="preserve"
   version="1.1"
   x="0px"
   y="0px"
   viewBox="0 0 100 100"
   id="svg8"
   width="100"
   height="100"
   xmlns="http://www.w3.org/2000/svg"
   xmlns:svg="http://www.w3.org/2000/svg"><defs
     id="defs12" /><path
     id="rect9557"
     style="fill:#ffffff;fill-opacity:1;stroke:none;stroke-width:5.966;stroke-linecap:round;stroke-linejoin:round"
     d="m 16.783203,24.648438 c -6.093994,0 -10.9999999,4.906006 -10.9999999,11 v 45.544921 c 0,6.093994 4.9060059,11 10.9999999,11 h 49.054688 c 6.093994,0 11,-4.906006 11,-11 V 35.648438 c 0,-6.093994 -4.906006,-11 -11,-11 z m 25.107422,9.970703 h 28.087891 l 0.882812,0.941406 c 1.507319,1.604476 1.899134,6.534099 0.703125,8.835937 -0.2191,0.421663 -6.215839,3.584515 -14.425781,7.609375 -10.57459,5.184111 -14.406942,6.888672 -15.488281,6.888672 -1.082529,0 -4.891313,-1.696745 -15.445313,-6.882812 -15.768394,-7.748335 -15.233555,-7.33943 -15.203125,-11.611328 0.0192,-2.696558 0.786578,-4.702957 2.060547,-5.384766 0.489,-0.261703 10.301444,-0.396484 28.828125,-0.396484 z" /><path
     id="rect9557-1"
     style="fill:none;fill-opacity:1;stroke:#ffffff;stroke-width:6.37988;stroke-linecap:round;stroke-linejoin:round;stroke-opacity:1"
     d="m 19.913278,12.19651 c 2.138525,-2.113909 5.096373,-3.4179246 8.37367,-3.4179246 h 52.762579 c 6.554593,0 11.831395,5.2160626 11.831395,11.6952086 v 48.4219 c 0,3.239572 -1.3192,6.163374 -3.457725,8.277283" /></svg>
