<svg version="1.1" id="Layer_1" xmlns="http://www.w3.org/2000/svg" xmlns:xlink="http://www.w3.org/1999/xlink" x="0px" y="0px"
	 width="100%" viewBox="0 0 385 255" enable-background="new 0 0 385 255" xml:space="preserve">
<path fill="#76B901" opacity="1.000000" stroke="none" 
	d="
M1.000000,114.000000 
	C1.000000,110.969406 1.000000,107.938812 1.352528,104.444916 
	C9.773290,97.512611 17.603085,90.714172 25.970194,84.658089 
	C36.396545,77.111534 46.809551,69.339790 58.066803,63.203495 
	C70.428871,56.464970 83.769676,51.531303 96.638474,45.710510 
	C110.037346,39.649956 124.487122,37.801414 138.715515,35.084633 
	C141.516769,34.549763 143.101151,33.750530 143.044296,30.459921 
	C142.874664,20.642624 142.993713,10.820337 143.000000,1.000000 
	C223.952148,1.000000 304.904297,1.000000 385.928223,1.000000 
	C385.928223,85.901871 385.928223,170.803833 385.928223,256.000000 
	C305.312683,256.000000 224.625000,256.000000 143.460419,255.531403 
	C142.982712,246.898697 142.882095,238.732635 143.039017,230.571548 
	C143.089172,227.963211 142.192764,226.513855 139.704865,226.067337 
	C137.447632,225.662247 135.183487,225.195312 132.902878,225.037369 
	C118.961876,224.071869 105.943085,219.471268 93.568787,213.612350 
	C81.915070,208.094604 70.436241,201.901230 61.039787,192.627350 
	C51.548725,183.260132 41.340363,174.557404 32.460491,164.654129 
	C26.085072,157.543961 21.128874,149.094437 16.010710,140.946426 
	C12.393496,135.187912 9.622620,128.902573 6.360295,122.914314 
	C4.703047,119.872314 2.794786,116.967072 1.000000,114.000000 
M145.224838,207.555908 
	C145.149658,211.713181 145.273132,215.886322 144.943146,220.023270 
	C144.616440,224.118988 146.389679,225.223907 150.195572,225.053024 
	C160.955444,224.569870 171.758316,224.731552 182.483246,223.875168 
	C192.156616,223.102737 201.837463,221.763062 211.354614,219.868027 
	C222.357239,217.677200 233.233932,214.788574 244.073135,211.861618 
	C253.927628,209.200531 263.827209,206.544205 273.402374,203.050995 
	C286.128296,198.408386 298.631805,193.127106 311.097473,187.807648 
	C326.104706,181.403641 340.204926,173.388550 353.424957,162.747894 
	C351.705017,161.491318 350.375092,160.326065 348.874634,159.454391 
	C337.874603,153.064026 326.818024,146.770844 315.834320,140.352814 
	C313.383362,138.920639 311.706360,138.820221 309.352264,140.996460 
	C303.108887,146.768066 296.835388,152.627960 289.918427,157.527298 
	C269.521912,171.974335 249.384552,186.825806 225.416092,195.384521 
	C209.327988,201.129272 193.445984,207.155533 175.102386,206.989151 
	C165.402390,207.074936 155.702408,207.160721 145.224838,207.555908 
M146.785812,53.969322 
	C153.675842,53.902889 160.618530,53.273628 167.442657,53.911827 
	C176.063766,54.718090 184.572769,56.294132 192.440811,60.612381 
	C198.763794,64.082657 206.004059,65.968765 212.095612,69.752052 
	C220.207489,74.790100 227.878479,80.652855 235.220108,86.782654 
	C242.011230,92.452850 248.174393,98.885223 254.494843,105.103157 
	C256.484650,107.060699 256.719788,109.389938 254.698532,111.714905 
	C250.483322,116.563515 246.793228,121.975060 242.072250,126.256477 
	C230.610855,136.650635 219.040451,146.995026 206.790482,156.418976 
	C200.806656,161.022369 193.520782,164.562393 186.271164,166.754669 
	C172.945847,170.784210 159.207611,173.357391 145.341629,167.861618 
	C145.341629,173.565887 145.341629,178.647537 145.341629,185.206528 
	C157.546463,184.450882 169.399658,184.407623 181.044205,182.827194 
	C196.800674,180.688660 210.896118,173.286377 224.442307,165.526123 
	C234.239044,159.913834 242.666519,151.964249 252.030228,145.530884 
	C266.411255,135.650360 278.029541,122.861099 289.918121,110.356064 
	C291.053375,109.161942 291.612366,105.509315 290.758484,104.630203 
	C282.206390,95.825356 273.801788,86.755745 264.354492,78.976562 
	C255.162186,71.407349 245.084503,64.785439 234.858566,58.641342 
	C227.177765,54.026432 218.912628,50.037651 210.432617,47.179459 
	C197.298035,42.752464 184.201065,37.764999 169.918411,37.816055 
	C161.732834,37.845318 153.544373,37.068817 144.562775,36.614925 
	C145.046936,43.089699 145.448303,48.457348 146.785812,53.969322 
M88.916275,153.424225 
	C88.394058,152.420227 88.075867,151.216339 87.318184,150.443039 
	C79.370155,142.331253 75.227959,131.943192 70.565651,121.952316 
	C67.011971,114.337135 68.569893,110.496689 75.516693,105.749428 
	C82.072983,101.269043 88.402290,96.401062 95.242004,92.406578 
	C101.991455,88.464798 109.001999,84.655464 116.363579,82.163338 
	C124.003632,79.576935 132.220627,78.720284 140.134445,76.887520 
	C141.226013,76.634720 142.792969,75.151146 142.833862,74.182243 
	C143.084656,68.239067 142.959473,62.280022 142.959473,56.312943 
	C117.158989,57.673302 71.093063,72.318115 42.165176,111.687531 
	C43.936272,116.455681 45.206661,121.425659 47.530342,125.841370 
	C54.528542,139.140091 62.235439,151.910751 71.851746,163.678711 
	C81.208694,175.129272 92.477615,184.102692 104.753426,191.517075 
	C115.170578,197.808884 126.963737,201.888290 139.056412,204.573135 
	C141.800415,205.182388 142.899200,204.450821 142.949112,201.906906 
	C143.037292,197.412674 143.197906,192.896973 142.827652,188.431747 
	C142.727173,187.220001 141.036514,185.595551 139.727432,185.120743 
	C133.306778,182.791931 126.496437,181.378876 120.329544,178.542587 
	C108.100227,172.918076 97.865562,164.494751 88.916275,153.424225 
M196.920105,126.513908 
	C203.187973,121.231247 209.421570,115.907089 215.741302,110.687218 
	C218.127274,108.716469 218.854858,106.862167 216.149277,104.647812 
	C214.255432,103.097786 212.477249,101.384377 210.473541,99.994629 
	C203.659042,95.268166 197.111893,90.004990 189.831345,86.134163 
	C175.951736,78.754837 161.088028,75.983017 144.999619,79.475906 
	C144.999619,83.832764 145.103745,88.126648 144.963989,92.412582 
	C144.866531,95.401466 145.690125,96.705856 149.053894,97.128479 
	C159.714401,98.467850 168.670135,103.006752 174.835785,112.274200 
	C179.247070,118.904694 183.902847,125.372528 188.769073,132.372589 
	C191.393860,130.480530 193.860718,128.702301 196.920105,126.513908 
M104.481590,115.036308 
	C102.047005,116.514648 101.807777,118.663841 103.092079,120.879242 
	C108.230339,129.742691 113.122940,138.779648 118.794182,147.294312 
	C124.512840,155.880203 133.269379,160.736755 142.679688,164.453949 
	C142.679688,142.586105 142.679688,120.984909 142.679688,99.280334 
	C127.063942,97.380798 115.950409,105.743820 104.481590,115.036308 
z"/>
<path fill="#000000" opacity="1.000000" stroke="none" 
	d="
M1.000000,114.468658 
	C2.794786,116.967072 4.703047,119.872314 6.360295,122.914314 
	C9.622620,128.902573 12.393496,135.187912 16.010710,140.946426 
	C21.128874,149.094437 26.085072,157.543961 32.460491,164.654129 
	C41.340363,174.557404 51.548725,183.260132 61.039787,192.627350 
	C70.436241,201.901230 81.915070,208.094604 93.568787,213.612350 
	C105.943085,219.471268 118.961876,224.071869 132.902878,225.037369 
	C135.183487,225.195312 137.447632,225.662247 139.704865,226.067337 
	C142.192764,226.513855 143.089172,227.963211 143.039017,230.571548 
	C142.882095,238.732635 142.982712,246.898697 142.991760,255.531403 
	C95.739685,256.000000 48.479362,256.000000 1.000000,256.000000 
	C1.000000,208.979340 1.000000,161.958328 1.000000,114.468658 
z"/>
<path fill="#000000" opacity="1.000000" stroke="none" 
	d="
M142.531342,1.000000 
	C142.993713,10.820337 142.874664,20.642624 143.044296,30.459921 
	C143.101151,33.750530 141.516769,34.549763 138.715515,35.084633 
	C124.487122,37.801414 110.037346,39.649956 96.638474,45.710510 
	C83.769676,51.531303 70.428871,56.464970 58.066803,63.203495 
	C46.809551,69.339790 36.396545,77.111534 25.970194,84.658089 
	C17.603085,90.714172 9.773290,97.512611 1.352528,103.990814 
	C1.000000,69.728073 1.000000,35.456142 1.000000,1.000000 
	C48.020733,1.000000 95.041710,1.000000 142.531342,1.000000 
z"/>
<path fill="#000000" opacity="1.000000" stroke="none" 
	d="
M146.317749,53.897156 
	C145.448303,48.457348 145.046936,43.089699 144.562775,36.614925 
	C153.544373,37.068817 161.732834,37.845318 169.918411,37.816055 
	C184.201065,37.764999 197.298035,42.752464 210.432617,47.179459 
	C218.912628,50.037651 227.177765,54.026432 234.858566,58.641342 
	C245.084503,64.785439 255.162186,71.407349 264.354492,78.976562 
	C273.801788,86.755745 282.206390,95.825356 290.758484,104.630203 
	C291.612366,105.509315 291.053375,109.161942 289.918121,110.356064 
	C278.029541,122.861099 266.411255,135.650360 252.030228,145.530884 
	C242.666519,151.964249 234.239044,159.913834 224.442307,165.526123 
	C210.896118,173.286377 196.800674,180.688660 181.044205,182.827194 
	C169.399658,184.407623 157.546463,184.450882 145.341629,185.206528 
	C145.341629,178.647537 145.341629,173.565887 145.341629,167.861618 
	C159.207611,173.357391 172.945847,170.784210 186.271164,166.754669 
	C193.520782,164.562393 200.806656,161.022369 206.790482,156.418976 
	C219.040451,146.995026 230.610855,136.650635 242.072250,126.256477 
	C246.793228,121.975060 250.483322,116.563515 254.698532,111.714905 
	C256.719788,109.389938 256.484650,107.060699 254.494843,105.103157 
	C248.174393,98.885223 242.011230,92.452850 235.220108,86.782654 
	C227.878479,80.652855 220.207489,74.790100 212.095612,69.752052 
	C206.004059,65.968765 198.763794,64.082657 192.440811,60.612381 
	C184.572769,56.294132 176.063766,54.718090 167.442657,53.911827 
	C160.618530,53.273628 153.675842,53.902889 146.317749,53.897156 
z"/>
<path fill="#000000" opacity="1.000000" stroke="none" 
	d="
M176.041000,207.088791 
	C193.445984,207.155533 209.327988,201.129272 225.416092,195.384521 
	C249.384552,186.825806 269.521912,171.974335 289.918427,157.527298 
	C296.835388,152.627960 303.108887,146.768066 309.352264,140.996460 
	C311.706360,138.820221 313.383362,138.920639 315.834320,140.352814 
	C326.818024,146.770844 337.874603,153.064026 348.874634,159.454391 
	C350.375092,160.326065 351.705017,161.491318 353.424957,162.747894 
	C340.204926,173.388550 326.104706,181.403641 311.097473,187.807648 
	C298.631805,193.127106 286.128296,198.408386 273.402374,203.050995 
	C263.827209,206.544205 253.927628,209.200531 244.073135,211.861618 
	C233.233932,214.788574 222.357239,217.677200 211.354614,219.868027 
	C201.837463,221.763062 192.156616,223.102737 182.483246,223.875168 
	C171.758316,224.731552 160.955444,224.569870 150.195572,225.053024 
	C146.389679,225.223907 144.616440,224.118988 144.943146,220.023270 
	C145.273132,215.886322 145.149658,211.713181 145.864639,207.741425 
	C154.546677,207.949249 162.589417,208.026169 170.630768,207.951981 
	C172.436676,207.935318 174.237717,207.390488 176.041000,207.088791 
z"/>
<path fill="#000000" opacity="1.000000" stroke="none" 
	d="
M89.166794,153.695587 
	C97.865562,164.494751 108.100227,172.918076 120.329544,178.542587 
	C126.496437,181.378876 133.306778,182.791931 139.727432,185.120743 
	C141.036514,185.595551 142.727173,187.220001 142.827652,188.431747 
	C143.197906,192.896973 143.037292,197.412674 142.949112,201.906906 
	C142.899200,204.450821 141.800415,205.182388 139.056412,204.573135 
	C126.963737,201.888290 115.170578,197.808884 104.753426,191.517075 
	C92.477615,184.102692 81.208694,175.129272 71.851746,163.678711 
	C62.235439,151.910751 54.528542,139.140091 47.530342,125.841370 
	C45.206661,121.425659 43.936272,116.455681 42.165176,111.687531 
	C71.093063,72.318115 117.158989,57.673302 142.959473,56.312943 
	C142.959473,62.280022 143.084656,68.239067 142.833862,74.182243 
	C142.792969,75.151146 141.226013,76.634720 140.134445,76.887520 
	C132.220627,78.720284 124.003632,79.576935 116.363579,82.163338 
	C109.001999,84.655464 101.991455,88.464798 95.242004,92.406578 
	C88.402290,96.401062 82.072983,101.269043 75.516693,105.749428 
	C68.569893,110.496689 67.011971,114.337135 70.565651,121.952316 
	C75.227959,131.943192 79.370155,142.331253 87.318184,150.443039 
	C88.075867,151.216339 88.394058,152.420227 89.166794,153.695587 
z"/>
<path fill="#000000" opacity="1.000000" stroke="none" 
	d="
M196.623840,126.718994 
	C193.860718,128.702301 191.393860,130.480530 188.769073,132.372589 
	C183.902847,125.372528 179.247070,118.904694 174.835785,112.274200 
	C168.670135,103.006752 159.714401,98.467850 149.053894,97.128479 
	C145.690125,96.705856 144.866531,95.401466 144.963989,92.412582 
	C145.103745,88.126648 144.999619,83.832764 144.999619,79.475906 
	C161.088028,75.983017 175.951736,78.754837 189.831345,86.134163 
	C197.111893,90.004990 203.659042,95.268166 210.473541,99.994629 
	C212.477249,101.384377 214.255432,103.097786 216.149277,104.647812 
	C218.854858,106.862167 218.127274,108.716469 215.741302,110.687218 
	C209.421570,115.907089 203.187973,121.231247 196.623840,126.718994 
z"/>
<path fill="#000000" opacity="1.000000" stroke="none" 
	d="
M104.743645,114.779999 
	C115.950409,105.743820 127.063942,97.380798 142.679688,99.280334 
	C142.679688,120.984909 142.679688,142.586105 142.679688,164.453949 
	C133.269379,160.736755 124.512840,155.880203 118.794182,147.294312 
	C113.122940,138.779648 108.230339,129.742691 103.092079,120.879242 
	C101.807777,118.663841 102.047005,116.514648 104.743645,114.779999 
z"/>
<path fill="#EAF5D2" opacity="1.000000" stroke="none" 
	d="
M175.571686,207.038971 
	C174.237717,207.390488 172.436676,207.935318 170.630768,207.951981 
	C162.589417,208.026169 154.546677,207.949249 146.253418,207.586731 
	C155.702408,207.160721 165.402390,207.074936 175.571686,207.038971 
z"/>
</svg>