<?xml version="1.0" encoding="UTF-8"?>
<svg xmlns="http://www.w3.org/2000/svg" xmlns:xlink="http://www.w3.org/1999/xlink" width="365pt" height="220.4pt" viewBox="0 0 365 220.4" version="1.1">
<defs>
<clipPath id="clip1">
  <path d="M 0 0 L 365 0 L 365 220.398438 L 0 220.398438 Z M 0 0 "/>
</clipPath>
</defs>
<g id="surface1">
<g clip-path="url(#clip1)" clip-rule="nonzero">
<path style=" stroke:none;fill-rule:nonzero;fill:#fff;fill-opacity:1;" d="M 275.820313 139.855469 C 270.945313 143.214844 265.550781 145.230469 259.742188 146.175781 C 253.9375 147.117188 248.171875 146.933594 242.359375 146.933594 C 202.453125 146.933594 162.546875 146.933594 122.640625 146.933594 C 116.824219 146.933594 111.050781 147.117188 105.242188 146.171875 C 99.433594 145.226563 94.03125 143.203125 89.15625 139.84375 C 79.390625 133.109375 73.523438 122.074219 73.53125 110.183594 C 73.535156 98.296875 79.410156 87.273438 89.179688 80.546875 C 94.054688 77.191406 99.449219 75.171875 105.257813 74.230469 C 111.0625 73.289063 116.828125 73.472656 122.640625 73.472656 C 162.546875 73.472656 202.453125 73.472656 242.359375 73.472656 C 248.175781 73.472656 253.949219 73.289063 259.757813 74.230469 C 265.566406 75.175781 270.96875 77.199219 275.84375 80.5625 C 285.609375 87.296875 291.476563 98.332031 291.46875 110.222656 C 291.464844 122.105469 285.589844 133.132813 275.820313 139.855469 Z M 324.089844 24.960938 C 311.230469 14.644531 296.527344 7.515625 280.519531 3.667969 C 271.351563 1.464844 262.183594 0.484375 252.796875 0.175781 C 245.84375 -0.0507813 238.894531 0.0117188 231.941406 0.0117188 C 198.980469 0.0117188 166.019531 0.0117188 133.058594 0.0117188 C 126.105469 0.0117188 119.152344 -0.0507813 112.195313 0.175781 C 102.800781 0.484375 93.628906 1.464844 84.457031 3.671875 C 68.453125 7.523438 53.75 14.652344 40.898438 24.972656 C 15.046875 45.722656 -0.00390625 77.054688 0 110.214844 C 0.00390625 143.371094 15.058594 174.695313 40.910156 195.445313 C 53.769531 205.761719 68.472656 212.890625 84.480469 216.738281 C 93.648438 218.941406 102.816406 219.921875 112.203125 220.226563 C 119.15625 220.457031 126.105469 220.390625 133.058594 220.390625 C 166.019531 220.390625 198.980469 220.390625 231.941406 220.390625 C 238.894531 220.390625 245.847656 220.457031 252.804688 220.226563 C 262.199219 219.921875 271.371094 218.941406 280.542969 216.730469 C 296.546875 212.882813 311.25 205.753906 324.101563 195.433594 C 349.949219 174.679688 365.003906 143.351563 365 110.191406 C 364.996094 77.035156 349.941406 45.707031 324.089844 24.960938 "/>
</g>
</g>
</svg>
