<?xml version="1.0" encoding="UTF-8" standalone="no" ?>
<!DOCTYPE svg PUBLIC "-//W3C//DTD SVG 1.1//EN" "http://www.w3.org/Graphics/SVG/1.1/DTD/svg11.dtd">
<svg xmlns="http://www.w3.org/2000/svg" xmlns:xlink="http://www.w3.org/1999/xlink" version="1.1" width="300" height="300" viewBox="0 0 700 700" xml:space="preserve">
<desc>Created with Fabric.js 4.6.0</desc>
<defs>
</defs>
<g transform="matrix(-1.74 0.43 0.43 1.74 337.91 327.58)" id="U-u9p0hQs1ZnRhC-wN8hC"  >
<path style="stroke: none; stroke-width: 1; stroke-dasharray: none; stroke-linecap: butt; stroke-dashoffset: 0; stroke-linejoin: miter; stroke-miterlimit: 4; fill: rgb(68,68,68); fill-rule: nonzero; opacity: 1;" vector-effect="non-scaling-stroke"  transform=" translate(0, 0)" d="M 134.51678 55.59549 L 35.97331000000001 -154.24891000000002 C 27.87951000000001 -168.98291000000003 9.368310000000012 -174.35391 -5.370689999999989 -166.26091000000002 C -20.10468999999999 -158.15931000000003 -25.48368999999999 -139.65191000000002 -17.38268999999999 -124.91691000000003 L 20.314450000000008 -63.24343000000003 L -30.82408999999999 -131.14391000000003 C -42.722089999999994 -143.03491000000002 -61.984089999999995 -143.03491000000002 -73.88308999999998 -131.14391000000003 C -85.77408999999999 -119.25291000000003 -85.77408999999999 -99.97991000000003 -73.88308999999998 -88.08891000000003 L -49.92608999999998 -64.13191000000003 C -82.89508999999998 -58.18661000000003 -112.50008999999997 -38.283910000000034 -130.11408999999998 -9.186910000000033 C -138.82108999999997 5.2000899999999675 -134.21178999999998 23.915089999999964 -119.83308999999997 32.622089999999965 C -105.44608999999997 41.325189999999964 -86.73108999999997 36.727589999999964 -78.01708999999997 22.341089999999966 C -67.60708999999997 5.134089999999965 -49.39608999999997 -5.142910000000036 -29.310089999999967 -5.142910000000036 C 2.2289100000000346 -5.142910000000036 27.88891000000003 20.490089999999963 27.88891000000003 51.994089999999964 C 27.88891000000003 83.49808999999996 2.228910000000031 109.13508999999996 -29.310089999999967 109.13508999999996 C -49.45808999999997 109.13508999999996 -67.65408999999997 98.88108999999996 -77.97808999999997 81.71708999999996 C -86.64608999999996 67.30708999999996 -105.35708999999997 62.666089999999954 -119.75908999999996 71.33008999999996 C -134.16908999999995 79.99808999999996 -138.81808999999996 98.70908999999996 -130.14608999999996 113.11108999999996 C -109.02908999999995 148.21608999999995 -70.38408999999996 170.02908999999997 -29.306089999999955 170.02908999999997 C -15.736089999999955 170.02908999999997 -2.751089999999955 167.61498999999998 9.396910000000048 163.38068999999996 L 113.71691000000004 163.38068999999996 z" stroke-linecap="round" />
</g>
</svg>