<?xml version="1.0" encoding="UTF-8" standalone="no"?>
<svg
   xml:space="preserve"
   version="1.1"
   x="0px"
   y="0px"
   viewBox="0 0 100 100"
   id="svg8"
   width="100"
   height="100"
   xmlns="http://www.w3.org/2000/svg"
   xmlns:svg="http://www.w3.org/2000/svg"><defs
     id="defs12" /><path
     id="rect9557"
     style="fill:#ffffff;fill-opacity:1;stroke:none;stroke-width:4.86578;stroke-linecap:round;stroke-linejoin:round"
     d="m 12.807213,39.539039 c -4.9701669,0 -8.9714296,4.001263 -8.9714296,8.97143 v 37.145735 c 0,4.970167 4.0012627,8.97143 8.9714296,8.97143 h 40.008246 c 4.970168,0 8.971431,-4.001263 8.971431,-8.97143 V 48.510469 c 0,-4.970167 -4.001263,-8.97143 -8.971431,-8.97143 z m 20.477226,8.131952 h 22.90805 l 0.720008,0.767796 c 1.229346,1.308586 1.548904,5.32911 0.573458,7.206454 -0.178695,0.343901 -5.069542,2.923475 -11.765444,6.206088 -8.624473,4.228081 -11.75008,5.618295 -12.632003,5.618295 -0.882894,0 -3.98928,-1.383839 -12.596959,-5.613515 C 7.6310906,55.536686 8.0672973,55.870183 8.0921153,52.386089 c 0.01566,-2.199271 0.641521,-3.835659 1.68055,-4.391732 0.3988207,-0.213441 8.4016987,-0.323366 23.5117737,-0.323366 z" /><path
     id="rect9557-1"
     style="fill:none;fill-opacity:1;stroke:#ffffff;stroke-width:5.20333;stroke-linecap:round;stroke-linejoin:round;stroke-opacity:1"
     d="m 14.094231,31.915084 c 1.744148,-1.724072 4.156523,-2.787607 6.829436,-2.787607 h 43.032345 c 5.345825,0 9.649503,4.254141 9.649503,9.538432 v 39.492154 c 0,2.642145 -1.075919,5.026753 -2.820067,6.750824" /><path
     id="rect9557-1-4"
     style="fill:none;fill-opacity:1;stroke:#ffffff;stroke-width:5.20333;stroke-linecap:round;stroke-linejoin:round;stroke-opacity:1"
     d="m 26.719528,19.687555 c 1.744148,-1.724072 4.156523,-2.787607 6.829436,-2.787607 H 76.58131 c 5.34582,0 9.6495,4.254141 9.6495,9.538432 v 39.492154 c 0,2.642145 -1.07592,5.026753 -2.82007,6.750824" /><path
     id="rect9557-1-4-8"
     style="fill:none;fill-opacity:1;stroke:#ffffff;stroke-width:5.20333;stroke-linecap:round;stroke-linejoin:round;stroke-opacity:1"
     d="m 37.917193,8.8793752 c 1.744148,-1.724072 4.156523,-2.787607 6.829436,-2.787607 h 43.03235 c 5.34582,0 9.6495,4.2541408 9.6495,9.5384318 v 39.492154 c 0,2.642145 -1.07592,5.026753 -2.82007,6.750824" /></svg>
