<?xml version="1.0" encoding="UTF-8" standalone="no"?>
<svg
   version="1.1"
   x="0px"
   y="0px"
   viewBox="0 0 64 64"
   enable-background="new 0 0 64 64"
   xml:space="preserve"
   id="svg8"
   sodipodi:docname="noun-light-saber-32435.svg"
   width="64"
   height="64"
   xmlns:inkscape="http://www.inkscape.org/namespaces/inkscape"
   xmlns:sodipodi="http://sodipodi.sourceforge.net/DTD/sodipodi-0.dtd"
   xmlns="http://www.w3.org/2000/svg"
   xmlns:svg="http://www.w3.org/2000/svg"><defs
     id="defs12"><style
       id="style391">.cls-1{fill-rule:evenodd;}</style></defs><sodipodi:namedview
     id="namedview10"
     pagecolor="#ffffff"
     bordercolor="#000000"
     borderopacity="0.25"
     inkscape:showpageshadow="2"
     inkscape:pageopacity="0.0"
     inkscape:pagecheckerboard="0"
     inkscape:deskcolor="#d1d1d1"
     showgrid="false" /><path
     d="m 62.963329,15.411097 c 0.208305,-0.919705 0.04533,-1.866084 -0.457635,-2.66492 -1.00593,-1.597672 -3.27611,-2.108771 -4.871611,-1.103374 l -33.850848,21.34784 c -0.358277,-0.183679 -0.793284,-0.196077 -1.158344,0.03499 L 2.3745376,45.796901 c -1.1004977,0.69405 -1.42963226,2.147243 -0.7355827,3.247741 l 1.8835203,2.987869 c 0.6940496,1.100498 2.1482181,1.429853 3.2477405,0.735583 L 27.020569,39.996827 c 0.365814,-0.229872 0.540866,-0.627014 0.530461,-1.029249 l 33.85129,-21.34979 c 0.797861,-0.503186 1.352705,-1.286985 1.561009,-2.206691 z M 60.774658,16.622555 27.075284,37.876536 24.562592,33.891042 58.262721,12.638257 c 0.531109,-0.334955 1.162826,-0.444108 1.776288,-0.305164 0.613462,0.138943 1.135523,0.509416 1.471452,1.040746 0.334734,0.532085 0.443132,1.162606 0.304189,1.776068 -0.138944,0.613462 -0.508662,1.136718 -1.039992,1.472648 z"
     id="path2"
     sodipodi:nodetypes="sscccsccccccsccccscsc"
     style="fill:#ffffff;fill-opacity:1" /><path
     id="path397"
     style="fill:#ffffff;fill-opacity:1;stroke-width:0.903566"
     class="cls-1"
     d="M 12.795734,18.020672 1.4422183,31.555828 h 5.9746094 c 0.5559137,0 1.0078124,0.449946 1.0078124,1.00586 v 7.423828 l 8.7441409,-5.246094 v -2.177734 c 0,-0.555914 0.449945,-1.00586 1.005859,-1.00586 h 5.976563 z m 4.373047,30.419922 c -11.1861981,-32.553385 -5.593099,-16.276693 0,0 z m 0,0 -8.1308596,4.876953 C 8.840441,53.436034 8.634052,53.525037 8.4246401,53.590985 v 2.005859 c 0.0014,0.273848 0.2222461,0.494612 0.4960938,0.496094 h 7.7500001 c 0.273848,-0.0014 0.496565,-0.222246 0.498047,-0.496094 z"
     sodipodi:nodetypes="ccssccsscccccccccccc" /><path
     class="cls-1"
     d="m 22.190329,21.85988 h 5.4825 c 0.510069,0 0.923561,0.413492 0.923561,0.92356 v 21.134112 c 0.0013,0.251263 0.204713,0.454617 0.455976,0.455976 h 7.111582 c 0.251264,-0.0013 0.454617,-0.204713 0.455976,-0.455976 V 22.78344 c 0,-0.510068 0.413493,-0.92356 0.923561,-0.92356 h 5.4825 L 32.608157,9.4407274 Z"
     id="path397-7"
     sodipodi:nodetypes="cssccccssccc"
     style="fill:#ffffff;fill-opacity:1;fill-rule:evenodd;stroke-width:0.829049" /><path
     id="path397-7-4"
     style="fill:#ffffff;fill-opacity:1;fill-rule:evenodd;stroke-width:0.671248"
     class="cls-1"
     d="M 51.115234,3.0507812 42.679688,13.107422 h 4.439453 c 0.412982,0 0.748047,0.333113 0.748047,0.746094 v 2.414062 l 8.533203,-5.425781 c 0.282003,-0.179356 0.57198,-0.328463 0.867187,-0.455078 z m 3.248047,20.6679688 -6.496093,4.130859 v 3.115235 c 9.99e-4,0.203438 0.165702,0.369993 0.36914,0.371094 h 5.757813 c 0.203437,-10e-4 0.368039,-0.167656 0.36914,-0.371094 z" /></svg>
