<?xml version="1.0" standalone="yes"?>
<svg xmlns="http://www.w3.org/2000/svg" width="400" height="400">
<path style="fill:#fafafa; stroke:none;" d="M112 144C176.888 144 245.897 144.014 304.946 174.089C325.821 184.721 342.131 200.935 356.535 219C359.368 222.553 359.041 240.364 364.188 240.364C368.438 240.364 371.327 233.202 372.648 230C376.998 219.456 384.579 184.323 364 194C359.607 176.315 342.194 158.033 329.455 145.69C290.81 108.245 238.615 84.2927 185 79.1698C151.41 75.9602 101.973 106.1 112 144M60 307C75.474 308.349 90.4267 314.323 106 315.83C120.831 317.265 135.326 314.605 150 313.961C169.126 313.121 188.908 305.389 207 300.304C238.728 291.387 270.735 264.855 263.514 229C262.727 225.09 263.158 221.032 261.166 217.428C256.83 209.584 250.093 202.156 243.17 196.568C232.797 188.196 217.441 185.191 205 181.114C168.06 169.01 130.914 165 92 165C77.0436 165 53.5937 162.278 41.0394 172.314C31.1357 180.232 37.9213 185.211 36.571 195C35.5023 202.748 31.075 207.347 29.3171 214.054C27.5051 220.967 29.2513 230.208 30.8981 237C34.5504 252.062 36.3451 265.76 43.3032 280C47.9166 289.441 55.8582 297.454 60 307z"/>
<path style="fill:#141414; stroke:none;" d="M160.019 183.533C142.155 187.995 148.083 216.875 166.83 212.722C186.684 208.324 179.586 178.646 160.019 183.533M52 284C52.561 292.373 60.4416 302.746 69 304L58 284L52 284M150 305C149.973 295.374 136.083 273.201 125.032 286.318C118.937 293.553 127.476 305.775 135.174 307.697C140.341 308.987 145.244 306.582 150 305z"/>
</svg>
