<?xml version="1.0" standalone="yes"?>
<svg xmlns="http://www.w3.org/2000/svg" width="400" height="400">
<path style="fill:#fafafa; stroke:none;" d="M120 138C180.611 138 246.712 137.358 301 168.15C324.577 181.522 348.757 200.046 350 229C356.074 228.52 358.016 224.023 360.59 219C367.006 206.476 365.923 196.106 363 183L353 185L338 158C331.759 154.64 327.901 146.646 322.947 141.59C313.917 132.372 303.639 123.507 293.3 115.799C285.847 110.243 277.164 107.323 269 103.1C242.071 89.1693 203.096 73.1685 172 78.2593C154.226 81.169 140.251 91.5699 128.78 105.054C125.256 109.197 120.109 113.635 118.573 119C116.741 125.394 119.079 131.733 120 138M88 157.424C76.7074 158.907 59.6164 156.966 51.0193 166.415C45.6272 172.342 49.0008 185.71 47.8673 194C47.3598 197.712 44.6407 200.426 44.1335 204.09C40.5199 230.186 50.4035 270.116 70.76 287.891C76.1544 292.602 85.3089 292.848 92 294.441C112.948 299.427 135.843 298.731 157 295.791C187.279 291.584 223.693 283.292 245.505 260.43C262.099 243.036 268.884 218.361 251.943 198.095C241.769 185.925 226.382 180.38 212 175C174.796 161.082 127.887 152.187 88 157.424z"/>
<path style="fill:#141414; stroke:none;" d="M164 174.533C146.248 178.389 151.824 205.117 169 201.62C187.274 197.9 182.09 170.604 164 174.533M63 268C64.8251 275.935 71.8108 286.035 80 288C79.7192 278.543 72.9335 275.353 69 268L63 268M134.465 268.854C120.433 275.573 138.465 295.806 149.671 289.91C162.221 283.307 144.853 263.88 134.465 268.854z"/>
</svg>
