<?xml version="1.0" encoding="UTF-8" standalone="no"?>
<svg
   viewBox="0 0 32 32"
   x="0px"
   y="0px"
   version="1.1"
   id="svg6151"
   width="32"
   height="32"
   xml:space="preserve"
   xmlns="http://www.w3.org/2000/svg"
   xmlns:svg="http://www.w3.org/2000/svg"><defs
     id="defs6155" /><g
     data-name="Layer 2"
     id="g6145"
     transform="matrix(0.81795728,0,0,0.81795728,-0.63232982,-10.526602)"
     style="fill:#ffffff;fill-opacity:1"><path
       id="path6143"
       style="fill:#ffffff;fill-opacity:1;stroke-width:1.36515"
       d="m 35.026167,26.140816 c -0.385439,0.0078 -0.775314,0.05951 -1.165251,0.15282 0.04833,0.0465 0.09311,0.09665 0.13133,0.155207 0.09052,0.139062 0.138332,0.296498 0.145656,0.451296 v 0.0024 c 0.0952,1.463397 -0.200128,2.931297 -0.854835,4.243135 -0.635847,1.2764 -1.608953,2.403825 -2.88686,3.23548 -0.06864,0.04475 -0.140658,0.07932 -0.210127,0.121778 2.919574,3.314795 8.139751,3.936725 9.257532,-1.411195 0.117743,-1.303246 0.120661,-1.663298 0,-3.008638 -0.592017,-2.832474 -2.423003,-3.982782 -4.417445,-3.942271 z m -27.6985741,0.01671 c -1.9443665,-0.0543 -3.6988751,1.071592 -4.2908911,3.904066 l -0.5993399,0.02149 c -1.65097349,0.05791 -1.65097349,3.066546 0,3.008638 l 0.5993399,-0.02149 c 0.8638943,4.133264 4.2118124,4.929076 7.0034412,3.428892 l 5.747454,-6.404101 c -1.048374,0.0047 -1.963317,0.01282 -2.533464,0.03104 -1.274552,-2.329077 -3.7229248,-3.906996 -5.9265401,-3.968537 z" /></g><path
     d="m 26.060023,11.796238 c 0.06322,0.967532 -0.131843,1.937418 -0.564707,2.804749 -0.420166,0.843443 -1.062805,1.589474 -1.907244,2.13903 -0.636321,0.414853 -1.328308,0.680352 -2.033057,0.804697 -0.613459,0.10818 -1.236078,0.109931 -1.839847,0.0098 l -5.765227,6.425303 c -0.0096,0.01001 -0.0189,0.0207 -0.02844,0.03068 -0.617273,0.671913 -1.449626,1.036296 -2.298055,1.081941 -0.862602,0.04685 -1.7425789,-0.233998 -2.4329926,-0.852905 -0.010014,-0.0096 -0.020703,-0.0189 -0.02989,-0.0287 C 8.4889002,23.594389 8.1242656,22.761267 8.0786217,21.912839 8.0314916,21.052028 8.3136401,20.170778 8.9346292,19.47883 l 6.2140068,-6.924986 c -0.06703,-0.929542 0.105948,-1.862298 0.498125,-2.7050807 0.417911,-0.897413 1.082169,-1.692395 1.970665,-2.2717371 0.843707,-0.5493164 1.785055,-0.8364699 2.726193,-0.8808201 0.97257,-0.045188 1.943884,0.1699073 2.80675,0.6230523 0.291011,0.1527855 0.403244,0.5118967 0.249935,0.8039329 -0.04887,0.09375 -0.119441,0.168124 -0.202494,0.222622 l 4.87e-4,0.0015 -2.617316,1.7060367 0.102078,2.054178 1.839518,0.922931 2.617314,-1.706038 c 0.275723,-0.17902 0.644781,-0.101331 0.824567,0.174144 0.06011,0.09235 0.09137,0.195809 0.09597,0.298602 z"
     id="path6274"
     style="fill:#ffffff;fill-opacity:1;stroke-width:0.20801" /></svg>
