<?xml version="1.0" encoding="UTF-8" standalone="no"?>
<svg
   version="1.1"
   id="Layer_1"
   x="0px"
   y="0px"
   viewBox="0 0 128 128"
   xml:space="preserve"
   width="128"
   height="128"
   xmlns="http://www.w3.org/2000/svg"
   xmlns:svg="http://www.w3.org/2000/svg"><defs
   id="defs11" />
<style
   type="text/css"
   id="style2">.st0{fill:white;fill-rule:evenodd;clip-rule:evenodd;}</style><g
   id="g6"
   style="fill:#ffffff;fill-opacity:1"
   transform="translate(2.5145473,15.446505)"><path
     class="st0"
     d="m 99.72,7.22 c 1.48,0 2.68,1.2 2.68,2.67 0,1.48 -1.2,2.67 -2.68,2.67 -1.48,0 -2.67,-1.2 -2.67,-2.67 0,-1.48 1.2,-2.67 2.67,-2.67 z m -8.8,66.39 c -0.6,-0.98 -1.21,-2.05 -1.77,-3.17 -1.09,-2.18 -1.98,-4.48 -2.22,-6.41 -0.04,-0.38 -0.39,-0.65 -0.76,-0.6 -0.38,0.04 -0.65,0.39 -0.6,0.76 0.25,2.1 1.2,4.56 2.36,6.87 0.94,1.88 2.04,3.67 3.01,5.08 2.69,5.77 6.33,10.18 11.1,12.93 -9.78,2.93 -18.52,1.13 -25.26,-6.34 -0.01,-0.05 -0.02,-0.1 -0.04,-0.16 -0.98,-2.65 -2.45,-5.04 -4.06,-7 -1.93,-2.36 -4.07,-4.11 -5.79,-4.99 -0.34,-0.17 -0.75,-0.04 -0.92,0.3 -0.17,0.34 -0.04,0.75 0.3,0.92 1.57,0.8 3.55,2.43 5.35,4.63 1.06,1.29 2.05,2.77 2.87,4.4 -16.86,1.74 -34.85,1.71 -53.62,0.6 2.62,4.19 5.61,7.71 8.81,10.71 C 16.44,92.92 3.4,88 0.36,80.09 -2.02,73.91 8.08,63.81 12.72,60.33 28.99,48.11 32.75,54.13 49.9,49.43 66.3,44.94 72.66,38.51 79.05,22.52 81.88,15.44 82.4,6.19 89.29,1.97 90.69,1.11 92.3,0.51 94.15,0.2 c 5.86,-0.97 7.56,1.93 13.06,3.32 0.93,0.23 1.84,0.41 2.75,0.53 2.63,0.34 7.24,-0.81 8.4,1.79 1.35,3.03 -3.19,8.9 -7.62,11.57 -2.05,1.24 -4.92,1.52 -5.55,4.28 -1.02,4.41 6.08,21.85 -0.31,36.38 -1.1,2.5 -2.52,4.8 -4.22,6.95 v 0 c 5.16,11.47 13.69,17.71 22.22,19.3 -9.05,1.65 -25.79,1.33 -31.96,-10.71 z"
     id="path4"
     style="fill:#ffffff;fill-opacity:1" /></g></svg>
