<?xml version="1.0" encoding="UTF-8" standalone="no"?>
<svg
   version="1.1"
   id="svg2"
   xml:space="preserve"
   width="2500"
   height="2500"
   viewBox="0 0 2500 2500"
   xmlns="http://www.w3.org/2000/svg"
   xmlns:svg="http://www.w3.org/2000/svg"><defs
     id="defs6" /><path
     d="m 1029.9332,72.096382 c -0.6022,0.36014 -5.7854,1.92879 -11.4508,3.73655 -20.12935,6.26758 -30.0135,12.89733 -50.26329,33.388298 -19.64719,19.76867 -36.88429,45.44228 -48.09392,71.71915 -3.61599,8.43748 -7.71412,17.71881 -9.04028,20.49095 -1.20544,2.89271 -2.28984,5.66535 -2.28984,6.14705 0,0.60325 -0.72331,2.6521 -1.68781,4.5809 -2.04877,4.09819 -13.74112,44.59793 -17.35711,60.14736 -1.44663,5.90593 -3.37493,16.75443 -4.4599,24.10746 -1.08486,7.2315 -3.01315,20.24988 -4.33919,28.92796 -3.73659,25.19242 -5.18321,70.27255 -3.616,116.67923 0.7232,22.05763 1.80818,43.27188 2.53103,47.24952 0.60272,3.97766 1.68769,12.05399 2.29042,18.08048 2.89268,26.75906 5.18309,43.27239 7.9553,56.04867 1.68769,7.59414 4.45978,20.12982 6.14748,27.72346 1.68722,7.59414 3.73658,17.95992 4.70096,22.90147 4.09824,20.97366 3.49552,18.92432 12.41519,48.81718 2.65162,8.55853 5.90595,20.00927 7.47306,25.31296 6.87033,23.8664 8.43743,28.56678 19.28542,57.85639 2.65218,7.11196 15.18786,39.41577 17.35723,44.59898 0.8439,1.9283 2.77266,6.62926 4.33976,10.24572 6.02654,14.70503 26.75858,55.92805 36.52214,72.56243 30.61615,52.19199 51.95115,82.08449 85.21885,119.08929 26.2768,29.17006 47.9734,49.90206 73.5269,70.15196 26.3974,20.8526 71.7186,52.5537 86.7858,60.8706 3.616,1.9284 12.2947,6.991 19.2859,11.2097 6.991,4.2187 24.3477,13.6207 38.571,20.8526 53.036,26.8796 55.2054,28.4468 84.496,58.2186 22.6603,23.1431 38.5714,40.9824 49.9017,55.9287 5.3036,6.9914 13.1383,16.9958 17.4776,22.4202 12.4151,15.1873 22.1787,29.1691 26.8797,38.5713 4.5803,9.1603 10.1246,26.2765 11.6917,36.0405 0.6029,3.2538 1.8078,9.7626 2.7722,14.464 2.2905,10.6074 5.6654,28.0846 6.9914,36.7632 0.4802,3.6159 1.5667,9.8841 2.29,13.8618 1.6876,9.0402 3.3754,32.3033 4.3392,58.8213 0.9645,23.9868 -0.1201,39.1741 -6.8703,93.5361 -2.2904,18.4416 -7.9552,41.9463 -14.3439,59.1829 -2.0489,5.6649 -4.4599,12.4151 -5.3033,15.0668 -1.9287,5.9064 -8.7996,23.9869 -11.0895,29.1696 -0.9644,2.0497 -1.6878,4.0987 -1.6878,4.5803 0,0.3602 -1.0848,3.0133 -2.2898,5.7854 -1.3262,2.7727 -3.9776,9.4024 -6.1476,14.7056 -4.0982,10.4867 -6.8703,15.9111 -16.5133,32.9066 -3.4954,6.147 -6.3882,11.4508 -6.3882,11.6918 0,0.3601 -5.0625,7.232 -11.2101,15.3083 -6.147,8.1964 -16.2722,21.576 -22.5397,29.8929 -6.1477,8.317 -13.9823,18.5627 -17.2373,22.9014 -3.2543,4.3393 -9.8835,11.9335 -14.705,17.1162 l -8.9197,9.1608 -7.5941,-1.5667 c -4.2183,-0.9644 -15.1873,-3.1343 -24.4682,-4.8215 -9.2813,-1.6877 -20.6115,-3.8571 -25.3124,-4.8214 -4.5809,-0.9645 -16.0316,-2.8927 -25.313,-4.2188 -9.2813,-1.4466 -21.6965,-3.3749 -27.7229,-4.2188 -5.9064,-0.9644 -14.344,-2.0494 -18.6833,-2.4105 -4.3393,-0.4802 -11.089,-1.326 -15.0667,-1.9287 -10.4868,-1.5667 -55.8086,-5.5449 -87.9913,-7.7143 -15.1873,-0.9644 -33.9911,-2.2904 -41.5847,-3.0137 -7.5936,-0.6023 -27.9645,-1.6872 -45.2013,-2.4105 -17.2366,-0.7233 -40.2586,-1.8078 -51.22773,-2.4105 -37.48643,-2.1699 -73.04468,-2.7727 -155.49129,-2.5316 -86.30367,0.1201 -113.06271,0.6027 -139.21903,2.5316 -8.55802,0.6027 -27.36131,1.6872 -41.58468,2.4105 -40.98194,1.9282 -63.04002,3.616 -83.77206,6.1476 -10.60749,1.3255 -26.27692,3.1338 -34.95553,4.0981 -8.55802,0.9639 -16.99545,2.0489 -18.68314,2.4106 -1.68771,0.3601 -10.00466,1.446 -18.68281,2.4109 -21.93749,2.4105 -41.46467,5.1827 -46.40669,6.5087 -2.28996,0.7234 -7.9553,2.2904 -12.65616,3.616 -4.58037,1.3261 -18.20101,4.9421 -30.13396,7.8347 -37.48655,9.2814 -42.54906,11.0896 -54.84366,18.6832 -23.8659,14.9468 -51.34826,40.8615 -65.93329,62.1968 -6.2676,9.2809 -17.4777,35.4377 -21.33476,50.0222 -3.85717,14.9466 -6.02654,34.1115 -5.3038,48.3345 0.60284,11.21 2.77266,18.5626 10.3663,34.8353 7.83483,16.7545 25.43301,32.424 60.62961,53.8793 10.12512,6.2681 39.53578,20.9733 48.69663,24.348 3.97766,1.5672 8.31697,3.2549 9.64243,3.737 3.01384,1.3256 16.39331,4.7006 22.90198,5.906 2.65161,0.4803 8.07589,1.8078 12.05354,2.7722 3.97765,1.0854 13.9823,3.1343 22.29914,4.5804 14.58503,2.5316 28.3258,5.4243 44.47793,9.2813 4.21872,0.9645 10.24526,2.2905 13.25899,2.7721 3.01327,0.6029 10.96858,2.17 17.59772,3.496 16.5139,3.3749 24.22802,4.4599 59.06295,7.9553 16.63392,1.6877 33.99103,3.616 38.57141,4.2187 4.70096,0.6028 14.70561,1.6877 22.29926,2.4106 7.59364,0.7233 17.11605,1.8082 21.0937,2.4109 13.98183,2.2905 42.42857,5.0627 60.26793,6.0265 17.23664,0.9649 98.83935,4.4599 155.49129,6.6297 46.64729,1.8084 77.38399,2.17 169.35268,2.29 85.3391,0.1201 111.1338,-0.2401 118.728,-1.4465 8.9191,-1.4462 14.5844,-2.29 47.6117,-6.8704 6.2676,-0.8439 16.3927,-2.6515 22.2992,-3.9776 6.0265,-1.326 16.2722,-3.4955 22.9015,-4.942 6.6297,-1.3256 16.1516,-3.4955 21.0936,-4.9416 4.9421,-1.3266 12.8974,-3.496 17.4777,-4.7009 23.2637,-6.2681 39.5359,-11.813 47.8529,-16.3934 1.6877,-0.9639 3.7365,-1.8077 4.5804,-1.8077 0.8437,0 3.1343,-0.7233 5.1831,-1.6877 13.6202,-5.9059 18.8037,-7.9553 19.7677,-7.9553 1.2055,0 8.6785,-4.3393 40.5002,-23.6253 21.6964,-13.0174 20.7321,-12.4146 35.3171,-22.9014 6.6292,-4.701 14.2229,-10.1247 16.8749,-12.054 6.5087,-4.4598 28.808,-22.7809 31.8213,-26.0353 2.1698,-2.4105 2.7721,-2.4105 21.3353,-1.2055 10.4864,0.7233 31.8211,2.1694 47.3701,3.1339 15.5488,1.0849 37.848,2.5314 49.4199,3.3749 32.7855,2.1698 136.4463,-0.8435 168.1475,-4.9416 5.3032,-0.7233 14.585,-1.8082 20.4909,-2.5316 9.1609,-0.9638 39.4149,-5.3031 55.6876,-7.8347 2.5314,-0.3602 8.0763,-1.2054 12.4156,-1.9283 11.0886,-1.6877 18.5621,-3.2548 28.928,-5.9064 4.942,-1.3261 14.7054,-3.616 21.6968,-5.3037 6.9905,-1.5672 16.7546,-4.0982 21.6961,-5.4243 4.9425,-1.3256 12.2951,-3.2544 16.2722,-4.3387 3.9782,-0.965 8.0763,-2.17 9.0403,-2.6522 0.9643,-0.3601 13.259,-4.7009 27.1207,-9.5225 33.991,-11.6912 34.3526,-11.9328 48.2143,-18.5621 6.6298,-3.1342 14.8257,-6.9914 18.0806,-8.4379 20.732,-9.2809 80.5177,-46.7675 95.2233,-59.6652 2.0488,-1.8077 6.2676,-5.4237 9.522,-8.1964 5.6653,-4.942 22.0581,-21.4553 35.9198,-36.4016 8.558,-9.2813 26.638,-32.9066 29.7729,-38.8125 1.3249,-2.5315 4.8214,-8.4375 7.9547,-13.0178 6.8709,-10.6075 17.2371,-31.4596 23.0225,-46.4063 4.2188,-10.9691 5.7854,-16.1521 9.5225,-29.5317 0.8437,-3.3748 2.7727,-10.3657 4.2187,-15.6694 8.9197,-32.1829 9.4019,-35.5583 10.9686,-69.3083 2.5314,-56.5313 2.5314,-60.2678 1.2054,-71.9596 -1.8077,-14.9468 -2.5315,-19.165 -8.4375,-51.5894 -1.326,-7.3525 -3.616,-20.3709 -4.942,-28.9289 -8.558,-51.2272 -13.1385,-70.2721 -27.1202,-112.0978 -22.1787,-66.4155 -31.7011,-91.728 -47.6121,-125.3574 -21.9372,-46.4066 -31.4596,-64.7277 -56.5315,-108.2412 -6.3881,-11.0892 -14.5845,-25.433 -18.2005,-31.9423 -3.6159,-6.5086 -8.0758,-13.8617 -9.7635,-16.5133 -6.2681,-9.5219 -25.1919,-48.4549 -27.964,-57.3747 -2.4111,-7.594 -2.7722,-10.969 -2.2905,-18.6833 l 0.6027,-9.5223 9.7635,-9.2813 c 11.8125,-11.4508 11.4509,-12.8969 -2.5314,-9.5225 -15.7901,3.7365 -19.7677,6.0271 -25.9147,14.7055 -3.0133,4.2189 -7.4737,11.933 -10.0052,16.9956 -4.5799,9.4019 -4.5799,9.4019 -3.7361,20.491 0.8434,12.1745 1.205,13.8617 10.1247,38.933 6.1475,17.4777 8.3169,22.7815 17.7189,43.9957 3.0131,6.9914 7.7141,17.96 10.2451,24.3482 2.6522,6.5091 7.112,16.7544 10.0047,22.9019 6.8709,14.4645 8.3174,17.8394 12.2946,28.0851 3.857,10.3657 6.3891,16.5128 9.1607,23.022 2.2905,5.1831 7.1116,18.8038 16.8751,47.4911 3.3749,9.643 6.5091,18.5627 7.1119,19.8882 1.6872,3.8577 5.5442,17.1167 8.4375,28.9291 1.4465,5.9064 3.4954,13.8612 4.5799,17.4776 0.9644,3.616 2.2904,8.7987 2.7726,11.4508 0.6027,2.6515 3.4959,15.4289 6.3886,28.3256 3.0133,12.898 6.3882,27.2419 7.3527,31.9423 1.0849,4.5804 2.893,13.259 4.2187,19.2859 2.6516,11.6919 5.3036,41.5848 10.8484,118.6071 1.3255,18.6833 0.4803,30.9777 -3.6165,57.9775 -0.7228,4.3398 -2.0489,14.3439 -3.0132,22.2991 -0.9644,7.9554 -2.5311,17.719 -3.4954,21.697 -4.5804,18.2006 -20.6116,54.1199 -31.2189,69.9105 -11.5714,17.2366 -34.3523,41.344 -51.3484,54.3614 -35.4375,27.0001 -93.0539,55.9287 -135.1203,67.5004 -3.616,1.0845 -10.1251,2.8927 -14.4648,4.0981 -4.3394,1.2056 -11.933,3.3749 -16.8746,4.701 -16.5133,4.7005 -50.5043,10.9691 -78.3483,14.585 -5.6654,0.7228 -13.7413,1.8079 -18.0806,2.4106 -4.3393,0.6027 -13.7411,1.6877 -21.0937,2.4105 -7.232,0.7233 -16.7544,1.9288 -21.0937,2.6521 -7.4731,1.3255 -75.3351,0.8438 -133.7947,-0.9645 -24.5898,-0.7232 -30.134,-1.2054 -30.134,-3.0137 0,-0.6023 3.4954,-6.3881 7.7141,-12.8974 4.0987,-6.3881 9.643,-15.5488 12.174,-20.1293 2.5316,-4.7008 7.7143,-14.1028 11.5719,-21.0937 3.8566,-6.9909 8.6785,-16.7544 10.7274,-21.6963 2.1699,-4.9416 5.3037,-12.2947 7.1119,-16.2723 10.6068,-23.0225 26.1564,-64.1251 33.75,-88.9553 2.0488,-6.5087 4.4598,-13.5001 5.5443,-15.67 1.5672,-3.4954 3.6165,-10.9685 6.7502,-24.348 0.6022,-2.6522 1.5667,-6.9914 2.2906,-9.6431 3.3748,-12.7767 4.9414,-20.1293 6.147,-28.9284 0.7233,-5.3036 2.2899,-15.6695 3.4954,-22.9019 3.3749,-19.7677 4.4599,-28.5669 8.4375,-72.3214 1.5672,-16.6339 1.5672,-69.1876 0,-91.6069 -0.6027,-9.2814 -1.205,-21.3353 -1.326,-26.7591 -0.1201,-5.4247 -0.9645,-13.7412 -1.8079,-18.4421 -0.9643,-4.7015 -2.5314,-13.7411 -3.4959,-20.2498 -4.0977,-25.5541 -11.8124,-61.1119 -15.9101,-73.7681 -0.9643,-3.0136 -2.1698,-7.5936 -2.7726,-10.2457 -3.7365,-17.5983 -6.3886,-25.7946 -17.4778,-54.2409 -10.3657,-26.3975 -34.4732,-64.005 -61.3527,-95.585 -4.701,-5.5448 -11.2096,-13.5002 -14.5845,-17.7189 -11.8124,-14.8256 -25.0714,-30.2544 -34.835,-40.2591 -10.728,-11.0891 -47.6117,-45.4419 -51.7104,-48.2144 -2.4099,-1.5667 -16.1516,-13.1379 -19.8876,-16.6339 -0.9645,-0.8439 -4.2188,-3.2543 -7.2327,-5.4243 -3.1337,-2.0488 -9.7634,-6.8698 -14.705,-10.7273 -15.9111,-12.0536 -39.8974,-25.79466 -62.0761,-35.43766 -2.6521,-1.205 -6.3882,-2.7722 -8.4375,-3.7366 -1.9288,-0.8438 -9.0402,-3.7365 -15.6695,-6.5087 -6.6297,-2.7721 -14.4645,-6.027 -17.4776,-7.2319 -3.0139,-1.206 -9.1609,-3.7371 -13.8618,-5.4243 -4.5805,-1.8082 -10.8485,-4.5804 -13.8618,-6.1471 -3.0137,-1.447 -14.9467,-7.353 -26.5179,-13.0184 -11.5714,-5.6649 -23.5042,-11.8123 -26.518,-13.4996 -3.0132,-1.8081 -7.3525,-4.3393 -9.6429,-5.6653 -2.29,-1.2055 -8.6787,-5.4242 -14.1025,-9.1608 -5.4241,-3.7366 -11.6922,-7.7142 -13.8617,-8.7991 -7.5936,-4.0982 -26.7591,-17.59825 -37.0048,-26.27686 -52.5531,-44.11628 -97.9955,-103.17866 -130.6604,-169.95527 -19.0448,-39.0536 -22.5403,-47.00889 -32.4239,-74.73234 -16.0316,-44.7185 -17.3576,-48.93775 -23.2636,-74.12964 -1.6876,-7.35255 -4.7009,-19.28548 -6.5092,-26.63802 -1.9284,-7.4736 -3.8571,-16.15218 -4.3393,-19.28598 -0.9645,-6.87083 -5.906,-36.40204 -7.8343,-46.52722 -0.7238,-3.8571 -1.8081,-14.34343 -2.4108,-23.50372 -0.6029,-9.16079 -1.8084,-22.66137 -2.5312,-29.89285 -1.8082,-18.08098 -0.7234,-81.24208 1.8078,-99.80426 2.4104,-18.56217 3.8571,-23.86587 6.1475,-23.02202 0.9643,0.4802 1.8078,1.205 1.8078,1.68669 0,1.68821 14.1028,22.17968 20.0092,29.04951 3.2544,3.8576 11.0891,11.21015 17.4772,16.63388 6.3887,5.30369 14.344,12.17453 17.4777,15.30833 3.2544,3.1343 7.2326,6.5087 8.9197,7.47359 3.0138,1.92829 24.9513,17.95943 37.366,27.24076 6.7503,5.06209 16.996,12.17403 25.4335,17.59828 2.531,1.68719 8.4375,5.66483 13.0173,8.79913 12.4157,8.4375 27.3624,16.03113 36.0404,18.20102 10.4869,2.6516 19.5271,2.41051 31.5807,-0.72329 9.0401,-2.411 10.9684,-3.3754 16.0315,-8.43749 9.5219,-9.52244 10.7274,-14.70558 8.5576,-37.24589 -0.8434,-9.28085 -2.1694,-18.68273 -2.7721,-20.85262 -0.6028,-2.04885 -1.8083,-8.91919 -2.5311,-15.18729 -0.7233,-6.26759 -2.0493,-17.71882 -3.0138,-25.43301 -0.8438,-7.59364 -2.6515,-15.91108 -3.7365,-18.32158 -1.9288,-3.97764 -1.9288,-5.30318 -0.6027,-10.84847 2.4109,-10.12469 7.2324,-37.24491 7.353,-40.98195 0,-0.60325 2.8927,-0.60325 6.3881,-0.2401 7.8348,0.9639 8.9197,0 13.3796,-13.25897 3.0131,-8.55855 3.3748,-11.69234 3.857,-30.73621 0.2402,-11.57177 0.9645,-23.26411 1.6878,-25.91572 2.7721,-11.33018 0.12,-21.33481 -8.0764,-31.09835 -3.2544,-3.73654 -7.1114,-8.43748 -8.678,-10.60738 -3.6166,-4.70095 -6.8709,-5.90594 -18.9244,-6.99088 -7.5936,-0.72281 -10.7275,-1.68721 -14.4645,-4.21876 -2.531,-1.80775 -8.4375,-4.33928 -13.0178,-5.78589 -9.5226,-2.89269 -17.5983,-2.53055 -39.897,1.56715 -25.554,4.70045 -33.871,4.5809 -56.6523,-1.32605 -4.58,-1.20499 -11.8125,-2.65159 -16.0308,-3.13379 -7.5941,-0.84384 -7.5941,-0.84384 -13.259,-8.19639 -8.3168,-11.08959 -19.2859,-22.178668 -26.7591,-27.241258 -3.616,-2.41099 -11.8123,-6.50869 -18.0804,-9.04023 -10.1252,-4.09819 -12.7767,-4.70045 -23.5047,-4.94154 -6.6292,-0.24011 -12.5357,-0.24011 -13.259,0 z M 1261.9651,256.5166 c 0,0.84335 1.4461,3.13381 3.1338,4.94206 3.0132,3.37438 3.1337,3.49494 1.8077,13.13792 -2.0488,15.42887 -3.0132,19.40652 -4.9415,19.64713 -3.4955,0.7233 -12.0534,-16.99503 -12.0534,-24.70972 0,-2.89269 2.8925,-7.95579 7.5936,-13.13843 2.4105,-2.77164 4.4598,-2.6516 4.4598,0.12005 z"
     id="path181"
     style="fill:#ffffff;fill-opacity:1;stroke-width:5.00207;stroke-linejoin:miter" /></svg>
