<?xml version="1.0" encoding="UTF-8" standalone="no"?>
<svg
   width="27.67"
   height="16"
   viewBox="0 0 27.67 16"
   fill="none"
   version="1.1"
   id="svg40"
   xmlns="http://www.w3.org/2000/svg"
   xmlns:svg="http://www.w3.org/2000/svg">
  <defs
     id="defs44" />
  <path
     d="m 21.357402,11.8291 2.6597,-8.6838 -2.1003,0.02279 0.5935,-1.92592 c 1.2557,0 2.2374,-0.467241 2.4771,-1.24217 h 2.6825 l -3.6299,11.8291 z"
     fill="#ffffff"
     id="path30" />
  <path
     d="M 2.3514,1e-6 7.4768,8.87749 10.364802,3.90883 c 0.194,-0.33048 0.5365,-0.51282 0.8903,-0.51282 h 6.0157 c 1.8493,0 3.0364,0.90029 3.5729,2.06268 0.2055,0.45584 0.3082,0.95726 0.3082,1.45869 0,0.50142 -0.1027,1.00285 -0.3196,1.45869 -0.5479,1.18518 -1.7579,2.11963 -3.5957,2.11963 h -1.4497 L 18.948802,16 h -2.3514 l -3.4131,-5.9373 c -0.1256,-0.15957 -0.1941,-0.3647 -0.1941,-0.59262 0,-0.5584 0.4566,-1.02564 1.0274,-1.02564 h 3.219 c 0.9246,0 1.4954,-0.39886 1.7351,-0.92307 0.0913,-0.19373 0.137,-0.39886 0.137,-0.61539 0,-0.20513 -0.0457,-0.41025 -0.1256,-0.59259 -0.2283,-0.49003 -0.7876,-0.8661 -1.7123,-0.8661 h -5.4335 L 8.3557,11.4302 C 8.2644,11.5783 8.1388,11.7037 7.979,11.8063 7.4882,12.0798 6.8604,11.9088 6.5864,11.4188 L 0,0 Z"
     fill="#ffffff"
     id="path32" />
  <path
     fill-rule="evenodd"
     clip-rule="evenodd"
     d="m 14.017902,8.7868 c -0.3767,0 -0.6849,0.3077 -0.6849,0.68376 0,0.14815 0.057,0.27351 0.1255,0.39886 l 1.4726,2.54128 -0.2626,-3.16806 c -0.1598,-0.2735 -0.3881,-0.45584 -0.6506,-0.45584 z"
     fill="#c72d28"
     id="path34" />
  <path
     fill-rule="evenodd"
     clip-rule="evenodd"
     d="m 24.610802,2.87134 h 1.678 l 0.742,-2.415957 h -1.678 z"
     fill="#f6d900"
     id="path36" />
  <path
     fill-rule="evenodd"
     clip-rule="evenodd"
     d="M 2.1576,0.341492 H 0.5937 L 1.895,2.6093 h 1.5639 z"
     fill="#1e78b4"
     id="path38" />
</svg>
