<?xml version="1.0" encoding="UTF-8" standalone="no"?>
<!-- Created with Inkscape (http://www.inkscape.org/) -->

<svg
   version="1.1"
   id="svg2"
   xml:space="preserve"
   width="3200"
   height="2666.6667"
   viewBox="0 0 3200 2666.6667"
   xmlns:inkscape="http://www.inkscape.org/namespaces/inkscape"
   xmlns:sodipodi="http://sodipodi.sourceforge.net/DTD/sodipodi-0.dtd"
   xmlns="http://www.w3.org/2000/svg"
   xmlns:svg="http://www.w3.org/2000/svg"><defs
     id="defs6" /><sodipodi:namedview
     id="namedview4"
     bordercolor="#666666"
     borderopacity="1.0"
     inkscape:pageshadow="2"
     inkscape:pageopacity="0.0"
     inkscape:pagecheckerboard="0" /><g
     id="g8"
     inkscape:groupmode="layer"
     inkscape:label="ink_ext_XXXXXX"
     transform="matrix(1.3333333,0,0,-1.3333333,0,2666.6667)"><g
       id="g10"
       transform="scale(0.1)"><path
         d="M 24000,20000 H 0 V 0 h 24000 v 20000"
         style="fill:transparent;fill-opacity:1;fill-rule:evenodd;stroke:none"
         id="path12" /><path
         d="m 19194.5,13859.4 c 0,0 924.4,-393.5 1089.1,-878.6 164.8,-485.1 45.8,-411.8 -45.7,-503.4 0,0 -27.5,-155.5 -73.3,-283.7 -45.7,-128.1 137.3,-494.2 201.4,-668.1 64.1,-173.9 -192.2,-604.1 -411.9,-695.6 0,0 -73.2,-27.4 -128.1,119 0,0 -878.6,-311.2 -896.9,164.7 0,0 -18.3,-292.8 329.5,-338.6 347.7,-45.8 466.7,27.5 466.7,27.5 0,0 109.9,-228.9 54.9,-338.7 -54.9,-109.8 -814.5,-155.6 -924.3,0 -109.9,155.6 -366.1,457.6 -677.3,677.3 0,0 192.5,-165.5 257,-323.6 0,0 -884.5,-35.2 -1388.3,357.3 0,0 93.8,-134.7 199.2,-222.6 0,0 -175.7,37.9 -381.7,-442.6 -205.9,-480.5 -640.6,-880.87 -1681.7,-1647.38 -1041.1,-766.51 -1510.2,-640.67 -2047.9,-800.84 -537.7,-160.16 -409.4,-486.24 -1338.5,-732.19 -777.9,-205.92 -1041.1,-491.93 -1418.6,-720.74 -377.5,-228.81 -366.1,-434.74 -491.96,-594.91 -125.84,-160.16 -606.34,-263.13 -800.83,-480.5 -194.49,-217.37 -491.94,-366.09 -617.78,-411.85 -125.85,-45.77 -583.47,-423.3 -594.91,-22.88 0,0 -205.92,-45.77 -137.28,251.69 0,0 -91.53,228.8 114.4,377.53 0,0 -22.88,320.33 331.78,263.13 0,0 -45.77,308.89 388.97,434.74 434.74,125.84 606.35,240.25 606.35,240.25 0,0 377.53,388.97 720.74,388.97 343.22,0 286.02,0 514.82,125.85 228.8,125.84 423.3,228.81 549.2,514.82 125.8,286.01 700.9,1029.64 1099.8,1166.93 398.9,137.28 570.5,217.37 570.5,217.37 0,0 -171.6,34.32 -251.7,423.29 -80.1,388.98 114.4,675.02 114.4,675.02 0,0 -214.3,-274.6 -433.2,-537.73 -218.9,-263.13 -684,-863.65 -1107.3,-1733.13 0,0 -255.7,-703.69 -976.43,-703.69 -720.75,0 -689.72,114.4 -510.75,228.81 0,0 -301.52,-57.2 -175.68,286.01 0,0 -91.52,480.5 297.45,503.38 388.98,22.88 1235.61,228.81 1292.81,777.95 57.2,549.14 57.2,606.35 240.2,1006.8 183.1,400.4 366.1,1029.6 366.1,1029.6 0,0 -194.5,-411.8 -343.2,-697.9 0,0 -226.6,-417.62 -306.7,-886.68 0,0 -381.5,49.77 -473,244.26 0,0 100.6,158.34 -23.8,304.82 0,0 205,300.1 29.3,505.2 0,0 -212.4,95.2 -366.1,7.3 0,0 1436.9,1220.6 1766.4,2094.1 329.4,873.5 21.9,932 -95.2,1012.6 0,0 373.4,-256.3 36.6,-959.2 -336.8,-702.9 -1383.8,-1815.8 -1889.06,-2211.2 0,0 314.86,65.9 417.36,7.3 102.5,-58.6 175.7,-168.4 7.3,-439.3 0,0 124.5,-117.15 -51.3,-314.84 -175.7,-197.7 -521.81,-446.64 -729.48,-351.46 -207.67,95.19 -288.21,212.34 -346.79,366.1 0,0 7.33,-117.15 65.9,-241.62 0,0 -468.6,-226.98 -790.76,-270.91 -322.17,-43.93 -344.13,234.3 -146.44,366.09 197.69,131.8 248.94,541.84 534.5,688.24 285.55,146.5 680.93,783.5 783.44,1098.3 102.51,314.8 270.91,497.9 270.91,497.9 0,0 -155.77,-102.5 -370.76,-600.4 -214.99,-497.9 -302.85,-432 -302.85,-432 0,0 -358.78,519.9 -146.44,1215.4 212.33,695.6 146.44,988.5 732.19,1296 585.78,307.5 680.98,622.4 1112.88,556.5 432,-65.9 512.6,-124.5 681,-117.2 168.4,7.4 688.2,131.8 1054.3,307.5 366.1,175.8 812.8,14.7 1310.7,44 497.8,29.3 746.8,-395.4 1039.7,-417.4 292.8,-21.9 615,-314.8 885.9,-344.1 270.9,-29.3 461.3,-43.9 695.6,-58.6 0,0 -292.9,263.6 -102.5,585.8 190.4,322.1 732.2,168.4 1061.7,-227 0,0 21.9,73.2 -65.9,161.1 0,0 732.2,351.4 1134.9,146.4 0,0 488.7,12.4 636.4,-111.7"
         style="fill:#000000;fill-opacity:1;fill-rule:evenodd;stroke:none"
         id="path14" /><path
         d="m 18752.3,12684.6 c 0,0 445.1,46.9 533,-111.3 87.9,-158.1 76.2,-187.4 99.6,-421.7 23.4,-234.3 -445.2,-667.8 -456.9,-896.2 0,0 -58.6,146.4 240.2,579.9 0,0 179.3,365 0,398.3 -410.1,76.1 -187.5,333.9 -415.9,451"
         style="fill:transparent;fill-opacity:1;fill-rule:evenodd;stroke:none"
         id="path16" /><path
         d="m 11887.6,7088.74 c 31.6,63.36 91,108.24 160.6,121.27 176.1,34.77 532.4,160.08 904.9,607.01 146.4,175.72 1036.8,210.87 1036.8,210.87 0,0 -404.2,-357.31 -515.5,-550.61 -111.3,-193.3 -497.9,-427.6 -638.5,-667.76 -140.5,-240.15 -146.4,-626.75 257.8,-820.05 404.1,-193.3 638.5,-363.16 951.8,-433.45 313.4,-70.29 360.2,-146.44 477.4,-164.01 117.2,-17.58 181.6,-99.58 246,-164.01 64.4,-64.44 251.9,-152.3 216.7,-497.89 -35.1,-345.6 -87.8,-421.74 -240.1,-328.02 0,0 -292.9,-152.3 -410.1,-87.87 -117.1,64.44 -289.9,281.16 -289.9,281.16 0,0 149.4,225.67 155.2,320.78 0,0 -70.3,-227.06 -339.7,-291.49 -269.4,-64.43 -404.2,257.73 -486.2,427.6 -82,169.87 -656,240.16 -902,374.88 -246,134.72 -708.8,357.31 -1107.1,415.88 -398.3,58.58 44.1,822.88 322.2,1001.64 92.8,59.69 159.4,164.42 199.7,244.07"
         style="fill:#000000;fill-opacity:1;fill-rule:evenodd;stroke:none"
         id="path18" /><path
         d="m 8783.89,11827 c 8.74,5.5 19.85,5.6 28.69,0.3 8.84,-5.4 13.89,-15.3 13.04,-25.6 -9.75,-134.7 -20.85,-495 113.88,-716 6.6,-10.2 7.93,-22.9 3.57,-34.3 -4.35,-11.3 -13.88,-19.9 -25.62,-23.1 -244.48,-65.8 -1291.47,-342.7 -1851.6,-432.9 -637.01,-102.5 -1566.89,-329.4 -2511.41,73.3 -944.52,402.7 -1654.75,1054.3 -1903.69,1698.6 -248.95,644.4 -453.96,1047.1 -702.9,1310.7 -248.95,263.6 -483.25,666.3 80.54,798 563.78,131.8 754.15,-951.8 863.98,-1303.2 109.83,-351.5 571.11,-1464.4 1610.82,-1874.5 1039.71,-410 1142.21,-395.3 1859.76,-219.6 687.28,168.3 2026.12,531.4 2420.94,748.3"
         style="fill:#000000;fill-opacity:1;fill-rule:evenodd;stroke:none"
         id="path20" /></g></g></svg>
