<?xml version="1.0" encoding="UTF-8" standalone="no"?>
<svg
   version="1.1"
   x="0px"
   y="0px"
   viewBox="0 0 90 90"
   xml:space="preserve"
   id="svg1614"
   width="90"
   height="90"
   xmlns="http://www.w3.org/2000/svg"
   xmlns:svg="http://www.w3.org/2000/svg"><defs
     id="defs1618" /><path
     d="m 76.855512,66.322045 -2.389936,4.708159 H 60.704951 l -5.564012,-5.900682 -16.539283,-17.539935 -0.77527,-0.822059 -0.387562,-0.411101 -0.09689,-0.102725 c -0.03196,-0.03175 -0.04722,0.0627 -0.07163,0.08782 l -0.133458,0.248994 -1.067668,1.991799 -2.135408,3.983673 -3.519735,6.566318 -7.66494,14.299284 -0.515837,0.96221 c -0.0045,0.02994 -0.08099,0.103008 -0.02635,0.09753 h 0.136409 0.272965 0.545926 2.183495 4.367059 7.621173 13.168197 8.709213 l 0.250432,0.26555 5.464508,5.580688 1.279949,1.357331 0.159949,0.169667 c 0.05212,0.05601 0.146848,0.130435 0.01411,0.106676 h -0.466451 -0.932771 l -31.572558,0.07746 H 18.204101 12.023475 9.4636485 9.1436785 c 0.01828,-0.07659 0.08839,-0.184999 0.130076,-0.275915 l 0.290384,-0.57033 2.1297855,-4.083997 17.390136,-34.15905 6.308687,-12.392136 25.296511,26.536293 4.242887,4.450849 1.060758,1.11273 0.132595,0.139074 c 0.04347,0.03959 0.07004,-0.08292 0.105815,-0.116465 l 0.201914,-0.327024 0.40376,-0.654047 1.614963,-2.616263 5.480006,-8.877656 1.792836,-2.90427 1.030164,-1.668952 0.515119,-0.83444 0.257488,-0.417219 c 0.01317,-0.03391 0.06154,-0.07141 0.04578,-0.10243 L 77.489269,44.198271 77.321186,44.019823 72.420148,38.818035 64.309339,30.209384 47.468729,12.335228 45.190433,9.9170659 44.051212,8.707948 43.481674,8.1034257 43.196833,7.8011652 c -0.02253,-0.017207 -0.05003,-0.068381 -0.06861,-0.057589 l -0.04708,0.092499 -0.09423,0.1850707 -3.014622,5.9216281 -4.882537,9.590658 -0.564068,1.10798 L 22.40277,11.92434 30.108824,6.9482695 12.809887,4.0212644 15.465884,22.510859 19.897508,14.312557 32.860982,27.911362 25.999601,41.389161 7.0289808,78.652815 4.3359909,83.842991 c -0.2888698,0.543393 -0.5706791,1.12833 -0.828249,1.666864 H 4.1380349 9.1804495 18.204088 33.4085 l 38.152554,-0.07746 h 1.837467 0.918732 0.114814 l 0.05449,-0.0013 -0.03945,-0.04175 -0.157573,-0.167075 -0.315147,-0.334222 -2.521172,-2.673706 -7.484668,-7.723006 h 10.49701 l 2.184544,4.064596 h 9.319927 L 82.439381,72.760838 86.17542,66.322037 H 76.855512 Z M 50.50214,71.030204 H 37.333944 31.786992 29.569954 28.46147 28.184331 28.045762 c -0.05175,0.0033 -0.104742,0.0073 -0.05586,-0.04952 l 0.261878,-0.488484 5.212729,-9.724693 2.919099,-5.44567 1.084009,-2.022322 0.54204,-1.011233 c 0.07278,-0.300893 0.221063,-0.03282 0.350059,0.0899 l 0.39361,0.417364 13.869392,14.708513 3.324946,3.526142 h -5.445525 z m -12.327926,-45.926508 4.207615,-8.265 1.530453,-3.006199 0.0478,-0.09394 c 0.0144,-0.04226 0.03167,-0.06443 0.05873,-0.0177 l 0.144616,0.153397 0.28916,0.30694 0.57832,0.613809 1.156641,1.227617 15.602627,16.560232 8.110809,8.608651 3.209772,3.406792 c 0.02749,0.06334 0.179599,0.114094 0.104812,0.187805 l -0.130795,0.21185 -0.261447,0.423627 -0.523036,0.847253 -1.313567,2.127922 -4.259371,6.900252 -0.819898,1.328251 -0.205011,0.331991 -0.10243,0.166067 c -0.01821,0.01698 -0.03168,0.07918 -0.05377,0.0591 l -0.06731,-0.07062 -0.538513,-0.564859 -2.15398,-2.25958 -25.72899,-26.99001 z"
     id="path1608"
     style="fill:#ffffff;fill-opacity:1;stroke:#ffffff;stroke-width:4.379;stroke-dasharray:none;stroke-opacity:1" /></svg>
