<?xml version='1.0' encoding='utf-8'?>
<svg xmlns="http://www.w3.org/2000/svg" version="1.1" width="600px" height="976px" viewBox="0 0 600 976"> <g id="layer1"> <g> <g style="fill:white; fill-opacity:1.0; stroke-linejoin: miter"> <path d="M235.74588,431.83557C235.62543,431.90784,234.58926,432.22113,233.4567,432.58258C229.43243,433.83557,227.45648,435.161,223.40814,439.2575C219.48032,443.20953,216.0344,448.34216,213.79337,453.5954C213.07043,455.28217,212.25113,457.13763,211.98608,457.69183C211.74509,458.2702,211.52823,458.82446,211.52823,458.92078C211.52823,459.04132,211.38364,459.45093,211.19086,459.83655C210.78122,460.65582,208.44379,468.7525,207.72086,471.86102C207.4317,473.0418,207.04614,475.21057,206.82928,476.68054C206.6124,478.12628,206.22684,480.72882,205.96176,482.4638C205.21475,487.50012,204.9256,496.51245,205.23886,505.78992C205.38342,510.1997,205.60031,514.4408,205.7449,515.236C205.86539,516.0312,206.08228,517.64575,206.20273,518.8506C206.78107,524.20013,207.23892,527.50146,207.79315,530.0557C208.13052,531.57385,208.68475,534.07996,209.02213,535.5981C209.35947,537.1163,209.76913,539.1886,209.96191,540.1765C210.78122,544.3695,210.66074,543.9598,212.44391,549.9359C212.97406,551.6469,213.6247,553.9361,213.93796,554.9964C215.31146,559.76764,215.62476,560.7074,217.79349,566.5629C218.32364,567.9847,220.82974,574.44275,221.26349,575.479C221.43216,575.8645,221.81772,576.8043,222.13101,577.5273C223.33585,580.46704,227.48056,588.7083,229.43243,592.03375C235.55316,602.46783,239.81833,608.4439,246.46915,615.8418C251.72232,621.67334,256.05984,625.81805,261.16843,629.86633C266.44574,634.03516,275.5063,640.37274,278.51846,642.03546C279.24133,642.421,280.97635,643.43304,282.37402,644.2765C283.77164,645.1199,287.2416,646.99945,290.0851,648.44525C300.6879,653.819,301.1216,654.13226,306.97723,660.0842C311.5075,664.7109,314.68835,668.2773,316.95346,671.2653C318.01373,672.66296,319.58008,674.6631,320.44754,675.74744C322.9296,678.7837,324.88144,681.5789,325.82126,683.45856C326.73694,685.2899,327.8454,688.7117,328.1587,690.66364C328.27917,691.3142,328.5201,692.6154,328.7129,693.55524C329.17078,695.67584,329.84546,699.1699,330.11057,700.90485C330.2069,701.6278,330.4238,702.88086,330.5684,703.6761C330.9058,705.4834,331.24313,710.1341,331.43585,715.4355C331.62866,720.23083,331.41177,723.2671,330.06238,734.13495C329.6045,737.8218,328.47195,742.52075,327.19476,745.9667C326.78516,747.0992,326.3032,748.44867,326.13452,748.9788C325.74893,750.15955,324.3754,753.7742,323.91757,754.8103C323.7248,755.22003,323.5802,755.62964,323.5802,755.726C323.5802,755.79834,323.3633,756.3284,323.12238,756.8826C322.8573,757.4369,322.32718,758.76227,321.89337,759.8225C321.0741,761.91895,320.51987,763.00336,318.59207,766.40106C317.89328,767.63,317.31494,768.6903,317.31494,768.73846C317.31494,768.8108,316.30283,770.1843,315.07388,771.7989C313.84494,773.43744,311.82077,776.11224,310.56772,777.77496C309.33878,779.4377,307.77243,781.48596,307.1218,782.3534C306.4712,783.2209,305.14587,784.7391,304.18198,785.7752L302.39877,787.6066L300.8806,787.29333C300.03726,787.1006,297.8444,786.6668,295.98892,786.32947C294.13342,785.99207,291.86832,785.55835,290.92853,785.3656C290.0128,785.1728,287.72357,784.78723,285.86807,784.52216C284.01257,784.233,281.5306,783.8475,280.32574,783.6788C279.145,783.48596,277.45816,783.2691,276.59064,783.19684C275.72314,783.10046,274.37375,782.93176,273.57852,782.8113C271.48206,782.49805,262.4215,781.7028,255.98758,781.26904C252.95132,781.0763,249.19217,780.8112,247.67404,780.6666C246.15591,780.54614,242.0835,780.3293,238.63757,780.1847C235.19168,780.0401,230.58911,779.82324,228.39627,779.70276C220.90204,779.269,213.79337,779.1485,197.31088,779.19666C180.05728,779.2208,174.7077,779.3172,169.4786,779.70276C167.7677,779.82324,164.00854,780.0401,161.16507,780.1847C152.97205,780.5702,148.56223,780.9076,144.41751,781.41364C142.29697,781.6787,139.16434,782.04016,137.42935,782.233C135.71841,782.4257,134.03163,782.6426,133.69426,782.7149C133.35689,782.7872,131.6942,783.004,129.95921,783.19684C125.57352,783.6788,121.66977,784.233,120.68179,784.49805C120.22395,784.64264,119.09137,784.95593,118.15158,785.221C117.235886,785.4861,114.51289,786.209,112.12727,786.7873C104.63304,788.64276,103.62096,789.0043,101.163055,790.5224C96.391815,793.51044,90.89766,798.6913,87.98189,802.95654C86.72882,804.812,84.48776,810.04114,83.716675,812.95685C82.94557,815.94495,82.51181,819.77637,82.6564,822.6198C82.776886,824.8609,83.21065,826.3308,84.72876,829.584C86.295074,832.9335,89.81325,836.06604,96.849655,840.35535C98.87381,841.60846,104.753525,844.5483,106.584915,845.223C107.38013,845.53625,108.247635,845.87366,108.512695,845.97003C109.11514,846.2351,111.78992,846.9098,113.091156,847.15076C113.62129,847.2472,114.70567,847.5122,115.500885,847.705C116.29608,847.92194,118.29617,848.33154,119.95886,848.6207C122.87462,849.1268,125.621704,849.7051,128.85074,850.4762C129.69412,850.66895,130.899,850.9341,131.50143,851.0304C132.10385,851.1509,133.69426,851.4642,135.0196,851.72925C138.32092,852.404,139.86313,852.62085,146.82724,853.3197C150.15268,853.65704,153.62265,854.0426,154.53833,854.1631C155.47815,854.28357,157.47821,854.5005,158.99634,854.645C160.51443,854.7896,162.41812,855.0065,163.21335,855.12695C166.0086,855.58484,171.69556,856.13904,175.26193,856.3318C178.70782,856.52466,195.02164,857.2234,206.34732,857.65717C215.67294,858.0187,221.81772,858.09094,240.20389,858.115C257.2647,858.1391,262.4215,858.06683,263.93964,857.8258C265.7228,857.5367,266.8554,857.368,273.45807,856.4523C274.7111,856.2836,276.73526,855.9222,277.91605,855.6571C279.12088,855.392,281.16916,854.95825,282.49448,854.6691C283.81985,854.40405,285.7235,853.9703,286.7115,853.68115C287.6995,853.416,289.2899,852.9823,290.20557,852.74133C294.85635,851.4883,298.10947,850.3798,299.77216,849.4641C300.10956,849.27136,300.5192,849.10266,300.6879,849.10266C300.85654,849.10266,301.31442,848.95807,301.72403,848.76526C304.447,847.58453,305.48322,847.17487,305.676,847.17487C305.91693,847.17487,307.41095,846.3074,313.77267,842.4518C318.11014,839.84937,317.9174,839.96985,320.83316,837.8734C322.15848,836.9336,323.67657,835.84924,324.20673,835.4636C325.508,834.572,329.96597,830.9093,330.5684,830.25867C331.00214,829.77673,331.1226,829.77673,334.83362,830.0177C336.93005,830.1623,341.19522,830.4514,344.3038,830.6442C347.4123,830.8611,351.87027,831.15027,354.18362,831.3189C360.73807,831.7527,381.46164,831.15027,387.79926,830.33093C388.8595,830.1864,390.71506,829.9695,391.8958,829.8249C393.72717,829.63214,399.7755,828.76465,403.0287,828.25854C403.53473,828.1863,404.64325,828.0176,405.51074,827.87305C407.7276,827.53564,409.22168,827.2224,411.294,826.69226C412.28198,826.4272,414.2339,825.96936,415.63153,825.63196C417.0291,825.3187,418.98102,824.8127,419.969,824.5476C420.95703,824.2826,422.42694,823.897,423.2221,823.6802C424.01733,823.4873,424.83667,823.24634,425.02936,823.14996C425.22217,823.0777,427.68005,822.2102,430.4513,821.2463C437.2467,818.90894,437.31897,818.8607,440.09015,817.53534C441.41553,816.9088,443.05408,816.1377,443.70477,815.8485C447.84943,813.99304,459.8017,806.49884,462.74158,803.9204C463.15118,803.55896,463.99457,802.83606,464.6452,802.2818C465.77777,801.2938,469.055,797.9925,471.82617,795.00446C473.53705,793.149,477.1516,788.4259,477.77826,787.2452C478.0432,786.7391,478.74213,785.55835,479.3686,784.64264C480.7422,782.5221,482.81458,778.35333,483.97113,775.36523C484.81458,773.17236,485.1278,772.1362,485.87488,769.4614C486.04352,768.7867,486.42914,767.3891,486.71826,766.3288C488.50146,759.89484,488.59784,759.2201,488.91107,752.4729C489.41718,741.17126,489.41718,740.4243,489.1521,738.08685C488.79065,735.0988,488.646,734.25543,487.46527,727.77325C487.2002,726.30334,486.74237,723.7008,486.4773,721.9899C484.76636,711.74866,483.8507,707.9413,481.05542,699.5796C476.62158,686.302,474.71783,681.2416,471.537,674.51843C467.15137,665.241,465.24762,661.57825,460.2354,652.87915C458.95825,650.66223,457.31964,647.7947,456.59674,646.4934C455.8739,645.19214,454.9823,643.7222,454.64484,643.1921C453.39178,641.28845,449.60852,633.50507,449.05438,631.72186C448.5724,630.2037,448.50012,629.529,448.5965,627.98676L448.71692,626.0831L450.66882,624.2276C453.0304,621.9384,452.95807,621.64923,450.16278,622.3239C447.0061,623.0709,446.21088,623.5288,444.98193,625.2638C444.37952,626.1072,443.4879,627.6494,442.9818,628.6615C442.06616,630.5411,442.06616,630.5411,442.23486,632.758C442.4035,635.19183,442.47577,635.5292,444.25897,640.5414C445.48798,644.03546,445.9217,645.09576,447.80127,649.33685C448.4037,650.73456,449.3435,652.92737,449.8495,654.2045C450.3797,655.5058,451.27124,657.554,451.8496,658.78296C453.2232,661.6747,453.51233,662.34937,454.3075,664.39764C455.0786,666.47,455.58472,667.6989,456.13885,669.0002C456.59674,670.0364,457.5606,672.75934,459.5125,678.4945C460.1872,680.42224,460.81372,682.20544,460.93427,682.4705C461.2716,683.2417,462.04266,685.8924,462.62103,688.25385C462.91022,689.43463,463.3199,691.025,463.53668,691.748C463.7295,692.4709,463.99457,693.507,464.09094,694.0372C464.2115,694.5673,464.78986,697.12164,465.36816,699.7C465.97058,702.27844,466.64526,705.14606,466.83807,706.0858C467.05493,707.00146,467.41644,708.7365,467.68146,709.94135C468.2116,712.2788,468.74176,718.2549,469.85022,733.653C470.1153,737.38806,469.9466,739.846,469.12726,745.2437C468.98273,746.11127,468.71765,748.1113,468.52484,749.7017C468.3321,751.2921,468.01886,753.244,467.82605,754.03925C466.91034,757.6779,463.70544,764.8588,461.5849,768.0156C459.27155,771.4615,454.71722,776.28094,451.31946,778.8834C444.23486,784.2812,432.71637,790.0645,424.30652,792.37787C423.58362,792.5947,422.28235,792.9562,421.4148,793.19714C420.5473,793.4382,419.02917,793.8719,418.04126,794.13696C414.73993,795.0767,407.94452,796.32983,402.37805,797.05273C401.24548,797.19727,399.63098,797.4142,398.7635,797.53467C397.896,797.65515,396.01636,797.8721,394.5465,798.0166C393.10065,798.16113,391.19696,798.40216,390.32944,798.54675C388.83542,798.8118,375.26868,798.71545,363.58157,798.354C358.6657,798.20935,357.55728,798.113,357.55728,797.75146C357.55728,797.63104,358.25607,796.47437,359.0995,795.1731C359.91882,793.89594,361.02722,792.0646,361.5333,791.1489C362.03937,790.2091,363.0755,788.3295,363.84665,786.9319C364.6177,785.53424,365.58167,783.5824,365.99127,782.59436C366.42508,781.60645,367.05157,780.1365,367.41302,779.34125C369.53357,774.7387,372.64215,766.5216,374.16025,761.55756C374.5699,760.25635,375.05185,758.85864,375.26868,758.4249C375.58194,757.7261,375.99164,756.23206,376.61813,753.55725C376.7386,753.0271,376.9314,752.1596,377.07602,751.6295C377.75073,749.0752,378.064,747.6053,378.30496,745.8462C378.44952,744.7859,378.7628,742.71356,379.00375,741.2677C379.67847,737.31573,379.89536,735.55664,380.69058,726.8094C381.00385,723.48395,381.00385,712.9776,380.69058,708.49554C380.57007,706.6401,380.44962,704.2303,380.4255,703.14594C380.40143,702.0615,380.2327,700.39886,380.0641,699.45905C379.87128,698.5192,379.558,696.712,379.3652,695.41077C378.54596,690.3021,377.00366,683.1935,376.18445,680.66327C375.99164,680.0608,375.75064,679.14514,375.6302,678.615C374.88315,675.0968,374.35297,673.4582,372.13608,667.77124C370.06372,662.494,365.2443,654.9756,359.87054,648.6622C358.9308,647.5537,357.62955,645.9633,356.95486,645.1199C354.59332,642.15594,351.94263,639.0715,349.99072,637.0714C347.8461,634.85443,340.47235,627.98676,339.653,627.4325C339.17114,627.11926,336.42398,624.80597,335.67703,624.1071C335.48422,623.9384,334.83362,623.4565,334.23117,623.0227C333.60468,622.6131,332.27927,621.64923,331.29132,620.8781C328.11047,618.4684,323.31512,615.7213,318.88126,613.7935C318.3511,613.55255,317.60413,613.23926,317.19443,613.0465C316.8089,612.8778,315.38715,612.2995,314.06183,611.74524C312.73645,611.1911,311.17014,610.5404,310.56772,610.2995C309.9653,610.0584,308.73636,609.5524,307.79657,609.2151C306.88086,608.8536,305.62778,608.2994,305.02533,607.98615C304.4229,607.6969,302.0373,606.5162,299.724,605.3836C297.41064,604.25104,295.02502,603.0221,294.4226,602.68475C293.82016,602.3233,292.95267,601.81726,292.4948,601.5522C292.037,601.31116,290.7598,600.4678,289.67545,599.72076C288.5911,598.97375,287.338,598.1786,286.90427,597.9617C285.38614,597.14233,281.5547,594.4435,279.5064,592.7085C269.0001,583.88885,259.9154,572.08124,253.38507,558.7315C249.5777,550.92395,248.8789,549.33356,246.90292,543.7912C243.69797,534.85114,243.43289,534.0077,242.25214,528.9714C241.91476,527.50146,241.31235,525.11584,240.9509,523.64594C240.56537,522.1519,240.17978,520.4169,240.0834,519.79034C239.8906,518.4168,238.90265,512.513,238.51712,510.48877C238.3725,509.7177,238.15564,507.62128,238.03513,505.78992C237.91467,503.95856,237.6737,501.25958,237.52911,499.81384C237.16763,496.19916,237.38452,483.5722,237.89056,479.86127C238.3725,476.1504,238.66165,475.09003,239.11954,475.2588C239.31232,475.35516,239.48099,475.4997,239.48099,475.596C239.48099,475.93347,242.30035,480.03003,243.48111,481.4035C244.13177,482.17462,245.69806,483.6446,246.97519,484.72888C248.25235,485.78918,249.84277,487.16278,250.4693,487.7893C251.1199,488.41583,251.91513,489.0905,252.25247,489.28333C252.85492,489.66882,257.24063,492.87378,259.7226,494.72925C261.07208,495.74127,263.12036,497.16302,264.80713,498.24744C265.31317,498.58478,266.49393,499.38,267.4096,500.00653C269.89166,501.69336,272.87973,503.2115,274.6147,503.64526C276.71118,504.17535,278.51846,504.1272,280.92816,503.50067C282.73544,503.01868,283.12097,502.82587,284.13312,501.81384C286.03674,499.91016,286.27774,498.87396,285.844,494.3678C285.67532,492.51233,285.41025,490.6328,285.2898,490.19897C285.16925,489.78937,284.9283,488.41583,284.78372,487.16278C284.63913,485.90973,284.37405,483.62042,284.1813,482.07825C284.01257,480.56018,283.65112,478.89734,283.4343,478.41547C283.0487,477.6203,283.0487,477.35522,283.31378,476.2467C283.79572,474.22253,284.75964,468.80072,284.78372,468.05365C284.78372,467.9331,285.36206,467.9331,286.06085,468.0055C287.62717,468.19818,287.84402,468.0055,288.73563,465.3548C289.33807,463.64386,289.41037,463.01733,289.50677,459.21008C289.55496,456.89673,289.69955,454.5592,289.84412,454.0291C290.39838,451.76398,289.86823,449.76392,288.2296,447.812C287.57895,447.065,286.8079,446.12518,286.49463,445.6914C285.77167,444.75165,285.12106,444.51074,282.71136,444.29382C281.19324,444.1493,280.56674,443.95648,279.81967,443.45044C279.31366,443.089,278.1329,442.5829,277.2172,442.29376C275.3135,441.7154,273.699,441.78778,269.24103,442.607C264.1324,443.54675,262.4697,443.52277,257.9153,442.34192C256.99963,442.101,255.5538,441.81177,254.71042,441.7154C253.19226,441.5467,253.19226,441.5467,252.05972,440.07678C250.39703,437.85986,248.20416,435.64294,246.71014,434.6308C245.98721,434.14886,244.34863,433.3296,243.09555,432.82355C241.07135,432.0042,240.54126,431.8838,238.39658,431.83557C237.07126,431.78735,235.8905,431.78735,235.74588,431.83557 Z M282.13303,468.70435C282.13303,468.873,282.42218,469.33087,282.75955,469.69232C283.36197,470.367,283.38605,470.3911,283.12097,472.3189C282.71136,475.40332,282.51855,476.19855,282.13303,476.2467C281.43423,476.3913,279.72333,472.84906,279.72333,471.30676C279.72333,470.72845,280.30167,469.7163,281.24142,468.68018C281.72336,468.12604,282.13303,468.15002,282.13303,468.70435 Z"/> </g> </g> </g> </svg>