<?xml version="1.0" encoding="UTF-8" standalone="no"?>
<svg
   version="1.1"
   id="svg2"
   xml:space="preserve"
   width="2500"
   height="2500"
   viewBox="0 0 2500 2500"
   xmlns="http://www.w3.org/2000/svg"
   xmlns:svg="http://www.w3.org/2000/svg"><defs
     id="defs6" /><path
     d="m 1007.1951,8.543399 c -0.6188,0.37005 -5.9446,1.98187 -11.76595,3.83938 -20.68326,6.44008 -30.83947,13.25229 -51.64657,34.3072 -20.18791,20.31274 -37.8994,46.69293 -49.41754,73.692981 -3.71551,8.6697 -7.92643,18.20646 -9.28908,21.0549 -1.23862,2.97232 -2.35286,5.82127 -2.35286,6.31623 0,0.61985 -0.74322,2.72509 -1.73426,4.70697 -2.10516,4.21098 -14.1193,45.82534 -17.83481,61.80271 -1.48644,6.06848 -3.46781,17.21554 -4.58264,24.77094 -1.11472,7.43052 -3.09608,20.80719 -4.45862,29.72411 -3.83942,25.88575 -5.32586,72.20656 -3.71551,119.89043 0.7431,22.66469 1.85794,44.4628 2.60068,48.54991 0.61931,4.08713 1.73414,12.38573 2.35346,18.57808 2.97229,27.49552 5.32574,44.46332 8.17424,57.59122 1.73414,7.80315 4.58252,20.68383 6.31667,28.48646 1.73366,7.80314 3.83942,18.45421 4.83034,23.53176 4.21103,21.55089 3.59172,19.44515 12.75688,50.16071 2.72459,8.79407 6.06849,20.55995 7.67873,26.00961 7.05941,24.52324 8.66964,29.35299 19.81618,59.44869 2.72518,7.3077 15.60586,40.50056 17.83493,45.82642 0.86713,1.98137 2.84897,6.81171 4.4592,10.5277 6.1924,15.10974 27.49502,57.46728 37.52732,74.55947 31.45871,53.62845 53.38081,84.34359 87.56411,122.36679 27,29.9729 49.2937,51.27553 75.5505,72.08273 27.1239,21.4265 73.6924,54.0001 89.1743,62.5459 3.7155,1.9814 12.633,7.1834 19.8167,11.5182 7.1834,4.3348 25.0177,13.9955 39.6325,21.4265 54.4956,27.6194 56.7247,29.2297 86.8215,59.8209 23.2839,23.78 39.6329,42.1103 51.275,57.4679 5.4496,7.1838 13.4999,17.4636 17.9587,23.0372 12.7567,15.6053 22.789,29.9719 27.6194,39.6329 4.7064,9.4124 10.4033,26.9997 12.0135,37.0324 0.6195,3.3433 1.8576,10.0313 2.8485,14.8621 2.3535,10.8993 5.8213,28.8575 7.1838,37.7749 0.4934,3.7155 1.6098,10.1562 2.353,14.2433 1.7341,9.289 3.4683,33.1924 4.4587,60.4402 0.991,24.647 -0.1234,40.2522 -7.0594,96.1104 -2.3535,18.9491 -8.1742,43.1007 -14.7387,60.8117 -2.1053,5.8208 -4.5826,12.7568 -5.4492,15.4814 -1.9818,6.069 -9.0418,24.6471 -11.3948,29.9724 -0.9909,2.1062 -1.7342,4.2115 -1.7342,4.7064 0,0.3701 -1.1147,3.0962 -2.3528,5.9446 -1.3627,2.849 -4.0871,9.6612 -6.3168,15.1103 -4.211,10.7754 -7.0594,16.349 -16.9678,33.8123 -3.5916,6.3162 -6.564,11.7659 -6.564,12.0136 0,0.37 -5.2018,7.431 -11.5186,15.7296 -6.3162,8.422 -16.7201,22.1698 -23.1601,30.7156 -6.3168,8.5459 -14.3671,19.0736 -17.7116,23.5317 -3.3439,4.4587 -10.1556,12.2619 -15.1098,17.5872 l -9.1651,9.4129 -7.8031,-1.6098 c -4.3344,-0.9909 -15.6053,-3.2205 -25.1416,-4.9542 -9.5368,-1.7341 -21.1788,-3.9632 -26.0091,-4.9541 -4.707,-0.991 -16.4728,-2.9723 -26.0096,-4.3349 -9.5368,-1.4864 -22.2937,-3.4678 -28.4859,-4.3349 -6.069,-0.9909 -14.7388,-2.1058 -19.1975,-2.4768 -4.4587,-0.4934 -11.3942,-1.3625 -15.4814,-1.9818 -10.7754,-1.6098 -57.3445,-5.6975 -90.4129,-7.9266 -15.6053,-0.9909 -34.9266,-2.3534 -42.7292,-3.0966 -7.8026,-0.6189 -28.7342,-1.7337 -46.4453,-2.4769 -17.711,-0.7432 -41.36665,-1.8575 -52.63757,-2.4768 -38.51812,-2.2297 -75.05499,-2.849 -159.77067,-2.6013 -88.67889,0.1234 -116.17438,0.6193 -143.05057,2.6013 -8.79355,0.6193 -28.11433,1.7336 -42.72915,2.4768 -42.10984,1.9813 -64.77499,3.7155 -86.07761,6.3168 -10.89943,1.362 -27.0001,3.22 -35.91756,4.2109 -8.79356,0.9904 -17.4632,2.1053 -19.19734,2.4769 -1.73415,0.37 -10.28,1.4858 -19.19699,2.4773 -22.54124,2.4768 -42.60584,5.3253 -47.68388,6.6878 -2.35298,0.7433 -8.17424,2.3535 -13.00447,3.7155 -4.70643,1.3626 -18.70194,5.0781 -30.9633,8.0504 -38.51824,9.5368 -43.72008,11.3948 -56.35305,19.1974 -24.52273,15.3581 -52.76145,41.986 -67.74788,63.9085 -6.4401,9.5363 -17.95872,36.413 -21.92193,51.3989 -3.96333,15.358 -6.1924,35.0503 -5.44977,49.6647 0.61943,11.5186 2.84897,19.0735 10.6516,35.7941 8.05046,17.2156 26.13297,33.3163 62.29823,55.3621 10.40378,6.4406 40.62387,21.5505 50.03685,25.0181 4.08713,1.6104 8.54586,3.3445 9.9078,3.8399 3.09679,1.3621 16.84448,4.8299 23.53228,6.0685 2.72459,0.4935 8.29815,1.8576 12.38528,2.8485 4.08712,1.1153 14.36711,3.2206 22.91285,4.7065 14.98643,2.6012 29.10537,5.5735 45.70203,9.5367 4.33483,0.991 10.52723,2.3535 13.6239,2.8484 3.0962,0.6195 11.27045,2.2297 18.08204,3.5922 16.96839,3.4678 24.89481,4.5827 60.68846,8.1743 17.09171,1.7341 34.92652,3.7155 39.63296,4.3348 4.83034,0.6194 15.11033,1.7341 22.91297,2.4769 7.80263,0.7432 17.58711,1.858 21.67423,2.4773 14.36664,2.3535 43.59628,5.202 61.92661,6.1923 17.71102,0.9915 101.55957,4.5827 159.77067,6.8122 47.9311,1.8581 79.51372,2.2297 174.01348,2.353 87.6878,0.1234 114.1924,-0.2467 121.9956,-1.4863 9.1646,-1.486 14.9858,-2.353 48.922,-7.0595 6.4401,-0.8671 16.8439,-2.7245 22.9129,-4.0871 6.1924,-1.3625 16.7201,-3.5917 23.5318,-5.078 6.8122,-1.3621 16.5962,-3.5917 21.6742,-5.0776 5.0781,-1.3631 13.2523,-3.5922 17.9587,-4.8303 23.9039,-6.4406 40.624,-12.1381 49.1699,-16.8445 1.7341,-0.9905 3.8393,-1.8575 4.7064,-1.8575 0.867,0 3.2206,-0.7432 5.3258,-1.7341 13.995,-6.0685 19.3212,-8.1743 20.3117,-8.1743 1.2387,0 8.9174,-4.4587 41.6149,-24.2755 22.2935,-13.3756 21.3026,-12.7563 36.289,-23.5317 6.8117,-4.8303 14.6144,-10.4033 17.3394,-12.3857 6.6878,-4.5826 29.6008,-23.4079 32.697,-26.7518 2.2296,-2.4769 2.8484,-2.4769 21.9225,-1.2387 10.775,0.7432 32.6969,2.2291 48.6738,3.2201 15.9768,1.1148 38.8897,2.6011 50.78,3.4678 33.6878,2.2295 140.2016,-0.8667 172.7752,-5.0776 5.4492,-0.7432 14.9864,-1.858 21.0549,-2.6013 9.413,-0.9903 40.4996,-5.449 57.2202,-8.0503 2.6011,-0.3701 8.2986,-1.2386 12.7573,-1.9814 11.3938,-1.7341 19.073,-3.3443 29.7241,-6.0689 5.0781,-1.3626 15.1102,-3.7155 22.294,-5.4497 7.1829,-1.6103 17.2157,-4.211 22.2932,-5.5736 5.0785,-1.362 12.6335,-3.3439 16.72,-4.4581 4.0877,-0.9915 8.2986,-2.2297 9.2891,-2.7252 0.9909,-0.37 13.6239,-4.8302 27.8671,-9.7845 34.9265,-12.013 35.2981,-12.2613 49.5413,-19.073 6.8122,-3.2205 15.2337,-7.1838 18.5782,-8.6701 21.3026,-9.5363 82.7337,-48.0546 97.844,-61.3073 2.1052,-1.8575 6.4401,-5.573 9.784,-8.422 5.8213,-5.078 22.6652,-22.0458 36.9084,-37.4034 8.7935,-9.5368 27.3711,-33.8123 30.5923,-39.8807 1.3614,-2.6012 4.9541,-8.6697 8.1736,-13.3761 7.06,-10.8994 17.7115,-32.3254 23.6562,-47.6835 4.3349,-11.2709 5.9446,-16.5966 9.7845,-30.3444 0.867,-3.4677 2.849,-10.651 4.3348,-16.1007 9.1652,-33.0686 9.6607,-36.5369 11.2705,-71.2157 2.6011,-58.0872 2.6011,-61.9265 1.2386,-73.9401 -1.8575,-15.3581 -2.6012,-19.6924 -8.6697,-53.0092 -1.3625,-7.5549 -3.7155,-20.9316 -5.078,-29.7251 -8.7936,-52.637 -13.5001,-72.2061 -27.8666,-115.1829 -22.7891,-68.2434 -32.5736,-94.2525 -48.9225,-128.8074 -22.5409,-47.6838 -32.3254,-66.5092 -58.0873,-111.2202 -6.5639,-11.3944 -14.9859,-26.133 -18.7014,-32.8214 -3.7155,-6.6878 -8.2981,-14.2432 -10.0323,-16.9678 -6.4406,-9.784 -25.8852,-49.7885 -28.7336,-58.9537 -2.4774,-7.8031 -2.8485,-11.2709 -2.3535,-19.1975 l 0.6193,-9.7844 10.0322,-9.53683 c 12.1376,-11.7659 11.766,-13.2518 -2.6011,-9.7845 -16.2246,3.8393 -20.3117,6.1929 -26.6279,15.11023 -3.0962,4.335 -7.6794,12.2614 -10.2806,17.4633 -4.7059,9.6607 -4.7059,9.6607 -3.8389,21.055 0.8666,12.5095 1.2382,14.2432 10.4034,40.0045 6.3167,17.9587 8.5458,23.4085 18.2065,45.2065 3.0961,7.1838 7.9264,18.4543 10.5271,25.0183 2.7252,6.6883 7.3077,17.2155 10.28,23.5322 7.06,14.8626 8.5463,18.3304 12.633,28.8581 3.9632,10.651 6.5649,16.9672 9.4128,23.6556 2.3536,5.3257 7.3073,19.3213 17.3395,48.7981 3.4678,9.9084 6.6883,19.0736 7.3077,20.4356 1.7336,3.9638 5.6968,17.5877 8.6697,29.7252 1.4863,6.069 3.5916,14.2427 4.7059,17.9587 0.991,3.7155 2.3535,9.0408 2.8489,11.7659 0.6193,2.7245 3.5922,15.8535 6.5645,29.1052 3.0962,13.2529 6.564,27.9916 7.555,32.8214 1.1148,4.7064 2.9727,13.6239 4.3348,19.8167 2.7246,12.0136 5.4496,42.7292 11.147,121.8713 1.362,19.1975 0.4935,31.8303 -3.716,59.5732 -0.7427,4.4592 -2.1053,14.7386 -3.0962,22.9128 -0.9909,8.1743 -2.6007,18.2066 -3.5916,22.2941 -4.7064,18.7015 -21.1788,55.6094 -32.0781,71.8345 -11.8898,17.711 -35.2977,42.4819 -52.7615,55.8576 -36.4128,27.7432 -95.6149,57.4679 -138.8391,69.3581 -3.7155,1.1143 -10.4037,2.9723 -14.8629,4.2109 -4.4588,1.2388 -12.2614,3.4678 -17.339,4.8304 -16.9678,4.8298 -51.8943,11.2709 -80.5046,14.9864 -5.8213,0.7427 -14.1194,1.8576 -18.5782,2.4769 -4.4587,0.6193 -14.1193,1.7341 -21.6742,2.4768 -7.431,0.7432 -17.2155,1.9819 -21.6742,2.7251 -7.6788,1.362 -77.4085,0.8671 -137.477,-0.991 -25.2665,-0.7431 -30.9633,-1.2386 -30.9633,-3.0967 0,-0.6188 3.5916,-6.5639 7.9264,-13.2523 4.2115,-6.5639 9.9084,-15.9767 12.509,-20.6833 2.6013,-4.8302 7.9266,-14.4909 11.8904,-21.6742 3.9627,-7.1833 8.9173,-17.2155 11.0226,-22.2935 2.2297,-5.0776 5.4497,-12.633 7.3077,-16.7201 10.8987,-23.6561 26.8762,-65.8899 34.6788,-91.4035 2.1052,-6.6878 4.5826,-13.8716 5.6969,-16.1013 1.6103,-3.5916 3.716,-11.2703 6.936,-25.0181 0.6188,-2.7251 1.6098,-7.1838 2.3536,-9.9084 3.4677,-13.1284 5.0774,-20.6833 6.3162,-29.7246 0.7432,-5.4496 2.3529,-16.1008 3.5916,-23.5322 3.4678,-20.3117 4.5826,-29.3531 8.6697,-74.3118 1.6103,-17.0917 1.6103,-71.0918 0,-94.1281 -0.6193,-9.5368 -1.2381,-21.9225 -1.3625,-27.4955 -0.1234,-5.574 -0.991,-14.1194 -1.8576,-18.9497 -0.9909,-4.8309 -2.6011,-14.1193 -3.5921,-20.8071 -4.2105,-26.2574 -12.1375,-62.7938 -16.348,-75.7983 -0.9909,-3.0966 -2.2295,-7.8026 -2.8489,-10.5277 -3.8394,-18.0826 -6.5645,-26.5045 -17.9588,-55.7337 -10.651,-27.124 -35.422,-65.7665 -63.0413,-98.2157 -4.8303,-5.6974 -11.5181,-13.8717 -14.9859,-18.2065 -12.1375,-15.2336 -25.7614,-31.0871 -35.7937,-41.3671 -11.0232,-11.3943 -48.922,-46.6925 -53.1335,-49.5413 -2.4763,-1.6099 -16.5962,-13.4995 -20.435,-17.09173 -0.991,-0.8672 -4.3349,-3.3439 -7.4317,-5.5736 -3.22,-2.1052 -10.0321,-7.0589 -15.1097,-11.0226 -16.349,-12.3853 -40.9955,-26.5046 -63.7846,-36.413 -2.7251,-1.2381 -6.564,-2.8485 -8.6697,-3.8394 -1.9819,-0.867 -9.289,-3.8393 -16.1007,-6.6878 -6.8122,-2.8484 -14.8626,-6.1929 -17.9587,-7.431 -3.0968,-1.2392 -9.413,-3.8399 -14.2433,-5.5736 -4.7065,-1.8579 -11.147,-4.7064 -14.2432,-6.3162 -3.0967,-1.4869 -15.3581,-7.5554 -27.2478,-13.3767 -11.8898,-5.8208 -24.151,-12.1374 -27.2478,-13.8711 -3.0961,-1.85794 -7.5548,-4.45874 -9.9083,-5.82127 -2.353,-1.23862 -8.9175,-5.57344 -14.4906,-9.41286 -5.5734,-3.83943 -12.014,-7.92655 -14.2432,-9.04126 -7.8026,-4.21103 -27.4955,-18.08263 -38.0232,-27.00009 -53.9995,-45.33043 -100.6925,-106.0183 -134.2564,-174.63272 -19.569,-40.12842 -23.1607,-48.30265 -33.3163,-76.7891 -16.4728,-45.94922 -17.8353,-50.28459 -23.9038,-76.16981 -1.7341,-7.5549 -4.8303,-19.81624 -6.6884,-27.37114 -1.9814,-7.67928 -3.9632,-16.59671 -4.4587,-19.81676 -0.991,-7.05993 -6.0685,-37.40388 -8.0499,-47.80773 -0.7437,-3.96325 -1.8579,-14.73818 -2.4772,-24.15058 -0.6195,-9.41291 -1.8581,-23.28505 -2.6008,-30.71555 -1.858,-18.5786 -0.7433,-83.478 1.8575,-102.55104 2.4768,-19.07303 3.9633,-24.52269 6.3167,-23.65562 0.9909,0.49341 1.8576,1.23816 1.8576,1.73311 0,1.73467 14.4909,22.7901 20.5599,29.849 3.3439,3.96377 11.3943,11.51867 17.9582,17.09167 6.5645,5.44966 14.7387,12.5096 17.9587,15.72964 3.3439,3.22056 7.4316,6.68783 9.1652,7.67928 3.0967,1.98136 25.638,18.4537 38.3943,27.99047 6.9361,5.20141 17.4638,12.50908 26.1335,18.08261 2.6007,1.73363 8.6697,5.82074 13.3756,9.0413 12.7574,8.66971 28.1154,16.47233 37.0323,18.70194 10.7755,2.72458 20.0645,2.47685 32.4498,-0.74319 9.2889,-2.47736 11.2703,-3.4683 16.4727,-8.66971 9.784,-9.78451 11.0227,-15.1103 8.7931,-38.27096 -0.8666,-9.53627 -2.2291,-19.19691 -2.8484,-21.42652 -0.6193,-2.10523 -1.858,-9.16466 -2.6007,-15.60526 -0.7432,-6.44009 -2.1057,-18.20648 -3.0968,-26.13297 -0.867,-7.80263 -2.7244,-16.34898 -3.8393,-18.82582 -1.9819,-4.08711 -1.9819,-5.44914 -0.6193,-11.14704 2.4773,-10.40334 7.4315,-38.26995 7.5554,-42.10984 0,-0.61985 2.9723,-0.61985 6.5639,-0.24671 8.0504,0.99043 9.1652,0 13.7478,-13.62388 3.0961,-8.79409 3.4677,-12.01413 3.9632,-31.58212 0.2468,-11.89025 0.991,-23.90438 1.7342,-26.62896 2.8484,-11.64201 0.1233,-21.92198 -8.2986,-31.954231 -3.344,-3.83938 -7.3072,-8.6697 -8.9169,-10.89932 -3.7161,-4.83032 -7.06,-6.06848 -19.4452,-7.18328 -7.8026,-0.7427 -11.0227,-1.73364 -14.8626,-4.33486 -2.6007,-1.8575 -8.6697,-4.45871 -13.3761,-5.94513 -9.7846,-2.9723 -18.0826,-2.60019 -40.995,1.61028 -26.2573,4.82981 -34.8032,4.70697 -58.2115,-1.36254 -4.706,-1.23816 -12.1376,-2.72457 -16.472,-3.22004 -7.8031,-0.86707 -7.8031,-0.86707 -13.6239,-8.42197 -8.5457,-11.39479 -19.8166,-22.78906 -27.4955,-27.99098 -3.7155,-2.47735 -12.1374,-6.68782 -18.578,-9.28904 -10.4039,-4.21098 -13.1284,-4.82981 -24.1516,-5.07754 -6.8117,-0.24671 -12.8807,-0.24671 -13.6239,0 z m 238.4178,189.495771 c 0,0.86656 1.4859,3.22005 3.22,5.07807 3.0962,3.46725 3.22,3.59113 1.8575,13.4995 -2.1052,15.8535 -3.0961,19.94062 -5.0775,20.18785 -3.5917,0.7432 -12.3852,-17.46276 -12.3852,-25.38977 0,-2.97231 2.9722,-8.17475 7.8026,-13.50002 2.4769,-2.84793 4.5826,-2.72458 4.5826,0.12335 z"
     id="path181"
     style="fill:#ffffff;fill-opacity:1;stroke-width:5.13974;stroke-linejoin:miter" /></svg>
