<svg class="svg-icon" style="width: 1em; height: 1em;vertical-align: middle;fill: currentColor;overflow: hidden;" viewBox="0 0 1024 1024" version="1.1" xmlns="http://www.w3.org/2000/svg"><path d="M884.906667 256H136.533333C108.8 256 85.333333 280.32 85.333333 310.186667v446.293333c0 29.866667 23.466667 54.186667 52.48 54.186667H341.333333c23.04 0 42.666667-13.653333 49.493334-33.706667l59.306666-148.053333c10.24-24.746667 34.133333-42.24 61.866667-42.24 27.733333 0 51.626667 17.493333 61.866667 42.24l59.306666 148.053333c8.106667 20.053333 26.453333 33.706667 47.36 33.706667h204.373334c30.293333 0 53.76-24.32 53.76-54.186667V310.186667c0-29.866667-23.466667-54.186667-53.76-54.186667M308.053333 622.08C256 622.08 213.333333 578.133333 213.333333 524.373333 213.333333 469.333333 256 426.666667 308.053333 426.666667c52.053333 0 94.293333 42.666667 94.293334 97.706666 0 53.76-42.24 97.706667-94.293334 97.706667m407.893334 0c-52.053333 0-94.293333-43.946667-94.293334-97.706667S663.893333 426.666667 715.946667 426.666667 810.666667 470.613333 810.666667 524.373333s-42.666667 97.706667-94.72 97.706667z" fill="" /></svg>