<?xml version="1.0" encoding="UTF-8" standalone="no" ?>
<!DOCTYPE svg PUBLIC "-//W3C//DTD SVG 1.1//EN" "http://www.w3.org/Graphics/SVG/1.1/DTD/svg11.dtd">
<svg xmlns="http://www.w3.org/2000/svg" xmlns:xlink="http://www.w3.org/1999/xlink" version="1.1" width="640" height="640" viewBox="0 0 640 640" xml:space="preserve">
<desc>Created with Fabric.js 4.6.0</desc>
<defs>
</defs>
<g transform="matrix(1 0 0 1 332.26 320)" id="v-Uqpjit9UWKePnqAG5M6"  >
<g style="" vector-effect="non-scaling-stroke"   >
		<g transform="matrix(1 0 0 1 24.64 -132.22)" id="7my_-DARgI7LQKtlFmuKZ"  >
<path style="stroke: none; stroke-width: 1; stroke-dasharray: none; stroke-linecap: butt; stroke-dashoffset: 0; stroke-linejoin: miter; stroke-miterlimit: 4; fill: rgb(255,255,255); fill-rule: nonzero; opacity: 1;" vector-effect="non-scaling-stroke"  transform=" translate(-171.9, -123.76)" d="M 34.48368 43.45496 C 46.06428 9.822470000000003 82.71673 -8.054139999999997 116.34923 3.52646 L 310.31873 70.31551 C 336.22762 79.23666 349.9989 107.47198 341.07776 133.38086 L 301.77871 247.51358000000002 L 0 143.60284000000001 z M 225.46471 124.29906 L 284.21216 105.87566 L 96.81515999999999 41.3497 L 166.71724999999998 142.72244999999998 z" stroke-linecap="round" />
</g>
		<g transform="matrix(1 0 0 1 -15.92 9.35)" id="PyNkruEzSTEcHRgavGIMN"  >
<path style="stroke: rgb(96,24,118); stroke-width: 0; stroke-dasharray: none; stroke-linecap: butt; stroke-dashoffset: 0; stroke-linejoin: miter; stroke-miterlimit: 4; fill: rgb(255,255,255); fill-rule: nonzero; opacity: 1;" vector-effect="non-scaling-stroke"  transform=" translate(-165.13, -69.64)" d="M 15.37977 0 L 330.2629 66.93048 L 314.88313 139.28660000000002 L 0 72.35612000000002 z M 151.02889 69.6433 C 151.02889 77.42791 157.34684 83.74586 165.13145 83.74586 C 172.91606 83.74586 179.23401 77.42791 179.23401 69.6433 C 179.23401 61.858689999999996 172.91606000000002 55.54074 165.13145 55.54074 C 157.34684000000001 55.54074 151.02889 61.858689999999996 151.02889 69.6433 z" stroke-linecap="round" />
</g>
		<g transform="matrix(1 0 0 1 -32.1 118.4)" id="mOeJxPl2I0bYZPNSWacox"  >
<path style="stroke: rgb(96,24,118); stroke-width: 0; stroke-dasharray: none; stroke-linecap: butt; stroke-dashoffset: 0; stroke-linejoin: miter; stroke-miterlimit: 4; fill: rgb(255,255,255); fill-rule: nonzero; opacity: 1;" vector-effect="non-scaling-stroke"  transform=" translate(-164.94, -49.07)" d="M 5.27481 0 L 329.87609 22.69833 L 324.60128 98.13168 L 0 75.43335 z M 150.83548 50.59514 C 150.83548 58.37975 157.15343 64.6977 164.93804 64.6977 C 172.72265 64.6977 179.0406 58.37975 179.0406 50.59514 C 179.0406 42.81053 172.72265000000002 36.492580000000004 164.93804 36.492580000000004 C 157.15343000000001 36.492580000000004 150.83548 42.81053 150.83548 50.59514 z" stroke-linecap="round" />
</g>
		<g transform="matrix(1 0 0 1 -33.54 219.35)" id="zt5rvVJ-UYHea1969anAo"  >
<path style="stroke: rgb(96,24,118); stroke-width: 0; stroke-dasharray: none; stroke-linecap: butt; stroke-dashoffset: 0; stroke-linejoin: miter; stroke-miterlimit: 4; fill: rgb(255,255,255); fill-rule: nonzero; opacity: 1;" vector-effect="non-scaling-stroke"  transform=" translate(-162.93, -37.13)" d="M 0 0 L 325.86589 0 L 325.86589 74.26654 L 0 74.26654 z M 148.83039 37.13327 C 148.83039 44.917880000000004 155.14834 51.23583000000001 162.93295 51.23583000000001 C 170.71756 51.23583000000001 177.03551000000002 44.91788000000001 177.03551000000002 37.13327000000001 C 177.03551000000002 29.34866000000001 170.71756000000002 23.03071000000001 162.93295 23.03071000000001 C 155.14834000000002 23.03071000000001 148.83039 29.34866000000001 148.83039 37.13327000000001 z" stroke-linecap="round" />
</g>
</g>
</g>
</svg>