<?xml version="1.0" encoding="UTF-8" standalone="no"?>
<svg
   viewBox="0 0 512 512"
   version="1.1"
   id="svg2284"
   sodipodi:docname="gauge-high-solid.svg"
   width="512"
   height="512"
   fill="white"
   xmlns:inkscape="http://www.inkscape.org/namespaces/inkscape"
   xmlns:sodipodi="http://sodipodi.sourceforge.net/DTD/sodipodi-0.dtd"
   xmlns="http://www.w3.org/2000/svg"
   xmlns:svg="http://www.w3.org/2000/svg">
  <defs
     id="defs2288" />
  <!--!Font Awesome Free 6.7.2 by @fontawesome - https://fontawesome.com License - https://fontawesome.com/license/free Copyright 2025 Fonticons, Inc.-->
  <path
     d="M 0,256 C 0,114.61501 114.61511,1.1113408e-4 256,1.1113408e-4 397.38489,1.1113408e-4 512,114.61501 512,256 512,397.38499 397.38489,511.99989 256,511.99989 114.61511,511.99989 0,397.38499 0,256 Z m 256,160 c 35.3,0 64,-28.7 64,-64 0,-17.4 -6.9,-33.1 -18.1,-44.6 L 366,161.7 c 5.3,-12.1 -0.2,-26.3 -12.3,-31.6 -12.1,-5.3 -26.3,0.2 -31.6,12.3 L 257.9,288 H 256 c -35.3,0 -64,28.7 -64,64 0,35.3 28.7,64 64,64 z M 67.583252,296.72444 c 17.673124,0 27.581519,-58.85807 90.336438,-101.46932 45.19297,-30.6865 129.69078,35.32191 141.6909,-82.24404 C 300.94249,99.962413 168.17815,87.103118 107.81834,175.78399 86.703006,206.80673 49.910128,296.72444 67.583252,296.72444 Z M 448,256 c 0,-17.67312 -14.32689,-31.99999 -32,-31.99999 -17.67311,0 -32,14.32687 -32,31.99999 0,17.67312 14.32689,31.99999 32,31.99999 17.67311,0 32,-14.32687 32,-31.99999 z"
     id="path2282"
     sodipodi:nodetypes="sssssssccsccsssssssssssss" />
</svg>
