<?xml version="1.0" standalone="no"?>
<!DOCTYPE svg PUBLIC "-//W3C//DTD SVG 20010904//EN"
 "http://www.w3.org/TR/2001/REC-SVG-20010904/DTD/svg10.dtd">
<svg version="1.0" xmlns="http://www.w3.org/2000/svg"
 width="409.000000pt" height="348.000000pt" viewBox="0 0 409.000000 348.000000"
 preserveAspectRatio="xMidYMid meet">

<g transform="translate(0.000000,348.000000) scale(0.100000,-0.100000)"
fill="#000000" stroke="none">
<path d="M475 3354 c-82 -70 -219 -185 -304 -258 l-154 -131 1579 -7 c868 -4
1783 -7 2033 -5 l454 2 -178 150 c-98 83 -238 201 -311 263 l-134 112 -1417 0
-1418 0 -150 -126z"/>
<path d="M3148 2893 c-9 -10 -76 -112 -150 -228 -74 -115 -218 -337 -319 -492
-575 -883 -550 -844 -528 -827 17 14 526 423 774 623 99 80 272 220 386 311
628 505 759 612 759 621 0 5 -183 9 -453 9 -420 0 -455 -1 -469 -17z"/>
<path d="M52 2872 c32 -28 319 -261 688 -557 96 -77 267 -215 380 -306 485
-391 816 -656 830 -664 13 -8 13 -5 -1 15 -195 303 -499 777 -731 1145 -77
121 -165 259 -196 307 l-57 88 -473 0 -473 0 33 -28z"/>
<path d="M22 2808 c14 -18 85 -118 158 -223 73 -104 203 -289 289 -410 86
-121 207 -292 270 -380 62 -88 183 -259 268 -380 86 -121 231 -326 323 -455
91 -129 278 -392 414 -585 137 -192 255 -357 262 -365 12 -12 14 78 14 600 l0
615 -126 100 c-70 55 -165 132 -213 171 -100 82 -434 350 -1444 1161 -125 101
-230 183 -234 183 -3 0 6 -15 19 -32z"/>
<path d="M3920 2707 c-200 -160 -888 -714 -1194 -961 -121 -98 -319 -257 -438
-353 l-218 -174 1 -582 c1 -320 4 -593 8 -607 6 -22 30 8 206 255 309 435 446
629 645 910 101 143 204 289 230 325 26 36 118 166 205 290 87 124 233 331
325 460 161 228 332 471 379 538 12 17 21 32 19 32 -2 0 -77 -60 -168 -133z"/>
</g>
</svg>
