<?xml version="1.0" encoding="utf-8"?>
<!-- Generator: Adobe Illustrator 21.1.0, SVG Export Plug-In . SVG Version: 6.00 Build 0)  -->
<svg version="1.0" id="Layer_1" xmlns="http://www.w3.org/2000/svg" xmlns:xlink="http://www.w3.org/1999/xlink" x="0px" y="0px"
	 viewBox="0 0 60 60" style="enable-background:new 0 0 60 60;" xml:space="preserve">
<style type="text/css">
	.st0{enable-background:new    ;}
	.st1{fill:#000;}
</style>
<g class="st0">
	<path class="st1" d="M57.946,11.095c-0.137-0.805-0.467-1.519-1.022-2.12c-0.608-0.658-1.332-1.155-2.169-1.475
		c-0.516-0.198-1.037-0.381-1.563-0.551c-1.034-0.335-2.086-0.603-3.151-0.817c-0.905-0.182-1.814-0.349-2.724-0.504
		c-0.671-0.114-1.347-0.203-2.022-0.293c-0.529-0.07-1.059-0.127-1.59-0.183c-0.635-0.067-1.269-0.133-1.905-0.189
		c-0.555-0.049-1.111-0.088-1.667-0.126c-0.68-0.047-1.359-0.093-2.039-0.132c-0.614-0.035-1.228-0.061-1.842-0.086
		c-0.576-0.023-1.152-0.041-1.729-0.058c-0.41-0.012-0.819-0.023-1.229-0.028c-0.82-0.012-1.639-0.025-2.459-0.028
		c-0.796-0.002-1.592,0.007-2.388,0.015c-0.643,0.006-1.287,0.015-1.93,0.029c-0.743,0.016-1.486,0.038-2.229,0.059
		c-0.395,0.011-0.791,0.022-1.186,0.04c-0.485,0.022-0.97,0.053-1.456,0.079c-0.385,0.021-0.771,0.037-1.156,0.064
		c-0.584,0.041-1.168,0.087-1.752,0.135c-0.574,0.047-1.149,0.093-1.722,0.152c-0.644,0.066-1.288,0.138-1.93,0.222
		c-0.812,0.106-1.623,0.221-2.432,0.343c-1.022,0.154-2.036,0.35-3.045,0.576C8.219,6.531,6.848,6.91,5.512,7.412
		C4.919,7.636,4.363,7.923,3.861,8.31C3.416,8.653,3.017,9.039,2.714,9.517c-0.395,0.625-0.621,1.304-0.653,2.045
		C2.059,11.623,2.064,11.688,2,11.727c0,2.508,0,5.016,0,7.524c0.064,0.04,0.056,0.105,0.059,0.166
		c0.021,0.39,0.036,0.78,0.064,1.169c0.043,0.594,0.138,1.181,0.26,1.764c0.305,1.454,0.805,2.838,1.503,4.15
		c0.859,1.615,1.964,3.039,3.312,4.274c1.022,0.936,2.147,1.723,3.375,2.364c0.915,0.478,1.868,0.861,2.859,1.149
		c0.631,0.184,1.27,0.333,1.92,0.429c0.31,0.046,0.621,0.088,0.934,0.117c0.384,0.035,0.768,0.072,1.153,0.077
		c0.906,0.011,1.812,0.003,2.717,0.005c0.224,0.001,0.446-0.018,0.668-0.053c0.751-0.119,1.419-0.421,2.014-0.894
		c0.94-0.747,1.883-1.491,2.823-2.239c0.365-0.291,0.728-0.585,1.085-0.886c0.337-0.285,0.695-0.536,1.091-0.729
		c0.92-0.449,1.892-0.599,2.903-0.457c0.836,0.118,1.597,0.433,2.269,0.947c0.208,0.159,0.397,0.342,0.602,0.505
		c1.186,0.943,2.377,1.881,3.562,2.826c0.82,0.654,1.748,0.99,2.8,0.98c0.362-0.004,0.725,0.003,1.087-0.001
		c0.676-0.009,1.354,0.028,2.029-0.026c0.322-0.026,0.646-0.041,0.966-0.085c0.48-0.066,0.961-0.136,1.435-0.233
		c1.426-0.294,2.781-0.792,4.069-1.472c1.674-0.885,3.14-2.034,4.405-3.441c1.189-1.324,2.129-2.806,2.818-4.447
		c0.385-0.916,0.68-1.86,0.883-2.832c0.114-0.545,0.209-1.094,0.253-1.65c0.032-0.408,0.076-0.817,0.077-1.225
		c0.007-2.57,0.003-5.139,0.005-7.709C58,11.558,57.985,11.326,57.946,11.095z M54.611,19.066c-0.006,2.117-0.502,4.114-1.519,5.974
		c-0.768,1.405-1.773,2.617-3.008,3.636c-1.277,1.054-2.708,1.823-4.291,2.306c-0.689,0.21-1.392,0.358-2.108,0.442
		c-0.498,0.059-0.996,0.086-1.497,0.084c-0.81-0.004-1.621-0.003-2.432,0.001c-0.111,0-0.198-0.028-0.286-0.098
		c-1.227-0.977-2.456-1.95-3.684-2.927c-0.224-0.178-0.433-0.374-0.66-0.548c-1.073-0.826-2.279-1.356-3.611-1.601
		c-0.655-0.12-1.316-0.156-1.979-0.117c-1.195,0.071-2.328,0.379-3.391,0.936c-0.607,0.318-1.161,0.711-1.68,1.158
		c-0.31,0.268-0.633,0.52-0.954,0.775c-0.959,0.762-1.921,1.521-2.878,2.285c-0.118,0.094-0.235,0.138-0.388,0.137
		c-0.906-0.006-1.812-0.002-2.718-0.004c-0.516-0.001-1.027-0.058-1.536-0.134c-0.999-0.149-1.963-0.422-2.896-0.81
		c-1.135-0.472-2.174-1.103-3.123-1.883c-0.99-0.815-1.834-1.762-2.531-2.839c-0.845-1.306-1.43-2.72-1.739-4.246
		c-0.117-0.575-0.203-1.153-0.226-1.74c-0.012-0.305-0.026-0.609-0.026-0.914c-0.003-1.12-0.001-2.241-0.001-3.361
		c0-1.34,0.002-2.679-0.003-4.019c0-0.127,0.033-0.214,0.14-0.287c0.169-0.115,0.326-0.249,0.494-0.366
		c0.257-0.179,0.55-0.282,0.841-0.388c1.115-0.408,2.256-0.727,3.415-0.98c0.632-0.138,1.265-0.269,1.901-0.386
		c0.561-0.103,1.126-0.185,1.689-0.273c0.371-0.058,0.743-0.113,1.115-0.162c0.349-0.046,0.699-0.083,1.048-0.124
		c0.298-0.035,0.595-0.071,0.893-0.103c0.232-0.025,0.464-0.045,0.696-0.067c0.265-0.025,0.53-0.051,0.795-0.076
		c0.128-0.012,0.256-0.025,0.384-0.034c0.308-0.022,0.617-0.041,0.926-0.064c0.337-0.025,0.673-0.053,1.01-0.078
		c0.152-0.011,0.304-0.021,0.456-0.029c0.262-0.013,0.523-0.022,0.785-0.035c0.257-0.013,0.513-0.03,0.769-0.046
		c0.033-0.002,0.067-0.005,0.1-0.006c0.2-0.009,0.399-0.02,0.599-0.026c0.424-0.013,0.848-0.022,1.271-0.036
		c0.495-0.016,0.99-0.035,1.485-0.051c0.181-0.006,0.362-0.004,0.543-0.005c1.683-0.009,3.365-0.021,5.048-0.024
		c0.681-0.001,1.363,0.018,2.044,0.03c0.333,0.006,0.667,0.016,1,0.027c0.547,0.018,1.095,0.037,1.642,0.058
		c0.4,0.016,0.799,0.033,1.198,0.056c0.404,0.023,0.807,0.053,1.211,0.078c0.204,0.013,0.409,0.018,0.613,0.033
		c0.342,0.024,0.683,0.053,1.024,0.079c0.138,0.011,0.275,0.021,0.413,0.033c0.483,0.04,0.967,0.074,1.45,0.121
		c0.492,0.048,0.983,0.107,1.474,0.163c0.425,0.049,0.851,0.092,1.274,0.152c0.612,0.086,1.224,0.176,1.833,0.279
		c0.684,0.116,1.368,0.238,2.048,0.377c1.316,0.268,2.615,0.605,3.881,1.058c0.322,0.115,0.655,0.212,0.943,0.406
		c0.221,0.149,0.433,0.312,0.644,0.475c0.036,0.028,0.054,0.086,0.066,0.133c0.011,0.045,0.004,0.095,0.004,0.142
		C54.613,14.098,54.618,16.582,54.611,19.066z"/>
	<path class="st1" d="M44.117,44.281c-0.658,0.031-1.151,0.327-1.488,0.889c-0.098,0.163-0.192,0.33-0.298,0.488
		c-0.728,1.09-1.61,2.041-2.615,2.881c-1.349,1.128-2.858,1.975-4.519,2.549c-1.08,0.373-2.189,0.624-3.327,0.731
		c-0.521,0.049-1.045,0.08-1.568,0.101c-0.323,0.013-0.648-0.01-0.972-0.015c-0.515-0.007-1.027-0.059-1.537-0.126
		c-0.737-0.096-1.465-0.245-2.181-0.448c-1.343-0.38-2.606-0.939-3.785-1.688c-1.204-0.765-2.27-1.688-3.195-2.774
		c-0.446-0.524-0.861-1.07-1.193-1.674c-0.608-1.106-2.138-1.231-2.922-0.271c-0.267,0.327-0.397,0.707-0.399,1.123
		c-0.002,0.292,0.071,0.574,0.214,0.836c0.268,0.491,0.579,0.953,0.914,1.4c1.355,1.81,2.997,3.309,4.922,4.497
		c1.473,0.909,3.049,1.582,4.722,2.026c0.893,0.237,1.797,0.415,2.717,0.511c0.374,0.039,0.747,0.081,1.122,0.106
		c0.356,0.024,0.714,0.026,1.071,0.04c0.05,0.002,0.099,0.022,0.148,0.033c0.048,0,0.095,0,0.143,0
		c0.045-0.012,0.089-0.031,0.134-0.033c0.433-0.022,0.866-0.033,1.298-0.064c0.427-0.03,0.855-0.062,1.278-0.123
		c0.517-0.075,1.032-0.168,1.544-0.276c1.522-0.321,2.974-0.844,4.358-1.555c1.205-0.619,2.324-1.366,3.356-2.243
		c1.224-1.04,2.299-2.215,3.193-3.551c0.172-0.257,0.329-0.525,0.48-0.795c0.181-0.322,0.238-0.676,0.188-1.038
		C45.781,44.823,44.94,44.242,44.117,44.281z"/>
	<path class="st1" d="M32.721,11.825c-1.796-0.004-3.593-0.002-5.389,0c-0.095,0-0.19,0.012-0.283,0.028
		c-0.515,0.093-1.08,0.525-1.169,1.281c-0.064,0.54,0.194,1.133,0.756,1.445c0.249,0.139,0.517,0.178,0.799,0.177
		c0.867-0.004,1.735-0.001,2.602-0.001c0.853,0,1.706,0,2.559-0.001c0.119,0,0.24,0.006,0.357-0.014
		c0.734-0.123,1.355-0.788,1.209-1.707C34.048,12.329,33.439,11.827,32.721,11.825z"/>
</g>
</svg>
