<?xml version="1.0" encoding="UTF-8" standalone="no"?>
<!-- Created with Inkscape (http://www.inkscape.org/) -->

<svg
   class="body-part-svg"
   width="22.484194mm"
   height="87.84832mm"
   viewBox="0 0 22.484194 87.84832"
   version="1.1"
   id="svg138"
   xml:space="preserve"
   inkscape:export-filename="hand.svg"
   inkscape:export-xdpi="96"
   inkscape:export-ydpi="96"
   xmlns:inkscape="http://www.inkscape.org/namespaces/inkscape"
   xmlns:sodipodi="http://sodipodi.sourceforge.net/DTD/sodipodi-0.dtd"
   xmlns="http://www.w3.org/2000/svg"
   style="color: var(--body-color)"
   xmlns:svg="http://www.w3.org/2000/svg"><sodipodi:namedview
     id="namedview140"
     pagecolor="#ffffff"
     bordercolor="#000000"
     borderopacity="0.25"
     inkscape:showpageshadow="2"
     inkscape:pageopacity="0.0"
     inkscape:pagecheckerboard="0"
     inkscape:deskcolor="#d1d1d1"
     inkscape:document-units="mm"
     showgrid="false" /><defs
     id="defs135" /><g
     inkscape:label="Layer 1"
     inkscape:groupmode="layer"
     id="layer1"
     transform="translate(-91.857307,-67.323461)"><g
       id="g160"
       transform="matrix(0.26458333,0,0,0.26458333,99.670477,7.1204055)"><path fill="currentColor"
         d="m 2.5686509,558.52745 c 0,0 6.3939101,-18.35156 8.1739091,-26.05156 3.58,-15.5 10.28,-22.9 14.13,-38.3 3.060005,-12.3 14.290005,-35.8 16.190005,-48.3 2.1,-12.9 2,-30.5 2,-43.6 0,-6.3 -1.9,-14.7 -1,-20.9 1.4,-8.5 6.125,-18.325 8.1,-26.8 2.258029,-7.4734 2.260217,-16.43191 2.385201,-22.6215 l 0.09421,-8.07337 c 0,-0.5 0.595687,-5.45546 0.498271,-5.16129 l -0.08438,-4.35615 c -0.5,-2.8 0.58401,-9.58376 0.18401,-12.48376 -0.1,-0.5 1.331439,-12.46643 1.131439,-12.96643 -2.6,-8.9 -6.076614,-48.81035 -6.076614,-48.81035 L 13.30256,228.57589 c -12.58999912,19.8 -10.7799991,53.9 -12.89999912,77.4 -1.81999998,20.1 2.28000002,47.5 -0.99,67.5 -2.52999998,15.4 -12.80999988,34.3 -15.87999988,49.6 -4.764,23.7 -10.554,59.8 -11.834,83.9 -0.81,15.5 1.23,51.2 1.23,51.2 z"
         id="path3196" /></g></g></svg>
