<?xml version="1.0" encoding="UTF-8" standalone="no"?>
<!-- Created with Inkscape (http://www.inkscape.org/) -->

<svg
   width="16.119507mm"
   height="31.923546mm"
   viewBox="0 0 16.119507 31.923546"
   version="1.1"
   id="svg138"
   xml:space="preserve"
   style="color: var(--body-color)"
   xmlns:inkscape="http://www.inkscape.org/namespaces/inkscape"
   xmlns:sodipodi="http://sodipodi.sourceforge.net/DTD/sodipodi-0.dtd"
   xmlns="http://www.w3.org/2000/svg"
   xmlns:svg="http://www.w3.org/2000/svg"><sodipodi:namedview
     id="namedview140"
     pagecolor="#ffffff"
     bordercolor="#000000"
     borderopacity="0.25"
     inkscape:showpageshadow="2"
     inkscape:pageopacity="0.0"
     inkscape:pagecheckerboard="0"
     inkscape:deskcolor="#d1d1d1"
     inkscape:document-units="mm"
     showgrid="false" /><defs
     id="defs135" /><g
     inkscape:label="Layer 1"
     inkscape:groupmode="layer"
     id="layer1"
     transform="translate(-64.700662,-27.429893)"><g
       id="g160"
       transform="matrix(0.26458333,0,0,0.26458333,99.670477,7.1204055)"><path
         style="opacity:1;fill:#000000;fill-opacity:1;fill-rule:evenodd;stroke:#000000;stroke-width:2.0736;stroke-linecap:round;stroke-linejoin:round;stroke-opacity:1"
         d="m 2.5686509,558.52745 c 0,0 6.3939101,-18.35156 8.1739091,-26.05156 3.58,-15.5 10.28,-22.9 14.13,-38.3 3.060005,-12.3 14.290005,-35.8 16.190005,-48.3 2.1,-12.9 2,-30.5 2,-43.6 0,-6.3 -1.9,-14.7 -1,-20.9 1.4,-8.5 6.125,-18.325 8.1,-26.8 2.258029,-7.4734 2.260217,-16.43191 2.385201,-22.6215 l 0.09421,-8.07337 c 0,-0.5 0.595687,-5.45546 0.498271,-5.16129 l -0.08438,-4.35615 c -0.5,-2.8 0.58401,-9.58376 0.18401,-12.48376 -0.1,-0.5 1.331439,-12.46643 1.131439,-12.96643 -2.6,-8.9 -6.076614,-48.81035 -6.076614,-48.81035 L 13.30256,228.57589 c -12.58999912,19.8 -10.7799991,53.9 -12.89999912,77.4 -1.81999998,20.1 2.28000002,47.5 -0.99,67.5 -2.52999998,15.4 -12.80999988,34.3 -15.87999988,49.6 -4.764,23.7 -10.554,59.8 -11.834,83.9 -0.81,15.5 1.23,51.2 1.23,51.2 z"
         id="path3196" /><g
         transform="translate(-129.6,32.13)"
         id="g5771" /><path
         style="fill:#000000;fill-opacity:1;fill-rule:evenodd;stroke:#000000;stroke-width:2.0736;stroke-linecap:round;stroke-linejoin:round;stroke-opacity:1"
         d="m -128.99443,77.79707 c 0,0 -1.09875,17.44375 -1.28875,21.24375 -0.28,5.8 -0.27,13.5 -0.39,19.3 -0.12,5.5 -0.6297,12.9 -0.4,18.4 0.22,5.1 1.27,11.8 1.78,16.8 0.44,4.3 2.07,8.4 1.38,17.8 -0.21,2.9 1.62,6.8 4.04,7.4 5.424,1.3 0.68,5.2 3.894,8.5 1.81,1.8 4.63,0.1 6.5,1.8 1.44,1.4 0.43,6.3 2.18,6.9 1.49,0.5 4.68,0.7 6.08,-0.1 1.44,-0.9 0.52,-6 2.09,-6.4 1.59,-0.3 4.87,-0.7 6,-2.8 3.65,-6.8 3.03,-9.6 2.9,-13.5 -0.1,-2.7 0.28,-12.4 0.59,-17.7 0.26,-4.4 1.18,-9.9 1.64,-14.3 0.49,-4.5 4.82,-11.3 3.39,-15.3 -0.12,-0.3 -0.31,-0.7 -0.52,-1 -3.04,-2.9 -6.59,-5.1 -6.59,-5.1 0,0 4.75,2.2 6.59,5.1 1.61,1.5 3.09,3.2 3.82,5 1.2,2.8 1.2,8.2 1.54,11.4 0.35,3.3 1.09,8.1 3.7,8.8 1.92,0.6 5.47,-0.2 6.46,-2.3 1.56,-3.4 1.03,-9.9 1.3,-13.7 0.23,-3.4 -1.22,-10.9 -2.17,-14.2 -1.32,-4.5 -3.48,-11.6 -5.62,-15.6 -2.96,-5.6 -5.37,-9.4 -9.1,-14.2 -3.02,-3.8 -10.13,-11.9 -10.13,-11.9 z"
         id="path343" /></g></g></svg>
